<svg width="50" height="49" viewBox="0 0 50 49" fill="none" xmlns="http://www.w3.org/2000/svg">
<path fill-rule="evenodd" clip-rule="evenodd" d="M0.00226342 46.8677C1.15309 31.5893 2.30382 16.311 3.45455 1.03268C3.49346 0.517143 4.17498 0 5.06576 0H44.9342C45.825 0 46.5065 0.517143 46.5455 1.03268C47.6962 16.311 48.8469 31.5893 49.9977 46.8677C50.0452 47.4977 49.3421 48.1328 48.3006 48.1328H1.69936C0.657871 48.1328 -0.0451893 47.4977 0.00226342 46.8677Z" fill="white"/>
<path fill-rule="evenodd" clip-rule="evenodd" d="M0.917526 45.9593C2.0266 31.2155 3.13558 16.4718 4.24456 1.72799C4.28206 1.23049 4.93885 0.731445 5.79731 0.731445H44.2193C45.0778 0.731445 45.7346 1.23049 45.7721 1.72799C46.8811 16.4718 47.99 31.2155 49.0991 45.9593C49.1448 46.5672 48.4673 47.1801 47.4636 47.1801H2.55305C1.54935 47.1801 0.871794 46.5672 0.917526 45.9593Z" fill="#020011"/>
<path fill-rule="evenodd" clip-rule="evenodd" d="M0.917525 45.9592C1.56808 37.3075 2.21873 28.6557 2.86928 20.004L2.88812 19.9932L3.0506 19.8851L3.21536 19.7751L3.37665 19.6669L3.55111 19.5506L3.71085 19.4445L3.87744 19.3332L4.03736 19.226L4.36607 19.0062L4.53924 18.8906L4.69569 18.7859L4.86895 18.67L5.02778 18.5643L5.19336 18.4534L5.35246 18.3467L5.52381 18.2319L5.68464 18.1247L5.8473 18.0157L6.00686 17.9084L6.17912 17.793L6.33693 17.6877L6.50161 17.5773L6.6597 17.471L6.83013 17.3565L6.98996 17.2499L7.15162 17.1413L7.31025 17.0344L7.4816 16.9194L7.63841 16.8146L7.80226 16.7046L7.95926 16.5987L8.12338 16.488L8.29153 16.3755L8.44843 16.2704L8.60606 16.1639L8.77631 16.0494L8.9323 15.9449L9.09487 15.8356L9.25131 15.7299L9.41425 15.6197L9.58139 15.5077L9.73747 15.4031L9.89419 15.2968L10.0634 15.183L10.2186 15.0789L10.5381 14.8624L10.704 14.7511L10.86 14.6464L11.0189 14.5392L11.1747 14.4335L11.3429 14.3199L11.4972 14.2164L11.6579 14.1077L11.811 14.0039L11.9797 13.8898L12.1348 13.7856L12.2929 13.6787L12.4477 13.5736L12.615 13.4605L12.7683 13.3571L12.9282 13.2491L13.0802 13.1456L13.248 13.032L13.3969 12.9312L13.563 12.8189L13.7132 12.7171L13.8782 12.6052L14.0328 12.5009L14.1908 12.3939L14.3419 12.2909L14.5087 12.1777L14.6619 12.0744L14.8184 11.9683L14.9711 11.864L15.1352 11.7527L15.289 11.6488L15.446 11.5423L15.5962 11.4396L15.7622 11.3269L15.9145 11.224L16.0699 11.1183L16.2217 11.0145L16.3848 10.9035L16.5378 10.8001L16.6938 10.694L16.8433 10.5917L17.0082 10.4796L17.1583 10.3778L17.3097 10.2742L17.4689 10.1654L17.6234 10.0602L17.782 9.95268L17.9343 9.84917C18.0949 9.72098 18.2896 9.63412 18.4874 9.58292L18.9585 9.52376C19.0518 9.52376 19.6619 9.52376 20.0539 9.92653C23.3787 13.3562 26.2142 16.237 26.7521 16.7835C28.4068 15.9737 30.0614 15.1639 31.7161 14.3541C31.9528 14.2377 32.2244 14.1847 32.4867 14.1847C32.5526 14.1847 32.9274 14.1847 33.2896 14.3654C33.3734 14.4073 34.0825 14.7616 33.8222 15.4084C33.352 16.5668 32.8818 17.7252 32.4116 18.8836C36.0653 19.1853 39.719 19.4868 43.3728 19.7885C44.0241 19.8416 44.5557 20.2628 44.6427 20.6463C44.7597 21.162 44.2824 21.4587 44.2177 21.4989L43.9143 21.7216L43.763 21.8328L43.6161 21.9414L43.4618 22.0556L43.3047 22.1708L43.163 22.275L43.006 22.391L42.8536 22.503L42.6981 22.6168L42.5537 22.723L42.3985 22.8375L42.2448 22.9505L42.0874 23.0655L41.9449 23.1702L41.787 23.2866L41.6336 23.399L41.4771 23.5133L41.3319 23.6199L41.1757 23.7349L41.0209 23.8484L40.8628 23.9638L40.7194 24.0689L40.5606 24.1859L40.4062 24.2986L40.2488 24.4135L40.1027 24.5206L39.9403 24.6391L39.7935 24.7467L39.4864 24.9712L39.3266 25.0887L39.1725 25.2012L39.0118 25.318L38.8658 25.4246L38.7078 25.5406L38.551 25.655L38.3908 25.7713L38.2457 25.8772L38.0848 25.9951L37.93 26.1081L37.7683 26.2254L37.6214 26.3325L37.4623 26.4489L37.3048 26.5637L36.9922 26.7901L36.6798 27.0186L36.5172 27.1364L36.3693 27.2439L36.2093 27.3608L36.0454 27.4793L35.8938 27.5892L35.7406 27.701L35.5789 27.8189L35.4219 27.9328L35.2585 28.0511L35.1096 28.159L34.9486 28.2763L34.7838 28.3953L34.6311 28.5056L34.4771 28.6179L34.3143 28.7363L34.1566 28.8506L33.9918 28.9694L33.8421 29.0777L33.6802 29.1955L33.5197 29.3118L33.3568 29.429L33.2057 29.5385L33.0418 29.6573L32.8831 29.7722L32.7176 29.8913L32.567 30.0001L32.4039 30.1184L32.3091 30.1916L33.3372 35.289C33.4502 35.8475 32.9285 36.1688 32.8577 36.2125L32.53 36.4498L32.3666 36.5684L32.0413 36.8058L31.8715 36.9286L31.7184 37.0397L31.5489 37.1633L31.3842 37.2827L31.2162 37.404L31.0604 37.5171L30.8927 37.6393L30.7266 37.7597L30.5567 37.8822L30.4027 37.9937L30.2321 38.1179L30.0665 38.2376L29.8974 38.3595L29.7405 38.4731L29.5719 38.5957L29.4046 38.7166L29.2339 38.8395L29.079 38.9516L28.9072 39.0763L28.7406 39.1965L28.5705 39.3188L28.4127 39.4328L28.2373 39.5593L28.0788 39.6739L27.7469 39.9132L27.5742 40.0383L27.4078 40.1582L27.2344 40.2827L27.0765 40.3963L26.9058 40.5199L26.7365 40.6417L26.5634 40.7657L26.4066 40.8785L26.2329 41.0043L26.0656 41.1246L25.891 41.2497L25.7323 41.3636L25.5603 41.4877L25.3901 41.61L25.2159 41.7345L25.0526 41.8513L24.8874 41.9704L24.715 42.0948L24.5394 42.2203L24.3795 42.3349L24.2067 42.4593L24.0297 42.5856L23.8658 42.7027L23.7003 42.8217L23.5255 42.9473L23.356 43.0688L23.1794 43.1948L23.0186 43.3098L22.8447 43.4348L22.6666 43.5615L22.5017 43.6791L22.1593 43.9249L21.9889 44.0466L21.8109 44.1731L21.6493 44.2886L21.4743 44.414L21.3007 44.5378L21.1249 44.6628L20.9616 44.7794L20.7846 44.906L20.613 45.0283L20.4342 45.1553L20.2715 45.2712L20.0953 45.3971L19.9209 45.5215L19.7439 45.6468L19.5796 45.764L19.4014 45.8911L19.229 46.0139L19.049 46.1413L18.8851 46.2577L18.5366 46.5053L18.3544 46.6348L18.1891 46.7524L18.0099 46.88L17.8363 47.0032L17.6552 47.1312L17.5923 47.18H2.55256C1.54915 47.18 0.871808 46.5671 0.917525 45.9592Z" fill="#EB0038"/>
<path d="M29.5991 24.1667C30.3332 27.9174 31.0673 31.6681 31.8015 35.4188C29.1425 32.5376 26.2152 29.3332 23.6725 26.5225C21.5512 27.5376 19.43 28.5528 17.3087 29.5679C17.9985 28.0168 18.6882 26.4657 19.378 24.9145C15.1 24.5535 10.8222 24.1924 6.54425 23.8314C11.1509 22.6749 15.7575 21.5184 20.3641 20.362C19.8576 17.0583 19.3511 13.7546 18.8446 10.4509C21.1773 12.8685 23.8938 15.6602 26.3126 18.1243C28.3474 17.1271 30.3823 16.1299 32.4172 15.1327C31.7899 16.6584 31.1627 18.1841 30.5354 19.7099C34.7492 20.058 38.9629 20.4063 43.1766 20.7546C38.6508 21.8919 34.1249 23.0293 29.5991 24.1667Z" fill="white"/>
</svg>
