<svg width="50" height="80" viewBox="0 0 50 80" fill="none" xmlns="http://www.w3.org/2000/svg">
<path d="M44.4648 10H4.42985C3.35306 10 2.46955 10.8525 2.43112 11.9286L0.073978 77.9286C0.0335553 79.0605 0.940147 80 2.0727 80H47.8934C49.0387 80 49.9501 79.04 49.8907 77.8962L46.4621 11.8962C46.4069 10.8334 45.5291 10 44.4648 10Z" fill="white"/>
<rect x="3" y="44" width="38" height="2" fill="black"/>
<path d="M17.8 40H12V20.12L5.4 24.08V18.12L12.76 13.84H17.8V40ZM43.4753 26.8C43.4753 30.9067 42.662 34.1867 41.0353 36.64C39.4353 39.0933 37.062 40.32 33.9153 40.32C30.7686 40.32 28.3953 39.1067 26.7953 36.68C25.1953 34.2267 24.3953 30.9333 24.3953 26.8C24.3953 22.64 25.1953 19.3467 26.7953 16.92C28.3953 14.4933 30.7686 13.28 33.9153 13.28C37.062 13.28 39.4353 14.4933 41.0353 16.92C42.662 19.3467 43.4753 22.64 43.4753 26.8ZM33.9153 18.48C31.542 18.48 30.3553 21.2533 30.3553 26.8C30.3553 32.3467 31.542 35.12 33.9153 35.12C36.3153 35.12 37.5153 32.3467 37.5153 26.8C37.5153 21.2533 36.3153 18.48 33.9153 18.48Z" fill="black"/>
<path d="M36 64.8505C36.0003 66.3202 35.4767 67.7433 34.5205 68.8715C33.5644 69.9997 32.2364 70.7613 30.7683 71.0235C29.3002 71.2857 27.7852 71.0318 26.4878 70.306C25.1904 69.5803 24.1929 68.4288 23.6695 67.0526C23.6646 71.1798 23.9334 73.9259 27.9095 76H17.0841C21.0602 73.9265 21.3291 71.181 21.3242 67.0526C20.8867 68.2 20.1174 69.1961 19.1114 69.9174C18.1053 70.6388 16.9067 71.0539 15.6637 71.1113C14.4207 71.1688 13.1878 70.8661 12.1176 70.2408C11.0474 69.6154 10.1867 68.6947 9.64208 67.5926C9.09744 66.4906 8.89269 65.2554 9.05315 64.0399C9.21361 62.8245 9.73225 61.682 10.5449 60.7537C11.3576 59.8255 12.4287 59.1523 13.6257 58.8173C14.8227 58.4823 16.0931 58.5003 17.2798 58.869C16.6119 57.929 16.2185 56.8266 16.1424 55.6817C16.0664 54.5368 16.3106 53.3933 16.8486 52.3756C17.3865 51.3579 18.1975 50.5051 19.1934 49.9099C20.1892 49.3147 21.3317 49 22.4965 49C23.6613 49 24.8038 49.3147 25.7997 49.9099C26.7955 50.5051 27.6065 51.3579 28.1445 52.3756C28.6824 53.3933 28.9266 54.5368 28.8506 55.6817C28.7746 56.8266 28.3811 57.929 27.7132 58.869C28.6673 58.5726 29.6789 58.5017 30.666 58.6621C31.6531 58.8224 32.588 59.2095 33.3949 59.792C34.2019 60.3745 34.8582 61.136 35.3108 62.0148C35.7634 62.8936 35.9995 63.8651 36 64.8505Z" fill="black"/>
</svg>
