<svg width="50" height="80" viewBox="0 0 50 80" fill="none" xmlns="http://www.w3.org/2000/svg">
<path d="M44.4648 10H4.42985C3.35306 10 2.46955 10.8525 2.43112 11.9286L0.073978 77.9286C0.0335553 79.0605 0.940147 80 2.0727 80H47.8934C49.0387 80 49.9501 79.04 49.8907 77.8962L46.4621 11.8962C46.4069 10.8334 45.5291 10 44.4648 10Z" fill="white"/>
<rect x="6" y="44" width="38" height="2" fill="black"/>
<path d="M33.8 31.24C33.8 33.96 32.8933 36.1467 31.08 37.8C29.2933 39.4267 26.7467 40.24 23.44 40.24C20.5333 40.24 18.1867 39.7733 16.4 38.84V33.32C18.2133 34.44 20.24 35 22.48 35C26.0533 35 27.84 33.72 27.84 31.16C27.84 30.2 27.4667 29.44 26.72 28.88C26 28.32 24.9067 28.04 23.44 28.04C21.3867 28.04 19.4133 28.48 17.52 29.36V13.76H32.2V18.72H23.2V23.16C23.7867 23.08 24.3733 23.04 24.96 23.04C27.8133 23.04 30 23.7733 31.52 25.24C33.04 26.7067 33.8 28.7067 33.8 31.24Z" fill="black"/>
<path d="M39 64.8505C39.0003 66.3202 38.4767 67.7433 37.5205 68.8715C36.5644 69.9997 35.2364 70.7613 33.7683 71.0235C32.3002 71.2857 30.7852 71.0318 29.4878 70.306C28.1904 69.5803 27.1929 68.4288 26.6695 67.0526C26.6646 71.1798 26.9334 73.9259 30.9095 76H20.0841C24.0602 73.9265 24.3291 71.181 24.3242 67.0526C23.8867 68.2 23.1174 69.1961 22.1114 69.9174C21.1053 70.6388 19.9067 71.0539 18.6637 71.1113C17.4207 71.1688 16.1878 70.8661 15.1176 70.2408C14.0474 69.6154 13.1867 68.6947 12.6421 67.5926C12.0974 66.4906 11.8927 65.2554 12.0531 64.0399C12.2136 62.8245 12.7322 61.682 13.5449 60.7537C14.3576 59.8255 15.4287 59.1523 16.6257 58.8173C17.8227 58.4823 19.0931 58.5003 20.2798 58.869C19.6119 57.929 19.2185 56.8266 19.1424 55.6817C19.0664 54.5368 19.3106 53.3933 19.8486 52.3756C20.3865 51.3579 21.1975 50.5051 22.1934 49.9099C23.1892 49.3147 24.3317 49 25.4965 49C26.6613 49 27.8038 49.3147 28.7997 49.9099C29.7955 50.5051 30.6065 51.3579 31.1445 52.3756C31.6824 53.3933 31.9266 54.5368 31.8506 55.6817C31.7746 56.8266 31.3811 57.929 30.7132 58.869C31.6673 58.5726 32.6789 58.5017 33.666 58.6621C34.6531 58.8224 35.588 59.2095 36.3949 59.792C37.2019 60.3745 37.8582 61.136 38.3108 62.0148C38.7634 62.8936 38.9995 63.8651 39 64.8505Z" fill="black"/>
</svg>
