<svg width="50" height="79" viewBox="0 0 50 79" fill="none" xmlns="http://www.w3.org/2000/svg">
<path d="M44.4648 9H4.42985C3.35306 9 2.46955 9.85251 2.43112 10.9286L0.073978 76.9286C0.0335553 78.0605 0.940147 79 2.0727 79H47.8934C49.0387 79 49.9501 78.04 49.8907 76.8962L46.4621 10.8962C46.4069 9.83343 45.5291 9 44.4648 9Z" fill="white"/>
<rect x="6" y="43" width="38" height="2" fill="black"/>
<path d="M36.752 23.457C36.752 26.0717 36.2217 28.3657 35.161 30.339C34.1003 32.3123 32.608 33.817 30.684 34.853L38.306 39.108L31.831 41.587L24.468 36.259C20.8173 36.2343 17.9067 35.0503 15.736 32.707C13.5653 30.3637 12.48 27.2803 12.48 23.457C12.48 19.6337 13.5777 16.5503 15.773 14.207C17.993 11.839 20.9407 10.655 24.616 10.655C28.316 10.655 31.2637 11.8267 33.459 14.17C35.6543 16.5133 36.752 19.609 36.752 23.457ZM20.213 17.907C19.1277 19.2637 18.585 21.1137 18.585 23.457C18.585 25.8003 19.1277 27.6627 20.213 29.044C21.2983 30.4007 22.766 31.079 24.616 31.079C26.466 31.079 27.9337 30.4007 29.019 29.044C30.1043 27.6627 30.647 25.8003 30.647 23.457C30.647 21.1137 30.1043 19.2637 29.019 17.907C27.9337 16.5257 26.466 15.835 24.616 15.835C22.766 15.835 21.2983 16.5257 20.213 17.907Z" fill="black"/>
<path d="M39 63.8505C39.0003 65.3202 38.4767 66.7433 37.5205 67.8715C36.5644 68.9997 35.2364 69.7613 33.7683 70.0235C32.3002 70.2857 30.7852 70.0318 29.4878 69.306C28.1904 68.5803 27.1929 67.4288 26.6695 66.0526C26.6646 70.1798 26.9334 72.9259 30.9095 75H20.0841C24.0602 72.9265 24.3291 70.181 24.3242 66.0526C23.8867 67.2 23.1174 68.1961 22.1114 68.9174C21.1053 69.6388 19.9067 70.0539 18.6637 70.1113C17.4207 70.1688 16.1878 69.8661 15.1176 69.2408C14.0474 68.6154 13.1867 67.6947 12.6421 66.5926C12.0974 65.4906 11.8927 64.2554 12.0531 63.0399C12.2136 61.8245 12.7322 60.682 13.5449 59.7537C14.3576 58.8255 15.4287 58.1523 16.6257 57.8173C17.8227 57.4823 19.0931 57.5003 20.2798 57.869C19.6119 56.929 19.2185 55.8266 19.1424 54.6817C19.0664 53.5368 19.3106 52.3933 19.8486 51.3756C20.3865 50.3579 21.1975 49.5051 22.1934 48.9099C23.1892 48.3147 24.3317 48 25.4965 48C26.6613 48 27.8038 48.3147 28.7997 48.9099C29.7955 49.5051 30.6065 50.3579 31.1445 51.3756C31.6824 52.3933 31.9266 53.5368 31.8506 54.6817C31.7746 55.8266 31.3811 56.929 30.7132 57.869C31.6673 57.5726 32.6789 57.5017 33.666 57.6621C34.6531 57.8224 35.588 58.2095 36.3949 58.792C37.2019 59.3745 37.8582 60.136 38.3108 61.0148C38.7634 61.8936 38.9995 62.8651 39 63.8505Z" fill="black"/>
</svg>
