<svg width="50" height="80" viewBox="0 0 50 80" fill="none" xmlns="http://www.w3.org/2000/svg">
<path d="M44.4648 10H4.42985C3.35306 10 2.46955 10.8525 2.43112 11.9286L0.073978 77.9286C0.0335553 79.0605 0.940147 80 2.0727 80H47.8934C49.0387 80 49.9501 79.04 49.8907 77.8962L46.4621 11.8962C46.4069 10.8334 45.5291 10 44.4648 10Z" fill="white"/>
<path d="M11 62.2893C17.1631 56.4721 19.4822 53.103 22.5804 47C26.4004 53.0259 29.2563 56.3691 35 62.2893C29.0537 67.7308 26.5211 71.0024 22.5804 77C18.8904 71.0236 16.4112 67.7869 11 62.2893Z" fill="#FC0200"/>
<rect x="4" y="44" width="38" height="2" fill="#FE0100"/>
<path d="M37.8 40H30.08L21.04 26.6L29.76 13.04H37.08L28.24 26.52L37.8 40ZM20.76 40H14.6V13.04H20.76V40Z" fill="#FC0200"/>
</svg>
