<svg width="50" height="80" viewBox="0 0 50 80" fill="none" xmlns="http://www.w3.org/2000/svg">
<path d="M44.4648 10H4.42985C3.35306 10 2.46955 10.8525 2.43112 11.9286L0.073978 77.9286C0.0335553 79.0605 0.940147 80 2.0727 80H47.8934C49.0387 80 49.9501 79.04 49.8907 77.8962L46.4621 11.8962C46.4069 10.8334 45.5291 10 44.4648 10Z" fill="white"/>
<path d="M13 62.2893C19.1631 56.4721 21.4822 53.103 24.5804 47C28.4004 53.0259 31.2563 56.3691 37 62.2893C31.0537 67.7308 28.5211 71.0024 24.5804 77C20.8904 71.0236 18.4112 67.7869 13 62.2893Z" fill="#FC0200"/>
<rect x="6" y="44" width="38" height="2" fill="#FE0100"/>
<path d="M33.64 40H16.2V35.48C19.08 33.5067 21.6133 31.32 23.8 28.92C26.0133 26.52 27.12 24.4 27.12 22.56C27.12 21.44 26.7867 20.56 26.12 19.92C25.4533 19.2533 24.44 18.92 23.08 18.92C20.8133 18.92 18.6667 19.76 16.64 21.44V15.8C17.52 15.16 18.6667 14.6133 20.08 14.16C21.4933 13.7067 22.88 13.48 24.24 13.48C26.96 13.48 29.12 14.2 30.72 15.64C32.3467 17.0533 33.16 19.04 33.16 21.6C33.16 26.2133 30.2267 30.6933 24.36 35.04H33.64V40Z" fill="#FC0200"/>
<path d="M44.4648 10H4.42985C3.35306 10 2.46955 10.8525 2.43112 11.9286L0.073978 77.9286C0.0335553 79.0605 0.940147 80 2.0727 80H47.8934C49.0387 80 49.9501 79.04 49.8907 77.8962L46.4621 11.8962C46.4069 10.8334 45.5291 10 44.4648 10Z" fill="white"/>
<rect x="6" y="44" width="38" height="2" fill="#FE0100"/>
<path d="M23.24 40H17.08L27.28 18.76H15.8V13.8H33.4V18.76L23.24 40Z" fill="#FC0200"/>
<path d="M34.2226 64.0848C42.2226 53.0804 33.2226 43.5801 25.2226 52.5848L24.7226 52.0801C16.707 43.5801 8.20669 55.0803 16.2226 64.0848L25.2226 75.0801L34.2226 64.0848Z" fill="#FD1A1E"/>
</svg>
