<svg width="50" height="80" viewBox="0 0 50 80" fill="none" xmlns="http://www.w3.org/2000/svg">
<path d="M44.4648 10H4.42985C3.35306 10 2.46955 10.8525 2.43112 11.9286L0.073978 77.9286C0.0335553 79.0605 0.940147 80 2.0727 80H47.8934C49.0387 80 49.9501 79.04 49.8907 77.8962L46.4621 11.8962C46.4069 10.8334 45.5291 10 44.4648 10Z" fill="white"/>
<path d="M13 62.2893C19.1631 56.4721 21.4822 53.103 24.5804 47C28.4004 53.0259 31.2563 56.3691 37 62.2893C31.0537 67.7308 28.5211 71.0024 24.5804 77C20.8904 71.0236 18.4112 67.7869 13 62.2893Z" fill="#FC0200"/>
<rect x="6" y="44" width="38" height="2" fill="#FE0100"/>
<path d="M33.8 31.24C33.8 33.96 32.8933 36.1467 31.08 37.8C29.2933 39.4267 26.7467 40.24 23.44 40.24C20.5333 40.24 18.1867 39.7733 16.4 38.84V33.32C18.2133 34.44 20.24 35 22.48 35C26.0533 35 27.84 33.72 27.84 31.16C27.84 30.2 27.4667 29.44 26.72 28.88C26 28.32 24.9067 28.04 23.44 28.04C21.3867 28.04 19.4133 28.48 17.52 29.36V13.76H32.2V18.72H23.2V23.16C23.7867 23.08 24.3733 23.04 24.96 23.04C27.8133 23.04 30 23.7733 31.52 25.24C33.04 26.7067 33.8 28.7067 33.8 31.24Z" fill="#FC0200"/>
</svg>
