<svg width="50" height="80" viewBox="0 0 50 80" fill="none" xmlns="http://www.w3.org/2000/svg">
<path d="M44.4648 10H4.42985C3.35306 10 2.46955 10.8525 2.43112 11.9286L0.073978 77.9286C0.0335553 79.0605 0.940147 80 2.0727 80H47.8934C49.0387 80 49.9501 79.04 49.8907 77.8962L46.4621 11.8962C46.4069 10.8334 45.5291 10 44.4648 10Z" fill="white"/>
<path d="M13 62.2893C19.1631 56.4721 21.4822 53.103 24.5804 47C28.4004 53.0259 31.2563 56.3691 37 62.2893C31.0537 67.7308 28.5211 71.0024 24.5804 77C20.8904 71.0236 18.4112 67.7869 13 62.2893Z" fill="#FC0200"/>
<rect x="6" y="44" width="38" height="2" fill="#FE0100"/>
<path d="M33.64 40H16.2V35.48C19.08 33.5067 21.6133 31.32 23.8 28.92C26.0133 26.52 27.12 24.4 27.12 22.56C27.12 21.44 26.7867 20.56 26.12 19.92C25.4533 19.2533 24.44 18.92 23.08 18.92C20.8133 18.92 18.6667 19.76 16.64 21.44V15.8C17.52 15.16 18.6667 14.6133 20.08 14.16C21.4933 13.7067 22.88 13.48 24.24 13.48C26.96 13.48 29.12 14.2 30.72 15.64C32.3467 17.0533 33.16 19.04 33.16 21.6C33.16 26.2133 30.2267 30.6933 24.36 35.04H33.64V40Z" fill="#FC0200"/>
<path d="M44.4648 10H4.42985C3.35306 10 2.46955 10.8525 2.43112 11.9286L0.073978 77.9286C0.0335553 79.0605 0.940147 80 2.0727 80H47.8934C49.0387 80 49.9501 79.04 49.8907 77.8962L46.4621 11.8962C46.4069 10.8334 45.5291 10 44.4648 10Z" fill="white"/>
<rect x="6" y="44" width="38" height="2" fill="#FE0100"/>
<path d="M34.48 31.52C34.48 34.16 33.64 36.3733 31.96 38.16C30.3067 39.92 28.04 40.8 25.16 40.8C21.9333 40.8 19.4933 39.6533 17.84 37.36C16.2133 35.04 15.4 31.9333 15.4 28.04C15.4 23.5867 16.6133 20.0267 19.04 17.36C21.4933 14.6933 24.5867 13.36 28.32 13.36C29.7333 13.36 31.1067 13.5733 32.44 14V19.4C31.4 18.84 30.1867 18.56 28.8 18.56C26.9067 18.56 25.3467 19.1467 24.12 20.32C22.92 21.4667 22.1067 23.0133 21.68 24.96C23.12 23.7333 24.84 23.12 26.84 23.12C29.1333 23.12 30.9733 23.88 32.36 25.4C33.7733 26.92 34.48 28.96 34.48 31.52ZM25.2 35.6C26.24 35.6 27.0533 35.24 27.64 34.52C28.2267 33.8 28.52 32.84 28.52 31.64C28.52 30.5467 28.2267 29.68 27.64 29.04C27.08 28.3733 26.28 28.04 25.24 28.04C23.8 28.04 22.5333 28.6133 21.44 29.76C21.7333 33.6533 22.9867 35.6 25.2 35.6Z" fill="#FC0200"/>
<path d="M34.2226 64.0848C42.2226 53.0804 33.2226 43.5801 25.2226 52.5848L24.7226 52.0801C16.707 43.5801 8.20669 55.0803 16.2226 64.0848L25.2226 75.0801L34.2226 64.0848Z" fill="#FD1A1E"/>
</svg>
