<svg width="50" height="80" viewBox="0 0 50 80" fill="none" xmlns="http://www.w3.org/2000/svg">
<path d="M44.4648 10H4.42985C3.35306 10 2.46955 10.8525 2.43112 11.9286L0.073978 77.9286C0.0335553 79.0605 0.940147 80 2.0727 80H47.8934C49.0387 80 49.9501 79.04 49.8907 77.8962L46.4621 11.8962C46.4069 10.8334 45.5291 10 44.4648 10Z" fill="white"/>
<rect x="6" y="44" width="38" height="2" fill="black"/>
<path d="M37.8 40H30.08L21.04 26.6L29.76 13.04H37.08L28.24 26.52L37.8 40ZM20.76 40H14.6V13.04H20.76V40Z" fill="black"/>
<path d="M20.8008 76.9277L24.8008 69.9277L27.8008 76.9277H20.8008Z" fill="black"/>
<path d="M33.3506 59.5435C41.0219 70.0957 32.3917 79.2057 24.7204 70.571L24.2409 71.0549C16.5547 79.2057 8.40364 68.1781 16.0902 59.5435L24.7204 49L33.3506 59.5435Z" fill="black"/>
</svg>
