<svg width="50" height="80" viewBox="0 0 50 80" fill="none" xmlns="http://www.w3.org/2000/svg">
<path d="M44.4648 10H4.42985C3.35306 10 2.46955 10.8525 2.43112 11.9286L0.073978 77.9286C0.0335553 79.0605 0.940147 80 2.0727 80H47.8934C49.0387 80 49.9501 79.04 49.8907 77.8962L46.4621 11.8962C46.4069 10.8334 45.5291 10 44.4648 10Z" fill="white"/>
<rect x="6" y="44" width="38" height="2" fill="black"/>
<path d="M34.4 32.72C34.4 35.0133 33.5067 36.8667 31.72 38.28C29.96 39.6933 27.6533 40.4 24.8 40.4C21.92 40.4 19.6267 39.7333 17.92 38.4C16.24 37.04 15.4 35.2133 15.4 32.92C15.4 30.0933 16.6667 28.0533 19.2 26.8C16.9333 25.4933 15.8 23.6133 15.8 21.16C15.8 18.7067 16.64 16.8 18.32 15.44C20.0267 14.0533 22.1867 13.36 24.8 13.36C27.52 13.36 29.72 14.0133 31.4 15.32C33.1067 16.6267 33.96 18.5733 33.96 21.16C33.96 23.56 32.8667 25.4 30.68 26.68C33.16 27.8267 34.4 29.84 34.4 32.72ZM21.24 32.76C21.24 33.5867 21.52 34.2933 22.08 34.88C22.6667 35.4667 23.5867 35.76 24.84 35.76C26.0667 35.76 26.9867 35.4667 27.6 34.88C28.24 34.2667 28.56 33.5333 28.56 32.68C28.56 31.72 28.2267 30.9333 27.56 30.32C26.92 29.7067 26.0133 29.4 24.84 29.4C23.64 29.4 22.7333 29.7333 22.12 30.4C21.5333 31.0667 21.24 31.8533 21.24 32.76ZM21.68 21.08C21.68 22.0933 21.9867 22.88 22.6 23.44C23.2133 24 23.9867 24.28 24.92 24.28C25.8267 24.28 26.5867 24 27.2 23.44C27.8133 22.88 28.12 22.0933 28.12 21.08C28.12 19.0267 27.0133 18 24.8 18C23.7333 18 22.9467 18.3067 22.44 18.92C21.9333 19.5067 21.68 20.2267 21.68 21.08Z" fill="black"/>
<path d="M39 64.8505C39.0003 66.3202 38.4767 67.7433 37.5205 68.8715C36.5644 69.9997 35.2364 70.7613 33.7683 71.0235C32.3002 71.2857 30.7852 71.0318 29.4878 70.306C28.1904 69.5803 27.1929 68.4288 26.6695 67.0526C26.6646 71.1798 26.9334 73.9259 30.9095 76H20.0841C24.0602 73.9265 24.3291 71.181 24.3242 67.0526C23.8867 68.2 23.1174 69.1961 22.1114 69.9174C21.1053 70.6388 19.9067 71.0539 18.6637 71.1113C17.4207 71.1688 16.1878 70.8661 15.1176 70.2408C14.0474 69.6154 13.1867 68.6947 12.6421 67.5926C12.0974 66.4906 11.8927 65.2554 12.0531 64.0399C12.2136 62.8245 12.7322 61.682 13.5449 60.7537C14.3576 59.8255 15.4287 59.1523 16.6257 58.8173C17.8227 58.4823 19.0931 58.5003 20.2798 58.869C19.6119 57.929 19.2185 56.8266 19.1424 55.6817C19.0664 54.5368 19.3106 53.3933 19.8486 52.3756C20.3865 51.3579 21.1975 50.5051 22.1934 49.9099C23.1892 49.3147 24.3317 49 25.4965 49C26.6613 49 27.8038 49.3147 28.7997 49.9099C29.7955 50.5051 30.6065 51.3579 31.1445 52.3756C31.6824 53.3933 31.9266 54.5368 31.8506 55.6817C31.7746 56.8266 31.3811 57.929 30.7132 58.869C31.6673 58.5726 32.6789 58.5017 33.666 58.6621C34.6531 58.8224 35.588 59.2095 36.3949 59.792C37.2019 60.3745 37.8582 61.136 38.3108 62.0148C38.7634 62.8936 38.9995 63.8651 39 64.8505Z" fill="black"/>
</svg>
