<svg width="43" height="49" viewBox="0 0 43 49" fill="none" xmlns="http://www.w3.org/2000/svg">
<path d="M43 40.5632H0V47.4201C0.281577 48.0009 0.592203 48.2674 1.51765 48.5027H41.9882C42.587 48.2988 42.7716 48.0361 43 47.4201V40.5632Z" fill="white"/>
<path d="M43 40.9242H0" stroke="#B2B2B2" stroke-width="0.1"/>
<path d="M43 41.2854H0" stroke="#B2B2B2" stroke-width="0.1"/>
<path d="M43 41.6457H0" stroke="#B2B2B2" stroke-width="0.1"/>
<path d="M43 42.0068H0" stroke="#B2B2B2" stroke-width="0.1"/>
<path d="M43 42.3679H0" stroke="#B2B2B2" stroke-width="0.1"/>
<path d="M43 42.7282H0" stroke="#B2B2B2" stroke-width="0.1"/>
<path d="M43 43.0893H0" stroke="#B2B2B2" stroke-width="0.1"/>
<path d="M43 43.4505H0" stroke="#B2B2B2" stroke-width="0.1"/>
<path d="M43 43.8116H0" stroke="#B2B2B2" stroke-width="0.1"/>
<path d="M43 44.1719H0" stroke="#B2B2B2" stroke-width="0.1"/>
<path d="M43 44.533H0" stroke="#B2B2B2" stroke-width="0.1"/>
<path d="M43 44.8941H0" stroke="#B2B2B2" stroke-width="0.1"/>
<path d="M43 45.2544H0" stroke="#B2B2B2" stroke-width="0.1"/>
<path d="M43 45.6156H0" stroke="#B2B2B2" stroke-width="0.1"/>
<path d="M43 45.9767H0" stroke="#B2B2B2" stroke-width="0.1"/>
<path d="M43 46.3378H0" stroke="#B2B2B2" stroke-width="0.1"/>
<path d="M43 46.6981H0" stroke="#B2B2B2" stroke-width="0.1"/>
<path d="M43 47.0592H0" stroke="#B2B2B2" stroke-width="0.1"/>
<path d="M43 47.4204H0" stroke="#B2B2B2" stroke-width="0.1"/>
<path d="M42.4938 47.7806L0.505585 47.7806" stroke="#B2B2B2" stroke-width="0.1"/>
<path d="M42.4938 48.1418L0.505585 48.1418" stroke="#B2B2B2" stroke-width="0.1"/>
<path fill-rule="evenodd" clip-rule="evenodd" d="M0.00194597 40.294C0.991366 27.1586 1.9807 14.0232 2.97004 0.887831C3.0035 0.444608 3.58943 0 4.35528 0H38.6321C39.398 0 39.9839 0.444608 40.0174 0.887831C41.0067 14.0232 41.9961 27.1586 42.9855 40.294C43.0263 40.8356 42.4218 41.3816 41.5264 41.3816H1.46103C0.565603 41.3816 -0.0388515 40.8356 0.00194597 40.294Z" fill="white"/>
<path fill-rule="evenodd" clip-rule="evenodd" d="M0.789244 39.5121C1.74277 26.8363 2.69621 14.1606 3.64965 1.48476C3.68189 1.05705 4.24657 0.627995 4.98463 0.627995H38.0179C38.756 0.627995 39.3206 1.05705 39.3529 1.48476C40.3063 14.1606 41.2598 26.8363 42.2133 39.5121C42.2526 40.0348 41.6701 40.5617 40.8071 40.5617H2.19539C1.33245 40.5617 0.749927 40.0348 0.789244 39.5121Z" fill="black"/>
<path fill-rule="evenodd" clip-rule="evenodd" d="M0.789244 39.5123C1.34856 32.0741 1.90795 24.6358 2.46727 17.1976L2.48346 17.1883L2.62315 17.0954L2.76481 17.0008L2.90348 16.9078L3.05347 16.8078L3.1908 16.7166L3.33403 16.6209L3.47152 16.5287L3.75412 16.3398L3.90301 16.2404L4.03751 16.1503L4.18648 16.0508L4.32303 15.9599L4.46539 15.8645L4.60217 15.7728L4.74949 15.6741L4.88777 15.5819L5.02761 15.4882L5.16479 15.3959L5.31289 15.2967L5.44857 15.2062L5.59015 15.1113L5.72607 15.0199L5.8726 14.9214L6.01001 14.8298L6.14899 14.7365L6.28538 14.6445L6.4327 14.5457L6.56752 14.4555L6.70839 14.361L6.84336 14.2699L6.98447 14.1747L7.12903 14.078L7.26393 13.9877L7.39945 13.8961L7.54582 13.7977L7.67993 13.7079L7.8197 13.6139L7.95421 13.523L8.09429 13.4283L8.23799 13.332L8.37218 13.242L8.50692 13.1507L8.65243 13.0528L8.78583 12.9633L9.06049 12.7772L9.20317 12.6815L9.33728 12.5915L9.47391 12.4993L9.60786 12.4084L9.75242 12.3108L9.88512 12.2218L10.0232 12.1284L10.1549 12.0391L10.2999 11.941L10.4333 11.8514L10.5692 11.7595L10.7023 11.6691L10.8461 11.5719L10.978 11.4831L11.1154 11.3901L11.2461 11.3012L11.3904 11.2035L11.5183 11.1169L11.6612 11.0203L11.7903 10.9328L11.9321 10.8366L12.0651 10.7469L12.2009 10.6549L12.3309 10.5664L12.4742 10.4691L12.606 10.3802L12.7405 10.289L12.8718 10.1994L13.0129 10.1036L13.1451 10.0143L13.2801 9.92273L13.4092 9.83445L13.5519 9.73761L13.6829 9.64909L13.8164 9.55822L13.947 9.469L14.0873 9.37356L14.2188 9.28466L14.3529 9.19347L14.4814 9.10551L14.6231 9.00913L14.7522 8.92156L14.8824 8.83249L15.0193 8.73895L15.1521 8.64855L15.2884 8.5561L15.4194 8.46712C15.5575 8.3569 15.7249 8.28223 15.8949 8.2382L16.2999 8.18734C16.3802 8.18734 16.9047 8.18734 17.2417 8.53362C20.1002 11.4823 22.538 13.9589 23.0005 14.4288C24.4231 13.7326 25.8457 13.0364 27.2683 12.3401C27.4718 12.2401 27.7053 12.1946 27.9308 12.1946C27.9874 12.1946 28.3097 12.1946 28.6211 12.3499C28.6931 12.3859 29.3028 12.6905 29.079 13.2466C28.6747 14.2425 28.2705 15.2385 27.8662 16.2344C31.0075 16.4937 34.1488 16.753 37.2901 17.0123C37.8501 17.058 38.3071 17.4201 38.3819 17.7498C38.4825 18.1932 38.0721 18.4483 38.0165 18.4829L37.7556 18.6743L37.6255 18.7699L37.4993 18.8632L37.3666 18.9614L37.2315 19.0605L37.1097 19.1501L36.9747 19.2498L36.8437 19.3461L36.71 19.4439L36.5859 19.5352L36.4524 19.6337L36.3203 19.7309L36.185 19.8297L36.0625 19.9197L35.9267 20.0198L35.7949 20.1164L35.6603 20.2147L35.5354 20.3064L35.4012 20.4053L35.2681 20.5028L35.1322 20.602L35.0088 20.6923L34.8723 20.793L34.7396 20.8899L34.6042 20.9886L34.4786 21.0807L34.339 21.1826L34.2128 21.2751L33.9488 21.4681L33.8114 21.5692L33.6789 21.6658L33.5408 21.7663L33.4152 21.8579L33.2794 21.9576L33.1446 22.056L33.0069 22.156L32.8821 22.247L32.7437 22.3484L32.6107 22.4456L32.4717 22.5464L32.3454 22.6385L32.2086 22.7385L32.0731 22.8372L31.8044 23.0319L31.5358 23.2284L31.396 23.3296L31.2689 23.4221L31.1313 23.5225L30.9904 23.6244L30.86 23.7189L30.7283 23.815L30.5893 23.9164L30.4543 24.0143L30.3138 24.116L30.1858 24.2088L30.0474 24.3096L29.9057 24.4119L29.7745 24.5068L29.642 24.6033L29.5021 24.7051L29.3665 24.8034L29.2248 24.9055L29.0961 24.9987L28.9569 25.0999L28.8189 25.1999L28.6789 25.3007L28.5489 25.3948L28.4081 25.497L28.2716 25.5957L28.1293 25.6981L27.9998 25.7917L27.8596 25.8933L27.7781 25.9563L28.662 30.3387C28.7591 30.8189 28.3107 31.0952 28.2497 31.1327L27.968 31.3367L27.8275 31.4387L27.5478 31.6427L27.4018 31.7483L27.2702 31.8438L27.1245 31.9501L26.9829 32.0528L26.8385 32.1571L26.7046 32.2543L26.5603 32.3594L26.4176 32.4629L26.2715 32.5682L26.1391 32.664L25.9924 32.7708L25.85 32.8738L25.7046 32.9786L25.5697 33.0762L25.4248 33.1816L25.281 33.2855L25.1342 33.3913L25.001 33.4876L24.8534 33.5948L24.7101 33.6982L24.5638 33.8033L24.4282 33.9013L24.2774 34.0101L24.1411 34.1086L23.8558 34.3143L23.7073 34.4219L23.5642 34.525L23.4151 34.632L23.2794 34.7297L23.1327 34.836L22.9871 34.9407L22.8383 35.0473L22.7034 35.1443L22.5541 35.2523L22.4102 35.3558L22.2602 35.4633L22.1237 35.5613L21.9758 35.668L21.8295 35.7731L21.6798 35.8801L21.5394 35.9806L21.3973 36.083L21.2491 36.1899L21.0981 36.2979L20.9606 36.3964L20.8121 36.5033L20.6599 36.6119L20.519 36.7126L20.3767 36.8149L20.2264 36.9229L20.0807 37.0274L19.9289 37.1356L19.7906 37.2345L19.6411 37.342L19.488 37.4509L19.3462 37.552L19.0518 37.7633L18.9053 37.8679L18.7523 37.9767L18.6133 38.076L18.4629 38.1839L18.3137 38.2903L18.1625 38.3978L18.0221 38.498L17.8699 38.6069L17.7224 38.712L17.5687 38.8212L17.4288 38.9208L17.2773 39.0291L17.1274 39.136L16.9752 39.2438L16.8339 39.3445L16.6808 39.4537L16.5325 39.5593L16.3777 39.6689L16.2369 39.7689L15.9372 39.9818L15.7806 40.0931L15.6385 40.1942L15.4844 40.304L15.3351 40.4099L15.1795 40.5199L15.1254 40.5619H2.19496C1.33229 40.5619 0.749938 40.035 0.789244 39.5123Z" fill="#EB0038"/>
<path d="M25.4479 20.7764C26.0791 24.001 26.7102 27.2256 27.3415 30.4503C25.0554 27.9731 22.5386 25.2182 20.3525 22.8017C18.5287 23.6745 16.7051 24.5473 14.8813 25.42C15.4743 24.0864 16.0673 22.7529 16.6603 21.4193C12.9824 21.1089 9.3045 20.7985 5.62654 20.4881C9.5871 19.4938 13.5476 18.4996 17.5081 17.5053C17.0727 14.665 16.6372 11.8247 16.2018 8.98434C18.2073 11.0629 20.5428 13.4631 22.6223 15.5815C24.3718 14.7242 26.1213 13.8669 27.8707 13.0096C27.3315 14.3212 26.7922 15.6329 26.2529 16.9447C29.8757 17.244 33.4984 17.5434 37.1212 17.8429C33.2301 18.8207 29.339 19.7985 25.4479 20.7764Z" fill="white"/>
</svg>
