<svg width="50" height="80" viewBox="0 0 50 80" fill="none" xmlns="http://www.w3.org/2000/svg">
<path d="M44.4648 10H4.42985C3.35306 10 2.46955 10.8525 2.43112 11.9286L0.073978 77.9286C0.0335553 79.0605 0.940147 80 2.0727 80H47.8934C49.0387 80 49.9501 79.04 49.8907 77.8962L46.4621 11.8962C46.4069 10.8334 45.5291 10 44.4648 10Z" fill="white"/>
<path d="M13 62.2893C19.1631 56.4721 21.4822 53.103 24.5804 47C28.4004 53.0259 31.2563 56.3691 37 62.2893C31.0537 67.7308 28.5211 71.0024 24.5804 77C20.8904 71.0236 18.4112 67.7869 13 62.2893Z" fill="#FC0200"/>
<rect x="6" y="44" width="38" height="2" fill="#FE0100"/>
<path d="M33.64 40H16.2V35.48C19.08 33.5067 21.6133 31.32 23.8 28.92C26.0133 26.52 27.12 24.4 27.12 22.56C27.12 21.44 26.7867 20.56 26.12 19.92C25.4533 19.2533 24.44 18.92 23.08 18.92C20.8133 18.92 18.6667 19.76 16.64 21.44V15.8C17.52 15.16 18.6667 14.6133 20.08 14.16C21.4933 13.7067 22.88 13.48 24.24 13.48C26.96 13.48 29.12 14.2 30.72 15.64C32.3467 17.0533 33.16 19.04 33.16 21.6C33.16 26.2133 30.2267 30.6933 24.36 35.04H33.64V40Z" fill="#FC0200"/>
<path d="M44.4648 10H4.42985C3.35306 10 2.46955 10.8525 2.43112 11.9286L0.073978 77.9286C0.0335553 79.0605 0.940147 80 2.0727 80H47.8934C49.0387 80 49.9501 79.04 49.8907 77.8962L46.4621 11.8962C46.4069 10.8334 45.5291 10 44.4648 10Z" fill="white"/>
<rect x="6" y="44" width="38" height="2" fill="#FE0100"/>
<path d="M35.752 24.457C35.752 27.0717 35.2217 29.3657 34.161 31.339C33.1003 33.3123 31.608 34.817 29.684 35.853L37.306 40.108L30.831 42.587L23.468 37.259C19.8173 37.2343 16.9067 36.0503 14.736 33.707C12.5653 31.3637 11.48 28.2803 11.48 24.457C11.48 20.6337 12.5777 17.5503 14.773 15.207C16.993 12.839 19.9407 11.655 23.616 11.655C27.316 11.655 30.2637 12.8267 32.459 15.17C34.6543 17.5133 35.752 20.609 35.752 24.457ZM19.213 18.907C18.1277 20.2637 17.585 22.1137 17.585 24.457C17.585 26.8003 18.1277 28.6627 19.213 30.044C20.2983 31.4007 21.766 32.079 23.616 32.079C25.466 32.079 26.9337 31.4007 28.019 30.044C29.1043 28.6627 29.647 26.8003 29.647 24.457C29.647 22.1137 29.1043 20.2637 28.019 18.907C26.9337 17.5257 25.466 16.835 23.616 16.835C21.766 16.835 20.2983 17.5257 19.213 18.907Z" fill="#FC0200"/>
<path d="M34.2226 64.0848C42.2226 53.0804 33.2226 43.5801 25.2226 52.5848L24.7226 52.0801C16.707 43.5801 8.20669 55.0803 16.2226 64.0848L25.2226 75.0801L34.2226 64.0848Z" fill="#FD1A1E"/>
</svg>
