<svg width="50" height="80" viewBox="0 0 50 80" fill="none" xmlns="http://www.w3.org/2000/svg">
<path d="M44.4648 10H4.42985C3.35306 10 2.46955 10.8525 2.43112 11.9286L0.073978 77.9286C0.0335553 79.0605 0.940147 80 2.0727 80H47.8934C49.0387 80 49.9501 79.04 49.8907 77.8962L46.4621 11.8962C46.4069 10.8334 45.5291 10 44.4648 10Z" fill="white"/>
<rect x="6" y="44" width="38" height="2" fill="black"/>
<path d="M17.8 40H12V20.12L5.4 24.08V18.12L12.76 13.84H17.8V40ZM43.4753 26.8C43.4753 30.9067 42.662 34.1867 41.0353 36.64C39.4353 39.0933 37.062 40.32 33.9153 40.32C30.7686 40.32 28.3953 39.1067 26.7953 36.68C25.1953 34.2267 24.3953 30.9333 24.3953 26.8C24.3953 22.64 25.1953 19.3467 26.7953 16.92C28.3953 14.4933 30.7686 13.28 33.9153 13.28C37.062 13.28 39.4353 14.4933 41.0353 16.92C42.662 19.3467 43.4753 22.64 43.4753 26.8ZM33.9153 18.48C31.542 18.48 30.3553 21.2533 30.3553 26.8C30.3553 32.3467 31.542 35.12 33.9153 35.12C36.3153 35.12 37.5153 32.3467 37.5153 26.8C37.5153 21.2533 36.3153 18.48 33.9153 18.48Z" fill="black"/>
<path d="M20.8008 76.9277L24.8008 69.9277L27.8008 76.9277H20.8008Z" fill="black"/>
<path d="M33.3506 59.5435C41.0219 70.0957 32.3917 79.2057 24.7204 70.571L24.2409 71.0549C16.5547 79.2057 8.40364 68.1781 16.0902 59.5435L24.7204 49L33.3506 59.5435Z" fill="black"/>
</svg>
