<svg width="50" height="79" viewBox="0 0 50 79" fill="none" xmlns="http://www.w3.org/2000/svg">
<path d="M44.4648 9H4.42985C3.35306 9 2.46955 9.85251 2.43112 10.9286L0.073978 76.9286C0.0335553 78.0605 0.940147 79 2.0727 79H47.8934C49.0387 79 49.9501 78.04 49.8907 76.8962L46.4621 10.8962C46.4069 9.83343 45.5291 9 44.4648 9Z" fill="white"/>
<path d="M13 61.2893C19.1631 55.4721 21.4822 52.103 24.5804 46C28.4004 52.0259 31.2563 55.3691 37 61.2893C31.0537 66.7308 28.5211 70.0024 24.5804 76C20.8904 70.0236 18.4112 66.7869 13 61.2893Z" fill="#FC0200"/>
<rect x="6" y="43" width="38" height="2" fill="#FE0100"/>
<path d="M36.752 23.457C36.752 26.0717 36.2217 28.3657 35.161 30.339C34.1003 32.3123 32.608 33.817 30.684 34.853L38.306 39.108L31.831 41.587L24.468 36.259C20.8173 36.2343 17.9067 35.0503 15.736 32.707C13.5653 30.3637 12.48 27.2803 12.48 23.457C12.48 19.6337 13.5777 16.5503 15.773 14.207C17.993 11.839 20.9407 10.655 24.616 10.655C28.316 10.655 31.2637 11.8267 33.459 14.17C35.6543 16.5133 36.752 19.609 36.752 23.457ZM20.213 17.907C19.1277 19.2637 18.585 21.1137 18.585 23.457C18.585 25.8003 19.1277 27.6627 20.213 29.044C21.2983 30.4007 22.766 31.079 24.616 31.079C26.466 31.079 27.9337 30.4007 29.019 29.044C30.1043 27.6627 30.647 25.8003 30.647 23.457C30.647 21.1137 30.1043 19.2637 29.019 17.907C27.9337 16.5257 26.466 15.835 24.616 15.835C22.766 15.835 21.2983 16.5257 20.213 17.907Z" fill="#FC0200"/>
</svg>
