<svg width="50" height="80" viewBox="0 0 50 80" fill="none" xmlns="http://www.w3.org/2000/svg">
<path d="M44.4648 10H4.42985C3.35306 10 2.46955 10.8525 2.43112 11.9286L0.073978 77.9286C0.0335553 79.0605 0.940147 80 2.0727 80H47.8934C49.0387 80 49.9501 79.04 49.8907 77.8962L46.4621 11.8962C46.4069 10.8334 45.5291 10 44.4648 10Z" fill="white"/>
<path d="M13 62.2893C19.1631 56.4721 21.4822 53.103 24.5804 47C28.4004 53.0259 31.2563 56.3691 37 62.2893C31.0537 67.7308 28.5211 71.0024 24.5804 77C20.8904 71.0236 18.4112 67.7869 13 62.2893Z" fill="#FC0200"/>
<rect x="6" y="44" width="38" height="2" fill="#FE0100"/>
<path d="M33.64 40H16.2V35.48C19.08 33.5067 21.6133 31.32 23.8 28.92C26.0133 26.52 27.12 24.4 27.12 22.56C27.12 21.44 26.7867 20.56 26.12 19.92C25.4533 19.2533 24.44 18.92 23.08 18.92C20.8133 18.92 18.6667 19.76 16.64 21.44V15.8C17.52 15.16 18.6667 14.6133 20.08 14.16C21.4933 13.7067 22.88 13.48 24.24 13.48C26.96 13.48 29.12 14.2 30.72 15.64C32.3467 17.0533 33.16 19.04 33.16 21.6C33.16 26.2133 30.2267 30.6933 24.36 35.04H33.64V40Z" fill="#FC0200"/>
<path d="M44.4648 10H4.42985C3.35306 10 2.46955 10.8525 2.43112 11.9286L0.073978 77.9286C0.0335553 79.0605 0.940147 80 2.0727 80H47.8934C49.0387 80 49.9501 79.04 49.8907 77.8962L46.4621 11.8962C46.4069 10.8334 45.5291 10 44.4648 10Z" fill="white"/>
<rect x="6" y="44" width="38" height="2" fill="#FE0100"/>
<path d="M24.16 26.16C25.76 26.16 27.0533 25.56 28.04 24.36C27.72 20.5733 26.44 18.68 24.2 18.68C23.16 18.68 22.32 19.0133 21.68 19.68C21.0667 20.3467 20.76 21.28 20.76 22.48C20.76 23.5467 21.0667 24.4267 21.68 25.12C22.2933 25.8133 23.12 26.16 24.16 26.16ZM33.92 26.08C33.92 30.8533 32.7867 34.4267 30.52 36.8C28.2533 39.1467 25.2267 40.32 21.44 40.32C19.6267 40.32 18.04 40.0667 16.68 39.56V34.04C18.0667 34.7067 19.44 35.04 20.8 35.04C22.88 35.04 24.4933 34.5733 25.64 33.64C26.7867 32.68 27.5333 31.1867 27.88 29.16C26.7333 30.3067 25 30.88 22.68 30.88C20.3333 30.88 18.4267 30.1333 16.96 28.64C15.52 27.12 14.8 25.1067 14.8 22.6C14.8 19.9867 15.6133 17.8133 17.24 16.08C18.8933 14.3467 21.12 13.48 23.92 13.48C27.04 13.48 29.48 14.6133 31.24 16.88C33.0267 19.12 33.92 22.1867 33.92 26.08Z" fill="#FC0200"/>
<path d="M34.2226 64.0848C42.2226 53.0804 33.2226 43.5801 25.2226 52.5848L24.7226 52.0801C16.707 43.5801 8.20669 55.0803 16.2226 64.0848L25.2226 75.0801L34.2226 64.0848Z" fill="#FD1A1E"/>
</svg>
