<svg width="50" height="80" viewBox="0 0 50 80" fill="none" xmlns="http://www.w3.org/2000/svg">
<path d="M44.4648 10H4.42985C3.35306 10 2.46955 10.8525 2.43112 11.9286L0.073978 77.9286C0.0335553 79.0605 0.940147 80 2.0727 80H47.8934C49.0387 80 49.9501 79.04 49.8907 77.8962L46.4621 11.8962C46.4069 10.8334 45.5291 10 44.4648 10Z" fill="white"/>
<path d="M11 62.2893C17.1631 56.4721 19.4822 53.103 22.5804 47C26.4004 53.0259 29.2563 56.3691 35 62.2893C29.0537 67.7308 26.5211 71.0024 22.5804 77C18.8904 71.0236 16.4112 67.7869 11 62.2893Z" fill="#FC0200"/>
<rect x="4" y="44" width="38" height="2" fill="#FE0100"/>
<path d="M21.76 28.56L21.48 29.52H27.96L27.68 28.56C26.9067 25.9467 26.2667 23.72 25.76 21.88C25.28 20.04 24.9867 18.8533 24.88 18.32L24.72 17.52C24.5067 18.9867 23.52 22.6667 21.76 28.56ZM18.36 40H11.92L20.92 13.04H28.68L37.68 40H31.08L29.44 34.48H20L18.36 40Z" fill="#FC0200"/>
</svg>
