<svg width="50" height="80" viewBox="0 0 50 80" fill="none" xmlns="http://www.w3.org/2000/svg">
<path d="M44.4648 10H4.42985C3.35306 10 2.46955 10.8525 2.43112 11.9286L0.073978 77.9286C0.0335553 79.0605 0.940147 80 2.0727 80H47.8934C49.0387 80 49.9501 79.04 49.8907 77.8962L46.4621 11.8962C46.4069 10.8334 45.5291 10 44.4648 10Z" fill="white"/>
<path d="M13 62.2893C19.1631 56.4721 21.4822 53.103 24.5804 47C28.4004 53.0259 31.2563 56.3691 37 62.2893C31.0537 67.7308 28.5211 71.0024 24.5804 77C20.8904 71.0236 18.4112 67.7869 13 62.2893Z" fill="#FC0200"/>
<rect x="6" y="44" width="38" height="2" fill="#FE0100"/>
<path d="M33.64 40H16.2V35.48C19.08 33.5067 21.6133 31.32 23.8 28.92C26.0133 26.52 27.12 24.4 27.12 22.56C27.12 21.44 26.7867 20.56 26.12 19.92C25.4533 19.2533 24.44 18.92 23.08 18.92C20.8133 18.92 18.6667 19.76 16.64 21.44V15.8C17.52 15.16 18.6667 14.6133 20.08 14.16C21.4933 13.7067 22.88 13.48 24.24 13.48C26.96 13.48 29.12 14.2 30.72 15.64C32.3467 17.0533 33.16 19.04 33.16 21.6C33.16 26.2133 30.2267 30.6933 24.36 35.04H33.64V40Z" fill="#FC0200"/>
<path d="M44.4648 10H4.42985C3.35306 10 2.46955 10.8525 2.43112 11.9286L0.073978 77.9286C0.0335553 79.0605 0.940147 80 2.0727 80H47.8934C49.0387 80 49.9501 79.04 49.8907 77.8962L46.4621 11.8962C46.4069 10.8334 45.5291 10 44.4648 10Z" fill="white"/>
<rect x="6" y="44" width="38" height="2" fill="#FE0100"/>
<path d="M34.4 32.72C34.4 35.0133 33.5067 36.8667 31.72 38.28C29.96 39.6933 27.6533 40.4 24.8 40.4C21.92 40.4 19.6267 39.7333 17.92 38.4C16.24 37.04 15.4 35.2133 15.4 32.92C15.4 30.0933 16.6667 28.0533 19.2 26.8C16.9333 25.4933 15.8 23.6133 15.8 21.16C15.8 18.7067 16.64 16.8 18.32 15.44C20.0267 14.0533 22.1867 13.36 24.8 13.36C27.52 13.36 29.72 14.0133 31.4 15.32C33.1067 16.6267 33.96 18.5733 33.96 21.16C33.96 23.56 32.8667 25.4 30.68 26.68C33.16 27.8267 34.4 29.84 34.4 32.72ZM21.24 32.76C21.24 33.5867 21.52 34.2933 22.08 34.88C22.6667 35.4667 23.5867 35.76 24.84 35.76C26.0667 35.76 26.9867 35.4667 27.6 34.88C28.24 34.2667 28.56 33.5333 28.56 32.68C28.56 31.72 28.2267 30.9333 27.56 30.32C26.92 29.7067 26.0133 29.4 24.84 29.4C23.64 29.4 22.7333 29.7333 22.12 30.4C21.5333 31.0667 21.24 31.8533 21.24 32.76ZM21.68 21.08C21.68 22.0933 21.9867 22.88 22.6 23.44C23.2133 24 23.9867 24.28 24.92 24.28C25.8267 24.28 26.5867 24 27.2 23.44C27.8133 22.88 28.12 22.0933 28.12 21.08C28.12 19.0267 27.0133 18 24.8 18C23.7333 18 22.9467 18.3067 22.44 18.92C21.9333 19.5067 21.68 20.2267 21.68 21.08Z" fill="#FC0200"/>
<path d="M34.2226 64.0848C42.2226 53.0804 33.2226 43.5801 25.2226 52.5848L24.7226 52.0801C16.707 43.5801 8.20669 55.0803 16.2226 64.0848L25.2226 75.0801L34.2226 64.0848Z" fill="#FD1A1E"/>
</svg>
