<svg width="43" height="49" viewBox="0 0 43 49" fill="none" xmlns="http://www.w3.org/2000/svg">
<path d="M43 40.5631H0V47.4201C0.281577 48.0009 0.592203 48.2674 1.51765 48.5027H41.9882C42.587 48.2988 42.7716 48.0361 43 47.4201V40.5631Z" fill="white"/>
<path d="M43 40.9242H0" stroke="#B2B2B2" stroke-width="0.1"/>
<path d="M43 41.2854H0" stroke="#B2B2B2" stroke-width="0.1"/>
<path d="M43 41.6455H0" stroke="#B2B2B2" stroke-width="0.1"/>
<path d="M43 42.0066H0" stroke="#B2B2B2" stroke-width="0.1"/>
<path d="M43 42.3677H0" stroke="#B2B2B2" stroke-width="0.1"/>
<path d="M43 42.7278H0" stroke="#B2B2B2" stroke-width="0.1"/>
<path d="M43 43.089H0" stroke="#B2B2B2" stroke-width="0.1"/>
<path d="M43 43.4501H0" stroke="#B2B2B2" stroke-width="0.1"/>
<path d="M43 43.8112H0" stroke="#B2B2B2" stroke-width="0.1"/>
<path d="M43 44.1723H0" stroke="#B2B2B2" stroke-width="0.1"/>
<path d="M43 44.5335H0" stroke="#B2B2B2" stroke-width="0.1"/>
<path d="M43 44.8946H0" stroke="#B2B2B2" stroke-width="0.1"/>
<path d="M43 45.2547H0" stroke="#B2B2B2" stroke-width="0.1"/>
<path d="M43 45.6158H0" stroke="#B2B2B2" stroke-width="0.1"/>
<path d="M43 45.977H0" stroke="#B2B2B2" stroke-width="0.1"/>
<path d="M43 46.3381H0" stroke="#B2B2B2" stroke-width="0.1"/>
<path d="M43 46.6982H0" stroke="#B2B2B2" stroke-width="0.1"/>
<path d="M43 47.0593H0" stroke="#B2B2B2" stroke-width="0.1"/>
<path d="M43 47.4204H0" stroke="#B2B2B2" stroke-width="0.1"/>
<path d="M42.4942 47.7805L0.505997 47.7805" stroke="#B2B2B2" stroke-width="0.1"/>
<path d="M42.4942 48.1416L0.505997 48.1416" stroke="#B2B2B2" stroke-width="0.1"/>
<path fill-rule="evenodd" clip-rule="evenodd" d="M0.00194597 40.2942C0.991366 27.1587 1.9807 14.0233 2.97004 0.887837C3.0035 0.444611 3.58943 0 4.35528 0H38.6321C39.398 0 39.9839 0.444611 40.0174 0.887837C41.0067 14.0233 41.9961 27.1587 42.9855 40.2942C43.0263 40.8359 42.4218 41.3819 41.5264 41.3819H1.46103C0.565603 41.3819 -0.0388515 40.8359 0.00194597 40.2942Z" fill="white"/>
<path fill-rule="evenodd" clip-rule="evenodd" d="M0.790083 39.5137C1.74361 26.8378 2.69705 14.1619 3.65049 1.48603C3.68273 1.05832 4.24741 0.629261 4.98547 0.629261H38.0187C38.7568 0.629261 39.3215 1.05832 39.3537 1.48603C40.3072 14.1619 41.2606 26.8378 42.2141 39.5137C42.2534 40.0363 41.6709 40.5633 40.808 40.5633H2.19623C1.33329 40.5633 0.750766 40.0363 0.790083 39.5137Z" fill="#EB0038"/>
<path fill-rule="evenodd" clip-rule="evenodd" d="M0.790083 39.5141C1.3494 32.0758 1.90879 24.6375 2.4681 17.1992L2.4843 17.1899L2.62399 17.097L2.76565 17.0025L2.90432 16.9095L3.0543 16.8095L3.19164 16.7182L3.33487 16.6225L3.47236 16.5303L3.75496 16.3414L3.90385 16.242L4.03835 16.152L4.18732 16.0524L4.32387 15.9615L4.46623 15.8661L4.60301 15.7744L4.75033 15.6757L4.8886 15.5835L5.02845 15.4898L5.16563 15.3975L5.31373 15.2983L5.44941 15.2078L5.59099 15.1129L5.72691 15.0215L5.87344 14.9231L6.01085 14.8314L6.14983 14.7381L6.28622 14.6461L6.43354 14.5473L6.56836 14.4571L6.70923 14.3626L6.8442 14.2715L6.98531 14.1763L7.12987 14.0796L7.26477 13.9893L7.40029 13.8977L7.54666 13.7993L7.68077 13.7095L7.82054 13.6155L7.95505 13.5246L8.09513 13.4299L8.23883 13.3336L8.37302 13.2436L8.50776 13.1523L8.65327 13.0544L8.78667 12.9649L9.06133 12.7788L9.20401 12.6831L9.33812 12.593L9.47475 12.5009L9.6087 12.41L9.75326 12.3124L9.88596 12.2233L10.0241 12.13L10.1557 12.0407L10.3008 11.9426L10.4341 11.853L10.57 11.7611L10.7031 11.6707L10.847 11.5735L10.9788 11.4846L11.1162 11.3917L11.2469 11.3027L11.3912 11.2051L11.5192 11.1185L11.662 11.0219L11.7912 10.9344L11.933 10.8382L12.0659 10.7485L12.2017 10.6565L12.3317 10.568L12.4751 10.4706L12.6068 10.3818L12.7413 10.2906L12.8726 10.2009L13.0137 10.1052L13.1459 10.0159L13.2809 9.92431L13.4101 9.83603L13.5528 9.73918L13.6837 9.65067L13.8173 9.55979L13.9478 9.47057L14.0881 9.37514L14.2196 9.28623L14.3537 9.19504L14.4822 9.10708L14.624 9.0107L14.7531 8.92313L14.8832 8.83406L15.0201 8.74052L15.1529 8.65011L15.2893 8.55767L15.4202 8.46868C15.5583 8.35847 15.7257 8.28379 15.8957 8.23977L16.3007 8.18891C16.381 8.18891 16.9055 8.18891 17.2426 8.53519C20.101 11.4839 22.5389 13.9605 23.0014 14.4304C24.424 13.7342 25.8465 13.038 27.2691 12.3417C27.4726 12.2417 27.7061 12.1961 27.9317 12.1961C27.9883 12.1961 28.3106 12.1961 28.6219 12.3515C28.6939 12.3875 29.3036 12.6921 29.0798 13.2482C28.6755 14.2441 28.2713 15.2401 27.867 16.236C31.0083 16.4953 34.1496 16.7546 37.291 17.0139C37.8509 17.0596 38.3079 17.4218 38.3828 17.7515C38.4833 18.1948 38.073 18.4499 38.0173 18.4845L37.7565 18.6759L37.6264 18.7716L37.5001 18.8649L37.3674 18.9631L37.2324 19.0621L37.1105 19.1517L36.9756 19.2515L36.8445 19.3477L36.7109 19.4456L36.5868 19.5368L36.4533 19.6353L36.3211 19.7325L36.1858 19.8313L36.0633 19.9213L35.9275 20.0215L35.7957 20.1181L35.6611 20.2164L35.5363 20.308L35.402 20.4069L35.2689 20.5045L35.133 20.6037L35.0097 20.694L34.8731 20.7946L34.7404 20.8915L34.6051 20.9903L34.4794 21.0823L34.3398 21.1843L34.2137 21.2767L33.9496 21.4698L33.8122 21.5708L33.6797 21.6675L33.5416 21.768L33.4161 21.8595L33.2802 21.9593L33.1454 22.0576L33.0077 22.1576L32.8829 22.2487L32.7446 22.3501L32.6115 22.4472L32.4725 22.5481L32.3462 22.6401L32.2094 22.7402L32.074 22.8389L31.8052 23.0336L31.5367 23.23L31.3969 23.3313L31.2697 23.4237L31.1321 23.5242L30.9913 23.6261L30.8608 23.7206L30.7292 23.8167L30.5901 23.918L30.4551 24.016L30.3147 24.1177L30.1867 24.2105L30.0482 24.3113L29.9066 24.4136L29.7753 24.5085L29.6428 24.605L29.5029 24.7068L29.3673 24.8051L29.2257 24.9072L29.097 25.0003L28.9578 25.1016L28.8197 25.2016L28.6797 25.3024L28.5498 25.3965L28.4089 25.4986L28.2724 25.5974L28.1301 25.6998L28.0007 25.7934L27.8604 25.895L27.7789 25.958L28.6628 30.3404C28.76 30.8206 28.3115 31.0969 28.2506 31.1344L27.9688 31.3384L27.8284 31.4404L27.5487 31.6445L27.4027 31.75L27.2711 31.8456L27.1253 31.9518L26.9838 32.0545L26.8394 32.1588L26.7054 32.2561L26.5612 32.3611L26.4184 32.4646L26.2723 32.57L26.14 32.6658L25.9933 32.7725L25.8508 32.8755L25.7055 32.9803L25.5706 33.0779L25.4256 33.1833L25.2818 33.2873L25.135 33.393L25.0018 33.4893L24.8542 33.5965L24.7109 33.6999L24.5647 33.805L24.429 33.903L24.2782 34.0118L24.1419 34.1103L23.8566 34.316L23.7081 34.4237L23.5651 34.5267L23.4159 34.6338L23.2803 34.7314L23.1335 34.8377L22.9879 34.9424L22.8391 35.049L22.7043 35.146L22.5549 35.2541L22.4111 35.3576L22.261 35.4651L22.1245 35.563L21.9767 35.6697L21.8304 35.7749L21.6806 35.8819L21.5402 35.9823L21.3982 36.0848L21.2499 36.1917L21.099 36.2996L20.9615 36.3981L20.8129 36.5051L20.6607 36.6137L20.5199 36.7144L20.3776 36.8166L20.2273 36.9246L20.0815 37.0291L19.9297 37.1374L19.7914 37.2363L19.6419 37.3437L19.4888 37.4527L19.3471 37.5538L19.0527 37.7651L18.9061 37.8697L18.7532 37.9785L18.6142 38.0778L18.4637 38.1856L18.3145 38.2921L18.1633 38.3995L18.0229 38.4998L17.8708 38.6086L17.7233 38.7137L17.5695 38.8229L17.4297 38.9226L17.2781 39.0309L17.1282 39.1378L16.976 39.2455L16.8347 39.3462L16.6816 39.4555L16.5334 39.5611L16.3786 39.6707L16.2377 39.7707L15.938 39.9836L15.7814 40.0949L15.6393 40.196L15.4852 40.3057L15.336 40.4116L15.1803 40.5217L15.1262 40.5637H2.1958C1.33312 40.5637 0.750778 40.0367 0.790083 39.5141Z" fill="black"/>
<path d="M25.4492 20.7779C26.0803 24.0025 26.7115 27.2271 27.3427 30.4518C25.0567 27.9746 22.5399 25.2197 20.3538 22.8032C18.53 23.6759 16.7063 24.5487 14.8826 25.4215C15.4756 24.0879 16.0686 22.7544 16.6616 21.4208C12.9836 21.1104 9.30576 20.8 5.62781 20.4895C9.58837 19.4953 13.5488 18.501 17.5094 17.5067C17.074 14.6664 16.6385 11.8261 16.2031 8.98571C18.2086 11.0642 20.5441 13.4644 22.6236 15.5829C24.3731 14.7256 26.1225 13.8683 27.872 13.0109C27.3327 14.3226 26.7935 15.6343 26.2542 16.9461C29.877 17.2454 33.4997 17.5449 37.1224 17.8443C33.2314 18.8221 29.3402 19.8 25.4492 20.7779Z" fill="white"/>
</svg>
