<svg width="50" height="80" viewBox="0 0 50 80" fill="none" xmlns="http://www.w3.org/2000/svg">
<path d="M44.4648 10H4.42985C3.35306 10 2.46955 10.8525 2.43112 11.9286L0.073978 77.9286C0.0335553 79.0605 0.940147 80 2.0727 80H47.8934C49.0387 80 49.9501 79.04 49.8907 77.8962L46.4621 11.8962C46.4069 10.8334 45.5291 10 44.4648 10Z" fill="white"/>
<rect x="6" y="44" width="38" height="2" fill="black"/>
<path d="M34.48 31.52C34.48 34.16 33.64 36.3733 31.96 38.16C30.3067 39.92 28.04 40.8 25.16 40.8C21.9333 40.8 19.4933 39.6533 17.84 37.36C16.2133 35.04 15.4 31.9333 15.4 28.04C15.4 23.5867 16.6133 20.0267 19.04 17.36C21.4933 14.6933 24.5867 13.36 28.32 13.36C29.7333 13.36 31.1067 13.5733 32.44 14V19.4C31.4 18.84 30.1867 18.56 28.8 18.56C26.9067 18.56 25.3467 19.1467 24.12 20.32C22.92 21.4667 22.1067 23.0133 21.68 24.96C23.12 23.7333 24.84 23.12 26.84 23.12C29.1333 23.12 30.9733 23.88 32.36 25.4C33.7733 26.92 34.48 28.96 34.48 31.52ZM25.2 35.6C26.24 35.6 27.0533 35.24 27.64 34.52C28.2267 33.8 28.52 32.84 28.52 31.64C28.52 30.5467 28.2267 29.68 27.64 29.04C27.08 28.3733 26.28 28.04 25.24 28.04C23.8 28.04 22.5333 28.6133 21.44 29.76C21.7333 33.6533 22.9867 35.6 25.2 35.6Z" fill="black"/>
<path d="M20.8008 76.9277L24.8008 69.9277L27.8008 76.9277H20.8008Z" fill="black"/>
<path d="M33.3506 59.5435C41.0219 70.0957 32.3917 79.2057 24.7204 70.571L24.2409 71.0549C16.5547 79.2057 8.40364 68.1781 16.0902 59.5435L24.7204 49L33.3506 59.5435Z" fill="black"/>
</svg>
