<svg width="50" height="80" viewBox="0 0 50 80" fill="none" xmlns="http://www.w3.org/2000/svg">
<path d="M44.4648 10H4.42985C3.35306 10 2.46955 10.8525 2.43112 11.9286L0.073978 77.9286C0.0335553 79.0605 0.940147 80 2.0727 80H47.8934C49.0387 80 49.9501 79.04 49.8907 77.8962L46.4621 11.8962C46.4069 10.8334 45.5291 10 44.4648 10Z" fill="white"/>
<path d="M11 62.2893C17.1631 56.4721 19.4822 53.103 22.5804 47C26.4004 53.0259 29.2563 56.3691 35 62.2893C29.0537 67.7308 26.5211 71.0024 22.5804 77C18.8904 71.0236 16.4112 67.7869 11 62.2893Z" fill="#FC0200"/>
<rect x="4" y="44" width="38" height="2" fill="#FE0100"/>
<path d="M30.28 31.84C30.28 34.4267 29.5867 36.44 28.2 37.88C26.84 39.32 24.9333 40.04 22.48 40.04C20.64 40.04 19.2133 39.7733 18.2 39.24V33.8C19.1867 34.4133 20.2133 34.72 21.28 34.72C23.1733 34.72 24.12 33.7067 24.12 31.68V13.08H30.28V31.84Z" fill="#FC0200"/>
</svg>
