<svg width="50" height="80" viewBox="0 0 50 80" fill="none" xmlns="http://www.w3.org/2000/svg">
<path d="M44.4648 10H4.42985C3.35306 10 2.46955 10.8525 2.43112 11.9286L0.073978 77.9286C0.0335553 79.0605 0.940147 80 2.0727 80H47.8934C49.0387 80 49.9501 79.04 49.8907 77.8962L46.4621 11.8962C46.4069 10.8334 45.5291 10 44.4648 10Z" fill="white"/>
<path d="M13 62.2893C19.1631 56.4721 21.4822 53.103 24.5804 47C28.4004 53.0259 31.2563 56.3691 37 62.2893C31.0537 67.7308 28.5211 71.0024 24.5804 77C20.8904 71.0236 18.4112 67.7869 13 62.2893Z" fill="#FC0200"/>
<rect x="6" y="44" width="38" height="2" fill="#FE0100"/>
<path d="M33.64 40H16.2V35.48C19.08 33.5067 21.6133 31.32 23.8 28.92C26.0133 26.52 27.12 24.4 27.12 22.56C27.12 21.44 26.7867 20.56 26.12 19.92C25.4533 19.2533 24.44 18.92 23.08 18.92C20.8133 18.92 18.6667 19.76 16.64 21.44V15.8C17.52 15.16 18.6667 14.6133 20.08 14.16C21.4933 13.7067 22.88 13.48 24.24 13.48C26.96 13.48 29.12 14.2 30.72 15.64C32.3467 17.0533 33.16 19.04 33.16 21.6C33.16 26.2133 30.2267 30.6933 24.36 35.04H33.64V40Z" fill="#FC0200"/>
<path d="M44.4648 10H4.42985C3.35306 10 2.46955 10.8525 2.43112 11.9286L0.073978 77.9286C0.0335553 79.0605 0.940147 80 2.0727 80H47.8934C49.0387 80 49.9501 79.04 49.8907 77.8962L46.4621 11.8962C46.4069 10.8334 45.5291 10 44.4648 10Z" fill="white"/>
<rect x="6" y="44" width="38" height="2" fill="#FE0100"/>
<path d="M32.92 32.8C32.92 35.04 32.0667 36.84 30.36 38.2C28.68 39.5333 26.32 40.2 23.28 40.2C20.4267 40.2 18.0667 39.7467 16.2 38.84V33.24C18.3333 34.4133 20.5333 35 22.8 35C24.1067 35 25.12 34.72 25.84 34.16C26.5867 33.6 26.96 32.8933 26.96 32.04C26.96 30.0933 25.16 29.12 21.56 29.12H20.16V24.32H21.56C22.9733 24.32 24.1333 24.08 25.04 23.6C25.9467 23.12 26.4 22.4 26.4 21.44C26.4 19.6 25.2 18.68 22.8 18.68C20.96 18.68 19.1067 19.2533 17.24 20.4V14.96C19.2133 13.9733 21.2 13.48 23.2 13.48C26.0267 13.48 28.2667 14.16 29.92 15.52C31.5733 16.8533 32.4 18.6 32.4 20.76C32.4 23.72 31.0533 25.76 28.36 26.88C31.4 27.6 32.92 29.5733 32.92 32.8Z" fill="#FC0200"/>
<path d="M34.2226 64.0848C42.2226 53.0804 33.2226 43.5801 25.2226 52.5848L24.7226 52.0801C16.707 43.5801 8.20669 55.0803 16.2226 64.0848L25.2226 75.0801L34.2226 64.0848Z" fill="#FD1A1E"/>
</svg>
