<svg width="53" height="80" viewBox="0 0 53 80" fill="none" xmlns="http://www.w3.org/2000/svg">
<path d="M44.4648 10H4.42985C3.35306 10 2.46955 10.8525 2.43112 11.9286L0.073978 77.9286C0.0335553 79.0605 0.940147 80 2.0727 80H47.8934C49.0387 80 49.9501 79.04 49.8907 77.8962L46.4621 11.8962C46.4069 10.8334 45.5291 10 44.4648 10Z" fill="white"/>
<path d="M13 62.2893C19.1631 56.4721 21.4822 53.103 24.5804 47C28.4004 53.0259 31.2563 56.3691 37 62.2893C31.0537 67.7308 28.5211 71.0024 24.5804 77C20.8904 71.0236 18.4112 67.7869 13 62.2893Z" fill="#FC0200"/>
<rect x="6" y="44" width="38" height="2" fill="#FE0100"/>
<path d="M33.64 40H16.2V35.48C19.08 33.5067 21.6133 31.32 23.8 28.92C26.0133 26.52 27.12 24.4 27.12 22.56C27.12 21.44 26.7867 20.56 26.12 19.92C25.4533 19.2533 24.44 18.92 23.08 18.92C20.8133 18.92 18.6667 19.76 16.64 21.44V15.8C17.52 15.16 18.6667 14.6133 20.08 14.16C21.4933 13.7067 22.88 13.48 24.24 13.48C26.96 13.48 29.12 14.2 30.72 15.64C32.3467 17.0533 33.16 19.04 33.16 21.6C33.16 26.2133 30.2267 30.6933 24.36 35.04H33.64V40Z" fill="#FC0200"/>
<path d="M47.4648 10H7.42985C6.35306 10 5.46955 10.8525 5.43112 11.9286L3.07398 77.9286C3.03356 79.0605 3.94015 80 5.0727 80H50.8934C52.0387 80 52.9501 79.04 52.8907 77.8962L49.4621 11.8962C49.4069 10.8334 48.5291 10 47.4648 10Z" fill="white"/>
<rect x="6" y="44" width="38" height="2" fill="#FE0100"/>
<path d="M20.8 40H15V20.12L8.4 24.08V18.12L15.76 13.84H20.8V40ZM46.4753 26.8C46.4753 30.9067 45.662 34.1867 44.0353 36.64C42.4353 39.0933 40.062 40.32 36.9153 40.32C33.7686 40.32 31.3953 39.1067 29.7953 36.68C28.1953 34.2267 27.3953 30.9333 27.3953 26.8C27.3953 22.64 28.1953 19.3467 29.7953 16.92C31.3953 14.4933 33.7686 13.28 36.9153 13.28C40.062 13.28 42.4353 14.4933 44.0353 16.92C45.662 19.3467 46.4753 22.64 46.4753 26.8ZM36.9153 18.48C34.542 18.48 33.3553 21.2533 33.3553 26.8C33.3553 32.3467 34.542 35.12 36.9153 35.12C39.3153 35.12 40.5153 32.3467 40.5153 26.8C40.5153 21.2533 39.3153 18.48 36.9153 18.48Z" fill="#FC0200"/>
<path d="M34.2226 64.0848C42.2226 53.0804 33.2226 43.5801 25.2226 52.5848L24.7226 52.0801C16.707 43.5801 8.20669 55.0803 16.2226 64.0848L25.2226 75.0801L34.2226 64.0848Z" fill="#FD1A1E"/>
</svg>
