<svg width="200" height="272" viewBox="0 0 200 272" fill="none" xmlns="http://www.w3.org/2000/svg">
<path fill-rule="evenodd" clip-rule="evenodd" d="M0.00905367 265.429C4.61235 186.074 9.21527 106.719 13.8182 27.3637C13.9738 24.686 16.6999 22 20.263 22H179.737C183.3 22 186.026 24.686 186.182 27.3637C190.785 106.719 195.388 186.074 199.991 265.429C200.181 268.701 197.369 272 193.203 272H6.79746C2.63148 272 -0.180757 268.701 0.00905367 265.429Z" fill="#FCEE21"/>
<path fill-rule="evenodd" clip-rule="evenodd" d="M5.0086 260.192C9.38173 184.011 13.7545 107.83 18.1273 31.6491C18.2751 29.0786 20.8649 26.5 24.2499 26.5H175.75C179.135 26.5 181.725 29.0786 181.873 31.6491C186.246 107.83 190.618 184.011 194.991 260.192C195.172 263.333 192.5 266.5 188.542 266.5H11.4576C7.49991 266.5 4.82828 263.333 5.0086 260.192Z" fill="white"/>
<path d="M150 211.88C150.001 217.432 148.062 222.808 144.521 227.07C140.979 231.332 136.061 234.21 130.623 235.2C125.186 236.19 119.575 235.231 114.77 232.489C109.965 229.748 106.27 225.398 104.331 220.199C104.313 235.79 105.309 246.164 120.035 254H79.9413C94.6674 246.167 95.6632 235.795 95.6451 220.199C94.0249 224.534 91.1755 228.296 87.4495 231.021C83.7234 233.747 79.2839 235.315 74.6802 235.532C70.0765 235.749 65.5104 234.605 61.5467 232.243C57.5829 229.88 54.3953 226.402 52.3781 222.239C50.3609 218.076 49.6025 213.409 50.1968 208.818C50.7911 204.226 52.712 199.91 55.7219 196.403C58.7318 192.896 62.6988 190.353 67.1321 189.088C71.5654 187.822 76.2707 187.89 80.6661 189.283C78.1921 185.732 76.7351 181.567 76.4534 177.242C76.1718 172.917 77.0764 168.597 79.0687 164.752C81.0611 160.908 84.0649 157.686 87.7532 155.437C91.4414 153.189 95.6729 152 99.9871 152C104.301 152 108.533 153.189 112.221 155.437C115.909 157.686 118.913 160.908 120.905 164.752C122.898 168.597 123.802 172.917 123.521 177.242C123.239 181.567 121.782 185.732 119.308 189.283C122.842 188.163 126.588 187.895 130.244 188.501C133.9 189.107 137.363 190.569 140.352 192.77C143.34 194.97 145.771 197.847 147.447 201.167C149.124 204.487 149.998 208.157 150 211.88Z" fill="black"/>
<path d="M139.625 123H115.5L87.25 81.125L114.5 38.75H137.375L109.75 80.875L139.625 123ZM86.375 123H67.125V38.75H86.375V123Z" fill="black"/>
</svg>
