<svg width="200" height="271" viewBox="0 0 200 271" fill="none" xmlns="http://www.w3.org/2000/svg">
<path fill-rule="evenodd" clip-rule="evenodd" d="M0.00905367 264.429C4.61235 185.074 9.21527 105.719 13.8182 26.3637C13.9738 23.686 16.6999 21 20.263 21H179.737C183.3 21 186.026 23.686 186.182 26.3637C190.785 105.719 195.388 185.074 199.991 264.429C200.181 267.701 197.369 271 193.203 271H6.79746C2.63148 271 -0.180757 267.701 0.00905367 264.429Z" fill="#FCEE21"/>
<path fill-rule="evenodd" clip-rule="evenodd" d="M5.0086 259.192C9.38173 183.011 13.7545 106.83 18.1273 30.6491C18.2751 28.0786 20.8649 25.5 24.2499 25.5H175.75C179.135 25.5 181.725 28.0786 181.873 30.6491C186.246 106.83 190.618 183.011 194.991 259.192C195.172 262.333 192.5 265.5 188.542 265.5H11.4576C7.49991 265.5 4.82828 262.333 5.0086 259.192Z" fill="white"/>
<path d="M139.625 123H115.5L87.25 81.125L114.5 38.75H137.375L109.75 80.875L139.625 123ZM86.375 123H67.125V38.75H86.375V123Z" fill="#FC0200"/>
<path d="M57 199.061C79.3412 177.731 87.748 165.378 98.979 143C112.826 165.095 123.179 177.353 144 199.061C122.445 219.013 113.264 231.009 98.979 253C85.6026 231.086 76.6154 219.219 57 199.061Z" fill="#FC0200"/>
</svg>
