<svg width="453" height="511" viewBox="0 0 453 511" fill="none" xmlns="http://www.w3.org/2000/svg">
<path d="M452.84 427.177H0V499.388C2.96533 505.505 6.23658 508.312 15.9826 510.79H442.185C448.49 508.642 450.435 505.876 452.84 499.388V427.177Z" fill="white"/>
<path d="M452.84 430.981H0" stroke="#B2B2B2" stroke-width="0.1"/>
<path d="M452.84 434.782H0" stroke="#B2B2B2" stroke-width="0.1"/>
<path d="M452.84 438.575H0" stroke="#B2B2B2" stroke-width="0.1"/>
<path d="M452.84 442.378H0" stroke="#B2B2B2" stroke-width="0.1"/>
<path d="M452.84 446.182H0" stroke="#B2B2B2" stroke-width="0.1"/>
<path d="M452.84 449.975H0" stroke="#B2B2B2" stroke-width="0.1"/>
<path d="M452.84 453.777H0" stroke="#B2B2B2" stroke-width="0.1"/>
<path d="M452.84 457.58H0" stroke="#B2B2B2" stroke-width="0.1"/>
<path d="M452.84 461.384H0" stroke="#B2B2B2" stroke-width="0.1"/>
<path d="M452.84 465.186H0" stroke="#B2B2B2" stroke-width="0.1"/>
<path d="M452.84 468.991H0" stroke="#B2B2B2" stroke-width="0.1"/>
<path d="M452.84 472.793H0" stroke="#B2B2B2" stroke-width="0.1"/>
<path d="M452.84 476.585H0" stroke="#B2B2B2" stroke-width="0.1"/>
<path d="M452.84 480.387H0" stroke="#B2B2B2" stroke-width="0.1"/>
<path d="M452.84 484.193H0" stroke="#B2B2B2" stroke-width="0.1"/>
<path d="M452.84 487.994H0" stroke="#B2B2B2" stroke-width="0.1"/>
<path d="M452.84 491.787H0" stroke="#B2B2B2" stroke-width="0.1"/>
<path d="M452.84 495.589H0" stroke="#B2B2B2" stroke-width="0.1"/>
<path d="M452.84 499.394H0" stroke="#B2B2B2" stroke-width="0.1"/>
<path d="M447.513 503.184L5.32782 503.184" stroke="#B2B2B2" stroke-width="0.1"/>
<path d="M447.513 506.988L5.32782 506.988" stroke="#B2B2B2" stroke-width="0.1"/>
<path fill-rule="evenodd" clip-rule="evenodd" d="M0.0204934 424.346C10.4403 286.013 20.8592 147.682 31.2781 9.34997C31.6304 4.68228 37.8009 0 45.8662 0H406.842C414.908 0 421.078 4.68228 421.43 9.34997C431.849 147.682 442.268 286.013 452.688 424.346C453.118 430.05 446.752 435.8 437.322 435.8H15.3863C5.95647 435.8 -0.409152 430.05 0.0204934 424.346Z" fill="white"/>
<path fill-rule="evenodd" clip-rule="evenodd" d="M8.31971 416.123C18.3614 282.632 28.4023 149.14 38.4431 15.6485C38.7827 11.1442 44.7293 6.62573 52.502 6.62573H400.38C408.153 6.62573 414.1 11.1442 414.439 15.6485C424.48 149.14 434.521 282.632 444.563 416.123C444.977 421.628 438.842 427.177 429.754 427.177H23.128C14.0403 427.177 7.90565 421.628 8.31971 416.123Z" fill="#EB0038"/>
<path fill-rule="evenodd" clip-rule="evenodd" d="M8.3197 416.13C14.2099 337.796 20.101 259.462 25.9912 181.128L26.1617 181.031L27.6329 180.052L29.1247 179.056L30.585 178.077L32.1646 177.024L33.6108 176.063L35.1192 175.055L36.5671 174.084L39.5433 172.095L41.1113 171.047L42.5277 170.1L44.0965 169.051L45.5345 168.094L47.0338 167.089L48.4742 166.123L50.0257 165.084L51.4819 164.113L52.9546 163.127L54.3992 162.155L55.9589 161.11L57.3878 160.156L58.8788 159.157L60.3102 158.194L61.8533 157.158L63.3004 156.192L64.764 155.21L66.2004 154.241L67.7518 153.2L69.1716 152.251L70.6551 151.256L72.0765 150.296L73.5625 149.294L75.085 148.276L76.5056 147.324L77.9328 146.36L79.4743 145.323L80.8866 144.377L82.3586 143.387L83.775 142.43L85.2503 141.432L86.7636 140.418L88.1768 139.471L89.5957 138.509L91.1281 137.479L92.533 136.536L95.4255 134.576L96.9281 133.568L98.3404 132.62L99.7792 131.65L101.19 130.693L102.712 129.664L104.11 128.727L105.564 127.743L106.951 126.803L108.478 125.77L109.882 124.826L111.314 123.859L112.715 122.907L114.23 121.883L115.619 120.947L117.066 119.969L118.443 119.031L119.962 118.003L121.309 117.091L122.814 116.074L124.174 115.152L125.667 114.139L127.067 113.194L128.498 112.226L129.866 111.293L131.376 110.269L132.764 109.333L134.18 108.372L135.563 107.428L137.049 106.42L138.441 105.479L139.863 104.515L141.223 103.585L142.725 102.565L144.105 101.633L145.511 100.676L146.886 99.7366L148.363 98.7316L149.748 97.7953L151.16 96.8349L152.514 95.9086L154.007 94.8936L155.366 93.9714L156.737 93.0334L158.178 92.0483L159.577 91.0962L161.013 90.1227L162.392 89.1855C163.847 88.0249 165.609 87.2384 167.4 86.7748L171.665 86.2392C172.51 86.2392 178.034 86.2392 181.583 89.8859C211.686 120.939 237.36 147.021 242.23 151.969C257.212 144.638 272.193 137.306 287.175 129.973C289.318 128.919 291.777 128.44 294.152 128.44C294.748 128.44 298.142 128.44 301.421 130.076C302.18 130.455 308.6 133.663 306.243 139.519C301.986 150.007 297.729 160.496 293.471 170.985C326.553 173.716 359.634 176.446 392.716 179.177C398.613 179.658 403.426 183.472 404.214 186.944C405.273 191.613 400.952 194.3 400.365 194.664L397.619 196.68L396.248 197.687L394.919 198.67L393.521 199.704L392.099 200.747L390.816 201.691L389.395 202.741L388.015 203.754L386.607 204.785L385.3 205.746L383.894 206.784L382.503 207.807L381.078 208.847L379.787 209.795L378.358 210.85L376.969 211.867L375.552 212.902L374.237 213.868L372.823 214.909L371.422 215.936L369.99 216.981L368.691 217.932L367.253 218.992L365.856 220.013L364.43 221.053L363.108 222.022L361.637 223.096L360.309 224.069L357.528 226.103L356.081 227.166L354.686 228.185L353.231 229.243L351.909 230.207L350.479 231.258L349.059 232.293L347.608 233.346L346.295 234.305L344.837 235.373L343.436 236.396L341.972 237.458L340.642 238.428L339.201 239.482L337.775 240.52L334.945 242.571L332.117 244.64L330.645 245.706L329.305 246.68L327.856 247.738L326.373 248.811L324.999 249.806L323.613 250.818L322.148 251.885L320.727 252.917L319.247 253.988L317.9 254.965L316.442 256.027L314.95 257.104L313.568 258.103L312.173 259.12L310.699 260.192L309.271 261.227L307.779 262.302L306.424 263.283L304.958 264.35L303.504 265.403L302.03 266.464L300.661 267.455L299.178 268.531L297.741 269.571L296.242 270.65L294.879 271.635L293.402 272.705L292.543 273.368L301.852 319.52C302.875 324.578 298.152 327.487 297.51 327.882L294.543 330.031L293.064 331.105L290.118 333.254L288.581 334.366L287.195 335.371L285.66 336.491L284.169 337.572L282.649 338.67L281.238 339.695L279.719 340.801L278.215 341.891L276.677 343L275.283 344.009L273.738 345.134L272.238 346.218L270.708 347.322L269.287 348.35L267.76 349.46L266.246 350.554L264.7 351.668L263.297 352.682L261.743 353.811L260.233 354.9L258.694 356.007L257.265 357.039L255.677 358.185L254.241 359.222L251.237 361.389L249.673 362.522L248.167 363.607L246.596 364.735L245.167 365.763L243.622 366.882L242.088 367.985L240.521 369.108L239.102 370.129L237.529 371.267L236.014 372.357L234.433 373.489L232.996 374.521L231.439 375.644L229.898 376.752L228.321 377.879L226.843 378.937L225.347 380.015L223.785 381.141L222.196 382.278L220.748 383.315L219.183 384.442L217.58 385.585L216.097 386.646L214.598 387.723L213.016 388.86L211.481 389.96L209.882 391.1L208.426 392.142L206.851 393.274L205.239 394.421L203.746 395.486L200.646 397.711L199.103 398.813L197.492 399.958L196.028 401.004L194.443 402.14L192.872 403.261L191.28 404.392L189.802 405.448L188.199 406.595L186.646 407.701L185.027 408.851L183.554 409.901L181.958 411.041L180.379 412.167L178.776 413.302L177.288 414.362L175.676 415.513L174.114 416.625L172.484 417.779L171.001 418.833L167.845 421.075L166.196 422.247L164.699 423.312L163.077 424.467L161.505 425.582L159.865 426.741L159.296 427.183H23.1235C14.0386 427.183 7.90577 421.634 8.3197 416.13Z" fill="black"/>
<path d="M268.009 218.814C274.656 252.773 281.303 286.733 287.95 320.692C263.875 294.605 237.371 265.592 214.349 240.143C195.142 249.334 175.937 258.526 156.73 267.717C162.975 253.673 169.22 239.629 175.465 225.584C136.732 222.316 97.9998 219.047 59.2666 215.778C100.976 205.307 142.685 194.836 184.394 184.365C179.808 154.453 175.222 124.541 170.637 94.6288C191.757 116.518 216.353 141.795 238.252 164.105C256.676 155.077 275.1 146.048 293.524 137.019C287.845 150.833 282.166 164.647 276.487 178.461C314.639 181.614 352.79 184.767 390.942 187.92C349.965 198.218 308.986 208.516 268.009 218.814Z" fill="white"/>
</svg>
