<svg width="453" height="511" viewBox="0 0 453 511" fill="none" xmlns="http://www.w3.org/2000/svg">
<path d="M452.84 427.177H0V499.388C2.96533 505.505 6.23658 508.312 15.9826 510.79H442.185C448.49 508.642 450.435 505.876 452.84 499.388V427.177Z" fill="white"/>
<path d="M452.84 430.98H0" stroke="#B2B2B2" stroke-width="0.1"/>
<path d="M452.84 434.783H0" stroke="#B2B2B2" stroke-width="0.1"/>
<path d="M452.84 438.577H0" stroke="#B2B2B2" stroke-width="0.1"/>
<path d="M452.84 442.38H0" stroke="#B2B2B2" stroke-width="0.1"/>
<path d="M452.84 446.183H0" stroke="#B2B2B2" stroke-width="0.1"/>
<path d="M452.84 449.978H0" stroke="#B2B2B2" stroke-width="0.1"/>
<path d="M452.84 453.781H0" stroke="#B2B2B2" stroke-width="0.1"/>
<path d="M452.84 457.584H0" stroke="#B2B2B2" stroke-width="0.1"/>
<path d="M452.84 461.387H0" stroke="#B2B2B2" stroke-width="0.1"/>
<path d="M452.84 465.181H0" stroke="#B2B2B2" stroke-width="0.1"/>
<path d="M452.84 468.984H0" stroke="#B2B2B2" stroke-width="0.1"/>
<path d="M452.84 472.787H0" stroke="#B2B2B2" stroke-width="0.1"/>
<path d="M452.84 476.582H0" stroke="#B2B2B2" stroke-width="0.1"/>
<path d="M452.84 480.385H0" stroke="#B2B2B2" stroke-width="0.1"/>
<path d="M452.84 484.188H0" stroke="#B2B2B2" stroke-width="0.1"/>
<path d="M452.84 487.991H0" stroke="#B2B2B2" stroke-width="0.1"/>
<path d="M452.84 491.785H0" stroke="#B2B2B2" stroke-width="0.1"/>
<path d="M452.84 495.588H0" stroke="#B2B2B2" stroke-width="0.1"/>
<path d="M452.84 499.392H0" stroke="#B2B2B2" stroke-width="0.1"/>
<path d="M447.509 503.186L5.3244 503.186" stroke="#B2B2B2" stroke-width="0.1"/>
<path d="M447.509 506.989L5.3244 506.989" stroke="#B2B2B2" stroke-width="0.1"/>
<path fill-rule="evenodd" clip-rule="evenodd" d="M0.0204933 424.342C10.4402 286.011 20.8591 147.681 31.278 9.3499C31.6303 4.68224 37.8009 0 45.8661 0H406.841C414.907 0 421.077 4.68224 421.43 9.3499C431.848 147.681 442.267 286.011 452.687 424.342C453.117 430.046 446.751 435.796 437.321 435.796H15.3863C5.95646 435.796 -0.409151 430.046 0.0204933 424.342Z" fill="white"/>
<path fill-rule="evenodd" clip-rule="evenodd" d="M8.31168 416.109C18.3534 282.618 28.3943 149.127 38.4351 15.6363C38.7746 11.1319 44.7213 6.61353 52.494 6.61353H400.373C408.145 6.61353 414.092 11.1319 414.432 15.6363C424.472 149.127 434.513 282.618 444.555 416.109C444.969 421.613 438.834 427.162 429.747 427.162H23.12C14.0323 427.162 7.89762 421.613 8.31168 416.109Z" fill="black"/>
<path fill-rule="evenodd" clip-rule="evenodd" d="M8.31167 416.11C14.2019 337.777 20.093 259.444 25.9832 181.111L26.1537 181.013L27.6248 180.034L29.1167 179.039L30.577 178.059L32.1566 177.006L33.6028 176.045L35.1112 175.038L36.5591 174.066L39.5353 172.077L41.1033 171.03L42.5197 170.082L44.0885 169.033L45.5265 168.076L47.0258 167.072L48.4663 166.106L50.0177 165.066L51.4739 164.096L52.9466 163.109L54.3913 162.137L55.9509 161.092L57.3798 160.139L58.8708 159.139L60.3022 158.177L61.8453 157.14L63.2924 156.175L64.7561 155.192L66.1924 154.224L67.7438 153.183L69.1636 152.234L70.6471 151.238L72.0686 150.279L73.5546 149.276L75.077 148.258L76.4976 147.307L77.9249 146.343L79.4663 145.306L80.8787 144.36L82.3506 143.37L83.7671 142.413L85.2423 141.415L86.7557 140.401L88.1688 139.454L89.5878 138.492L91.1201 137.461L92.525 136.518L95.4176 134.559L96.9201 133.551L98.3325 132.603L99.7713 131.632L101.182 130.675L102.704 129.647L104.102 128.709L105.556 127.726L106.943 126.785L108.47 125.753L109.875 124.809L111.306 123.842L112.707 122.889L114.222 121.865L115.611 120.93L117.058 119.951L118.435 119.014L119.954 117.986L121.301 117.074L122.806 116.056L124.166 115.135L125.659 114.122L127.059 113.177L128.49 112.209L129.858 111.276L131.368 110.252L132.756 109.316L134.172 108.355L135.555 107.411L137.041 106.403L138.433 105.462L139.855 104.498L141.215 103.568L142.717 102.548L144.097 101.616L145.503 100.659L146.878 99.7196L148.355 98.7146L149.74 97.7783L151.152 96.818L152.506 95.8916L153.999 94.8766L155.358 93.9544L156.729 93.0165L158.17 92.0313L159.569 91.0793L161.005 90.1057L162.384 89.1686C163.839 88.008 165.601 87.2215 167.392 86.7579L171.657 86.2223C172.502 86.2223 178.026 86.2223 181.576 89.869C211.678 120.922 237.352 147.004 242.222 151.952C257.204 144.621 272.185 137.288 287.167 129.956C289.31 128.902 291.769 128.423 294.144 128.423C294.74 128.423 298.134 128.423 301.413 130.059C302.172 130.438 308.593 133.646 306.236 139.502C301.978 149.99 297.721 160.479 293.463 170.967C326.545 173.698 359.626 176.428 392.708 179.159C398.605 179.64 403.418 183.454 404.206 186.926C405.265 191.595 400.944 194.282 400.358 194.646L397.611 196.662L396.241 197.669L394.911 198.652L393.514 199.686L392.092 200.729L390.808 201.673L389.387 202.723L388.007 203.737L386.6 204.767L385.292 205.728L383.887 206.766L382.495 207.789L381.07 208.83L379.78 209.777L378.35 210.832L376.962 211.85L375.544 212.884L374.23 213.85L372.816 214.891L371.414 215.919L369.983 216.963L368.684 217.914L367.246 218.974L365.848 219.995L364.423 221.035L363.1 222.004L361.63 223.078L360.301 224.051L357.52 226.085L356.073 227.148L354.678 228.167L353.223 229.225L351.901 230.189L350.471 231.24L349.051 232.275L347.601 233.328L346.287 234.287L344.83 235.355L343.428 236.378L341.965 237.44L340.634 238.41L339.194 239.463L337.767 240.502L334.937 242.553L332.109 244.622L330.637 245.688L329.297 246.662L327.849 247.72L326.365 248.792L324.992 249.788L323.605 250.8L322.141 251.867L320.719 252.899L319.24 253.97L317.892 254.947L316.434 256.009L314.942 257.086L313.56 258.085L312.165 259.102L310.691 260.174L309.263 261.209L307.771 262.284L306.416 263.265L304.95 264.331L303.496 265.384L302.022 266.446L300.653 267.437L299.17 268.513L297.733 269.553L296.234 270.631L294.871 271.616L293.394 272.687L292.535 273.35L301.844 319.502C302.867 324.559 298.144 327.468 297.503 327.863L294.536 330.012L293.056 331.086L290.111 333.235L288.573 334.347L287.187 335.353L285.653 336.472L284.162 337.553L282.641 338.652L281.23 339.676L279.711 340.782L278.208 341.872L276.669 342.981L275.275 343.99L273.731 345.115L272.23 346.199L270.7 347.303L269.279 348.331L267.753 349.441L266.238 350.535L264.692 351.649L263.29 352.663L261.735 353.792L260.226 354.881L258.686 355.988L257.257 357.02L255.669 358.166L254.234 359.203L251.229 361.37L249.665 362.503L248.159 363.588L246.588 364.716L245.159 365.744L243.614 366.863L242.081 367.966L240.513 369.088L239.094 370.11L237.521 371.248L236.006 372.338L234.425 373.47L232.988 374.502L231.431 375.625L229.89 376.733L228.313 377.86L226.835 378.917L225.339 379.996L223.777 381.122L222.188 382.259L220.74 383.296L219.175 384.423L217.573 385.566L216.089 386.626L214.591 387.703L213.008 388.841L211.473 389.941L209.874 391.081L208.418 392.123L206.844 393.254L205.231 394.402L203.738 395.466L200.638 397.692L199.095 398.793L197.484 399.939L196.02 400.985L194.436 402.121L192.864 403.241L191.272 404.373L189.794 405.429L188.191 406.575L186.638 407.682L185.019 408.832L183.546 409.882L181.95 411.022L180.371 412.147L178.768 413.282L177.281 414.343L175.668 415.494L174.107 416.605L172.477 417.759L170.993 418.813L167.837 421.055L166.188 422.227L164.691 423.292L163.069 424.448L161.497 425.563L159.857 426.722L159.288 427.164H23.1155C14.0305 427.164 7.89774 421.615 8.31167 416.11Z" fill="#EB0038"/>
<path d="M267.996 218.8C274.643 252.758 281.29 286.718 287.937 320.677C263.862 294.59 237.358 265.577 214.336 240.129C195.129 249.32 175.924 258.511 156.717 267.702C162.963 253.658 169.207 239.615 175.453 225.57C136.719 222.302 97.9872 219.033 59.254 215.763C100.963 205.293 142.672 194.822 184.381 184.351C179.796 154.439 175.209 124.528 170.624 94.6156C191.744 116.505 216.34 141.782 238.239 164.091C256.663 155.063 275.087 146.034 293.511 137.006C287.832 150.819 282.153 164.633 276.474 178.447C314.626 181.6 352.777 184.753 390.929 187.906C349.952 198.204 308.973 208.501 267.996 218.8Z" fill="white"/>
</svg>
