<svg width="527" height="508" viewBox="0 0 527 508" fill="none" xmlns="http://www.w3.org/2000/svg">
<path fill-rule="evenodd" clip-rule="evenodd" d="M0.0238492 493.835C12.1499 332.85 24.2749 171.866 36.3999 10.8811C36.8099 5.44904 43.9909 0 53.3769 0H473.463C482.849 0 490.03 5.44904 490.44 10.8811C502.565 171.866 514.69 332.85 526.816 493.835C527.316 500.474 519.908 507.166 508.934 507.166H17.9059C6.93185 507.166 -0.476151 500.474 0.0238492 493.835Z" fill="white"/>
<path fill-rule="evenodd" clip-rule="evenodd" d="M9.66779 484.264C21.3539 328.912 33.039 173.56 44.7241 18.2075C45.1192 12.9655 52.0396 7.70715 61.0851 7.70715H465.93C474.976 7.70715 481.896 12.9655 482.291 18.2075C493.976 173.56 505.661 328.912 517.347 484.264C517.829 490.67 510.69 497.128 500.114 497.128H26.901C16.3252 497.128 9.18593 490.67 9.66779 484.264Z" fill="#EB0038"/>
<path fill-rule="evenodd" clip-rule="evenodd" d="M9.66778 484.263C16.5226 393.101 23.3783 301.939 30.2331 210.778L30.4315 210.664L32.1436 209.525L33.8797 208.366L35.5791 207.227L37.4174 206.001L39.1005 204.883L40.8558 203.71L42.5409 202.58L46.0044 200.265L47.8291 199.046L49.4775 197.943L51.3032 196.722L52.9767 195.609L54.7215 194.44L56.3978 193.316L58.2033 192.106L59.8979 190.977L61.6119 189.828L63.2931 188.697L65.1082 187.481L66.771 186.371L68.5062 185.209L70.1719 184.088L71.9677 182.882L73.6518 181.759L75.3552 180.615L77.0267 179.488L78.8322 178.277L80.4844 177.172L82.2109 176.014L83.8651 174.897L85.5944 173.73L87.3662 172.545L89.0194 171.438L90.6804 170.316L92.4743 169.11L94.1179 168.009L95.8309 166.856L97.4793 165.743L99.1961 164.582L100.957 163.401L102.602 162.299L104.253 161.18L106.036 159.98L107.671 158.883L111.038 156.603L112.786 155.429L114.43 154.326L116.104 153.197L117.746 152.083L119.518 150.887L121.144 149.795L122.837 148.65L124.45 147.556L126.228 146.355L127.862 145.256L129.528 144.13L131.159 143.022L132.922 141.83L134.537 140.742L136.222 139.603L137.824 138.512L139.592 137.316L141.16 136.254L142.911 135.07L144.494 133.998L146.232 132.818L147.861 131.719L149.526 130.592L151.118 129.507L152.875 128.314L154.49 127.226L156.138 126.107L157.747 125.009L159.477 123.835L161.097 122.741L162.751 121.619L164.334 120.537L166.083 119.35L167.688 118.265L169.325 117.151L170.925 116.058L172.644 114.888L174.256 113.798L175.899 112.681L177.474 111.603L179.212 110.422L180.794 109.348L182.389 108.257L184.066 107.11L185.694 106.002L187.365 104.869L188.97 103.779C190.663 102.428 192.714 101.513 194.798 100.973L199.761 100.35C200.745 100.35 207.173 100.35 211.304 104.594C246.336 140.732 276.214 171.086 281.882 176.844C299.317 168.312 316.751 159.779 334.186 151.246C336.681 150.019 339.542 149.462 342.306 149.462C343 149.462 346.95 149.462 350.766 151.365C351.649 151.807 359.121 155.54 356.378 162.355C351.423 174.561 346.469 186.767 341.514 198.973C380.013 202.151 418.511 205.329 457.011 208.507C463.873 209.067 469.475 213.505 470.392 217.546C471.624 222.98 466.595 226.106 465.913 226.53L462.716 228.876L461.122 230.048L459.574 231.192L457.948 232.395L456.293 233.609L454.8 234.707L453.145 235.93L451.539 237.109L449.902 238.309L448.38 239.427L446.744 240.634L445.125 241.825L443.467 243.036L441.965 244.139L440.301 245.367L438.685 246.551L437.036 247.755L435.506 248.879L433.861 250.09L432.229 251.286L430.564 252.502L429.052 253.609L427.379 254.842L425.752 256.03L424.093 257.24L422.554 258.368L420.843 259.618L419.296 260.751L416.06 263.117L414.376 264.355L412.753 265.54L411.06 266.771L409.522 267.894L407.857 269.116L406.204 270.321L404.517 271.547L402.988 272.663L401.292 273.905L399.661 275.096L397.958 276.332L396.409 277.46L394.733 278.687L393.073 279.896L389.779 282.282L386.488 284.69L384.775 285.931L383.216 287.064L381.53 288.295L379.804 289.544L378.205 290.702L376.592 291.88L374.887 293.122L373.233 294.322L371.511 295.569L369.943 296.706L368.246 297.942L366.51 299.195L364.901 300.358L363.278 301.541L361.563 302.789L359.901 303.993L358.165 305.245L356.588 306.386L354.882 307.627L353.19 308.853L351.474 310.088L349.882 311.241L348.155 312.494L346.483 313.704L344.739 314.959L343.152 316.105L341.433 317.351L340.434 318.123L351.267 371.833C352.458 377.718 346.961 381.104 346.215 381.564L342.762 384.065L341.04 385.314L337.612 387.815L335.823 389.109L334.21 390.28L332.424 391.582L330.689 392.84L328.919 394.119L327.278 395.311L325.51 396.598L323.76 397.867L321.97 399.158L320.348 400.332L318.55 401.64L316.804 402.902L315.023 404.187L313.37 405.383L311.593 406.675L309.831 407.949L308.031 409.245L306.399 410.425L304.59 411.739L302.834 413.006L301.042 414.294L299.379 415.495L297.531 416.829L295.86 418.036L292.364 420.557L290.544 421.876L288.791 423.139L286.963 424.451L285.3 425.648L283.502 426.95L281.717 428.234L279.893 429.54L278.241 430.729L276.411 432.054L274.648 433.322L272.808 434.64L271.136 435.84L269.324 437.147L267.531 438.436L265.695 439.748L263.975 440.979L262.234 442.234L260.417 443.545L258.567 444.867L256.882 446.075L255.061 447.386L253.196 448.716L251.469 449.95L249.726 451.204L247.884 452.528L246.097 453.808L244.237 455.135L242.542 456.347L240.71 457.664L238.833 458.999L237.096 460.238L233.488 462.828L231.692 464.11L229.817 465.443L228.114 466.66L226.27 467.982L224.442 469.286L222.589 470.603L220.868 471.832L219.003 473.166L217.196 474.454L215.311 475.792L213.597 477.014L211.74 478.341L209.902 479.651L208.037 480.972L206.306 482.206L204.429 483.545L202.612 484.839L200.715 486.182L198.989 487.408L195.316 490.017L193.397 491.382L191.655 492.621L189.767 493.965L187.937 495.263L186.03 496.612L185.367 497.126H26.8958C16.3231 497.126 9.18607 490.669 9.66778 484.263Z" fill="black"/>
<path d="M311.88 254.64C319.615 294.16 327.35 333.681 335.087 373.201C307.069 342.842 276.224 309.078 249.432 279.462C227.081 290.158 204.73 300.855 182.379 311.551C189.647 295.207 196.914 278.864 204.182 262.519C159.106 258.716 114.031 254.911 68.9555 251.106C117.495 238.921 166.033 226.736 214.573 214.55C209.236 179.74 203.899 144.929 198.562 110.119C223.141 135.593 251.765 165.009 277.25 190.972C298.691 180.465 320.132 169.958 341.573 159.451C334.964 175.527 328.355 191.602 321.746 207.679C366.145 211.348 410.544 215.017 454.943 218.687C407.256 230.671 359.567 242.655 311.88 254.64Z" fill="white"/>
</svg>
