<svg width="200" height="272" viewBox="0 0 200 272" fill="none" xmlns="http://www.w3.org/2000/svg">
<path fill-rule="evenodd" clip-rule="evenodd" d="M0.00905367 265.429C4.61235 186.074 9.21527 106.719 13.8182 27.3637C13.9738 24.686 16.6999 22 20.263 22H179.737C183.3 22 186.026 24.686 186.182 27.3637C190.785 106.719 195.388 186.074 199.991 265.429C200.181 268.701 197.369 272 193.203 272H6.79746C2.63148 272 -0.180757 268.701 0.00905367 265.429Z" fill="#FCEE21"/>
<path fill-rule="evenodd" clip-rule="evenodd" d="M5.0086 260.192C9.38173 184.011 13.7545 107.83 18.1273 31.6491C18.2751 29.0786 20.8649 26.5 24.2499 26.5H175.75C179.135 26.5 181.725 29.0786 181.873 31.6491C186.246 107.83 190.618 184.011 194.991 260.192C195.172 263.333 192.5 266.5 188.542 266.5H11.4576C7.49991 266.5 4.82828 263.333 5.0086 260.192Z" fill="white"/>
<path d="M85.9321 254L100.255 228.935L110.997 254H85.9321Z" fill="black"/>
<path d="M130.869 191.753C158.337 229.537 127.435 262.157 99.9669 231.239L98.2501 232.972C70.7281 262.157 41.5419 222.671 69.0649 191.753L99.9669 154L130.869 191.753Z" fill="black"/>
<path d="M139.625 123H115.5L87.25 81.125L114.5 38.75H137.375L109.75 80.875L139.625 123ZM86.375 123H67.125V38.75H86.375V123Z" fill="black"/>
</svg>
