<svg width="263" height="262" viewBox="0 0 263 262" fill="none" xmlns="http://www.w3.org/2000/svg">
<circle cx="131" cy="131" r="130" fill="#0052B4"/>
<path d="M56.0114 237.507L234.513 52.0033C223.011 37.5069 211.512 28.0085 205.011 24.0094L27.501 210.001C42 228 49.5 232 56.0114 237.507Z" fill="#F0F0F0"/>
<path d="M50.483 227.632L222.594 46.31L222.526 46.2453C215.881 39.9385 212.628 36.8518 209.195 34.2809L37.688 214.966C44.7714 222.211 48.0352 225.309 50.483 227.632Z" fill="#D80027"/>
<path d="M241.968 198.494L41.4996 36.4996C28.0141 48.4942 21.4832 60.4878 16.4747 68.9849L215.968 229.494C231.468 215.494 238.468 204.494 241.968 198.494Z" fill="#F0F0F0"/>
<path d="M232.538 205.625L33.9609 45.1787L33.9019 45.2518C28.1446 52.3785 25.3269 55.8664 23.0459 59.5009L220.926 219.384C227.589 211.751 230.417 208.25 232.538 205.625Z" fill="#D80027"/>
<path d="M256 95L5.7091 93.0376C-3.52815 124.97 0.76715 152.503 5.66385 166.539L255.5 169C267.346 138.587 259.529 107.527 256 95Z" fill="#F0F0F0"/>
<path d="M255.759 111.396L5.74996 109.54L5.75006 110.7C5.75188 133.666 5.75228 138.681 5.95359 149.543L255.084 151.392C255.759 125.501 255.759 120.001 255.759 111.396Z" fill="#D80027"/>
<path d="M167.5 255.877V5.99915C135.5 -3.00088 108 1.49862 94 6.49935V255.499C124.5 267.12 155 259.499 167.5 255.877Z" fill="#F0F0F0"/>
<path d="M151 256.178V6.16211L150.791 6.16212C130.432 6.16281 120.468 6.16316 111 6.66259V255.8C133.5 256.178 143.5 256.178 151 256.178Z" fill="#D80027"/>
</svg>
