<svg width="260" height="260" viewBox="0 0 260 260" fill="none" xmlns="http://www.w3.org/2000/svg">
<circle cx="130" cy="130" r="130" fill="#043791"/>
<circle cx="130" cy="130" r="118" fill="#DB153E"/>
<path d="M137.316 55.7983L138.662 66.9507L148.832 62.1785L144.841 72.6791L156.063 73.1795L147.65 80.6228L157.354 86.281L146.445 88.9618L152.408 98.4817L141.503 95.7859L142.359 106.987L133.956 99.5316L129.509 109.847L125.533 99.341L116.801 106.408L118.163 95.2577L107.147 97.4575L113.535 88.2171L102.758 85.0456L112.708 79.8321L104.64 72.0158L115.874 72.0236L112.362 61.3532L122.305 66.5805L124.154 55.5004L130.529 64.7497L137.316 55.7983Z" fill="white"/>
<path d="M122.94 96.7157C136.235 99.8375 148.885 95.2047 157.197 87.5289C169.367 76.2824 173.695 64.1608 173.695 64.1608C173.695 64.1608 174.989 77.2701 170.415 89.7308C165.841 102.191 152.506 116.896 133.847 118.306C113.344 119.844 99.9789 107.786 94.0503 97.7278C81.7511 76.8517 87.7377 61.7962 87.7377 61.7962C87.7377 61.7962 91.7664 76.0468 102.582 85.7817C110.632 93.0289 116.362 95.1729 122.94 96.7157Z" fill="white"/>
<path d="M130 136L137.206 157.109L154 142.431L149.686 164.314L171.569 160L156.891 176.794L178 184L156.891 191.206L171.569 208L149.686 203.686L154 225.569L137.206 210.891L130 232L122.794 210.891L106 225.569L110.314 203.686L88.4308 208L103.109 191.206L82 184L103.109 176.794L88.4308 160L110.314 164.314L106 142.431L122.794 157.109L130 136Z" fill="white"/>
</svg>
