<svg width="237" height="237" viewBox="0 0 237 237" fill="none" xmlns="http://www.w3.org/2000/svg">
<circle cx="118" cy="118" r="118" fill="#F0F0F0"/>
<path d="M118.839 0.181417C134.335 0.205206 149.674 3.28092 163.982 9.23295C178.289 15.185 191.284 23.8967 202.224 34.8709C213.165 45.845 221.836 58.8665 227.745 73.1921C233.653 87.5176 236.681 102.866 236.657 118.362C236.634 133.858 233.558 149.198 227.606 163.505C221.654 177.813 212.942 190.807 201.968 201.748C190.994 212.688 177.972 221.36 163.647 227.268C149.321 233.176 133.972 236.205 118.476 236.181L118.658 118.181L118.839 0.181417Z" fill="#496E2D"/>
<path d="M86.5231 3.999C87.1607 3.59922 99.0769 0 120 0L119.203 235.871C116.015 236.271 102.215 235.941 86 231.942L86.5231 3.999Z" fill="#496E2D"/>
<path d="M37 204V33C26.0984 39.7543 3.49028 64.7289 0.270132 110.592C-2.95002 156.456 23.415 191.974 37 204Z" fill="#F0F0F0"/>
<path d="M38 32C49.2 19.6 75 8.5 86.5 4.5L86 231.5C71.2 229.9 47.8333 212.833 38 204.5V32Z" fill="#F0F0F0"/>
<path d="M67 12C67.6377 11.6002 78 4.5 101 1L99.5 234.5C96.3117 234.9 72 229 65 223.5L67 12Z" fill="#496E2D"/>
<path d="M135.68 65.9014C128.75 72.8258 124.47 81.7572 122.19 91.2851C117.726 109.944 117.943 145.232 161.963 149.551C170.823 150.42 180.043 150.606 188.571 147.558C176.976 162.44 157.508 170.419 137.557 166.544C109.376 161.069 90.9225 134.035 96.3376 106.158C100.34 85.5548 116.268 70.2713 135.68 65.9014Z" fill="#F0F0F0"/>
<path d="M154 91.4727L158.49 105.292H173.021L161.265 113.833L165.756 127.653L154 119.112L142.244 127.653L146.735 113.833L134.979 105.292H149.51L154 91.4727Z" fill="#F0F0F0"/>
</svg>
