<svg width="96" height="97" viewBox="0 0 96 97" fill="none" xmlns="http://www.w3.org/2000/svg">
<circle cx="48" cy="48" r="48" fill="white"/>
<circle cx="48.3906" cy="48.5" r="47.5" fill="white"/>
<path d="M10.1542 71.5547L8.71875 73.4687" stroke="#D6D6D6"/>
<path d="M46.5195 41.8867C49.3905 46.5122 55.5152 57.7727 57.0464 65.8114" stroke="#D6D6D6"/>
<path d="M55.6094 27.1273C60.2348 26.1703 71.0169 25.0219 77.1416 28.0843" stroke="#D6D6D6"/>
<path d="M83.8433 43.3223C82.0888 49.2237 77.7186 61.7922 74.2734 64.8545" stroke="#D6D6D6"/>
<path d="M48.912 5.04297C47.955 7.59494 45.9453 13.4645 45.5625 16.5268" stroke="#D6D6D6"/>
<path d="M23.5508 73.9453C27.2192 75.2213 37.0443 77.9647 46.997 78.7303" stroke="#D6D6D6"/>
<path d="M59.9176 86.8652C57.8442 89.4172 52.539 95.1172 51.3906 95.5" stroke="#D6D6D6"/>
<path d="M74.8906 79C76.8046 79.7975 81.1111 81.2968 83.025 80.914" stroke="#D6D6D6"/>
<path d="M13.0234 21.791C17.0109 22.2695 25.6557 23.705 28.3353 25.619" stroke="#D6D6D6"/>
<path d="M16.8516 58.634C18.4465 54.3275 23.2634 44.6619 29.7709 40.4512" stroke="#D6D6D6"/>
<path d="M19.7227 80.6445C21.7961 83.5155 26.8044 89.7359 30.2495 91.6499" stroke="#D6D6D6"/>
<path d="M2.53422 36.4431C1.89152 40.5004 1.71968 52.2061 6.39405 57.0003" stroke="#D6D6D6"/>
<path d="M81.4509 20.8337C80.3906 15.5 69.5624 6.64839 68.0312 5.5" stroke="#D6D6D6"/>
<path d="M91.8906 46C92.5286 47.276 93.8906 48 95.3906 54.5" stroke="#D6D6D6"/>
<path opacity="0.1" d="M53.4656 1.003C57.2151 4.72449 60.4141 8.96225 62.9656 13.588L63.1106 13.873C67.3156 21.505 69.7906 30.601 69.7906 40.273C69.7906 61.201 58.2076 79.423 41.1046 88.879L40.8196 89.023C38.0036 90.583 34.7146 92.003 31.2866 93.1L30.8906 93.208C35.9606 95.143 41.8256 96.265 47.9506 96.265C56.5436 96.265 64.6196 94.06 71.6456 90.185L71.3926 90.313C74.3576 88.687 76.9096 86.947 79.2766 84.994L79.1926 85.064C89.4416 76.209 95.8886 63.196 95.8886 48.676C95.8886 24.133 77.4686 3.892 53.7006 1.024L53.4716 1L53.4656 1.003Z" fill="#292929"/>
<path d="M43.8906 12.1719C40.2906 12.9995 28.8906 19.5857 23.8906 22.5167L25.3906 40.6201C28.9906 40.6201 40.724 41.6546 45.8906 42.1719C47.4906 38.8615 54.8906 28.2064 57.8906 23.5512L50.8906 17.3443L43.8906 12.1719Z" fill="#292929"/>
<path d="M56.5333 89.604C60.2605 88.8375 71.5768 83.0723 76.769 80.2855L75.3763 62.7723C71.6562 62.7389 60.0573 61.6346 54.7228 61.0866C53.0407 64.2716 46.3391 74.0118 43.1987 78.4837L56.5333 89.604Z" fill="#292929"/>
<path d="M83.2327 45.5684C83.2327 42.5753 77.338 31.4937 74.3906 26.327L79.3643 16.1719L83.7854 19.3788C90.9696 24.7236 93.3643 36.6604 95.3906 43.965L94.838 47.1719L83.2327 45.5684Z" fill="#292929"/>
<path d="M12.8906 22C7.39062 25.5 3.22396 34.1667 1.89062 38.5C1.89062 30.5 10.3906 20.1667 14.8906 16C13.8906 17.5 13.0573 20.6667 12.8906 22Z" fill="#292929"/>
<path d="M14.392 56.6719C10.792 57.0719 6.55865 55.5052 4.89198 54.6719C0.891983 71.0719 9.89062 79.6719 17.8923 83.1719L23.3923 75.6719C20.1923 72.4719 15.892 61.5052 14.392 56.6719Z" fill="#292929"/>
<path d="M46.8906 4.15806C46.0906 3.35806 41.224 1.99521 39.3906 1.66188C46.5906 0.0618752 57.1391 1.54529 62.3906 4.15845C60.7906 3.35845 51.5573 3.99139 46.8906 4.15806Z" fill="#292929"/>
</svg>
