<svg width="75" height="94" viewBox="0 0 75 94" fill="none" xmlns="http://www.w3.org/2000/svg">
<g opacity="0.15">
<path d="M68 44C73.2706 40.6667 74.8627 35.9444 75 34V41.0833L68 44Z" fill="white"/>
<path d="M8 44C1.97647 40.6667 0.156863 35.9444 0 34V41.0833L8 44Z" fill="white"/>
<path d="M29.5382 94H22C29.4495 91.5733 33.0856 84.3222 33.9725 81C34.3272 86.5467 31.1641 91.9778 29.5382 94Z" fill="white"/>
<path d="M44.4618 94H52C44.5505 91.76 40.9144 85.0667 40.0275 82C39.6728 87.12 42.8359 92.1333 44.4618 94Z" fill="white"/>
<path d="M24 78L3 89.2C3.672 91.44 5.8 92 6.78 92L24 78Z" fill="white"/>
<path d="M50.5529 76.9531L71.9531 88.9259C71.3118 91.3955 69.1716 92.0431 68.1817 92.0582L50.5529 76.9531Z" fill="white"/>
<path d="M53.5021 1.31153C70.1094 5.62459 59.6057 38.26 51.7988 56.5186C59.1798 46.3111 73.3457 23.1356 70.9611 12.0942C68.5765 1.05275 58.3282 0.305153 53.5021 1.31153Z" fill="white"/>
<path d="M21.4066 1.20814C4.79926 5.52119 15.303 38.1566 23.1099 56.4152C15.7288 46.2077 1.56297 23.0322 3.9476 11.9908C6.33224 0.949356 16.5805 0.20176 21.4066 1.20814Z" fill="white"/>
<path d="M25 71C16.3793 57.4889 4.74138 52.7037 0 52V57.9111C6.2069 57.2356 19.2529 66.3556 25 71Z" fill="white"/>
<path d="M51 71C59.2759 57.4889 70.4483 52.7037 75 52V57.9111C69.0414 57.2356 56.5172 66.3556 51 71Z" fill="white"/>
</g>
</svg>
