<svg width="78" height="54" viewBox="0 0 78 54" fill="none" xmlns="http://www.w3.org/2000/svg">
<g opacity="0.15">
<path d="M74 54V39C64.0048 50.3333 29.1687 53.7222 13 54H74Z" fill="white"/>
<path d="M77.2444 0H63.4089C63.171 0 62.965 0.174087 62.9159 0.406879C56.3701 31.4523 24.4231 39.3291 6.16479 39.5606C5.58283 39.568 5.45902 40.4052 6.02089 40.557C44.7178 51.01 69.6132 19.0916 77.7059 0.680525C77.85 0.352542 77.6026 0 77.2444 0Z" fill="white"/>
<path d="M0 5.15V14.485C0 14.4985 0 14.5052 0.000137329 14.5111C0.00643921 14.778 0.22271 14.9937 0.489639 14.9992C0.495544 14.9993 0.503548 14.9993 0.519554 14.9993C32.9436 14.9057 55.1719 6.07146 63.623 0.893547C63.6532 0.87507 63.5778 0.921263 63.5859 0.915866C63.9776 0.654424 63.7983 0.0186817 63.3277 0.000377836C63.318 0 63.3736 0 63.3513 0H5.15C5.01073 0 4.94109 0 4.8822 0.00138785C2.21309 0.0642889 0.0642853 2.21309 0.00138855 4.8822C0 4.94109 0 5.01073 0 5.15Z" fill="white"/>
</g>
</svg>
