<svg width="78" height="54" viewBox="0 0 78 54" fill="none" xmlns="http://www.w3.org/2000/svg">
<g opacity="0.15">
<path d="M4 54V39C13.9952 50.3333 48.8313 53.7222 65 54H4Z" fill="white"/>
<path d="M0.755628 0H14.5911C14.829 0 15.035 0.174087 15.0841 0.406879C21.6299 31.4523 53.5769 39.3291 71.8352 39.5606C72.4172 39.568 72.541 40.4052 71.9791 40.557C33.2822 51.01 8.38679 19.0916 0.294127 0.680525C0.149961 0.352542 0.39736 0 0.755628 0Z" fill="white"/>
<path d="M78 5V14.5C78 14.7761 77.7717 15.0001 77.4956 14.9993C45.0094 14.9083 22.7555 6.04286 14.3349 0.867753C13.9173 0.611092 14.1104 0 14.6006 0H73C75.7614 0 78 2.23858 78 5Z" fill="white"/>
</g>
</svg>
