<svg width="123" height="84" viewBox="0 0 123 84" fill="none" xmlns="http://www.w3.org/2000/svg">
<g opacity="0.15">
<path d="M0.872923 70.9225C5.86988 75.4543 14.3034 79.749 19.6113 82.0854C20.1152 82.3072 19.9542 83.0927 19.4037 83.0927H0.5C0.223858 83.0927 0 82.8688 0 82.5927V71.2998C0 70.8543 0.542955 70.6233 0.872923 70.9225Z" fill="white"/>
<path d="M36.4276 71.9069C22.178 64.6477 12.0783 52.2613 8.16653 45.9699C7.93665 45.6001 7.37055 45.6933 7.25174 46.1122C0.492743 69.9399 22.6738 73.9072 36.2626 72.8463C36.7641 72.8071 36.8758 72.1352 36.4276 71.9069Z" fill="white"/>
<path d="M25.6536 21.6114C37.3509 18.732 46.8237 26.672 50.8233 31.8728C51.102 32.2351 50.7657 32.7228 50.3209 32.6175C39.8966 30.1492 35.0572 29.7911 33.5788 29.9509C33.374 29.973 33.2319 30.1452 33.2157 30.3505C31.9443 46.5111 48.8297 62.6811 59.471 70.2764C59.9324 70.6057 59.5849 71.3342 59.043 71.1679C28.3038 61.734 23.6518 34.9178 25.2842 22.0179C25.3096 21.8173 25.4573 21.6597 25.6536 21.6114Z" fill="white"/>
<path d="M61.0464 1.01845C77.7419 0.926383 87.7441 14.9983 91.1701 23.1167C91.3478 23.5377 90.8978 23.9258 90.4914 23.7168C77.0167 16.7875 70.6626 14.7686 68.7832 14.5683C68.5784 14.5465 68.3987 14.681 68.3334 14.8762C61.1816 36.2479 79.0907 63.8015 90.6604 76.9884C91.0342 77.4144 90.5136 78.0346 90.0236 77.7498C51.5452 55.3857 54.1839 17.9038 60.5906 1.32521C60.6634 1.13668 60.8443 1.01956 61.0464 1.01845Z" fill="white"/>
<path d="M93.5 32.5927C95.5 22.9927 114 9.92598 123 4.59265V20.5927L109 32.5927H93.5Z" fill="white"/>
</g>
</svg>
