<svg width="123" height="85" viewBox="0 0 123 85" fill="none" xmlns="http://www.w3.org/2000/svg">
<g opacity="0.15">
<path d="M122.127 71.9225C117.13 76.4543 108.697 80.749 103.389 83.0854C102.885 83.3072 103.046 84.0927 103.596 84.0927H122.5C122.776 84.0927 123 83.8688 123 83.5927V72.2998C123 71.8543 122.457 71.6233 122.127 71.9225Z" fill="white"/>
<path d="M88.5724 70.9069C102.822 63.6477 112.922 51.2613 116.833 44.9699C117.063 44.6001 117.629 44.6933 117.748 45.1122C124.507 68.9399 102.326 72.9072 88.7374 71.8463C88.2359 71.8071 88.1242 71.1352 88.5724 70.9069Z" fill="white"/>
<path d="M97.3464 22.6114C85.6491 19.732 76.1763 27.672 72.1767 32.8728C71.898 33.2351 72.2343 33.7228 72.6791 33.6175C83.1034 31.1492 87.9428 30.7911 89.4212 30.9509C89.626 30.973 89.7681 31.1452 89.7843 31.3505C91.0557 47.5111 74.1703 63.6811 63.529 71.2764C63.0676 71.6057 63.4151 72.3342 63.957 72.1679C94.6962 62.734 99.3482 35.9178 97.7158 23.0179C97.6904 22.8173 97.5427 22.6597 97.3464 22.6114Z" fill="white"/>
<path d="M61.6157 1.60719C44.9201 1.51513 34.918 15.5871 31.4919 23.7054C31.3143 24.1265 31.7643 24.5145 32.1707 24.3055C45.6453 17.3762 51.9994 15.3574 53.8789 15.1571C54.0836 15.1353 54.2633 15.2697 54.3287 15.465C61.4805 36.8366 43.5714 64.3902 32.0016 77.5772C31.6279 78.0032 32.1485 78.6234 32.6384 78.3386C71.1169 55.9745 68.4781 18.4926 62.0715 1.91395C61.9986 1.72542 61.8178 1.60831 61.6157 1.60719Z" fill="white"/>
<path d="M29.5 33.5927C27.5 23.9927 9 10.926 0 5.59265V21.5927L14 33.5927H29.5Z" fill="white"/>
</g>
</svg>
