<?xml version="1.0" encoding="UTF-8" standalone="no"?>
<!DOCTYPE svg PUBLIC "-//W3C//DTD SVG 1.1//EN" "http://www.w3.org/Graphics/SVG/1.1/DTD/svg11.dtd">
<svg width="100%" height="100%" viewBox="0 0 596 568" version="1.1" xmlns="http://www.w3.org/2000/svg" xmlns:xlink="http://www.w3.org/1999/xlink" xml:space="preserve" xmlns:serif="http://www.serif.com/" style="fill-rule:evenodd;clip-rule:evenodd;stroke-linejoin:round;stroke-miterlimit:2;">
    <path d="M34.204,519.448c12.126,-161.25 24.251,-322.499 36.376,-483.749c0.41,-5.441 7.591,-10.899 16.977,-10.899l420.086,0c9.386,0 16.567,5.458 16.977,10.899c12.125,161.25 24.25,322.499 36.376,483.749c0.5,6.649 -6.908,13.352 -17.882,13.352l-491.028,0c-10.974,0 -18.382,-6.703 -17.882,-13.352Z" style="fill:#020011;"/>
    <path d="M34.204,519.448c7.115,-94.622 14.231,-189.245 21.346,-283.867l0.206,-0.118l1.777,-1.182l1.802,-1.203l1.764,-1.183l1.908,-1.272l1.747,-1.161l1.822,-1.217l1.749,-1.173l3.595,-2.403l1.894,-1.265l1.711,-1.145l1.895,-1.267l1.737,-1.156l1.811,-1.213l1.74,-1.167l1.874,-1.256l1.759,-1.172l1.779,-1.192l1.745,-1.174l1.884,-1.262l1.726,-1.152l1.801,-1.207l1.729,-1.163l1.864,-1.252l1.748,-1.166l1.768,-1.187l1.735,-1.17l1.874,-1.257l1.715,-1.147l1.792,-1.202l1.717,-1.159l1.795,-1.211l1.839,-1.23l1.716,-1.149l1.724,-1.165l1.862,-1.252l1.706,-1.143l1.778,-1.196l1.711,-1.156l1.782,-1.205l1.828,-1.225l1.707,-1.144l1.714,-1.162l1.851,-1.245l1.697,-1.139l3.494,-2.367l1.815,-1.218l1.706,-1.145l1.738,-1.172l1.704,-1.156l1.839,-1.242l1.688,-1.133l1.757,-1.188l1.675,-1.136l1.845,-1.247l1.696,-1.14l1.729,-1.169l1.693,-1.15l1.83,-1.237l1.677,-1.13l1.748,-1.182l1.663,-1.132l1.835,-1.242l1.628,-1.102l1.817,-1.229l1.643,-1.113l1.804,-1.224l1.691,-1.141l1.728,-1.17l1.653,-1.126l1.824,-1.238l1.676,-1.13l1.711,-1.161l1.67,-1.14l1.795,-1.218l1.682,-1.136l1.717,-1.165l1.643,-1.123l1.815,-1.232l1.666,-1.126l1.699,-1.156l1.661,-1.135l1.784,-1.214l1.673,-1.131l1.706,-1.16l1.635,-1.119l1.803,-1.226l1.642,-1.114l1.656,-1.133l1.741,-1.19l1.69,-1.15l1.734,-1.176l1.666,-1.132c1.757,-1.402 3.886,-2.352 6.049,-2.912l5.152,-0.647c1.021,0 7.693,0 11.981,4.405c36.362,37.51 67.374,69.016 73.257,74.993c18.097,-8.856 36.193,-17.713 54.29,-26.57c2.589,-1.273 5.559,-1.852 8.428,-1.852c0.72,0 4.82,0 8.781,1.976c0.916,0.458 8.672,4.333 5.825,11.407c-5.143,12.669 -10.285,25.339 -15.428,38.008c39.96,3.299 79.92,6.597 119.881,9.896c7.123,0.581 12.937,5.188 13.889,9.382c1.279,5.64 -3.941,8.885 -4.649,9.325l-3.318,2.435l-1.655,1.217l-1.606,1.187l-1.688,1.249l-1.718,1.26l-1.55,1.14l-1.717,1.269l-1.667,1.224l-1.7,1.245l-1.579,1.161l-1.698,1.253l-1.681,1.236l-1.721,1.257l-1.559,1.145l-1.727,1.274l-1.677,1.229l-1.712,1.25l-1.588,1.166l-1.708,1.258l-1.693,1.241l-1.729,1.262l-1.569,1.149l-1.737,1.28l-1.688,1.233l-1.722,1.256l-1.598,1.171l-1.776,1.297l-1.605,1.176l-3.359,2.456l-1.748,1.285l-1.685,1.23l-1.757,1.278l-1.597,1.165l-1.728,1.269l-1.715,1.251l-1.752,1.272l-1.587,1.158l-1.76,1.29l-1.693,1.236l-1.768,1.283l-1.607,1.171l-1.74,1.273l-1.723,1.255l-3.419,2.477l-3.416,2.499l-1.778,1.288l-1.618,1.176l-1.75,1.278l-1.792,1.296l-1.659,1.202l-1.675,1.223l-1.769,1.289l-1.717,1.246l-1.787,1.294l-1.628,1.18l-1.761,1.283l-1.802,1.301l-1.67,1.207l-1.685,1.228l-1.78,1.295l-1.725,1.25l-1.802,1.299l-1.637,1.185l-1.771,1.288l-1.756,1.272l-1.781,1.282l-1.653,1.197l-1.792,1.3l-1.736,1.256l-1.81,1.303l-1.647,1.19l-1.784,1.293l-1.037,0.801l11.244,55.749c1.236,6.109 -4.469,9.623 -5.244,10.1l-3.584,2.596l-1.787,1.297l-3.558,2.596l-1.857,1.343l-1.674,1.215l-1.854,1.352l-1.801,1.306l-1.837,1.327l-1.704,1.237l-1.835,1.336l-1.816,1.317l-1.858,1.34l-1.684,1.219l-1.866,1.358l-1.812,1.31l-1.849,1.333l-1.716,1.242l-1.844,1.341l-1.829,1.322l-1.868,1.345l-1.694,1.225l-1.878,1.364l-1.823,1.315l-1.86,1.337l-1.726,1.247l-1.918,1.384l-1.734,1.253l-3.629,2.617l-1.889,1.369l-1.82,1.311l-1.897,1.362l-1.726,1.242l-1.867,1.352l-1.852,1.332l-1.893,1.356l-1.715,1.234l-1.9,1.375l-1.83,1.316l-1.909,1.368l-1.736,1.246l-1.881,1.357l-1.861,1.338l-1.905,1.361l-1.786,1.278l-1.807,1.303l-1.886,1.36l-1.92,1.373l-1.749,1.253l-1.89,1.361l-1.936,1.381l-1.792,1.281l-1.81,1.301l-1.912,1.374l-1.854,1.329l-1.931,1.377l-1.759,1.258l-1.902,1.367l-1.948,1.386l-1.803,1.286l-3.745,2.688l-1.864,1.331l-1.946,1.384l-1.768,1.263l-1.914,1.372l-1.898,1.354l-1.923,1.367l-1.786,1.275l-1.936,1.385l-1.876,1.337l-1.956,1.389l-1.779,1.268l-1.928,1.377l-1.907,1.36l-1.936,1.371l-1.797,1.281l-1.948,1.39l-1.886,1.343l-1.969,1.394l-1.792,1.273l-3.812,2.708l-1.992,1.416l-1.808,1.286l-1.96,1.396l-1.899,1.347l-1.98,1.4l-0.688,0.534l-164.487,0c-10.974,0 -18.382,-6.703 -17.882,-13.352Z" style="fill:#eb0038;"/>
    <path d="M348.888,281.108c8.029,41.02 16.058,82.041 24.088,123.062c-29.081,-31.512 -61.097,-66.558 -88.906,-97.298c-23.2,11.102 -46.399,22.205 -69.599,33.307c7.544,-16.964 15.087,-33.928 22.631,-50.893c-46.787,-3.948 -93.573,-7.897 -140.36,-11.846c50.382,-12.648 100.763,-25.296 151.145,-37.944c-5.539,-36.132 -11.079,-72.264 -16.618,-108.396c25.512,26.441 55.222,56.974 81.675,83.923c22.255,-10.906 44.51,-21.812 66.765,-32.718c-6.86,16.686 -13.72,33.372 -20.58,50.059c46.085,3.808 92.169,7.617 138.254,11.426c-49.498,12.439 -98.997,24.878 -148.495,37.318Z" style="fill:#fff;fill-rule:nonzero;"/>
</svg>
