<?xml version="1.0" encoding="utf-8"?>
<!-- Generator: Adobe Illustrator 16.0.0, SVG Export Plug-In . SVG Version: 6.00 Build 0)  -->
<!DOCTYPE svg PUBLIC "-//W3C//DTD SVG 1.1//EN" "http://www.w3.org/Graphics/SVG/1.1/DTD/svg11.dtd">
<svg version="1.1" id="Layer_1" xmlns="http://www.w3.org/2000/svg" xmlns:xlink="http://www.w3.org/1999/xlink" x="0px" y="0px"
	 width="400px" height="566.572px" viewBox="0 0 400 566.572" enable-background="new 0 0 400 566.572" xml:space="preserve">
<g>
	<g>
		<g>
			<path fill="#FFFFFF" d="M400,545.201c0,11.753-9.616,21.369-21.369,21.369H21.369C9.616,566.57,0,556.954,0,545.201V21.371
				C0,9.618,9.616,0.002,21.369,0.002h357.262C390.384,0.002,400,9.618,400,21.371V545.201z"/>
		</g>
	</g>
	<path d="M257.422,397.768c-20.846,0-28.882,11.531-29.986,10.428c-1.098-1.088,19.94-12.83,19.94-42.555
		c0-26.008-21.088-47.1-47.102-47.1c-26.021,0-47.1,21.092-47.1,47.1c0,29.445,20.899,41.557,19.726,42.734
		c-1.182,1.178-9.643-10.607-29.783-10.607c-26.017,0-47.105,21.08-47.105,47.09c0,0.066,0.01,0.135,0.01,0.201
		c0,0.061-0.01,0.127-0.01,0.18c0,3.117,0.34,6.133,0.953,9.063c4.371,21.484,23.379,37.666,46.152,37.666
		c48.08,0,42.785-51.014,54.108-47.289c-1.753,19.82-16.479,70.58-27.31,82.17h60.716c-10.849-11.607-25.569-62.439-27.305-82.227
		c11.456-4.002,5.531,47.346,54.095,47.346c22.785,0,41.791-16.182,46.161-37.666c0.613-2.93,0.938-5.945,0.938-9.063
		c0-0.053,0-0.119,0-0.18c0-0.066,0-0.135,0-0.201C304.521,418.848,283.427,397.768,257.422,397.768z"/>
	<g>
		<path d="M126.66,266.002H85.099V88.182H55.413V49.293h71.247V266.002z"/>
		<path d="M191.076,75.713c15.831-19.787,36.412-29.686,61.748-29.686c25.33,0,45.865,9.943,61.599,29.834
			s23.601,47.154,23.601,81.785c0,34.637-7.82,61.947-23.452,81.934c-15.836,20.188-36.417,30.281-61.747,30.281
			c-25.336,0-45.917-10.043-61.748-30.133c-15.835-20.084-23.749-47.445-23.749-82.082
			C167.327,123.016,175.241,95.705,191.076,75.713z M209.779,157.35c0,23.75,3.956,41.463,11.874,53.139
			c7.913,11.68,18.304,17.516,31.171,17.516c12.663,0,22.955-5.836,30.873-17.516c7.914-11.676,11.875-29.389,11.875-53.139
			c0-23.154-4.008-40.521-12.023-52.1c-8.015-11.576-18.257-17.365-30.725-17.365c-12.867,0-23.258,5.789-31.171,17.365
			C213.735,116.828,209.779,134.195,209.779,157.35z"/>
	</g>
</g>
</svg>
