<?xml version="1.0" encoding="utf-8"?>
<!-- Generator: Adobe Illustrator 16.0.0, SVG Export Plug-In . SVG Version: 6.00 Build 0)  -->
<!DOCTYPE svg PUBLIC "-//W3C//DTD SVG 1.1//EN" "http://www.w3.org/Graphics/SVG/1.1/DTD/svg11.dtd">
<svg version="1.1" id="Layer_1" xmlns="http://www.w3.org/2000/svg" xmlns:xlink="http://www.w3.org/1999/xlink" x="0px" y="0px"
	 width="400px" height="566.572px" viewBox="0 0 400 566.572" enable-background="new 0 0 400 566.572" xml:space="preserve">
<g>
	<g>
		<g>
			<path fill="#FFFFFF" d="M400,545.201c0,11.753-9.616,21.369-21.369,21.369H21.369C9.616,566.57,0,556.954,0,545.201V21.371
				C0,9.618,9.616,0.002,21.369,0.002h357.262C390.384,0.002,400,9.618,400,21.371V545.201z"/>
		</g>
	</g>
	<path d="M257.422,397.768c-20.846,0-28.882,11.531-29.986,10.428c-1.098-1.088,19.94-12.83,19.94-42.555
		c0-26.008-21.088-47.1-47.102-47.1c-26.021,0-47.1,21.092-47.1,47.1c0,29.445,20.899,41.557,19.726,42.734
		c-1.182,1.178-9.643-10.607-29.783-10.607c-26.017,0-47.105,21.08-47.105,47.09c0,0.066,0.01,0.135,0.01,0.201
		c0,0.061-0.01,0.127-0.01,0.18c0,3.117,0.34,6.133,0.953,9.063c4.371,21.484,23.379,37.666,46.152,37.666
		c48.08,0,42.785-51.014,54.108-47.289c-1.753,19.82-16.479,70.58-27.31,82.17h60.716c-10.849-11.607-25.569-62.439-27.305-82.227
		c11.456-4.002,5.531,47.346,54.095,47.346c22.785,0,41.791-16.182,46.161-37.666c0.613-2.93,0.938-5.945,0.938-9.063
		c0-0.053,0-0.119,0-0.18c0-0.066,0-0.135,0-0.201C304.521,418.848,283.427,397.768,257.422,397.768z"/>
	<g>
		<path d="M156.975,206.629c2.969,6.137,8.262,11.281,15.882,15.438c7.617,4.156,15.883,6.234,24.788,6.234
			c10.882,0,19.69-2.719,26.421-8.164c6.726-5.441,10.094-12.516,10.094-21.227c0-9.299-3.813-16.521-11.43-21.67
			c-7.621-5.145-17.269-7.719-28.943-7.719h-11.578v-38.889h12.468c8.508,0,15.832-2.027,21.969-6.086
			c6.132-4.055,9.202-9.648,9.202-16.773c0-6.725-2.723-12.17-8.164-16.326c-5.445-4.156-12.421-6.234-20.929-6.234
			c-12.468,0-21.87,4.156-28.201,12.469L129.96,82.838c5.344-11.082,14.296-20.232,26.866-27.461
			c12.565-7.221,25.976-10.834,40.225-10.834c19.987,0,36.812,5.195,50.467,15.584c13.656,10.391,20.483,25.285,20.483,44.678
			c0,18.605-9.008,33.25-27.015,43.936c10.688,5.344,19.148,12.617,25.382,21.82c6.234,9.203,9.352,19.742,9.352,31.615
			c0,20.387-7.227,36.811-21.671,49.279c-14.449,12.469-32.854,18.703-55.217,18.703c-18.21,0-34.39-4.254-48.537-12.766
			c-14.151-8.508-24.394-19.787-30.725-33.842L156.975,206.629z"/>
	</g>
</g>
</svg>
