<?xml version="1.0" encoding="utf-8"?>
<!-- Generator: Adobe Illustrator 16.0.0, SVG Export Plug-In . SVG Version: 6.00 Build 0)  -->
<!DOCTYPE svg PUBLIC "-//W3C//DTD SVG 1.1//EN" "http://www.w3.org/Graphics/SVG/1.1/DTD/svg11.dtd">
<svg version="1.1" id="Layer_1" xmlns="http://www.w3.org/2000/svg" xmlns:xlink="http://www.w3.org/1999/xlink" x="0px" y="0px"
	 width="400px" height="566.572px" viewBox="0 0 400 566.572" enable-background="new 0 0 400 566.572" xml:space="preserve">
<g>
	<g>
		<g>
			<path fill="#FFFFFF" d="M400,545.201c0,11.753-9.616,21.369-21.369,21.369H21.369C9.616,566.57,0,556.954,0,545.201V21.371
				C0,9.618,9.616,0.002,21.369,0.002h357.262C390.384,0.002,400,9.618,400,21.371V545.201z"/>
		</g>
	</g>
	<path d="M257.422,397.768c-20.846,0-28.882,11.531-29.986,10.428c-1.098-1.088,19.94-12.83,19.94-42.555
		c0-26.008-21.088-47.1-47.102-47.1c-26.021,0-47.1,21.092-47.1,47.1c0,29.445,20.9,41.557,19.726,42.734
		c-1.181,1.178-9.643-10.607-29.783-10.607c-26.017,0-47.104,21.08-47.104,47.09c0,0.066,0.008,0.135,0.008,0.201
		c0,0.061-0.008,0.127-0.008,0.18c0,3.117,0.34,6.133,0.953,9.063c4.37,21.484,23.377,37.666,46.151,37.666
		c48.079,0,42.784-51.014,54.108-47.289c-1.754,19.82-16.479,70.58-27.309,82.17h60.715c-10.849-11.607-25.569-62.439-27.305-82.227
		c11.456-4.002,5.531,47.346,54.095,47.346c22.785,0,41.791-16.182,46.161-37.666c0.613-2.93,0.938-5.945,0.938-9.063
		c0-0.053,0-0.119,0-0.18c0-0.066,0-0.135,0-0.201C304.521,418.848,283.427,397.768,257.422,397.768z"/>
	<g>
		<path d="M163.208,204.848c2.569,6.531,7.125,11.875,13.655,16.031c6.531,4.156,13.753,6.234,21.671,6.234
			c10.488,0,19.394-3.512,26.718-10.539c7.319-7.023,10.984-15.684,10.984-25.975c0-10.289-3.665-19-10.984-26.125
			c-7.324-7.125-16.03-10.688-26.124-10.688c-6.137,0-12.022,1.439-17.663,4.305c-5.641,2.871-10.145,6.68-13.507,11.43h-41.857
			l8.312-120.229h135.666v38.889h-96.48l-2.671,39.482c9.894-8.113,21.471-12.172,34.732-12.172c20.78,0,38.096,7.176,51.951,21.523
			c13.851,14.352,20.78,32.506,20.78,54.473c0,21.969-7.82,40.375-23.452,55.217c-15.637,14.844-34.636,22.266-56.998,22.266
			c-17.218,0-32.608-4.5-46.162-13.508c-13.558-9.004-23.108-20.928-28.646-35.771L163.208,204.848z"/>
	</g>
</g>
</svg>
