<?xml version="1.0" encoding="utf-8"?>
<!-- Generator: Adobe Illustrator 16.0.0, SVG Export Plug-In . SVG Version: 6.00 Build 0)  -->
<!DOCTYPE svg PUBLIC "-//W3C//DTD SVG 1.1//EN" "http://www.w3.org/Graphics/SVG/1.1/DTD/svg11.dtd">
<svg version="1.1" id="Layer_1" xmlns="http://www.w3.org/2000/svg" xmlns:xlink="http://www.w3.org/1999/xlink" x="0px" y="0px"
	 width="400px" height="566.572px" viewBox="0 0 400 566.572" enable-background="new 0 0 400 566.572" xml:space="preserve">
<g>
	<g>
		<g>
			<path fill="#FFFFFF" d="M400,545.201c0,11.753-9.616,21.369-21.369,21.369H21.369C9.616,566.57,0,556.954,0,545.201V21.371
				C0,9.618,9.616,0.002,21.369,0.002h357.262C390.384,0.002,400,9.618,400,21.371V545.201z"/>
		</g>
	</g>
	<path d="M257.422,397.768c-20.846,0-28.882,11.531-29.986,10.428c-1.098-1.088,19.94-12.83,19.94-42.555
		c0-26.008-21.088-47.1-47.102-47.1c-26.021,0-47.1,21.092-47.1,47.1c0,29.445,20.899,41.557,19.726,42.734
		c-1.182,1.178-9.643-10.607-29.783-10.607c-26.017,0-47.105,21.08-47.105,47.09c0,0.066,0.01,0.135,0.01,0.201
		c0,0.061-0.01,0.127-0.01,0.18c0,3.117,0.34,6.133,0.953,9.063c4.371,21.484,23.379,37.666,46.152,37.666
		c48.08,0,42.785-51.014,54.108-47.289c-1.753,19.82-16.479,70.58-27.31,82.17h60.716c-10.849-11.607-25.569-62.439-27.305-82.227
		c11.456-4.002,5.531,47.346,54.095,47.346c22.785,0,41.791-16.182,46.161-37.666c0.613-2.93,0.938-5.945,0.938-9.063
		c0-0.053,0-0.119,0-0.18c0-0.066,0-0.135,0-0.201C304.521,418.848,283.427,397.768,257.422,397.768z"/>
	<g>
		<path d="M128.142,171.896c5.938-9.301,14.05-16.723,24.343-22.266c-15.637-10.686-23.452-25.232-23.452-43.639
			c0-17.412,6.776-32.061,20.335-43.936c13.554-11.873,30.029-17.811,49.428-17.811c19.394,0,35.869,5.938,49.428,17.811
			c13.554,11.875,20.335,26.523,20.335,43.936c0,18.211-7.918,32.758-23.749,43.639c10.487,5.543,18.749,13.016,24.788,22.414
			c6.034,9.402,9.054,19.844,9.054,31.318c0,20.387-7.523,37.107-22.562,50.17c-15.042,13.063-34.338,19.594-57.888,19.594
			c-23.354,0-42.405-6.531-57.146-19.594c-14.745-13.063-22.116-29.783-22.116-50.17
			C118.938,191.889,122.005,181.396,128.142,171.896z M161.391,200.691c0,8.906,3.562,16.43,10.687,22.563
			c6.926,6.336,15.733,9.5,26.421,9.5s19.593-3.117,26.718-9.352s10.687-13.805,10.687-22.711c0-8.705-3.664-16.076-10.983-22.115
			c-7.324-6.035-16.133-9.055-26.421-9.055c-10.293,0-19.05,3.07-26.272,9.203C164.999,184.861,161.391,192.186,161.391,200.691z
			 M170.296,106.289c0,6.73,2.719,12.469,8.164,17.219c5.44,4.75,12.12,7.125,20.038,7.125c8.112,0,14.94-2.375,20.483-7.125
			c5.538-4.75,8.313-10.488,8.313-17.219c0-6.725-2.774-12.365-8.313-16.92c-5.543-4.551-12.371-6.828-20.483-6.828
			c-7.918,0-14.598,2.277-20.038,6.828C173.015,93.924,170.296,99.564,170.296,106.289z"/>
	</g>
</g>
</svg>
