<?xml version="1.0" encoding="utf-8"?>
<!-- Generator: Adobe Illustrator 16.0.0, SVG Export Plug-In . SVG Version: 6.00 Build 0)  -->
<!DOCTYPE svg PUBLIC "-//W3C//DTD SVG 1.1//EN" "http://www.w3.org/Graphics/SVG/1.1/DTD/svg11.dtd">
<svg version="1.1" id="Layer_1" xmlns="http://www.w3.org/2000/svg" xmlns:xlink="http://www.w3.org/1999/xlink" x="0px" y="0px"
	 width="400px" height="566.572px" viewBox="0 0 400 566.572" enable-background="new 0 0 400 566.572" xml:space="preserve">
<g>
	<g>
		<g>
			<path fill="#FFFFFF" d="M400,545.201c0,11.753-9.616,21.369-21.369,21.369H21.369C9.616,566.57,0,556.954,0,545.201V21.371
				C0,9.618,9.616,0.002,21.369,0.002h357.262C390.384,0.002,400,9.618,400,21.371V545.201z"/>
		</g>
	</g>
	<path d="M257.422,397.768c-20.846,0-28.882,11.531-29.986,10.428c-1.098-1.088,19.94-12.83,19.94-42.555
		c0-26.008-21.088-47.1-47.102-47.1c-26.021,0-47.1,21.092-47.1,47.1c0,29.445,20.9,41.557,19.726,42.734
		c-1.181,1.178-9.643-10.607-29.783-10.607c-26.017,0-47.104,21.08-47.104,47.09c0,0.066,0.008,0.135,0.008,0.201
		c0,0.061-0.008,0.127-0.008,0.18c0,3.117,0.34,6.133,0.953,9.063c4.37,21.484,23.377,37.666,46.151,37.666
		c48.079,0,42.784-51.014,54.108-47.289c-1.754,19.82-16.479,70.58-27.309,82.17h60.715c-10.849-11.607-25.569-62.439-27.305-82.227
		c11.456-4.002,5.531,47.346,54.095,47.346c22.785,0,41.791-16.182,46.161-37.666c0.613-2.93,0.938-5.945,0.938-9.063
		c0-0.053,0-0.119,0-0.18c0-0.066,0-0.135,0-0.201C304.521,418.848,283.427,397.768,257.422,397.768z"/>
	<g>
		<path d="M145.546,67.994c15.237-14.643,33.939-21.967,56.106-21.967c21.968,0,40.619,7.375,55.959,22.115
			c15.335,14.746,23.007,33.203,23.007,55.365c0,17.617-5.149,32.951-15.438,46.014l-68.872,96.48h-51.06l51.06-68.873
			c-0.793,0-1.586,0-2.375,0c-18.804,0-35.428-6.975-49.872-20.928c-14.449-13.953-21.671-31.514-21.671-52.693
			C122.391,101.346,130.108,82.838,145.546,67.994z M164.248,123.508c0,9.898,3.608,18.309,10.835,25.232
			c7.223,6.932,16.077,10.391,26.569,10.391c10.288,0,18.948-3.459,25.976-10.391c7.022-6.924,10.539-15.334,10.539-25.232
			c0-9.895-3.517-18.303-10.539-25.232c-7.027-6.926-15.688-10.391-25.976-10.391c-10.492,0-19.347,3.465-26.569,10.391
			C167.856,105.205,164.248,113.613,164.248,123.508z"/>
	</g>
</g>
</svg>
