<?xml version="1.0" encoding="utf-8"?>
<!-- Generator: Adobe Illustrator 16.0.0, SVG Export Plug-In . SVG Version: 6.00 Build 0)  -->
<!DOCTYPE svg PUBLIC "-//W3C//DTD SVG 1.1//EN" "http://www.w3.org/Graphics/SVG/1.1/DTD/svg11.dtd">
<svg version="1.1" id="Layer_1" xmlns="http://www.w3.org/2000/svg" xmlns:xlink="http://www.w3.org/1999/xlink" x="0px" y="0px"
	 width="400px" height="566.572px" viewBox="0 0 400 566.572" enable-background="new 0 0 400 566.572" xml:space="preserve">
<g>
	<g>
		<g>
			<path fill="#FFFFFF" d="M400,545.201c0,11.753-9.616,21.369-21.369,21.369H21.369C9.616,566.57,0,556.954,0,545.201V21.371
				C0,9.618,9.616,0.002,21.369,0.002h357.262C390.384,0.002,400,9.618,400,21.371V545.201z"/>
		</g>
	</g>
	<path d="M257.422,397.768c-20.846,0-28.882,11.531-29.986,10.428c-1.098-1.088,19.94-12.83,19.94-42.555
		c0-26.008-21.088-47.1-47.102-47.1c-26.021,0-47.1,21.092-47.1,47.1c0,29.445,20.899,41.557,19.726,42.734
		c-1.182,1.178-9.643-10.607-29.783-10.607c-26.017,0-47.105,21.08-47.105,47.09c0,0.066,0.01,0.135,0.01,0.201
		c0,0.061-0.01,0.127-0.01,0.18c0,3.117,0.34,6.133,0.953,9.063c4.371,21.484,23.379,37.666,46.152,37.666
		c48.08,0,42.785-51.014,54.108-47.289c-1.753,19.82-16.479,70.58-27.31,82.17h60.716c-10.849-11.607-25.569-62.439-27.305-82.227
		c11.456-4.002,5.531,47.346,54.095,47.346c22.785,0,41.791-16.182,46.161-37.666c0.613-2.93,0.938-5.945,0.938-9.063
		c0-0.053,0-0.119,0-0.18c0-0.066,0-0.135,0-0.201C304.521,418.848,283.427,397.768,257.422,397.768z"/>
	<g>
		<path d="M117.751,78.385c21.769-21.969,48.189-32.951,79.263-32.951c31.068,0,57.54,10.982,79.41,32.951
			c21.866,21.967,32.804,48.389,32.804,79.262c0,26.523-8.215,49.873-24.64,70.061l22.562,25.826l-27.312,23.75l-21.374-25.828
			c-18.211,12.668-38.694,19-61.45,19c-31.073,0-57.545-11.031-79.411-33.102c-21.87-22.064-32.804-48.633-32.804-79.707
			C84.799,126.773,95.783,100.352,117.751,78.385z M130.219,157.646c0,18.605,6.531,34.436,19.594,47.498
			c13.062,13.063,28.795,19.594,47.201,19.594c11.675,0,22.064-3.164,31.17-9.5l-21.374-25.529l24.937-21.078l20.187,22.563
			c7.719-9.895,11.578-21.078,11.578-33.547c0-18.404-6.531-34.139-19.593-47.201c-13.063-13.061-28.698-19.592-46.904-19.592
			c-18.211,0-33.894,6.531-47.053,19.592C136.797,123.508,130.219,139.242,130.219,157.646z"/>
	</g>
</g>
</svg>
