<?xml version="1.0" encoding="utf-8"?>
<!-- Generator: Adobe Illustrator 16.0.0, SVG Export Plug-In . SVG Version: 6.00 Build 0)  -->
<!DOCTYPE svg PUBLIC "-//W3C//DTD SVG 1.1//EN" "http://www.w3.org/Graphics/SVG/1.1/DTD/svg11.dtd">
<svg version="1.1" id="Layer_1" xmlns="http://www.w3.org/2000/svg" xmlns:xlink="http://www.w3.org/1999/xlink" x="0px" y="0px"
	 width="400px" height="566.572px" viewBox="0 0 400 566.572" enable-background="new 0 0 400 566.572" xml:space="preserve">
<g>
	<g>
		<g>
			<path fill="#FFFFFF" d="M400,545.203c0,11.753-9.616,21.369-21.369,21.369H21.37C9.617,566.572,0,556.956,0,545.203V21.37
				C0,9.616,9.617,0,21.37,0h357.261C390.384,0,400,9.616,400,21.37V545.203z"/>
		</g>
	</g>
	<polygon fill="#CE191B" points="114.43,422.127 200,314.807 285.57,422.127 200,529.457 	"/>
	<g>
		<path fill="#CE191B" d="M128.014,261.946H86.453V84.126H56.767v-38.89h71.247V261.946z"/>
		<path fill="#CE191B" d="M192.43,71.658c15.832-19.789,36.412-29.688,61.748-29.688c25.33,0,45.865,9.945,61.6,29.836
			c15.732,19.889,23.6,47.154,23.6,81.785c0,34.635-7.82,61.947-23.451,81.934c-15.836,20.188-36.418,30.28-61.748,30.28
			c-25.336,0-45.916-10.042-61.748-30.132c-15.835-20.084-23.749-47.447-23.749-82.082
			C168.681,118.961,176.595,91.649,192.43,71.658z M211.133,153.295c0,23.748,3.957,41.463,11.875,53.139
			c7.912,11.68,18.303,17.514,31.17,17.514c12.664,0,22.955-5.834,30.873-17.514c7.914-11.676,11.875-29.391,11.875-53.139
			c0-23.155-4.008-40.521-12.023-52.1c-8.014-11.578-18.256-17.366-30.725-17.366c-12.867,0-23.258,5.788-31.17,17.366
			C215.09,112.773,211.133,130.14,211.133,153.295z"/>
	</g>
</g>
</svg>
