<?xml version="1.0" encoding="utf-8"?>
<!-- Generator: Adobe Illustrator 16.0.0, SVG Export Plug-In . SVG Version: 6.00 Build 0)  -->
<!DOCTYPE svg PUBLIC "-//W3C//DTD SVG 1.1//EN" "http://www.w3.org/Graphics/SVG/1.1/DTD/svg11.dtd">
<svg version="1.1" id="Layer_1" xmlns="http://www.w3.org/2000/svg" xmlns:xlink="http://www.w3.org/1999/xlink" x="0px" y="0px"
	 width="400px" height="566.572px" viewBox="0 0 400 566.572" enable-background="new 0 0 400 566.572" xml:space="preserve">
<g>
	<g>
		<g>
			<path fill="#FFFFFF" d="M400,545.203c0,11.753-9.616,21.369-21.369,21.369H21.37C9.616,566.572,0,556.956,0,545.203V21.37
				C0,9.616,9.616,0,21.37,0h357.261C390.384,0,400,9.616,400,21.37V545.203z"/>
		</g>
	</g>
	<polygon fill="#CE191B" points="114.43,422.127 200,314.807 285.57,422.127 200,529.457 	"/>
	<g>
		<path fill="#CE191B" d="M118.811,261.946v-26.124l83.418-76.887c17.218-15.438,25.827-29.687,25.827-42.748
			c0-10.094-3.168-18.207-9.5-24.344c-6.336-6.132-14.249-9.202-23.749-9.202c-8.312,0-15.585,2.426-21.819,7.272
			c-6.233,4.853-10.737,10.641-13.507,17.367l-38.592-13.063c4.55-15.237,13.655-27.904,27.311-37.998
			c13.656-10.094,29.093-15.141,46.311-15.141c21.374,0,39.232,6.879,53.584,20.633c14.347,13.758,21.522,31.912,21.522,54.475
			c0,21.772-13.062,44.729-39.186,68.871l-44.529,37.998h89.059v38.89H118.811z"/>
	</g>
</g>
</svg>
