<?xml version="1.0" encoding="utf-8"?>
<!-- Generator: Adobe Illustrator 16.0.0, SVG Export Plug-In . SVG Version: 6.00 Build 0)  -->
<!DOCTYPE svg PUBLIC "-//W3C//DTD SVG 1.1//EN" "http://www.w3.org/Graphics/SVG/1.1/DTD/svg11.dtd">
<svg version="1.1" id="Layer_1" xmlns="http://www.w3.org/2000/svg" xmlns:xlink="http://www.w3.org/1999/xlink" x="0px" y="0px"
	 width="400px" height="566.572px" viewBox="0 0 400 566.572" enable-background="new 0 0 400 566.572" xml:space="preserve">
<g>
	<g>
		<g>
			<path fill="#FFFFFF" d="M400,545.202c0,11.753-9.616,21.369-21.369,21.369H21.37C9.616,566.571,0,556.955,0,545.202V21.37
				C0,9.617,9.616,0,21.37,0h357.261C390.384,0,400,9.617,400,21.37V545.202z"/>
		</g>
	</g>
	<polygon fill="#CE191B" points="114.43,422.126 200,314.806 285.57,422.126 200,529.456 	"/>
	<g>
		<path fill="#CE191B" d="M120.146,177.933l93.809-132.697h50.169v128.542h17.813v40.967h-17.813v47.201h-41.857v-47.201h-102.12
			V177.933z M167.051,173.778h55.216V101.64L167.051,173.778z"/>
	</g>
</g>
</svg>
