<?xml version="1.0" encoding="utf-8"?>
<!-- Generator: Adobe Illustrator 16.0.0, SVG Export Plug-In . SVG Version: 6.00 Build 0)  -->
<!DOCTYPE svg PUBLIC "-//W3C//DTD SVG 1.1//EN" "http://www.w3.org/Graphics/SVG/1.1/DTD/svg11.dtd">
<svg version="1.1" id="Layer_1" xmlns="http://www.w3.org/2000/svg" xmlns:xlink="http://www.w3.org/1999/xlink" x="0px" y="0px"
	 width="400px" height="566.572px" viewBox="0 0 400 566.572" enable-background="new 0 0 400 566.572" xml:space="preserve">
<g>
	<g>
		<g>
			<path fill="#FFFFFF" d="M400,545.203c0,11.753-9.616,21.369-21.369,21.369H21.37C9.617,566.572,0,556.956,0,545.203V21.37
				C0,9.616,9.617,0,21.37,0h357.261C390.384,0,400,9.616,400,21.37V545.203z"/>
		</g>
	</g>
	<polygon fill="#CE191B" points="114.43,422.127 200,314.807 285.57,422.127 200,529.457 	"/>
	<g>
		<path fill="#CE191B" d="M136.175,141.42l69.168-96.48h51.061l-51.357,68.873c0.789,0,1.582,0,2.375,0
			c18.801,0,35.475,6.976,50.021,20.928c14.547,13.953,21.82,31.52,21.82,52.693c0,21.969-7.719,40.373-23.156,55.217
			c-15.438,14.843-34.139,22.265-56.107,22.265c-22.167,0-40.869-7.37-56.106-22.116c-15.242-14.741-22.858-33.197-22.858-55.365
			C121.036,169.622,126.082,154.287,136.175,141.42z M163.19,187.434c0,9.898,3.563,18.309,10.687,25.233
			c7.125,6.931,15.831,10.39,26.124,10.39c10.289,0,19.046-3.459,26.273-10.39c7.221-6.925,10.836-15.335,10.836-25.233
			c0-9.894-3.615-18.303-10.836-25.232c-7.227-6.926-15.984-10.391-26.273-10.391c-10.293,0-18.999,3.465-26.124,10.391
			C166.752,169.131,163.19,177.54,163.19,187.434z"/>
	</g>
</g>
</svg>
