<?xml version="1.0" encoding="utf-8"?>
<!-- Generator: Adobe Illustrator 16.0.0, SVG Export Plug-In . SVG Version: 6.00 Build 0)  -->
<!DOCTYPE svg PUBLIC "-//W3C//DTD SVG 1.1//EN" "http://www.w3.org/Graphics/SVG/1.1/DTD/svg11.dtd">
<svg version="1.1" id="Layer_1" xmlns="http://www.w3.org/2000/svg" xmlns:xlink="http://www.w3.org/1999/xlink" x="0px" y="0px"
	 width="400px" height="566.572px" viewBox="0 0 400 566.572" enable-background="new 0 0 400 566.572" xml:space="preserve">
<g>
	<g>
		<g>
			<path fill="#FFFFFF" d="M400,545.203c0,11.753-9.616,21.369-21.369,21.369H21.37C9.617,566.572,0,556.956,0,545.203V21.37
				C0,9.616,9.617,0,21.37,0h357.261C390.384,0,400,9.616,400,21.37V545.203z"/>
		</g>
	</g>
	<polygon fill="#CE191B" points="114.43,422.127 200,314.807 285.57,422.127 200,529.457 	"/>
	<g>
		<path fill="#CE191B" d="M129.497,167.841c5.938-9.3,14.05-16.722,24.343-22.265c-15.637-10.688-23.452-25.233-23.452-43.639
			c0-17.413,6.776-32.061,20.335-43.936c13.554-11.875,30.029-17.813,49.428-17.813c19.393,0,35.87,5.938,49.428,17.813
			c13.553,11.875,20.334,26.522,20.334,43.936c0,18.211-7.918,32.757-23.748,43.639c10.486,5.543,18.748,13.016,24.787,22.413
			c6.035,9.402,9.055,19.843,9.055,31.319c0,20.386-7.523,37.107-22.563,50.17c-15.041,13.062-34.338,19.592-57.887,19.592
			c-23.354,0-42.405-6.53-57.146-19.592c-14.745-13.063-22.116-29.784-22.116-50.17C120.293,187.832,123.36,177.34,129.497,167.841z
			 M162.746,196.637c0,8.906,3.562,16.43,10.687,22.562c6.926,6.336,15.733,9.499,26.421,9.499c10.688,0,19.592-3.117,26.717-9.351
			c7.125-6.234,10.688-13.804,10.688-22.71c0-8.707-3.664-16.077-10.984-22.116c-7.324-6.034-16.133-9.055-26.42-9.055
			c-10.293,0-19.05,3.071-26.272,9.203C166.354,180.806,162.746,188.129,162.746,196.637z M171.651,102.234
			c0,6.73,2.719,12.469,8.164,17.218c5.44,4.75,12.12,7.125,20.038,7.125c8.112,0,14.94-2.375,20.483-7.125
			c5.539-4.749,8.313-10.487,8.313-17.218c0-6.726-2.773-12.366-8.313-16.922c-5.543-4.55-12.371-6.827-20.483-6.827
			c-7.918,0-14.598,2.277-20.038,6.827C174.37,89.868,171.651,95.509,171.651,102.234z"/>
	</g>
</g>
</svg>
