<?xml version="1.0" encoding="utf-8"?>
<!-- Generator: Adobe Illustrator 16.0.0, SVG Export Plug-In . SVG Version: 6.00 Build 0)  -->
<!DOCTYPE svg PUBLIC "-//W3C//DTD SVG 1.1//EN" "http://www.w3.org/Graphics/SVG/1.1/DTD/svg11.dtd">
<svg version="1.1" id="Layer_1" xmlns="http://www.w3.org/2000/svg" xmlns:xlink="http://www.w3.org/1999/xlink" x="0px" y="0px"
	 width="400px" height="566.572px" viewBox="0 0 400 566.572" enable-background="new 0 0 400 566.572" xml:space="preserve">
<g>
	<g>
		<g>
			<path fill="#FFFFFF" d="M400,545.202c0,11.753-9.616,21.369-21.369,21.369H21.37C9.616,566.571,0,556.955,0,545.202V21.37
				C0,9.617,9.616,0,21.37,0h357.261C390.384,0,400,9.617,400,21.37V545.202z"/>
		</g>
	</g>
	<polygon fill="#CE191B" points="114.43,422.126 200,314.808 285.57,422.126 200,529.458 	"/>
	<g>
		<path fill="#CE191B" d="M177.459,45.236h47.795l74.512,216.71H251.08l-14.249-44.232h-70.356l-14.546,44.232h-48.982
			L177.459,45.236z M224.363,176.449l-22.858-70.652l-22.858,70.652H224.363z"/>
	</g>
</g>
</svg>
