<?xml version="1.0" encoding="utf-8"?>
<!-- Generator: Adobe Illustrator 16.0.0, SVG Export Plug-In . SVG Version: 6.00 Build 0)  -->
<!DOCTYPE svg PUBLIC "-//W3C//DTD SVG 1.1//EN" "http://www.w3.org/Graphics/SVG/1.1/DTD/svg11.dtd">
<svg version="1.1" id="Layer_1" xmlns="http://www.w3.org/2000/svg" xmlns:xlink="http://www.w3.org/1999/xlink" x="0px" y="0px"
	 width="400px" height="566.572px" viewBox="0 0 400 566.572" enable-background="new 0 0 400 566.572" xml:space="preserve">
<g>
	<g>
		<g>
			<path fill="#FFFFFF" d="M400,545.203c0,11.753-9.616,21.369-21.369,21.369H21.369C9.616,566.572,0,556.956,0,545.203V21.37
				C0,9.616,9.616,0,21.369,0h357.262C390.384,0,400,9.616,400,21.37V545.203z"/>
		</g>
	</g>
	<polygon fill="#CE191B" points="114.429,422.127 200,314.807 285.57,422.127 200,529.457 	"/>
	<g>
		<path fill="#CE191B" d="M145.545,63.939c15.237-14.645,33.939-21.969,56.107-21.969c21.967,0,40.619,7.376,55.959,22.117
			c15.334,14.745,23.006,33.201,23.006,55.364c0,17.617-5.148,32.952-15.438,46.014l-68.872,96.48h-51.06l51.06-68.872
			c-0.793,0-1.586,0-2.375,0c-18.804,0-35.428-6.977-49.872-20.929c-14.449-13.952-21.671-31.514-21.671-52.693
			C122.39,97.289,130.108,78.782,145.545,63.939z M164.248,119.452c0,9.899,3.608,18.308,10.835,25.233
			c7.223,6.93,16.077,10.391,26.57,10.391c10.287,0,18.947-3.461,25.975-10.391c7.023-6.926,10.539-15.334,10.539-25.233
			c0-9.894-3.516-18.304-10.539-25.233c-7.027-6.925-15.688-10.39-25.975-10.39c-10.493,0-19.347,3.465-26.57,10.39
			C167.856,101.148,164.248,109.559,164.248,119.452z"/>
	</g>
</g>
</svg>
