<?xml version="1.0" encoding="utf-8"?>
<!-- Generator: Adobe Illustrator 16.0.0, SVG Export Plug-In . SVG Version: 6.00 Build 0)  -->
<!DOCTYPE svg PUBLIC "-//W3C//DTD SVG 1.1//EN" "http://www.w3.org/Graphics/SVG/1.1/DTD/svg11.dtd">
<svg version="1.1" id="Layer_1" xmlns="http://www.w3.org/2000/svg" xmlns:xlink="http://www.w3.org/1999/xlink" x="0px" y="0px"
	 width="400px" height="566.572px" viewBox="0 0 400 566.572" enable-background="new 0 0 400 566.572" xml:space="preserve">
<g>
	<g>
		<g>
			<path fill="#FFFFFF" d="M400,545.203c0,11.753-9.616,21.369-21.369,21.369H21.369C9.616,566.572,0,556.956,0,545.203V21.37
				C0,9.616,9.616,0,21.369,0h357.262C390.384,0,400,9.616,400,21.37V545.203z"/>
		</g>
	</g>
	<polygon fill="#CE191B" points="114.429,422.127 200,314.809 285.57,422.127 200,529.459 	"/>
	<g>
		<path fill="#CE191B" d="M160.09,208.809c7.125,8.117,15.734,12.171,25.827,12.171c10.094,0,17.959-3.563,23.6-10.688
			c5.641-7.124,8.461-16.522,8.461-28.202V45.236h44.826V182.09c0,25.336-7.125,45.42-21.373,60.264
			c-14.25,14.843-32.758,22.265-55.514,22.265c-11.874,0-22.96-2.575-33.248-7.719c-10.293-5.144-18.805-12.366-25.53-21.671
			L160.09,208.809z"/>
	</g>
</g>
</svg>
