<?xml version="1.0" encoding="utf-8"?>
<!-- Generator: Adobe Illustrator 16.0.0, SVG Export Plug-In . SVG Version: 6.00 Build 0)  -->
<!DOCTYPE svg PUBLIC "-//W3C//DTD SVG 1.1//EN" "http://www.w3.org/Graphics/SVG/1.1/DTD/svg11.dtd">
<svg version="1.1" id="Layer_1" xmlns="http://www.w3.org/2000/svg" xmlns:xlink="http://www.w3.org/1999/xlink" x="0px" y="0px"
	 width="400px" height="566.572px" viewBox="0 0 400 566.572" enable-background="new 0 0 400 566.572" xml:space="preserve">
<g>
	<g>
		<g>
			<path fill="#FFFFFF" d="M400,545.203c0,11.753-9.616,21.369-21.369,21.369H21.37C9.617,566.572,0,556.956,0,545.203V21.37
				C0,9.616,9.617,0,21.37,0h357.261C390.384,0,400,9.616,400,21.37V545.203z"/>
		</g>
	</g>
	<polygon fill="#CE191B" points="114.43,422.127 200,314.807 285.57,422.127 200,529.457 	"/>
	<g>
		<path fill="#CE191B" d="M124.765,45.237h44.529v88.762l70.059-88.762h49.873l-69.762,90.543l75.699,126.167H243.51l-51.654-85.2
			l-22.562,25.828v59.372h-44.529V45.237z"/>
	</g>
</g>
</svg>
