<?xml version="1.0" encoding="utf-8"?>
<!-- Generator: Adobe Illustrator 16.0.0, SVG Export Plug-In . SVG Version: 6.00 Build 0)  -->
<!DOCTYPE svg PUBLIC "-//W3C//DTD SVG 1.1//EN" "http://www.w3.org/Graphics/SVG/1.1/DTD/svg11.dtd">
<svg version="1.1" id="Layer_1" xmlns="http://www.w3.org/2000/svg" xmlns:xlink="http://www.w3.org/1999/xlink" x="0px" y="0px"
	 width="400px" height="566.572px" viewBox="0 0 400 566.572" enable-background="new 0 0 400 566.572" xml:space="preserve">
<g>
	<g>
		<g>
			<path fill="#FFFFFF" d="M400,545.203c0,11.753-9.616,21.369-21.369,21.369H21.37C9.617,566.572,0,556.956,0,545.203V21.37
				C0,9.616,9.617,0,21.37,0h357.261C390.384,0,400,9.616,400,21.37V545.203z"/>
		</g>
	</g>
	<polygon fill="#CE191B" points="114.43,422.127 200,314.807 285.57,422.127 200,529.457 	"/>
	<g>
		<path fill="#CE191B" d="M119.105,74.329c21.769-21.968,48.189-32.952,79.263-32.952c31.068,0,57.541,10.984,79.41,32.952
			c21.867,21.968,32.805,48.389,32.805,79.263c0,26.522-8.215,49.873-24.641,70.059l22.563,25.828l-27.313,23.748L259.818,247.4
			c-18.211,12.668-38.695,18.999-61.451,18.999c-31.073,0-57.545-11.03-79.411-33.101c-21.87-22.064-32.804-48.635-32.804-79.707
			C86.153,122.718,97.137,96.297,119.105,74.329z M131.573,153.592c0,18.604,6.531,34.436,19.594,47.498
			c13.062,13.062,28.795,19.593,47.201,19.593c11.675,0,22.064-3.163,31.169-9.5l-21.373-25.53l24.936-21.077l20.188,22.562
			c7.719-9.894,11.578-21.077,11.578-33.545c0-18.406-6.531-34.14-19.594-47.201c-13.063-13.063-28.697-19.594-46.904-19.594
			c-18.211,0-33.894,6.531-47.053,19.594C138.151,119.452,131.573,135.186,131.573,153.592z"/>
	</g>
</g>
</svg>
