<?xml version="1.0" encoding="utf-8"?>
<!-- Generator: Adobe Illustrator 16.0.0, SVG Export Plug-In . SVG Version: 6.00 Build 0)  -->
<!DOCTYPE svg PUBLIC "-//W3C//DTD SVG 1.1//EN" "http://www.w3.org/Graphics/SVG/1.1/DTD/svg11.dtd">
<svg version="1.1" id="Layer_1" xmlns="http://www.w3.org/2000/svg" xmlns:xlink="http://www.w3.org/1999/xlink" x="0px" y="0px"
	 width="400px" height="566.572px" viewBox="0 0 400 566.572" enable-background="new 0 0 400 566.572" xml:space="preserve">
<g>
	<g>
		<g>
			<path fill="#FFFFFF" d="M400,545.202c0,11.753-9.616,21.369-21.369,21.369H21.37C9.616,566.571,0,556.955,0,545.202V21.371
				C0,9.617,9.616,0.001,21.37,0.001h357.261c11.753,0,21.369,9.616,21.369,21.37V545.202z"/>
		</g>
	</g>
	<g>
		<path fill="#CE191B" d="M129.369,261.516H87.808V83.695H58.122V44.807h71.247V261.516z"/>
		<path fill="#CE191B" d="M193.785,71.228c15.831-19.788,36.412-29.687,61.748-29.687c25.33,0,45.865,9.944,61.599,29.835
			c15.733,19.89,23.601,47.154,23.601,81.785c0,34.636-7.82,61.947-23.452,81.934c-15.836,20.188-36.417,30.28-61.747,30.28
			c-25.336,0-45.917-10.042-61.748-30.132c-15.835-20.084-23.749-47.446-23.749-82.082C170.036,118.53,177.95,91.219,193.785,71.228
			z M212.488,152.864c0,23.749,3.956,41.463,11.874,53.139c7.913,11.68,18.304,17.515,31.171,17.515
			c12.663,0,22.955-5.835,30.873-17.515c7.914-11.676,11.875-29.39,11.875-53.139c0-23.155-4.008-40.521-12.023-52.1
			c-8.015-11.577-18.257-17.366-30.725-17.366c-12.867,0-23.258,5.789-31.171,17.366
			C216.444,112.343,212.488,129.709,212.488,152.864z"/>
	</g>
	<path fill="#CE191B" d="M200.129,359.337c-2.912-23.992-28.656-38.625-55.277-37.847c-28.863,0.747-54.965,22.382-55.165,60.185
		c-0.175,34.201,25.848,59.746,55.812,86.303c30.521,27.044,47.177,45.5,53.783,52.908c0,0.01-0.012,0.006,0,0.01
		c0.01,0.006,0,0.006,0.008,0.012c0.002-0.006-0.008-0.006-0.008-0.012c0,0-0.012-0.004,0-0.01
		c6.699-7.34,23.543-25.625,54.345-52.361c30.225-26.234,56.509-51.505,56.687-85.71c0.197-37.799-25.677-59.713-54.514-60.757
		C229.178,321.003,203.288,335.376,200.129,359.337z"/>
</g>
</svg>
