<?xml version="1.0" encoding="utf-8"?>
<!-- Generator: Adobe Illustrator 16.0.0, SVG Export Plug-In . SVG Version: 6.00 Build 0)  -->
<!DOCTYPE svg PUBLIC "-//W3C//DTD SVG 1.1//EN" "http://www.w3.org/Graphics/SVG/1.1/DTD/svg11.dtd">
<svg version="1.1" id="Layer_1" xmlns="http://www.w3.org/2000/svg" xmlns:xlink="http://www.w3.org/1999/xlink" x="0px" y="0px"
	 width="400px" height="566.572px" viewBox="0 0 400 566.572" enable-background="new 0 0 400 566.572" xml:space="preserve">
<g>
	<g>
		<g>
			<path fill="#FFFFFF" d="M400,545.202c0,11.753-9.616,21.369-21.369,21.369H21.37C9.616,566.571,0,556.955,0,545.202V21.371
				C0,9.617,9.616,0.001,21.37,0.001h357.261c11.753,0,21.369,9.616,21.369,21.37V545.202z"/>
		</g>
	</g>
	<path fill="#CE191B" d="M200.129,359.337c-2.912-23.992-28.656-38.625-55.277-37.847c-28.862,0.748-54.964,22.382-55.165,60.185
		c-0.175,34.201,25.848,59.746,55.812,86.303c30.521,27.044,47.177,45.5,53.782,52.908c0,0.01-0.011,0.006,0,0.01
		c0.011,0.006,0,0.006,0.01,0.012c0.001-0.006-0.01-0.006-0.01-0.012c0,0-0.011-0.004,0-0.01c6.7-7.34,23.543-25.625,54.346-52.362
		c30.225-26.233,56.509-51.504,56.687-85.708c0.196-37.799-25.678-59.714-54.514-60.758
		C229.178,321.003,203.288,335.376,200.129,359.337z"/>
	<g>
		<path fill="#CE191B" d="M121.165,261.516v-26.124l83.418-76.887c17.218-15.438,25.827-29.687,25.827-42.748
			c0-10.094-3.168-18.206-9.5-24.343c-6.336-6.133-14.249-9.203-23.749-9.203c-8.312,0-15.585,2.426-21.819,7.273
			c-6.233,4.852-10.737,10.641-13.507,17.366l-38.592-13.062c4.55-15.238,13.655-27.905,27.311-37.999
			c13.656-10.093,29.093-15.14,46.311-15.14c21.374,0,39.232,6.879,53.584,20.632c14.347,13.758,21.522,31.913,21.522,54.475
			c0,21.772-13.062,44.729-39.186,68.872l-44.529,37.998h89.059v38.889H121.165z"/>
	</g>
</g>
</svg>
