<?xml version="1.0" encoding="utf-8"?>
<!-- Generator: Adobe Illustrator 16.0.0, SVG Export Plug-In . SVG Version: 6.00 Build 0)  -->
<!DOCTYPE svg PUBLIC "-//W3C//DTD SVG 1.1//EN" "http://www.w3.org/Graphics/SVG/1.1/DTD/svg11.dtd">
<svg version="1.1" id="Layer_1" xmlns="http://www.w3.org/2000/svg" xmlns:xlink="http://www.w3.org/1999/xlink" x="0px" y="0px"
	 width="400px" height="566.572px" viewBox="0 0 400 566.572" enable-background="new 0 0 400 566.572" xml:space="preserve">
<g>
	<g>
		<g>
			<path fill="#FFFFFF" d="M400,545.202c0,11.753-9.616,21.369-21.369,21.369H21.37C9.616,566.571,0,556.955,0,545.202V21.371
				C0,9.617,9.616,0.001,21.37,0.001h357.261c11.753,0,21.369,9.616,21.369,21.37V545.202z"/>
		</g>
	</g>
	<g>
		<path fill="#CE191B" d="M156.975,202.144c2.969,6.137,8.262,11.28,15.882,15.437c7.617,4.156,15.883,6.234,24.788,6.234
			c10.882,0,19.69-2.718,26.421-8.164c6.726-5.44,10.094-12.515,10.094-21.226c0-9.3-3.813-16.522-11.43-21.671
			c-7.621-5.144-17.269-7.719-28.943-7.719h-11.578v-38.889h12.468c8.508,0,15.832-2.027,21.969-6.086
			c6.132-4.054,9.202-9.647,9.202-16.772c0-6.726-2.723-12.171-8.164-16.327c-5.445-4.156-12.421-6.234-20.929-6.234
			c-12.468,0-21.87,4.156-28.201,12.469L129.96,78.352c5.344-11.081,14.296-20.232,26.866-27.46
			c12.565-7.222,25.976-10.835,40.225-10.835c19.987,0,36.812,5.195,50.467,15.585c13.656,10.391,20.483,25.284,20.483,44.678
			c0,18.605-9.008,33.249-27.015,43.936c10.688,5.344,19.148,12.617,25.382,21.819c6.234,9.203,9.352,19.742,9.352,31.616
			c0,20.386-7.227,36.811-21.671,49.279c-14.449,12.468-32.854,18.702-55.217,18.702c-18.21,0-34.39-4.253-48.537-12.765
			c-14.151-8.508-24.394-19.788-30.725-33.843L156.975,202.144z"/>
	</g>
	<path fill="#CE191B" d="M200.129,359.337c-2.912-23.992-28.656-38.625-55.277-37.847c-28.862,0.748-54.964,22.382-55.165,60.185
		c-0.175,34.201,25.848,59.746,55.812,86.303c30.521,27.044,47.177,45.5,53.782,52.908c0,0.01-0.011,0.006,0,0.01
		c0.011,0.006,0,0.006,0.01,0.012c0.001-0.006-0.01-0.006-0.01-0.012c0,0-0.011-0.004,0-0.01c6.7-7.34,23.543-25.625,54.346-52.362
		c30.225-26.233,56.509-51.504,56.687-85.708c0.196-37.799-25.678-59.714-54.514-60.758
		C229.178,321.003,203.288,335.376,200.129,359.337z"/>
</g>
</svg>
