<?xml version="1.0" encoding="utf-8"?>
<!-- Generator: Adobe Illustrator 16.0.0, SVG Export Plug-In . SVG Version: 6.00 Build 0)  -->
<!DOCTYPE svg PUBLIC "-//W3C//DTD SVG 1.1//EN" "http://www.w3.org/Graphics/SVG/1.1/DTD/svg11.dtd">
<svg version="1.1" id="Layer_1" xmlns="http://www.w3.org/2000/svg" xmlns:xlink="http://www.w3.org/1999/xlink" x="0px" y="0px"
	 width="400px" height="566.572px" viewBox="0 0 400 566.572" enable-background="new 0 0 400 566.572" xml:space="preserve">
<g>
	<g>
		<g>
			<path fill="#FFFFFF" d="M400,545.202c0,11.753-9.616,21.369-21.369,21.369H21.37C9.616,566.571,0,556.955,0,545.202V21.371
				C0,9.617,9.616,0.001,21.37,0.001h357.261c11.753,0,21.369,9.616,21.369,21.37V545.202z"/>
		</g>
	</g>
	<g>
		<path fill="#CE191B" d="M163.209,200.362c2.569,6.531,7.125,11.874,13.655,16.03c6.531,4.156,13.753,6.234,21.671,6.234
			c10.488,0,19.394-3.512,26.718-10.539c7.319-7.022,10.984-15.683,10.984-25.975c0-10.289-3.665-19-10.984-26.124
			c-7.324-7.125-16.03-10.688-26.124-10.688c-6.137,0-12.022,1.438-17.663,4.305c-5.641,2.871-10.145,6.68-13.507,11.429h-41.857
			l8.312-120.229h135.666v38.889h-96.48l-2.671,39.482c9.894-8.112,21.471-12.171,34.732-12.171c20.78,0,38.096,7.176,51.951,21.522
			c13.851,14.352,20.78,32.506,20.78,54.474c0,21.969-7.82,40.374-23.452,55.217c-15.637,14.843-34.636,22.265-56.998,22.265
			c-17.218,0-32.608-4.499-46.162-13.507c-13.558-9.004-23.108-20.929-28.646-35.772L163.209,200.362z"/>
	</g>
	<path fill="#CE191B" d="M200.129,359.337c-2.912-23.992-28.656-38.625-55.277-37.847c-28.863,0.747-54.965,22.382-55.166,60.185
		c-0.175,34.201,25.849,59.746,55.813,86.303c30.521,27.044,47.177,45.5,53.782,52.908c0,0.01-0.011,0.006,0,0.01
		c0.011,0.006,0,0.006,0.009,0.012c0.002-0.006-0.009-0.006-0.009-0.012c0,0-0.011-0.004,0-0.01
		c6.7-7.34,23.543-25.625,54.346-52.361c30.225-26.234,56.509-51.505,56.687-85.71c0.196-37.799-25.677-59.713-54.514-60.757
		C229.178,321.003,203.288,335.376,200.129,359.337z"/>
</g>
</svg>
