<?xml version="1.0" encoding="utf-8"?>
<!-- Generator: Adobe Illustrator 16.0.0, SVG Export Plug-In . SVG Version: 6.00 Build 0)  -->
<!DOCTYPE svg PUBLIC "-//W3C//DTD SVG 1.1//EN" "http://www.w3.org/Graphics/SVG/1.1/DTD/svg11.dtd">
<svg version="1.1" id="Layer_1" xmlns="http://www.w3.org/2000/svg" xmlns:xlink="http://www.w3.org/1999/xlink" x="0px" y="0px"
	 width="400px" height="566.572px" viewBox="0 0 400 566.572" enable-background="new 0 0 400 566.572" xml:space="preserve">
<g>
	<g>
		<g>
			<path fill="#FFFFFF" d="M400,545.202c0,11.753-9.616,21.369-21.369,21.369H21.37C9.616,566.571,0,556.955,0,545.202V21.371
				C0,9.617,9.616,0.001,21.37,0.001h357.261c11.753,0,21.369,9.616,21.369,21.37V545.202z"/>
		</g>
	</g>
	<g>
		<path fill="#CE191B" d="M130.852,167.41c5.938-9.3,14.05-16.722,24.343-22.265c-15.637-10.687-23.452-25.233-23.452-43.639
			c0-17.413,6.776-32.061,20.335-43.936c13.554-11.874,30.029-17.812,49.428-17.812c19.394,0,35.869,5.938,49.428,17.812
			c13.554,11.875,20.335,26.522,20.335,43.936c0,18.211-7.918,32.757-23.749,43.639c10.487,5.543,18.749,13.016,24.788,22.413
			c6.034,9.402,9.054,19.844,9.054,31.319c0,20.386-7.523,37.107-22.562,50.17c-15.042,13.062-34.338,19.592-57.888,19.592
			c-23.354,0-42.405-6.53-57.146-19.592c-14.745-13.063-22.116-29.784-22.116-50.17C121.648,187.402,124.715,176.91,130.852,167.41z
			 M164.101,196.206c0,8.906,3.562,16.43,10.687,22.562c6.926,6.336,15.733,9.5,26.421,9.5s19.593-3.117,26.718-9.352
			s10.687-13.804,10.687-22.71c0-8.706-3.664-16.077-10.983-22.116c-7.324-6.034-16.133-9.055-26.421-9.055
			c-10.293,0-19.05,3.071-26.272,9.203C167.709,180.375,164.101,187.699,164.101,196.206z M173.006,101.804
			c0,6.73,2.719,12.469,8.164,17.218c5.44,4.75,12.12,7.125,20.038,7.125c8.112,0,14.94-2.375,20.483-7.125
			c5.538-4.749,8.313-10.487,8.313-17.218c0-6.726-2.774-12.366-8.313-16.921c-5.543-4.551-12.371-6.828-20.483-6.828
			c-7.918,0-14.598,2.277-20.038,6.828C175.725,89.438,173.006,95.078,173.006,101.804z"/>
	</g>
	<path fill="#CE191B" d="M200.129,359.337c-2.912-23.992-28.656-38.625-55.277-37.847c-28.862,0.747-54.965,22.382-55.165,60.185
		c-0.176,34.201,25.848,59.746,55.812,86.303c30.521,27.044,47.177,45.5,53.783,52.908c0,0.01-0.012,0.006,0,0.01
		c0.011,0.006,0,0.006,0.009,0.012c0.002-0.006-0.009-0.006-0.009-0.012c0,0-0.012-0.004,0-0.01
		c6.699-7.34,23.543-25.625,54.345-52.361c30.225-26.234,56.509-51.505,56.687-85.71c0.196-37.799-25.677-59.713-54.514-60.757
		C229.178,321.003,203.288,335.376,200.129,359.337z"/>
</g>
</svg>
