<?xml version="1.0" encoding="utf-8"?>
<!-- Generator: Adobe Illustrator 16.0.0, SVG Export Plug-In . SVG Version: 6.00 Build 0)  -->
<!DOCTYPE svg PUBLIC "-//W3C//DTD SVG 1.1//EN" "http://www.w3.org/Graphics/SVG/1.1/DTD/svg11.dtd">
<svg version="1.1" id="Layer_1" xmlns="http://www.w3.org/2000/svg" xmlns:xlink="http://www.w3.org/1999/xlink" x="0px" y="0px"
	 width="400px" height="566.572px" viewBox="0 0 400 566.572" enable-background="new 0 0 400 566.572" xml:space="preserve">
<g>
	<g>
		<g>
			<path fill="#FFFFFF" d="M400,545.202c0,11.753-9.616,21.369-21.369,21.369H21.37C9.616,566.571,0,556.955,0,545.202V21.371
				C0,9.617,9.616,0.001,21.37,0.001h357.261c11.753,0,21.369,9.616,21.369,21.37V545.202z"/>
		</g>
	</g>
	<g>
		<path fill="#CE191B" d="M145.546,63.509c15.237-14.644,33.939-21.968,56.106-21.968c21.968,0,40.619,7.375,55.959,22.116
			c15.335,14.745,23.007,33.202,23.007,55.364c0,17.617-5.149,32.952-15.438,46.014l-68.872,96.48h-51.06l51.06-68.872
			c-0.793,0-1.586,0-2.375,0c-18.804,0-35.428-6.976-49.872-20.929c-14.449-13.952-21.671-31.514-21.671-52.693
			C122.391,96.859,130.108,78.352,145.546,63.509z M164.248,119.021c0,9.899,3.608,18.309,10.835,25.233
			c7.223,6.931,16.077,10.391,26.569,10.391c10.288,0,18.948-3.46,25.976-10.391c7.022-6.925,10.539-15.334,10.539-25.233
			c0-9.894-3.517-18.303-10.539-25.232c-7.027-6.926-15.688-10.391-25.976-10.391c-10.492,0-19.347,3.465-26.569,10.391
			C167.856,100.719,164.248,109.128,164.248,119.021z"/>
	</g>
	<path fill="#CE191B" d="M200.129,359.337c-2.912-23.992-28.656-38.625-55.277-37.847c-28.862,0.747-54.965,22.382-55.165,60.185
		c-0.176,34.201,25.848,59.746,55.812,86.303c30.521,27.044,47.177,45.5,53.783,52.908c0,0.01-0.012,0.006,0,0.01
		c0.011,0.006,0,0.006,0.009,0.012c0.002-0.006-0.009-0.006-0.009-0.012c0,0-0.012-0.004,0-0.01
		c6.699-7.34,23.543-25.625,54.345-52.361c30.225-26.234,56.509-51.505,56.687-85.71c0.197-37.799-25.677-59.713-54.514-60.757
		C229.178,321.003,203.288,335.376,200.129,359.337z"/>
</g>
</svg>
