<?xml version="1.0" encoding="utf-8"?>
<!-- Generator: Adobe Illustrator 16.0.0, SVG Export Plug-In . SVG Version: 6.00 Build 0)  -->
<!DOCTYPE svg PUBLIC "-//W3C//DTD SVG 1.1//EN" "http://www.w3.org/Graphics/SVG/1.1/DTD/svg11.dtd">
<svg version="1.1" id="Layer_1" xmlns="http://www.w3.org/2000/svg" xmlns:xlink="http://www.w3.org/1999/xlink" x="0px" y="0px"
	 width="400px" height="566.572px" viewBox="0 0 400 566.572" enable-background="new 0 0 400 566.572" xml:space="preserve">
<g>
	<g>
		<g>
			<path fill="#FFFFFF" d="M400,545.202c0,11.753-9.616,21.369-21.369,21.369H21.37C9.616,566.571,0,556.955,0,545.202V21.371
				C0,9.617,9.616,0.001,21.37,0.001h357.261c11.753,0,21.369,9.616,21.369,21.37V545.202z"/>
		</g>
	</g>
	<g>
		<path fill="#CE191B" d="M124.765,44.807h44.529v88.762l70.06-88.762h49.873l-69.763,90.543l75.7,126.166H243.51l-51.654-85.199
			l-22.562,25.827v59.372h-44.529V44.807z"/>
	</g>
	<path fill="#CE191B" d="M200.129,359.337c-2.912-23.992-28.656-38.625-55.277-37.847c-28.863,0.747-54.965,22.382-55.166,60.185
		c-0.174,34.201,25.849,59.746,55.813,86.303c30.521,27.044,47.177,45.5,53.783,52.908c0,0.01-0.012,0.006,0,0.01
		c0.01,0.006,0,0.006,0.008,0.012c0.002-0.006-0.008-0.006-0.008-0.012c0,0-0.012-0.004,0-0.01
		c6.699-7.34,23.543-25.625,54.345-52.361c30.225-26.234,56.509-51.505,56.687-85.71c0.196-37.799-25.678-59.713-54.514-60.757
		C229.178,321.003,203.288,335.376,200.129,359.337z"/>
</g>
</svg>
