<?xml version="1.0" encoding="utf-8"?>
<!-- Generator: Adobe Illustrator 16.0.0, SVG Export Plug-In . SVG Version: 6.00 Build 0)  -->
<!DOCTYPE svg PUBLIC "-//W3C//DTD SVG 1.1//EN" "http://www.w3.org/Graphics/SVG/1.1/DTD/svg11.dtd">
<svg version="1.1" id="Layer_1" xmlns="http://www.w3.org/2000/svg" xmlns:xlink="http://www.w3.org/1999/xlink" x="0px" y="0px"
	 width="400px" height="566.572px" viewBox="0 0 400 566.572" enable-background="new 0 0 400 566.572" xml:space="preserve">
<g>
	<g>
		<g>
			<path fill="#FFFFFF" d="M400,545.202c0,11.753-9.616,21.369-21.369,21.369H21.37C9.616,566.571,0,556.955,0,545.202V21.371
				C0,9.617,9.616,0.001,21.37,0.001h357.261c11.753,0,21.369,9.616,21.369,21.37V545.202z"/>
		</g>
	</g>
	<g>
		<path fill="#CE191B" d="M120.46,73.898c21.769-21.968,48.189-32.951,79.263-32.951c31.068,0,57.54,10.983,79.41,32.951
			c21.866,21.968,32.804,48.389,32.804,79.263c0,26.522-8.215,49.873-24.64,70.06l22.562,25.827l-27.312,23.748l-21.374-25.826
			c-18.211,12.668-38.694,18.999-61.45,18.999c-31.073,0-57.545-11.03-79.411-33.101c-21.87-22.064-32.804-48.634-32.804-79.707
			C87.508,122.287,98.492,95.866,120.46,73.898z M132.928,153.161c0,18.604,6.531,34.436,19.594,47.498
			c13.062,13.062,28.795,19.593,47.201,19.593c11.675,0,22.064-3.163,31.17-9.5l-21.374-25.529l24.937-21.078l20.187,22.563
			c7.719-9.895,11.578-21.078,11.578-33.546c0-18.405-6.531-34.14-19.593-47.201c-13.063-13.062-28.698-19.593-46.904-19.593
			c-18.211,0-33.894,6.531-47.053,19.593C139.506,119.021,132.928,134.756,132.928,153.161z"/>
	</g>
	<path fill="#CE191B" d="M200.129,359.337c-2.912-23.992-28.656-38.625-55.277-37.847c-28.863,0.747-54.965,22.382-55.165,60.185
		c-0.175,34.201,25.848,59.746,55.812,86.303c30.521,27.044,47.177,45.5,53.783,52.908c0,0.01-0.012,0.006,0,0.01
		c0.01,0.006,0,0.006,0.008,0.012c0.002-0.006-0.008-0.006-0.008-0.012c0,0-0.012-0.004,0-0.01
		c6.699-7.34,23.543-25.625,54.345-52.361c30.225-26.234,56.509-51.505,56.687-85.71c0.196-37.799-25.678-59.713-54.514-60.757
		C229.178,321.003,203.288,335.376,200.129,359.337z"/>
</g>
</svg>
