<?xml version="1.0" encoding="utf-8"?>
<!-- Generator: Adobe Illustrator 16.0.0, SVG Export Plug-In . SVG Version: 6.00 Build 0)  -->
<!DOCTYPE svg PUBLIC "-//W3C//DTD SVG 1.1//EN" "http://www.w3.org/Graphics/SVG/1.1/DTD/svg11.dtd">
<svg version="1.1" id="Layer_1" xmlns="http://www.w3.org/2000/svg" xmlns:xlink="http://www.w3.org/1999/xlink" x="0px" y="0px"
	 width="400px" height="566.572px" viewBox="0 0 400 566.572" enable-background="new 0 0 400 566.572" xml:space="preserve">
<g>
	<g>
		<g>
			<path fill="#FFFFFF" d="M400,545.202c0,11.753-9.616,21.369-21.369,21.369H21.37C9.616,566.571,0,556.955,0,545.202V21.37
				C0,9.617,9.616,0,21.37,0h357.261C390.384,0,400,9.617,400,21.37V545.202z"/>
		</g>
	</g>
	<g>
		<path d="M245.815,364.907c-36.495-31.535-45.007-49.898-45.007-49.898h-0.046c0,0-8.349,18.445-44.561,50.299
			c-29.029,25.529-52.313,46.275-52.172,75.311c0.107,25.375,22,45.852,48.867,45.742c18.816-0.092,36.377-7.666,44.779-21.09
			c-2.612,18.219-16.456,54.826-28.373,62.744l64.811-0.217c-11.989-7.791-26.072-44.355-28.849-62.547
			c8.515,13.336,26.146,20.748,44.953,20.656c26.879-0.109,48.571-20.783,48.46-46.158
			C298.541,410.696,275.097,390.192,245.815,364.907z"/>
	</g>
	<g>
		<path d="M156.975,202.63c2.969,6.137,8.262,11.28,15.882,15.437c7.617,4.155,15.883,6.233,24.788,6.233
			c10.882,0,19.69-2.717,26.421-8.163c6.726-5.44,10.094-12.515,10.094-21.226c0-9.301-3.813-16.522-11.43-21.671
			c-7.621-5.144-17.269-7.719-28.943-7.719h-11.578v-38.889h12.468c8.508,0,15.832-2.027,21.969-6.086
			c6.132-4.054,9.202-9.647,9.202-16.772c0-6.727-2.723-12.172-8.164-16.328c-5.445-4.155-12.421-6.233-20.929-6.233
			c-12.468,0-21.87,4.155-28.201,12.468L129.96,78.838c5.344-11.081,14.296-20.233,26.866-27.46
			c12.565-7.222,25.976-10.836,40.225-10.836c19.987,0,36.812,5.195,50.467,15.586c13.656,10.391,20.483,25.284,20.483,44.678
			c0,18.605-9.008,33.248-27.015,43.936c10.688,5.344,19.148,12.617,25.382,21.819c6.234,9.203,9.352,19.741,9.352,31.616
			c0,20.386-7.227,36.811-21.671,49.279c-14.449,12.468-32.854,18.702-55.217,18.702c-18.21,0-34.39-4.253-48.537-12.765
			c-14.151-8.508-24.394-19.789-30.725-33.843L156.975,202.63z"/>
	</g>
</g>
</svg>
