<?xml version="1.0" encoding="utf-8"?>
<!-- Generator: Adobe Illustrator 16.0.0, SVG Export Plug-In . SVG Version: 6.00 Build 0)  -->
<!DOCTYPE svg PUBLIC "-//W3C//DTD SVG 1.1//EN" "http://www.w3.org/Graphics/SVG/1.1/DTD/svg11.dtd">
<svg version="1.1" id="Layer_1" xmlns="http://www.w3.org/2000/svg" xmlns:xlink="http://www.w3.org/1999/xlink" x="0px" y="0px"
	 width="400px" height="566.572px" viewBox="0 0 400 566.572" enable-background="new 0 0 400 566.572" xml:space="preserve">
<g>
	<g>
		<g>
			<path fill="#FFFFFF" d="M400,545.202c0,11.753-9.616,21.369-21.369,21.369H21.37C9.616,566.571,0,556.955,0,545.202V21.37
				C0,9.617,9.616,0,21.37,0h357.261C390.384,0,400,9.617,400,21.37V545.202z"/>
		</g>
	</g>
	<g>
		<path d="M245.815,364.907c-36.495-31.535-45.007-49.898-45.007-49.898h-0.046c0,0-8.349,18.445-44.561,50.299
			c-29.029,25.529-52.313,46.275-52.172,75.311c0.107,25.375,22,45.852,48.867,45.742c18.816-0.092,36.377-7.666,44.779-21.09
			c-2.612,18.219-16.456,54.826-28.373,62.744l64.811-0.217c-11.989-7.791-26.072-44.355-28.849-62.547
			c8.515,13.336,26.146,20.748,44.953,20.656c26.879-0.109,48.571-20.783,48.46-46.158
			C298.541,410.696,275.097,390.192,245.815,364.907z"/>
	</g>
	<g>
		<path d="M121.501,177.99L215.31,45.292h50.169v128.542h17.813v40.967h-17.813v47.201h-41.857v-47.201h-102.12V177.99z
			 M168.405,173.834h55.216v-72.138L168.405,173.834z"/>
	</g>
</g>
</svg>
