<?xml version="1.0" encoding="utf-8"?>
<!-- Generator: Adobe Illustrator 16.0.0, SVG Export Plug-In . SVG Version: 6.00 Build 0)  -->
<!DOCTYPE svg PUBLIC "-//W3C//DTD SVG 1.1//EN" "http://www.w3.org/Graphics/SVG/1.1/DTD/svg11.dtd">
<svg version="1.1" id="Layer_1" xmlns="http://www.w3.org/2000/svg" xmlns:xlink="http://www.w3.org/1999/xlink" x="0px" y="0px"
	 width="400px" height="566.572px" viewBox="0 0 400 566.572" enable-background="new 0 0 400 566.572" xml:space="preserve">
<g>
	<g>
		<g>
			<path fill="#FFFFFF" d="M400,545.202c0,11.753-9.616,21.369-21.369,21.369H21.369C9.616,566.571,0,556.955,0,545.202V21.371
				c0-11.753,9.616-21.37,21.37-21.37h357.262c11.753,0,21.369,9.616,21.369,21.37V545.202z"/>
		</g>
	</g>
	<g>
		<path d="M245.816,364.907c-36.496-31.535-45.008-49.898-45.008-49.898h-0.045c0,0-8.35,18.445-44.561,50.299
			c-29.029,25.529-52.314,46.275-52.172,75.311c0.107,25.375,22,45.852,48.867,45.742c18.816-0.092,36.377-7.666,44.779-21.09
			c-2.613,18.219-16.457,54.826-28.373,62.744l64.811-0.217c-11.99-7.791-26.072-44.355-28.85-62.547
			c8.516,13.336,26.146,20.748,44.953,20.656c26.879-0.109,48.572-20.783,48.461-46.158
			C298.541,410.696,275.098,390.192,245.816,364.907z"/>
	</g>
	<g>
		<path d="M163.208,200.849c2.569,6.531,7.125,11.874,13.655,16.03c6.531,4.156,13.753,6.233,21.671,6.233
			c10.489,0,19.393-3.511,26.717-10.538c7.32-7.022,10.984-15.683,10.984-25.976c0-10.288-3.664-18.999-10.984-26.123
			c-7.324-7.125-16.029-10.688-26.124-10.688c-6.137,0-12.022,1.438-17.663,4.305c-5.641,2.871-10.145,6.68-13.507,11.429h-41.857
			l8.312-120.229h135.666v38.89h-96.48l-2.671,39.482c9.894-8.112,21.471-12.171,34.733-12.171c20.779,0,38.096,7.176,51.951,21.521
			c13.85,14.352,20.779,32.507,20.779,54.475c0,21.969-7.82,40.373-23.451,55.217c-15.637,14.843-34.637,22.265-56.999,22.265
			c-17.218,0-32.608-4.499-46.162-13.507c-13.558-9.004-23.108-20.93-28.646-35.772L163.208,200.849z"/>
	</g>
</g>
</svg>
