<?xml version="1.0" encoding="utf-8"?>
<!-- Generator: Adobe Illustrator 16.0.0, SVG Export Plug-In . SVG Version: 6.00 Build 0)  -->
<!DOCTYPE svg PUBLIC "-//W3C//DTD SVG 1.1//EN" "http://www.w3.org/Graphics/SVG/1.1/DTD/svg11.dtd">
<svg version="1.1" id="Layer_1" xmlns="http://www.w3.org/2000/svg" xmlns:xlink="http://www.w3.org/1999/xlink" x="0px" y="0px"
	 width="400px" height="566.572px" viewBox="0 0 400 566.572" enable-background="new 0 0 400 566.572" xml:space="preserve">
<g>
	<g>
		<g>
			<path fill="#FFFFFF" d="M400,545.202c0,11.753-9.616,21.369-21.369,21.369H21.369C9.616,566.571,0,556.955,0,545.202V21.371
				c0-11.753,9.616-21.37,21.37-21.37h357.262c11.753,0,21.369,9.616,21.369,21.37V545.202z"/>
		</g>
	</g>
	<g>
		<path d="M245.816,364.907c-36.496-31.535-45.008-49.898-45.008-49.898h-0.045c0,0-8.35,18.445-44.561,50.299
			c-29.029,25.529-52.314,46.275-52.172,75.311c0.107,25.375,22,45.852,48.867,45.742c18.816-0.092,36.377-7.666,44.779-21.09
			c-2.613,18.219-16.457,54.826-28.373,62.744l64.811-0.217c-11.99-7.791-26.072-44.355-28.85-62.547
			c8.516,13.336,26.146,20.748,44.953,20.656c26.879-0.109,48.572-20.783,48.461-46.158
			C298.541,410.696,275.098,390.192,245.816,364.907z"/>
	</g>
	<g>
		<path d="M137.53,141.476l69.169-96.48h51.061l-51.357,68.873c0.787,0,1.582,0,2.375,0c18.799,0,35.475,6.976,50.021,20.928
			c14.545,13.953,21.818,31.52,21.818,52.693c0,21.969-7.719,40.373-23.154,55.217c-15.438,14.843-34.141,22.265-56.107,22.265
			c-22.167,0-40.87-7.37-56.107-22.116c-15.242-14.741-22.858-33.197-22.858-55.365C122.39,169.678,127.436,154.343,137.53,141.476z
			 M164.544,187.489c0,9.898,3.563,18.309,10.687,25.233c7.125,6.931,15.831,10.39,26.125,10.39c10.287,0,19.045-3.459,26.271-10.39
			c7.223-6.925,10.836-15.335,10.836-25.233c0-9.894-3.613-18.303-10.836-25.232c-7.227-6.926-15.984-10.391-26.271-10.391
			c-10.293,0-19,3.465-26.125,10.391C168.107,169.187,164.544,177.596,164.544,187.489z"/>
	</g>
</g>
</svg>
