<?xml version="1.0" encoding="utf-8"?>
<!-- Generator: Adobe Illustrator 16.0.0, SVG Export Plug-In . SVG Version: 6.00 Build 0)  -->
<!DOCTYPE svg PUBLIC "-//W3C//DTD SVG 1.1//EN" "http://www.w3.org/Graphics/SVG/1.1/DTD/svg11.dtd">
<svg version="1.1" id="Layer_1" xmlns="http://www.w3.org/2000/svg" xmlns:xlink="http://www.w3.org/1999/xlink" x="0px" y="0px"
	 width="400px" height="566.572px" viewBox="0 0 400 566.572" enable-background="new 0 0 400 566.572" xml:space="preserve">
<g>
	<g>
		<g>
			<path fill="#FFFFFF" d="M400,545.202c0,11.753-9.616,21.369-21.369,21.369H21.369C9.616,566.571,0,556.955,0,545.202V21.371
				c0-11.753,9.616-21.37,21.37-21.37h357.262c11.753,0,21.369,9.616,21.369,21.37V545.202z"/>
		</g>
	</g>
	<g>
		<path d="M245.816,364.907c-36.496-31.535-45.008-49.898-45.008-49.898h-0.045c0,0-8.35,18.445-44.561,50.299
			c-29.029,25.529-52.314,46.275-52.172,75.311c0.107,25.375,22,45.852,48.867,45.742c18.816-0.092,36.377-7.666,44.779-21.09
			c-2.613,18.219-16.457,54.826-28.373,62.744l64.811-0.217c-11.99-7.791-26.072-44.355-28.85-62.547
			c8.516,13.336,26.146,20.748,44.953,20.656c26.879-0.109,48.572-20.783,48.461-46.158
			C298.541,410.696,275.098,390.192,245.816,364.907z"/>
	</g>
	<g>
		<path d="M130.851,167.896c5.938-9.3,14.05-16.722,24.343-22.265c-15.637-10.688-23.452-25.233-23.452-43.639
			c0-17.413,6.776-32.061,20.335-43.936c13.554-11.875,30.029-17.813,49.427-17.813c19.395,0,35.869,5.938,49.428,17.813
			c13.555,11.875,20.336,26.522,20.336,43.936c0,18.211-7.918,32.757-23.75,43.639c10.488,5.543,18.75,13.016,24.789,22.413
			c6.033,9.402,9.053,19.843,9.053,31.319c0,20.386-7.523,37.107-22.561,50.17c-15.043,13.062-34.338,19.592-57.888,19.592
			c-23.354,0-42.405-6.53-57.146-19.592c-14.745-13.063-22.116-29.784-22.116-50.17
			C121.648,187.888,124.714,177.396,130.851,167.896z M164.1,196.692c0,8.906,3.562,16.43,10.687,22.562
			c6.926,6.336,15.733,9.499,26.42,9.499c10.688,0,19.594-3.117,26.719-9.351c7.125-6.234,10.686-13.804,10.686-22.71
			c0-8.707-3.664-16.077-10.982-22.116c-7.324-6.034-16.133-9.055-26.422-9.055c-10.292,0-19.049,3.071-26.272,9.203
			C167.708,180.861,164.1,188.185,164.1,196.692z M173.005,102.29c0,6.73,2.719,12.469,8.164,17.218
			c5.44,4.75,12.12,7.125,20.038,7.125c8.113,0,14.941-2.375,20.484-7.125c5.537-4.749,8.313-10.487,8.313-17.218
			c0-6.726-2.775-12.366-8.313-16.922c-5.543-4.55-12.371-6.827-20.484-6.827c-7.917,0-14.597,2.277-20.038,6.827
			C175.724,89.924,173.005,95.564,173.005,102.29z"/>
	</g>
</g>
</svg>
