<?xml version="1.0" encoding="utf-8"?>
<!-- Generator: Adobe Illustrator 16.0.0, SVG Export Plug-In . SVG Version: 6.00 Build 0)  -->
<!DOCTYPE svg PUBLIC "-//W3C//DTD SVG 1.1//EN" "http://www.w3.org/Graphics/SVG/1.1/DTD/svg11.dtd">
<svg version="1.1" id="Layer_1" xmlns="http://www.w3.org/2000/svg" xmlns:xlink="http://www.w3.org/1999/xlink" x="0px" y="0px"
	 width="400px" height="566.572px" viewBox="0 0 400 566.572" enable-background="new 0 0 400 566.572" xml:space="preserve">
<g>
	<g>
		<g>
			<path fill="#FFFFFF" d="M400,545.202c0,11.753-9.616,21.369-21.369,21.369H21.369C9.616,566.571,0,556.955,0,545.202V21.371
				c0-11.753,9.616-21.37,21.37-21.37h357.262c11.753,0,21.369,9.616,21.369,21.37V545.202z"/>
		</g>
	</g>
	<g>
		<path d="M245.816,364.907c-36.496-31.535-45.008-49.898-45.008-49.898h-0.045c0,0-8.35,18.445-44.561,50.299
			c-29.029,25.529-52.314,46.275-52.172,75.311c0.107,25.375,22,45.852,48.867,45.742c18.816-0.092,36.377-7.666,44.779-21.09
			c-2.613,18.219-16.457,54.826-28.373,62.744l64.811-0.217c-11.99-7.791-26.072-44.355-28.85-62.547
			c8.516,13.336,26.146,20.748,44.953,20.656c26.879-0.109,48.572-20.783,48.461-46.158
			C298.541,410.696,275.098,390.192,245.816,364.907z"/>
	</g>
	<g>
		<path d="M145.545,63.995c15.237-14.645,33.939-21.969,56.107-21.969c21.967,0,40.619,7.376,55.959,22.117
			c15.334,14.745,23.006,33.201,23.006,55.364c0,17.617-5.148,32.952-15.438,46.014l-68.872,96.48h-51.06l51.06-68.872
			c-0.793,0-1.586,0-2.375,0c-18.804,0-35.428-6.977-49.872-20.929c-14.449-13.952-21.671-31.514-21.671-52.693
			C122.39,97.345,130.108,78.838,145.545,63.995z M164.248,119.508c0,9.899,3.608,18.308,10.835,25.233
			c7.223,6.93,16.077,10.391,26.57,10.391c10.287,0,18.947-3.461,25.975-10.391c7.023-6.926,10.539-15.334,10.539-25.233
			c0-9.894-3.516-18.304-10.539-25.233c-7.027-6.925-15.688-10.39-25.975-10.39c-10.493,0-19.347,3.465-26.57,10.39
			C167.856,101.204,164.248,109.614,164.248,119.508z"/>
	</g>
</g>
</svg>
