<?xml version="1.0" encoding="utf-8"?>
<!-- Generator: Adobe Illustrator 16.0.0, SVG Export Plug-In . SVG Version: 6.00 Build 0)  -->
<!DOCTYPE svg PUBLIC "-//W3C//DTD SVG 1.1//EN" "http://www.w3.org/Graphics/SVG/1.1/DTD/svg11.dtd">
<svg version="1.1" id="Layer_1" xmlns="http://www.w3.org/2000/svg" xmlns:xlink="http://www.w3.org/1999/xlink" x="0px" y="0px"
	 width="400px" height="566.572px" viewBox="0 0 400 566.572" enable-background="new 0 0 400 566.572" xml:space="preserve">
<g>
	<g>
		<g>
			<path fill="#FFFFFF" d="M400,545.202c0,11.753-9.616,21.369-21.369,21.369H21.369C9.616,566.571,0,556.955,0,545.202V21.371
				c0-11.753,9.616-21.37,21.37-21.37h357.262c11.753,0,21.369,9.616,21.369,21.37V545.202z"/>
		</g>
	</g>
	<g>
		<path d="M245.816,364.907c-36.496-31.535-45.008-49.898-45.008-49.898h-0.045c0,0-8.35,18.445-44.561,50.299
			c-29.029,25.529-52.314,46.275-52.172,75.311c0.107,25.375,22,45.852,48.867,45.742c18.816-0.092,36.377-7.666,44.779-21.09
			c-2.613,18.219-16.457,54.826-28.373,62.744l64.811-0.217c-11.99-7.791-26.072-44.355-28.85-62.547
			c8.516,13.336,26.146,20.748,44.953,20.656c26.879-0.109,48.572-20.783,48.461-46.158
			C298.541,410.696,275.098,390.192,245.816,364.907z"/>
	</g>
	<g>
		<path d="M160.09,208.864c7.125,8.117,15.734,12.171,25.827,12.171c10.094,0,17.959-3.563,23.6-10.688
			c5.641-7.124,8.461-16.522,8.461-28.202V45.292h44.826v136.854c0,25.336-7.125,45.42-21.373,60.264
			c-14.25,14.843-32.758,22.265-55.514,22.265c-11.874,0-22.96-2.575-33.248-7.719c-10.293-5.144-18.805-12.366-25.53-21.671
			L160.09,208.864z"/>
	</g>
</g>
</svg>
