<?xml version="1.0" encoding="utf-8"?>
<!-- Generator: Adobe Illustrator 16.0.0, SVG Export Plug-In . SVG Version: 6.00 Build 0)  -->
<!DOCTYPE svg PUBLIC "-//W3C//DTD SVG 1.1//EN" "http://www.w3.org/Graphics/SVG/1.1/DTD/svg11.dtd">
<svg version="1.1" id="Layer_1" xmlns="http://www.w3.org/2000/svg" xmlns:xlink="http://www.w3.org/1999/xlink" x="0px" y="0px"
	 width="400px" height="566.572px" viewBox="0 0 400 566.572" enable-background="new 0 0 400 566.572" xml:space="preserve">
<g>
	<g>
		<g>
			<path fill="#FFFFFF" d="M400,545.202c0,11.753-9.616,21.369-21.369,21.369H21.37C9.616,566.571,0,556.955,0,545.202V21.371
				C0,9.617,9.616,0.001,21.37,0.001h357.261c11.753,0,21.369,9.616,21.369,21.37V545.202z"/>
		</g>
	</g>
	<g>
		<path d="M245.816,364.907c-36.496-31.535-45.008-49.898-45.008-49.898h-0.045c0,0-8.35,18.445-44.561,50.299
			c-29.029,25.529-52.314,46.275-52.172,75.311c0.107,25.375,22,45.852,48.867,45.742c18.816-0.092,36.377-7.666,44.779-21.09
			c-2.613,18.219-16.457,54.826-28.373,62.744l64.811-0.217c-11.99-7.791-26.072-44.355-28.85-62.547
			c8.516,13.336,26.146,20.748,44.953,20.656c26.879-0.109,48.572-20.783,48.461-46.158
			C298.541,410.696,275.098,390.192,245.816,364.907z"/>
	</g>
	<g>
		<path d="M123.41,45.292h44.529v88.762l70.059-88.762h49.873l-69.762,90.543l75.699,126.167h-51.654l-51.653-85.2l-22.562,25.828
			v59.372H123.41V45.292z"/>
	</g>
</g>
</svg>
