<?xml version="1.0" encoding="utf-8"?>
<!-- Generator: Adobe Illustrator 16.0.0, SVG Export Plug-In . SVG Version: 6.00 Build 0)  -->
<!DOCTYPE svg PUBLIC "-//W3C//DTD SVG 1.1//EN" "http://www.w3.org/Graphics/SVG/1.1/DTD/svg11.dtd">
<svg version="1.1" id="Layer_1" xmlns="http://www.w3.org/2000/svg" xmlns:xlink="http://www.w3.org/1999/xlink" x="0px" y="0px"
	 width="400px" height="566.572px" viewBox="0 0 400 566.572" enable-background="new 0 0 400 566.572" xml:space="preserve">
<g>
	<g>
		<g>
			<path fill="#FFFFFF" d="M400,545.202c0,11.753-9.616,21.369-21.369,21.369H21.369C9.616,566.571,0,556.955,0,545.202V21.371
				c0-11.753,9.616-21.37,21.37-21.37h357.262c11.753,0,21.369,9.616,21.369,21.37V545.202z"/>
		</g>
	</g>
	<g>
		<path d="M245.816,364.907c-36.496-31.535-45.008-49.898-45.008-49.898h-0.045c0,0-8.35,18.445-44.561,50.299
			c-29.029,25.529-52.314,46.275-52.172,75.311c0.107,25.375,22,45.852,48.867,45.742c18.816-0.092,36.377-7.666,44.779-21.09
			c-2.613,18.219-16.457,54.826-28.373,62.744l64.811-0.217c-11.99-7.791-26.072-44.355-28.85-62.547
			c8.516,13.336,26.146,20.748,44.953,20.656c26.879-0.109,48.572-20.783,48.461-46.158
			C298.541,410.696,275.098,390.192,245.816,364.907z"/>
	</g>
	<g>
		<path d="M129.369,262.002H87.807V84.182H58.122v-38.89h71.247V262.002z"/>
		<path d="M193.785,71.714c15.831-19.789,36.413-29.688,61.749-29.688c25.33,0,45.865,9.945,61.598,29.836
			c15.734,19.889,23.602,47.154,23.602,81.785c0,34.635-7.82,61.947-23.453,81.934c-15.836,20.188-36.416,30.28-61.746,30.28
			c-25.336,0-45.918-10.042-61.749-30.132c-15.835-20.084-23.749-47.447-23.749-82.082
			C170.036,119.017,177.95,91.705,193.785,71.714z M212.488,153.351c0,23.748,3.955,41.463,11.873,53.139
			c7.914,11.68,18.305,17.514,31.172,17.514c12.662,0,22.955-5.834,30.873-17.514c7.914-11.676,11.875-29.391,11.875-53.139
			c0-23.155-4.008-40.521-12.023-52.1S268,83.885,255.533,83.885c-12.867,0-23.258,5.788-31.172,17.366
			C216.443,112.829,212.488,130.195,212.488,153.351z"/>
	</g>
</g>
</svg>
