<?xml version="1.0" encoding="utf-8"?>
<!-- Generator: Adobe Illustrator 16.0.0, SVG Export Plug-In . SVG Version: 6.00 Build 0)  -->
<!DOCTYPE svg PUBLIC "-//W3C//DTD SVG 1.1//EN" "http://www.w3.org/Graphics/SVG/1.1/DTD/svg11.dtd">
<svg version="1.1" id="Layer_1" xmlns="http://www.w3.org/2000/svg" xmlns:xlink="http://www.w3.org/1999/xlink" x="0px" y="0px"
	 width="400px" height="566.572px" viewBox="0 0 400 566.572" enable-background="new 0 0 400 566.572" xml:space="preserve">
<g>
	<g>
		<g>
			<path fill="#FFFFFF" d="M400,545.202c0,11.753-9.616,21.369-21.369,21.369H21.369C9.616,566.571,0,556.955,0,545.202V21.371
				c0-11.753,9.616-21.37,21.37-21.37h357.262c11.753,0,21.369,9.616,21.369,21.37V545.202z"/>
		</g>
	</g>
	<g>
		<path d="M245.816,364.907c-36.496-31.535-45.008-49.898-45.008-49.898h-0.045c0,0-8.35,18.445-44.561,50.299
			c-29.029,25.529-52.314,46.275-52.172,75.311c0.107,25.375,22,45.852,48.867,45.742c18.816-0.092,36.377-7.666,44.779-21.09
			c-2.613,18.219-16.457,54.826-28.373,62.744l64.811-0.217c-11.99-7.791-26.072-44.355-28.85-62.547
			c8.516,13.336,26.146,20.748,44.953,20.656c26.879-0.109,48.572-20.783,48.461-46.158
			C298.541,410.696,275.098,390.192,245.816,364.907z"/>
	</g>
	<g>
		<path d="M120.459,74.385c21.769-21.968,48.189-32.952,79.263-32.952c31.069,0,57.54,10.984,79.411,32.952
			c21.865,21.968,32.803,48.389,32.803,79.263c0,26.522-8.215,49.873-24.639,70.059l22.561,25.828l-27.311,23.748l-21.375-25.826
			c-18.211,12.668-38.693,18.999-61.45,18.999c-31.073,0-57.545-11.03-79.411-33.101c-21.87-22.064-32.804-48.635-32.804-79.707
			C87.507,122.773,98.492,96.353,120.459,74.385z M132.927,153.647c0,18.604,6.531,34.436,19.594,47.498
			c13.062,13.062,28.795,19.593,47.201,19.593c11.674,0,22.065-3.163,31.17-9.5l-21.375-25.53l24.938-21.077l20.186,22.562
			c7.719-9.894,11.578-21.077,11.578-33.545c0-18.406-6.531-34.14-19.592-47.201c-13.063-13.063-28.699-19.594-46.905-19.594
			c-18.211,0-33.894,6.531-47.053,19.594C139.505,119.508,132.927,135.241,132.927,153.647z"/>
	</g>
</g>
</svg>
