<svg xmlns="http://www.w3.org/2000/svg" xmlns:xlink="http://www.w3.org/1999/xlink" version="1.1" width="256" height="256" viewBox="0 0 256 256" xml:space="preserve">

<defs>
</defs>
<g style="stroke: none; stroke-width: 0; stroke-dasharray: none; stroke-linecap: butt; stroke-linejoin: miter; stroke-miterlimit: 10; fill: none; fill-rule: nonzero; opacity: 1;" transform="translate(1.4065934065934016 1.4065934065934016) scale(2.81 2.81)" >
	<path d="M 84.765 70.208 H 5.235 C 2.896 70.208 1 68.312 1 65.974 v -55.22 c 0 -2.339 1.896 -4.235 4.235 -4.235 h 79.53 c 2.339 0 4.235 1.896 4.235 4.235 v 55.22 C 89 68.312 87.104 70.208 84.765 70.208 z" style="stroke: none; stroke-width: 1; stroke-dasharray: none; stroke-linecap: butt; stroke-linejoin: miter; stroke-miterlimit: 10; fill: rgb(130,174,227); fill-rule: nonzero; opacity: 1;" transform=" matrix(1 0 0 1 0 0) " stroke-linecap="round" />
	<path d="M 89 55.664 H 1 v 10.309 c 0 2.339 1.896 4.235 4.235 4.235 h 79.53 c 2.339 0 4.235 -1.896 4.235 -4.235 V 55.664 z" style="stroke: none; stroke-width: 1; stroke-dasharray: none; stroke-linecap: butt; stroke-linejoin: miter; stroke-miterlimit: 10; fill: rgb(97,104,152); fill-rule: nonzero; opacity: 1;" transform=" matrix(1 0 0 1 0 0) " stroke-linecap="round" />
	<polygon points="58.45,88.9 56.07,70.21 33.93,70.21 31.55,88.9 " style="stroke: none; stroke-width: 1; stroke-dasharray: none; stroke-linecap: butt; stroke-linejoin: miter; stroke-miterlimit: 10; fill: rgb(97,104,152); fill-rule: nonzero; opacity: 1;" transform="  matrix(1 0 0 1 0 0) "/>
	<path d="M 84.765 71.208 H 5.235 C 2.348 71.208 0 68.86 0 65.974 v -55.22 c 0 -2.887 2.348 -5.235 5.235 -5.235 h 35.441 c 0.552 0 1 0.448 1 1 s -0.448 1 -1 1 H 5.235 C 3.451 7.519 2 8.97 2 10.754 v 55.22 c 0 1.783 1.451 3.234 3.235 3.234 h 79.53 c 1.784 0 3.235 -1.451 3.235 -3.234 v -55.22 c 0 -1.784 -1.451 -3.235 -3.235 -3.235 h -4.781 c -0.553 0 -1 -0.448 -1 -1 s 0.447 -1 1 -1 h 4.781 c 2.887 0 5.235 2.348 5.235 5.235 v 55.22 C 90 68.86 87.651 71.208 84.765 71.208 z" style="stroke: none; stroke-width: 1; stroke-dasharray: none; stroke-linecap: butt; stroke-linejoin: miter; stroke-miterlimit: 10; fill: rgb(0,0,0); fill-rule: nonzero; opacity: 1;" transform=" matrix(1 0 0 1 0 0) " stroke-linecap="round" />
	<path d="M 84.765 71.208 H 5.235 C 2.348 71.208 0 68.86 0 65.974 v -10.31 c 0 -0.553 0.448 -1 1 -1 h 88 c 0.553 0 1 0.447 1 1 v 10.31 C 90 68.86 87.651 71.208 84.765 71.208 z M 2 56.664 v 9.31 c 0 1.783 1.451 3.234 3.235 3.234 h 79.53 c 1.784 0 3.235 -1.451 3.235 -3.234 v -9.31 H 2 z" style="stroke: none; stroke-width: 1; stroke-dasharray: none; stroke-linecap: butt; stroke-linejoin: miter; stroke-miterlimit: 10; fill: rgb(0,0,0); fill-rule: nonzero; opacity: 1;" transform=" matrix(1 0 0 1 0 0) " stroke-linecap="round" />
	<path d="M 58.453 89.9 H 31.546 c -0.287 0 -0.561 -0.123 -0.75 -0.339 s -0.278 -0.503 -0.242 -0.787 l 2.382 -18.692 c 0.064 -0.5 0.489 -0.874 0.992 -0.874 h 22.144 c 0.504 0 0.929 0.374 0.992 0.874 l 2.381 18.692 c 0.036 0.284 -0.052 0.571 -0.242 0.787 C 59.014 89.777 58.74 89.9 58.453 89.9 z M 32.682 87.9 h 24.635 l -2.126 -16.692 H 34.809 L 32.682 87.9 z" style="stroke: none; stroke-width: 1; stroke-dasharray: none; stroke-linecap: butt; stroke-linejoin: miter; stroke-miterlimit: 10; fill: rgb(0,0,0); fill-rule: nonzero; opacity: 1;" transform=" matrix(1 0 0 1 0 0) " stroke-linecap="round" />
	<path d="M 64.712 89.9 H 25.289 c -0.552 0 -1 -0.447 -1 -1 s 0.448 -1 1 -1 h 39.423 c 0.553 0 1 0.447 1 1 S 65.265 89.9 64.712 89.9 z" style="stroke: none; stroke-width: 1; stroke-dasharray: none; stroke-linecap: butt; stroke-linejoin: miter; stroke-miterlimit: 10; fill: rgb(0,0,0); fill-rule: nonzero; opacity: 1;" transform=" matrix(1 0 0 1 0 0) " stroke-linecap="round" />
	<path d="M 48.01 63.937 h -6.02 c -0.552 0 -1 -0.447 -1 -1 s 0.448 -1 1 -1 h 6.02 c 0.553 0 1 0.447 1 1 S 48.563 63.937 48.01 63.937 z" style="stroke: none; stroke-width: 1; stroke-dasharray: none; stroke-linecap: butt; stroke-linejoin: miter; stroke-miterlimit: 10; fill: rgb(0,0,0); fill-rule: nonzero; opacity: 1;" transform=" matrix(1 0 0 1 0 0) " stroke-linecap="round" />
	<path d="M 75.041 19.069 L 75.041 19.069 c -3.06 -0.912 -3.489 -5.068 -0.68 -6.587 l 0 0 c 0.399 -0.215 0.547 -0.713 0.332 -1.112 l -1.921 -3.553 c -0.215 -0.399 -0.713 -0.547 -1.112 -0.332 l 0 0 c -2.809 1.518 -6.051 -1.117 -5.138 -4.176 l 0 0 c 0.129 -0.434 -0.118 -0.891 -0.552 -1.021 l -3.871 -1.155 c -0.434 -0.129 -0.891 0.118 -1.021 0.552 c -0.912 3.06 -5.068 3.489 -6.587 0.68 c -0.215 -0.399 -0.713 -0.547 -1.112 -0.332 l -3.554 1.921 c -0.399 0.215 -0.547 0.713 -0.332 1.112 c 1.518 2.809 -1.117 6.051 -4.177 5.138 c -0.434 -0.129 -0.891 0.118 -1.021 0.552 l -1.154 3.871 c -0.129 0.434 0.118 0.891 0.552 1.021 l 0 0 c 3.06 0.912 3.489 5.068 0.68 6.587 l 0 0 c -0.399 0.215 -0.547 0.713 -0.332 1.112 l 1.921 3.553 c 0.215 0.399 0.713 0.547 1.112 0.332 l 0 0 c 2.809 -1.518 6.051 1.117 5.138 4.177 l 0 0 c -0.129 0.434 0.118 0.891 0.552 1.021 l 3.871 1.154 c 0.434 0.129 0.891 -0.118 1.021 -0.552 l 0 0 c 0.912 -3.06 5.068 -3.489 6.587 -0.68 l 0 0 c 0.215 0.399 0.713 0.547 1.112 0.332 l 3.553 -1.921 c 0.399 -0.215 0.547 -0.713 0.332 -1.112 l 0 0 c -1.518 -2.809 1.117 -6.051 4.177 -5.138 c 0.434 0.129 0.891 -0.118 1.021 -0.552 l 1.154 -3.871 C 75.722 19.656 75.475 19.199 75.041 19.069 z M 60.095 24.409 c -3.894 0.402 -7.376 -2.429 -7.778 -6.322 c -0.402 -3.894 2.429 -7.376 6.322 -7.778 c 3.894 -0.402 7.376 2.429 7.778 6.322 C 66.819 20.525 63.989 24.007 60.095 24.409 z" style="stroke: none; stroke-width: 1; stroke-dasharray: none; stroke-linecap: butt; stroke-linejoin: miter; stroke-miterlimit: 10; fill: rgb(244,160,60); fill-rule: nonzero; opacity: 1;" transform=" matrix(1 0 0 1 0 0) " stroke-linecap="round" />
	<path d="M 57.656 34.033 c -0.094 0 -0.19 -0.014 -0.286 -0.042 c -0.529 -0.158 -0.83 -0.715 -0.672 -1.244 c 0.539 -1.811 2.042 -3.056 3.921 -3.25 c 1.818 -0.192 3.495 0.661 4.415 2.223 l 3.243 -1.753 c -0.804 -1.626 -0.596 -3.493 0.559 -4.912 c 1.153 -1.418 2.937 -2.003 4.693 -1.549 l 1.054 -3.533 c -1.717 -0.582 -2.89 -2.048 -3.078 -3.867 c -0.188 -1.819 0.661 -3.495 2.224 -4.415 l -1.753 -3.243 c -1.626 0.804 -3.494 0.595 -4.912 -0.558 c -1.419 -1.154 -2.003 -2.938 -1.549 -4.693 l -3.533 -1.054 c -0.581 1.717 -2.048 2.891 -3.868 3.079 c -1.823 0.19 -3.494 -0.661 -4.414 -2.223 l -3.243 1.753 c 0.803 1.626 0.596 3.493 -0.558 4.912 c -1.192 1.466 -3.057 2.04 -4.867 1.501 c -0.529 -0.158 -0.831 -0.715 -0.673 -1.244 c 0.158 -0.53 0.715 -0.831 1.244 -0.673 c 1.216 0.363 2.217 -0.199 2.743 -0.846 c 0.526 -0.647 0.874 -1.739 0.269 -2.859 c -0.231 -0.427 -0.282 -0.919 -0.144 -1.385 s 0.451 -0.85 0.879 -1.082 l 3.554 -1.921 c 0.883 -0.476 1.989 -0.147 2.467 0.735 c 0.605 1.12 1.707 1.428 2.538 1.342 c 0.83 -0.085 1.847 -0.612 2.211 -1.832 c 0.287 -0.962 1.304 -1.51 2.265 -1.225 l 3.872 1.155 c 0.961 0.287 1.51 1.303 1.225 2.264 c -0.364 1.221 0.197 2.217 0.845 2.744 c 0.649 0.527 1.74 0.873 2.858 0.268 c 0.882 -0.476 1.989 -0.147 2.467 0.735 l 1.922 3.554 c 0.477 0.884 0.146 1.99 -0.736 2.467 c -1.12 0.605 -1.427 1.708 -1.342 2.538 c 0.086 0.83 0.612 1.847 1.833 2.21 c 0.962 0.289 1.51 1.305 1.223 2.266 l -1.154 3.87 c -0.288 0.962 -1.303 1.514 -2.266 1.224 c -1.223 -0.365 -2.217 0.199 -2.742 0.846 c -0.526 0.647 -0.874 1.739 -0.269 2.858 c 0.231 0.427 0.282 0.919 0.144 1.386 c -0.139 0.466 -0.451 0.85 -0.878 1.082 l -3.555 1.921 c -0.427 0.231 -0.923 0.282 -1.387 0.143 c -0.467 -0.14 -0.85 -0.452 -1.081 -0.88 c -0.605 -1.119 -1.714 -1.425 -2.537 -1.34 c -0.83 0.086 -1.847 0.612 -2.211 1.832 C 58.485 33.752 58.088 34.033 57.656 34.033 z M 59.352 25.448 c -1.851 0 -3.63 -0.629 -5.086 -1.813 c -1.676 -1.363 -2.722 -3.297 -2.943 -5.446 c -0.222 -2.148 0.406 -4.255 1.769 -5.932 c 1.363 -1.676 3.297 -2.722 5.446 -2.943 c 2.14 -0.22 4.254 0.406 5.932 1.769 c 1.676 1.363 2.722 3.296 2.943 5.445 c 0.222 2.148 -0.406 4.255 -1.77 5.932 c -1.362 1.676 -3.296 2.722 -5.445 2.943 l 0 0 C 59.914 25.433 59.632 25.448 59.352 25.448 z M 59.379 11.271 c -0.211 0 -0.424 0.011 -0.637 0.033 c -1.617 0.167 -3.073 0.954 -4.099 2.216 c -1.026 1.262 -1.499 2.847 -1.331 4.464 c 0.166 1.618 0.953 3.074 2.215 4.099 c 1.263 1.026 2.848 1.5 4.465 1.332 l 0 0 c 1.617 -0.167 3.073 -0.954 4.099 -2.216 s 1.499 -2.847 1.331 -4.464 c -0.166 -1.618 -0.953 -3.073 -2.215 -4.099 C 62.111 11.745 60.771 11.271 59.379 11.271 z" style="stroke: none; stroke-width: 1; stroke-dasharray: none; stroke-linecap: butt; stroke-linejoin: miter; stroke-miterlimit: 10; fill: rgb(0,0,0); fill-rule: nonzero; opacity: 1;" transform=" matrix(1 0 0 1 0 0) " stroke-linecap="round" />
	<path d="M 51.781 26.305 L 51.781 26.305 c -3.757 0.221 -5.905 -4.211 -3.404 -7.023 l 0 0 c 0.355 -0.399 0.319 -1.011 -0.08 -1.365 l -3.558 -3.163 c -0.399 -0.355 -1.011 -0.319 -1.365 0.08 l 0 0 c -2.501 2.812 -7.153 1.198 -7.373 -2.559 l 0 0 c -0.031 -0.533 -0.489 -0.94 -1.022 -0.909 l -4.753 0.279 c -0.533 0.031 -0.94 0.489 -0.909 1.022 c 0.221 3.757 -4.211 5.905 -7.023 3.404 c -0.399 -0.355 -1.011 -0.319 -1.365 0.08 l -3.164 3.558 c -0.355 0.399 -0.319 1.011 0.08 1.365 c 2.812 2.501 1.198 7.153 -2.559 7.374 c -0.533 0.031 -0.94 0.489 -0.909 1.022 l 0.279 4.753 c 0.031 0.533 0.489 0.94 1.022 0.909 l 0 0 c 3.757 -0.221 5.905 4.211 3.404 7.023 l 0 0 c -0.355 0.399 -0.319 1.011 0.08 1.365 l 3.558 3.163 c 0.399 0.355 1.011 0.319 1.365 -0.08 l 0 0 c 2.501 -2.812 7.153 -1.198 7.373 2.559 l 0 0 c 0.031 0.533 0.489 0.94 1.022 0.909 l 4.753 -0.279 c 0.533 -0.031 0.94 -0.489 0.909 -1.022 l 0 0 c -0.221 -3.757 4.211 -5.905 7.023 -3.404 l 0 0 c 0.399 0.355 1.011 0.319 1.365 -0.08 l 3.163 -3.558 c 0.355 -0.399 0.319 -1.011 -0.08 -1.365 l 0 0 c -2.812 -2.501 -1.198 -7.153 2.559 -7.373 c 0.533 -0.031 0.94 -0.489 0.909 -1.022 l -0.279 -4.753 C 52.772 26.681 52.314 26.274 51.781 26.305 z M 37.373 38.237 c -4.152 2.013 -9.149 0.278 -11.162 -3.874 s -0.278 -9.149 3.874 -11.162 s 9.149 -0.278 11.162 3.874 S 41.525 36.224 37.373 38.237 z" style="stroke: none; stroke-width: 1; stroke-dasharray: none; stroke-linecap: butt; stroke-linejoin: miter; stroke-miterlimit: 10; fill: rgb(97,104,152); fill-rule: nonzero; opacity: 1;" transform=" matrix(1 0 0 1 0 0) " stroke-linecap="round" />
	<path d="M 32.422 51.074 c -1.033 0 -1.901 -0.809 -1.962 -1.852 c -0.093 -1.586 -1.177 -2.516 -2.161 -2.857 c -0.984 -0.342 -2.411 -0.284 -3.467 0.903 c -0.348 0.393 -0.83 0.626 -1.355 0.657 c -0.525 0.027 -1.029 -0.145 -1.421 -0.494 l -3.559 -3.163 c -0.393 -0.35 -0.625 -0.831 -0.656 -1.355 c -0.031 -0.525 0.145 -1.03 0.494 -1.422 c 1.055 -1.187 0.946 -2.611 0.491 -3.548 c -0.454 -0.937 -1.496 -1.896 -3.09 -1.813 c -0.52 0.035 -1.029 -0.145 -1.422 -0.494 c -0.393 -0.349 -0.626 -0.83 -0.657 -1.354 l -0.279 -4.753 c -0.063 -1.082 0.765 -2.015 1.847 -2.079 c 1.586 -0.093 2.517 -1.178 2.858 -2.162 s 0.283 -2.411 -0.904 -3.466 c -0.811 -0.721 -0.884 -1.966 -0.164 -2.777 l 3.164 -3.559 c 0.349 -0.393 0.83 -0.625 1.355 -0.656 c 0.521 -0.031 1.03 0.144 1.422 0.494 c 1.187 1.054 2.61 0.946 3.548 0.491 c 0.937 -0.454 1.905 -1.504 1.813 -3.09 c -0.031 -0.524 0.144 -1.029 0.493 -1.422 c 0.349 -0.393 0.831 -0.626 1.355 -0.657 l 4.753 -0.278 c 1.097 -0.078 2.015 0.766 2.079 1.848 c 0.093 1.585 1.177 2.515 2.161 2.857 c 0.985 0.343 2.412 0.284 3.467 -0.904 c 0.348 -0.393 0.83 -0.626 1.354 -0.657 c 0.521 -0.032 1.029 0.144 1.422 0.493 l 3.559 3.164 c 0.811 0.722 0.883 1.967 0.163 2.777 c -1.056 1.188 -0.946 2.612 -0.492 3.549 c 0.455 0.938 1.519 1.9 3.091 1.813 c 0 0 0.001 0 0.001 0 c 1.071 -0.063 2.015 0.767 2.077 1.85 l 0.279 4.752 c 0.063 1.083 -0.766 2.016 -1.849 2.079 c -1.586 0.093 -2.516 1.178 -2.857 2.162 c -0.341 0.984 -0.283 2.411 0.903 3.466 c 0.393 0.349 0.626 0.83 0.657 1.354 c 0.031 0.524 -0.144 1.03 -0.493 1.422 l -3.164 3.559 c -0.349 0.393 -0.829 0.626 -1.354 0.656 c -0.53 0.036 -1.03 -0.145 -1.422 -0.493 c -1.187 -1.056 -2.611 -0.945 -3.548 -0.492 c -0.937 0.454 -1.905 1.505 -1.813 3.091 c 0.063 1.081 -0.765 2.014 -1.847 2.079 l -4.754 0.278 C 32.5 51.073 32.461 51.074 32.422 51.074 z M 27.203 44.176 c 0.58 0 1.171 0.098 1.752 0.3 c 2.034 0.706 3.375 2.48 3.501 4.629 l 4.718 -0.31 c -0.157 -2.115 0.968 -4.034 2.906 -4.973 c 1.938 -0.94 4.14 -0.634 5.749 0.797 l 3.118 -3.556 c -1.607 -1.384 -2.169 -3.536 -1.463 -5.57 s 2.48 -3.376 4.63 -3.502 l -0.308 -4.687 c -2.16 0.109 -4.04 -1.011 -4.975 -2.938 c -0.938 -1.938 -0.633 -4.141 0.798 -5.75 L 44.074 15.5 c -1.385 1.606 -3.538 2.168 -5.571 1.461 c -2.034 -0.706 -3.375 -2.479 -3.501 -4.629 l -4.719 0.31 c 0.157 2.115 -0.968 4.034 -2.905 4.973 c -1.938 0.939 -4.141 0.633 -5.75 -0.796 l -3.117 3.556 c 1.606 1.384 2.167 3.536 1.462 5.57 c -0.706 2.034 -2.48 3.376 -4.629 3.502 l 0.31 4.719 c 2.115 -0.156 4.033 0.967 4.973 2.905 c 0.939 1.938 0.634 4.141 -0.796 5.75 l 3.555 3.116 C 24.373 44.79 25.753 44.176 27.203 44.176 z M 33.736 40.079 c -1.033 0 -2.07 -0.173 -3.074 -0.522 c -2.361 -0.819 -4.261 -2.509 -5.351 -4.757 c -1.09 -2.248 -1.239 -4.787 -0.42 -7.147 c 0.819 -2.361 2.509 -4.261 4.757 -5.351 c 4.642 -2.25 10.248 -0.304 12.498 4.337 s 0.304 10.248 -4.337 12.498 C 36.518 39.763 35.13 40.079 33.736 40.079 z M 33.717 23.366 c -1.075 0 -2.166 0.236 -3.196 0.736 c -1.768 0.856 -3.096 2.351 -3.74 4.207 s -0.527 3.851 0.33 5.619 c 0.856 1.768 2.351 3.096 4.207 3.74 s 3.852 0.527 5.619 -0.33 c 3.649 -1.769 5.179 -6.177 3.41 -9.826 C 39.077 24.893 36.449 23.366 33.717 23.366 z" style="stroke: none; stroke-width: 1; stroke-dasharray: none; stroke-linecap: butt; stroke-linejoin: miter; stroke-miterlimit: 10; fill: rgb(0,0,0); fill-rule: nonzero; opacity: 1;" transform=" matrix(1 0 0 1 0 0) " stroke-linecap="round" />
</g>
</svg>