<?xml version="1.0" encoding="utf-8"?>
<!-- Generator: Adobe Illustrator 27.7.0, SVG Export Plug-In . SVG Version: 6.00 Build 0)  -->
<svg version="1.1" id="Layer_4" xmlns="http://www.w3.org/2000/svg" xmlns:xlink="http://www.w3.org/1999/xlink" x="0px" y="0px"
	 viewBox="0 0 507.13 508.652" enable-background="new 0 0 507.13 508.652" xml:space="preserve">
<g>
	<g>
		<path fill="#FFFFFF" d="M505.677,486.498c0.668,11.734-8.401,21.345-20.154,21.358l-463.916,0.509
			c-11.753,0.013-20.786-9.575-20.073-21.307L29.818,21.593C30.531,9.861,40.73,0.263,52.483,0.263h404.131
			c11.753,0,21.916,9.601,22.585,21.335L505.677,486.498z"/>
	</g>
</g>
<g>
	<g>
		<path d="M187.823,213.35l-38.341,0.018l4.123-118.138l-26.357,0.004l1.076-24.661l62.735-0.005L187.823,213.35z"/>
		<path d="M247.699,87.269c13.998-12.53,32.091-18.759,54.369-18.76c22.27-0.002,40.497,6.253,54.765,18.841
			c14.388,12.694,22.07,30.27,22.965,52.894c0.908,22.966-5.5,41.324-19.316,54.901c-14.123,13.836-32.913,20.806-56.281,20.817
			c-23.377,0.011-42.375-6.907-56.902-20.668c-14.404-13.638-21.432-32.032-21.186-55.009
			C226.355,117.651,233.578,100.035,247.699,87.269z M264.346,140.079c0.028,15.714,3.644,27.539,10.879,35.381
			c7.268,7.884,16.797,11.836,28.561,11.831c11.576-0.005,20.9-3.963,27.942-11.852c7.003-7.845,10.281-19.67,9.856-35.381
			c-0.41-15.163-4.291-26.437-11.62-33.906c-7.292-7.433-16.454-11.134-27.513-11.133c-11.414,0.002-20.603,3.707-27.593,11.142
			C267.83,113.634,264.319,124.912,264.346,140.079z"/>
	</g>
</g>
<g>
	<path d="M311.181,331.373c-20.996-0.007-29.03,9.828-30.15,8.884c-1.113-0.93,20.009-10.931,19.728-36.026
		c-0.243-21.683-21.301-39.087-47.035-39.093c-25.74-0.007-46.838,17.384-47.146,39.065c-0.353,24.855,20.592,35.184,19.398,36.19
		c-1.202,1.007-9.63-9.051-29.912-9.058c-26.198-0.009-47.966,18.006-48.632,40.482c-0.002,0.058,0.006,0.118,0.005,0.175
		c-0.002,0.053-0.013,0.11-0.015,0.156c-0.08,2.713,0.188,5.341,0.738,7.897c3.927,18.855,23.082,33.187,46.517,33.197
		c49.481,0.02,44.272-44.782,55.782-41.542c-1.833,17.31-17.198,62.368-28.506,72.802l63.001,0.028
		c-11.297-10.46-26.521-55.595-28.284-72.877c11.654-3.473,5.665,41.617,55.65,41.637c23.454,0.01,42.658-14.309,46.642-33.166
		c0.558-2.556,0.819-5.184,0.746-7.898c-0.001-0.046-0.003-0.103-0.004-0.156c-0.001-0.057-0.003-0.117-0.005-0.175
		C359.103,349.414,337.375,331.382,311.181,331.373z"/>
</g>
</svg>
