<?xml version="1.0" encoding="utf-8"?>
<!-- Generator: Adobe Illustrator 27.7.0, SVG Export Plug-In . SVG Version: 6.00 Build 0)  -->
<svg version="1.1" id="Layer_4" xmlns="http://www.w3.org/2000/svg" xmlns:xlink="http://www.w3.org/1999/xlink" x="0px" y="0px"
	 viewBox="0 0 507.13 508.652" enable-background="new 0 0 507.13 508.652" xml:space="preserve">
<g>
	<g>
		<path fill="#FFFFFF" d="M505.677,486.498c0.668,11.734-8.401,21.345-20.154,21.358l-463.916,0.509
			c-11.753,0.013-20.786-9.575-20.073-21.307L29.818,21.593C30.531,9.861,40.73,0.263,52.483,0.263h404.131
			c11.753,0,21.916,9.601,22.585,21.335L505.677,486.498z"/>
	</g>
</g>
<g>
	<g>
		<path d="M219.621,171.333c2.286,4.395,6.399,7.998,12.332,10.806c5.945,2.813,12.538,4.219,19.777,4.216
			c9.589-0.004,17.722-2.388,24.386-7.143c6.639-4.738,9.925-10.559,9.865-17.447c-0.06-6.855-3.421-12.634-10.058-17.344
			c-6.621-4.696-14.463-7.036-23.545-7.034c-5.522,0.001-10.824,0.948-15.916,2.836c-5.098,1.894-9.183,4.408-12.252,7.549
			l-37.803,0.011l9.15-77.567l119.395-0.009l0.462,24.648l-85.601,0.013l-2.636,25.45c8.894-5.266,19.247-7.895,31.083-7.897
			c18.545-0.004,34.047,4.64,46.57,13.97c12.595,9.39,19.078,21.353,19.388,35.957c0.312,14.744-6.578,27.208-20.735,37.338
			c-14.255,10.196-31.733,15.325-52.366,15.335c-15.888,0.008-30.053-3.092-42.449-9.288c-12.352-6.169-20.938-14.305-25.764-24.377
			L219.621,171.333z"/>
	</g>
</g>
<g>
	<path d="M311.181,331.373c-20.996-0.007-29.03,9.828-30.15,8.884c-1.113-0.93,20.009-10.931,19.728-36.026
		c-0.243-21.683-21.301-39.087-47.035-39.093c-25.74-0.007-46.838,17.384-47.146,39.065c-0.353,24.855,20.592,35.184,19.398,36.19
		c-1.202,1.007-9.63-9.051-29.912-9.058c-26.198-0.009-47.966,18.006-48.632,40.482c-0.002,0.058,0.006,0.118,0.005,0.175
		c-0.002,0.053-0.013,0.11-0.015,0.156c-0.08,2.713,0.188,5.341,0.738,7.897c3.927,18.855,23.082,33.187,46.517,33.197
		c49.481,0.02,44.272-44.782,55.782-41.542c-1.833,17.31-17.198,62.368-28.506,72.802l63.001,0.028
		c-11.297-10.46-26.521-55.595-28.284-72.877c11.654-3.473,5.665,41.617,55.65,41.637c23.454,0.01,42.658-14.309,46.642-33.166
		c0.558-2.556,0.819-5.184,0.746-7.898c-0.001-0.046-0.003-0.103-0.004-0.156c-0.001-0.057-0.003-0.117-0.005-0.175
		C359.103,349.414,337.375,331.382,311.181,331.373z"/>
</g>
</svg>
