<svg width="40" height="40" viewBox="0 0 40 40" fill="none" xmlns="http://www.w3.org/2000/svg">
<g clip-path="url(#clip0_94_2)">
<path d="M39.8852 38.2579C39.9379 39.1807 39.2226 39.9365 38.2955 39.9375L1.70405 39.9775C0.777031 39.9785 0.0645511 39.2245 0.120789 38.3019L2.3517 1.69813C2.40793 0.775531 3.21238 0.020752 4.1394 0.020752H36.0153C36.9424 0.020752 37.744 0.775767 37.7967 1.69852L39.8852 38.2579Z" fill="white"/>
<path d="M17.3228 13.4735C17.5031 13.8191 17.8275 14.1024 18.2955 14.3232C18.7644 14.5445 19.2844 14.655 19.8554 14.6548C20.6118 14.6545 21.2533 14.467 21.7789 14.0931C22.3025 13.7205 22.5617 13.2627 22.557 12.721C22.5522 12.182 22.2871 11.7275 21.7637 11.3571C21.2414 10.9878 20.6229 10.8038 19.9065 10.804C19.471 10.8041 19.0528 10.8785 18.6512 11.027C18.2491 11.1759 17.9268 11.3736 17.6848 11.6206L14.7031 11.6215L15.4248 5.5217L24.8421 5.521L24.8785 7.4593L18.1267 7.46032L17.9188 9.46169C18.6203 9.04757 19.4369 8.84083 20.3705 8.84067C21.8332 8.84036 23.0559 9.20556 24.0437 9.93926C25.0371 10.6777 25.5485 11.6184 25.5729 12.7669C25.5975 13.9264 25.0541 14.9065 23.9375 15.7031C22.8131 16.5049 21.4345 16.9083 19.8071 16.9091C18.5539 16.9097 17.4366 16.6659 16.4589 16.1787C15.4846 15.6935 14.8074 15.0537 14.4268 14.2617L17.3228 13.4735Z" fill="black"/>
<path d="M24.5446 26.059C22.8885 26.0585 22.2548 26.8319 22.1665 26.7576C22.0787 26.6845 23.7447 25.898 23.7225 23.9246C23.7034 22.2195 22.0424 20.8508 20.0126 20.8503C17.9824 20.8498 16.3183 22.2174 16.294 23.9224C16.2661 25.877 17.9182 26.6892 17.824 26.7683C17.7292 26.8475 17.0644 26.0566 15.4647 26.056C13.3983 26.0553 11.6814 27.472 11.6288 29.2395C11.6287 29.2441 11.6293 29.2488 11.6292 29.2533C11.6291 29.2574 11.6282 29.2619 11.628 29.2655C11.6217 29.4789 11.6429 29.6855 11.6863 29.8865C11.996 31.3693 13.5069 32.4963 15.3553 32.4971C19.2581 32.4987 18.8473 28.9755 19.7551 29.2303C19.6105 30.5915 18.3986 34.1349 17.5067 34.9554L22.4759 34.9576C21.5849 34.135 20.3841 30.5856 20.245 29.2266C21.1642 28.9535 20.6918 32.4993 24.6344 32.5009C26.4844 32.5017 27.9991 31.3757 28.3133 29.8928C28.3573 29.6918 28.3779 29.4851 28.3722 29.2717C28.3721 29.268 28.3719 29.2636 28.3718 29.2594C28.3718 29.2549 28.3716 29.2502 28.3714 29.2456C28.3244 27.4777 26.6106 26.0597 24.5446 26.059Z" fill="black"/>
</g>
<defs>
<clipPath id="clip0_94_2">
<rect width="40" height="40" fill="white"/>
</clipPath>
</defs>
</svg>
