<?xml version="1.0" encoding="utf-8"?>
<!-- Generator: Adobe Illustrator 27.7.0, SVG Export Plug-In . SVG Version: 6.00 Build 0)  -->
<svg version="1.1" id="Layer_4" xmlns="http://www.w3.org/2000/svg" xmlns:xlink="http://www.w3.org/1999/xlink" x="0px" y="0px"
	 viewBox="0 0 507.13 508.652" enable-background="new 0 0 507.13 508.652" xml:space="preserve">
<g>
	<g>
		<path fill="#FFFFFF" d="M505.677,486.498c0.668,11.734-8.401,21.345-20.154,21.358l-463.916,0.509
			c-11.753,0.013-20.786-9.575-20.073-21.307L29.818,21.593C30.531,9.861,40.73,0.263,52.483,0.263h404.131
			c11.753,0,21.916,9.601,22.585,21.335L505.677,486.498z"/>
	</g>
</g>
<g>
	<g>
		<path d="M189.776,149.706c5.491-6.151,12.896-11.043,22.218-14.687c-13.924-6.993-20.729-16.464-20.467-28.366
			c0.245-11.174,6.447-20.511,18.565-28.039c12.053-7.489,26.584-11.22,43.638-11.221c17.049-0.001,31.565,3.727,43.595,11.213
			c12.086,7.523,18.261,16.855,18.474,28.025c0.225,11.771-6.694,21.241-20.804,28.367c9.481,3.638,17.002,8.558,22.565,14.768
			c5.581,6.239,8.467,13.197,8.637,20.883c0.303,13.748-6.342,25.119-19.988,34.064c-13.73,8.997-31.497,13.52-53.245,13.531
			c-21.57,0.011-39.103-4.497-52.535-13.483c-13.36-8.936-19.838-20.306-19.495-34.06
			C181.127,163.012,184.078,156.015,189.776,149.706z M219.581,168.894c-0.074,5.986,3.112,11.059,9.574,15.205
			c6.296,4.295,14.343,6.443,24.127,6.439c9.783-0.004,17.925-2.126,24.415-6.357c6.472-4.22,9.672-9.326,9.615-15.31
			c-0.055-5.828-3.42-10.744-10.075-14.759c-6.642-4.002-14.602-5.999-23.891-5.996c-9.294,0.003-17.215,2.039-23.779,6.11
			C222.982,158.31,219.651,163.198,219.581,168.894z M228.286,106.838c-0.043,4.341,2.349,8.052,7.19,11.13
			c4.846,3.084,10.819,4.628,17.908,4.626c7.263-0.002,13.372-1.548,18.319-4.634c4.932-3.079,7.383-6.79,7.353-11.131
			c-0.03-4.325-2.52-7.943-7.452-10.858c-4.928-2.906-10.983-4.358-18.172-4.357c-7.018,0.001-12.946,1.455-17.792,4.362
			C230.78,98.894,228.329,102.513,228.286,106.838z"/>
	</g>
</g>
<g>
	<path d="M311.181,331.373c-20.996-0.007-29.03,9.828-30.15,8.884c-1.113-0.93,20.009-10.931,19.728-36.026
		c-0.243-21.683-21.301-39.087-47.035-39.093c-25.74-0.007-46.838,17.384-47.146,39.065c-0.353,24.855,20.592,35.184,19.398,36.19
		c-1.202,1.007-9.63-9.051-29.912-9.058c-26.198-0.009-47.966,18.006-48.632,40.482c-0.002,0.058,0.006,0.118,0.005,0.175
		c-0.002,0.053-0.013,0.11-0.015,0.156c-0.08,2.713,0.188,5.341,0.738,7.897c3.927,18.855,23.082,33.187,46.517,33.197
		c49.481,0.02,44.272-44.782,55.782-41.542c-1.833,17.31-17.198,62.368-28.506,72.802l63.001,0.028
		c-11.297-10.46-26.521-55.595-28.284-72.877c11.654-3.473,5.665,41.617,55.65,41.637c23.454,0.01,42.658-14.309,46.642-33.166
		c0.558-2.556,0.819-5.184,0.746-7.898c-0.001-0.046-0.003-0.103-0.004-0.156c-0.001-0.057-0.003-0.117-0.005-0.175
		C359.103,349.414,337.375,331.382,311.181,331.373z"/>
</g>
</svg>
