<?xml version="1.0" encoding="utf-8"?>
<!-- Generator: Adobe Illustrator 27.7.0, SVG Export Plug-In . SVG Version: 6.00 Build 0)  -->
<svg version="1.1" id="Layer_4" xmlns="http://www.w3.org/2000/svg" xmlns:xlink="http://www.w3.org/1999/xlink" x="0px" y="0px"
	 viewBox="0 0 507.13 508.652" enable-background="new 0 0 507.13 508.652" xml:space="preserve">
<g>
	<g>
		<path fill="#FFFFFF" d="M505.677,486.498c0.668,11.734-8.401,21.345-20.154,21.358l-463.916,0.509
			c-11.753,0.013-20.786-9.575-20.073-21.307L29.818,21.593C30.531,9.861,40.73,0.263,52.483,0.263h404.131
			c11.753,0,21.916,9.601,22.585,21.335L505.677,486.498z"/>
	</g>
</g>
<g>
	<path d="M206.345,81.729c13.695-9.325,30.335-13.968,49.982-13.97c19.468-0.001,36.046,4.671,49.8,14.053
		c13.835,9.444,20.945,21.348,21.26,35.767c0.253,11.56-4.196,21.695-13.378,30.382l-62.851,65.728l-47.453,0.022l47.593-47.21
		c-0.726,0-1.452,0-2.174,0.001c-17.213,0.006-32.366-4.69-45.399-14.047c-12.96-9.301-19.236-20.932-18.892-34.846
		C185.19,103.184,192.381,91.241,206.345,81.729z M222.556,117.602c-0.08,6.487,3.115,12.018,9.61,16.587
		c6.511,4.586,14.534,6.879,24.059,6.877c9.34-0.003,17.192-2.3,23.537-6.889c6.322-4.572,9.451-10.104,9.39-16.589
		c-0.06-6.455-3.267-11.919-9.596-16.407c-6.315-4.472-14.067-6.704-23.266-6.702c-9.382,0.001-17.315,2.236-23.82,6.71
		C225.942,105.679,222.636,111.146,222.556,117.602z"/>
</g>
<g>
	<path d="M311.181,331.373c-20.996-0.007-29.03,9.828-30.15,8.884c-1.113-0.93,20.009-10.931,19.728-36.026
		c-0.243-21.683-21.301-39.087-47.035-39.093c-25.74-0.007-46.838,17.384-47.146,39.065c-0.353,24.855,20.592,35.184,19.398,36.19
		c-1.202,1.007-9.63-9.051-29.912-9.058c-26.198-0.009-47.966,18.006-48.632,40.482c-0.002,0.058,0.006,0.118,0.005,0.175
		c-0.002,0.053-0.013,0.11-0.015,0.156c-0.08,2.713,0.188,5.341,0.738,7.897c3.927,18.855,23.082,33.187,46.517,33.197
		c49.481,0.02,44.272-44.782,55.782-41.542c-1.833,17.31-17.198,62.368-28.506,72.802l63.001,0.028
		c-11.297-10.46-26.521-55.595-28.284-72.877c11.654-3.473,5.665,41.617,55.65,41.637c23.454,0.01,42.658-14.309,46.642-33.166
		c0.558-2.556,0.819-5.184,0.746-7.898c-0.001-0.046-0.003-0.103-0.004-0.156c-0.001-0.057-0.003-0.117-0.005-0.175
		C359.103,349.414,337.375,331.382,311.181,331.373z"/>
</g>
</svg>
