<?xml version="1.0" encoding="utf-8"?>
<!-- Generator: Adobe Illustrator 27.7.0, SVG Export Plug-In . SVG Version: 6.00 Build 0)  -->
<svg version="1.1" id="Layer_4" xmlns="http://www.w3.org/2000/svg" xmlns:xlink="http://www.w3.org/1999/xlink" x="0px" y="0px"
	 viewBox="0 0 507.13 508.652" enable-background="new 0 0 507.13 508.652" xml:space="preserve">
<g>
	<g>
		<path fill="#FFFFFF" d="M505.677,486.498c0.668,11.734-8.401,21.345-20.154,21.358l-463.916,0.509
			c-11.753,0.013-20.786-9.575-20.073-21.307L29.818,21.593C30.531,9.861,40.73,0.263,52.483,0.263h404.131
			c11.753,0,21.916,9.601,22.585,21.335L505.677,486.498z"/>
	</g>
</g>
<g>
	<g>
		<path d="M183.468,88.976c19.545-13.922,42.914-20.835,70.241-20.837c27.318-0.002,50.695,6.906,70.263,20.819
			c19.745,14.042,30,31.105,30.627,51.292c0.545,17.557-6.444,33.185-21.064,46.827l21.156,17.615l-24.735,16.395l-20.038-17.8
			c-16.64,8.718-35.496,13.099-56.498,13.109c-28.683,0.014-52.978-7.585-72.735-22.694c-19.573-14.962-28.925-32.795-28.204-53.397
			C153.186,120.106,163.561,103.03,183.468,88.976z M193.402,140.294c-0.266,12.301,5.434,22.843,17.15,31.594
			c11.781,8.8,26.107,13.215,42.927,13.209c10.668-0.004,20.151-2.151,28.434-6.437l-19.505-17.13l22.495-14.013l18.432,14.991
			c6.891-6.596,10.253-14.017,10.108-22.246c-0.212-12.068-6.23-22.308-18.004-30.755c-11.711-8.402-25.624-12.584-41.788-12.582
			c-16.169,0.002-30.144,4.19-41.979,12.597C199.768,117.976,193.663,128.222,193.402,140.294z"/>
	</g>
</g>
<g>
	<path d="M311.181,331.373c-20.996-0.007-29.03,9.828-30.15,8.884c-1.113-0.93,20.009-10.931,19.728-36.026
		c-0.243-21.683-21.301-39.087-47.035-39.093c-25.74-0.007-46.838,17.384-47.146,39.065c-0.353,24.855,20.592,35.184,19.398,36.19
		c-1.202,1.007-9.63-9.051-29.912-9.058c-26.198-0.009-47.966,18.006-48.632,40.482c-0.002,0.058,0.006,0.118,0.005,0.175
		c-0.002,0.053-0.013,0.11-0.015,0.156c-0.08,2.713,0.188,5.341,0.738,7.897c3.927,18.855,23.082,33.187,46.517,33.197
		c49.481,0.02,44.272-44.782,55.782-41.542c-1.833,17.31-17.198,62.368-28.506,72.802l63.001,0.028
		c-11.297-10.46-26.521-55.595-28.284-72.877c11.654-3.473,5.665,41.617,55.65,41.637c23.454,0.01,42.658-14.309,46.642-33.166
		c0.558-2.556,0.819-5.184,0.746-7.898c-0.001-0.046-0.003-0.103-0.004-0.156c-0.001-0.057-0.003-0.117-0.005-0.175
		C359.103,349.414,337.375,331.382,311.181,331.373z"/>
</g>
</svg>
