<?xml version="1.0" encoding="utf-8"?>
<!-- Generator: Adobe Illustrator 27.7.0, SVG Export Plug-In . SVG Version: 6.00 Build 0)  -->
<svg version="1.1" id="Layer_4" xmlns="http://www.w3.org/2000/svg" xmlns:xlink="http://www.w3.org/1999/xlink" x="0px" y="0px"
	 viewBox="0 0 507.13 508.652" enable-background="new 0 0 507.13 508.652" xml:space="preserve">
<g>
	<g>
		<path fill="#FFFFFF" d="M505.677,486.498c0.668,11.734-8.401,21.345-20.154,21.358l-463.916,0.509
			c-11.753,0.013-20.786-9.575-20.073-21.307L29.818,21.593C30.531,9.861,40.73,0.263,52.483,0.263h404.131
			c11.753,0,21.916,9.601,22.585,21.335L505.677,486.498z"/>
	</g>
</g>
<g>
	<g>
		<path fill="#CE191B" d="M180.358,156.432l84.716-85.848l44.144-0.003l1.444,83.049l16.106-0.005l0.621,27.445l-16.25,0.006
			l0.561,32.237l-38.587,0.018l-0.164-32.24l-93.208,0.036L180.358,156.432z M222.865,153.656l49.945-0.015l-0.239-47.171
			L222.865,153.656z"/>
	</g>
</g>
<g>
	<polygon fill="#CE191B" points="146.734,353.505 253.76,266.756 360.396,353.505 253.361,444.654 	"/>
</g>
</svg>
