<?xml version="1.0" encoding="utf-8"?>
<!-- Generator: Adobe Illustrator 27.7.0, SVG Export Plug-In . SVG Version: 6.00 Build 0)  -->
<svg version="1.1" id="Layer_4" xmlns="http://www.w3.org/2000/svg" xmlns:xlink="http://www.w3.org/1999/xlink" x="0px" y="0px"
	 viewBox="0 0 507.13 508.652" enable-background="new 0 0 507.13 508.652" xml:space="preserve">
<g>
	<g>
		<path fill="#FFFFFF" d="M505.677,486.498c0.668,11.734-8.401,21.345-20.154,21.358l-463.916,0.509
			c-11.753,0.013-20.786-9.575-20.073-21.307L29.818,21.593C30.531,9.861,40.73,0.263,52.483,0.263h404.131
			c11.753,0,21.916,9.601,22.585,21.335L505.677,486.498z"/>
	</g>
</g>
<g>
	<path fill="#CE191B" d="M232.516,70.363h42.1l65.634,143.185h-42.885l-12.551-29.225H222.84l-12.813,29.225h-43.146L232.516,70.363
		z M273.831,157.058l-20.135-46.682l-20.135,46.682H273.831z"/>
</g>
<g>
	<polygon fill="#CE191B" points="146.734,353.505 253.76,266.756 360.396,353.505 253.361,444.654 	"/>
</g>
</svg>
