<?xml version="1.0" encoding="utf-8"?>
<!-- Generator: Adobe Illustrator 27.7.0, SVG Export Plug-In . SVG Version: 6.00 Build 0)  -->
<svg version="1.1" id="Layer_4" xmlns="http://www.w3.org/2000/svg" xmlns:xlink="http://www.w3.org/1999/xlink" x="0px" y="0px"
	 viewBox="0 0 507.13 508.652" enable-background="new 0 0 507.13 508.652" xml:space="preserve">
<g>
	<g>
		<path fill="#FFFFFF" d="M505.677,486.498c0.668,11.734-8.401,21.345-20.154,21.358l-463.916,0.509
			c-11.753,0.013-20.786-9.575-20.073-21.307L29.818,21.593C30.531,9.861,40.73,0.263,52.483,0.263h404.131
			c11.753,0,21.916,9.601,22.585,21.335L505.677,486.498z"/>
	</g>
</g>
<g>
	<g>
		<path fill="#CE191B" d="M222.133,177.082c6.432,5.481,14.269,8.224,23.493,8.221c9.224-0.004,16.415-2.42,21.561-7.237
			c5.13-4.802,7.676-11.111,7.649-18.915l-0.303-88.589l39.443-0.003l1.471,88.579c0.282,16.977-6.011,30.572-18.943,40.7
			c-13.019,10.195-30.061,15.323-51.057,15.333c-10.957,0.005-21.164-1.768-30.596-5.311c-9.416-3.535-17.144-8.486-23.176-14.845
			L222.133,177.082z"/>
	</g>
</g>
<g>
	<polygon fill="#CE191B" points="146.734,353.505 253.76,266.756 360.396,353.505 253.361,444.654 	"/>
</g>
</svg>
