<?xml version="1.0" encoding="utf-8"?>
<!-- Generator: Adobe Illustrator 27.7.0, SVG Export Plug-In . SVG Version: 6.00 Build 0)  -->
<svg version="1.1" id="Layer_4" xmlns="http://www.w3.org/2000/svg" xmlns:xlink="http://www.w3.org/1999/xlink" x="0px" y="0px"
	 viewBox="0 0 507.13 508.652" enable-background="new 0 0 507.13 508.652" xml:space="preserve">
<g>
	<g>
		<path fill="#FFFFFF" d="M505.677,486.498c0.668,11.734-8.401,21.345-20.154,21.358l-463.916,0.509
			c-11.753,0.013-20.786-9.575-20.073-21.307L29.818,21.593C30.531,9.861,40.73,0.263,52.483,0.263h404.131
			c11.753,0,21.916,9.601,22.585,21.335L505.677,486.498z"/>
	</g>
</g>
<g>
	<g>
		<path fill="#CE191B" d="M178.494,70.569l39.199-0.003l-0.643,56.873l62.3-56.878l43.878-0.003l-61.18,58.034l70.075,84.687
			l-47.613,0.023l-47.356-57.7l-20.618,17.279l-0.458,40.453l-41.071,0.019L178.494,70.569z"/>
	</g>
</g>
<g>
	<polygon fill="#CE191B" points="146.734,353.505 253.76,266.756 360.396,353.505 253.361,444.654 	"/>
</g>
</svg>
