<?xml version="1.0" encoding="utf-8"?>
<!-- Generator: Adobe Illustrator 27.7.0, SVG Export Plug-In . SVG Version: 6.00 Build 0)  -->
<svg version="1.1" id="Layer_4" xmlns="http://www.w3.org/2000/svg" xmlns:xlink="http://www.w3.org/1999/xlink" x="0px" y="0px"
	 viewBox="0 0 507.13 508.652" enable-background="new 0 0 507.13 508.652" xml:space="preserve">
<g>
	<g>
		<path fill="#FFFFFF" d="M505.677,486.498c0.668,11.734-8.401,21.345-20.154,21.358l-463.916,0.509
			c-11.753,0.013-20.786-9.575-20.073-21.307L29.818,21.593C30.531,9.861,40.73,0.263,52.483,0.263h404.131
			c11.753,0,21.916,9.601,22.585,21.335L505.677,486.498z"/>
	</g>
</g>
<g>
	<path fill="#CE191B" d="M184.793,213.325v-17.261l73.479-50.801c15.166-10.2,22.75-19.614,22.75-28.245
		c0-6.669-2.791-12.029-8.368-16.084c-5.581-4.052-12.551-6.08-20.919-6.08c-7.321,0-13.728,1.603-19.22,4.805
		c-5.491,3.206-9.458,7.03-11.897,11.474l-33.994-8.63c4.008-10.068,12.028-18.438,24.056-25.107
		c12.029-6.669,25.626-10.003,40.793-10.003c18.827,0,34.558,4.545,47.199,13.632c12.637,9.09,18.958,21.086,18.958,35.993
		c0,14.386-11.505,29.553-34.517,45.505L243.89,187.63h78.447v25.695H184.793z"/>
</g>
<g>
	<path fill="#CE191B" d="M253.769,300.204c-3.166-19.695-30.832-31.556-59.455-30.878c-31.056,0.657-59.731,18.361-60.993,49.66
		c-1.152,28.811,26.937,50.578,59.743,73.481c33.845,23.621,52.496,39.929,59.94,46.518c0,0.009-0.013,0.005,0,0.009
		c0.011,0.005,0,0.005,0.009,0.01c0.002-0.005-0.009-0.005-0.009-0.01c0,0-0.013-0.004,0-0.009
		c7.533-6.568,26.352-22.822,60.422-46.336c32.984-22.763,61.241-44.4,60.401-73.18c-0.912-31.258-29.326-49.078-60.304-49.874
		C284.925,268.784,257.147,280.523,253.769,300.204z"/>
</g>
</svg>
