<?xml version="1.0" encoding="utf-8"?>
<!-- Generator: Adobe Illustrator 27.7.0, SVG Export Plug-In . SVG Version: 6.00 Build 0)  -->
<svg version="1.1" id="Layer_4" xmlns="http://www.w3.org/2000/svg" xmlns:xlink="http://www.w3.org/1999/xlink" x="0px" y="0px"
	 viewBox="0 0 507.13 508.652" enable-background="new 0 0 507.13 508.652" xml:space="preserve">
<g>
	<g>
		<path fill="#FFFFFF" d="M505.677,486.498c0.668,11.734-8.401,21.345-20.154,21.358l-463.916,0.509
			c-11.753,0.013-20.786-9.575-20.073-21.307L29.818,21.593C30.531,9.861,40.73,0.263,52.483,0.263h404.131
			c11.753,0,21.916,9.601,22.585,21.335L505.677,486.498z"/>
	</g>
</g>
<g>
	<path fill="#CE191B" d="M216.319,175.53c2.719,4.068,7.566,7.477,14.544,10.232c6.976,2.755,14.546,4.132,22.701,4.132
		c9.966,0,18.033-1.801,24.196-5.411c6.159-3.606,9.244-8.295,9.244-14.069c0-6.165-3.492-10.952-10.467-14.365
		c-6.979-3.41-15.815-5.116-26.506-5.116h-10.603v-25.777h11.418c7.791,0,14.499-1.344,20.119-4.034
		c5.616-2.687,8.427-6.395,8.427-11.118c0-4.458-2.493-8.068-7.477-10.823c-4.987-2.755-11.375-4.132-19.166-4.132
		c-11.418,0-20.029,2.755-25.827,8.265l-35.343-9.839c4.894-7.345,13.092-13.411,24.604-18.202
		c11.507-4.787,23.788-7.182,36.838-7.182c18.304,0,33.712,3.444,46.217,10.331c12.506,6.887,18.759,16.76,18.759,29.615
		c0,12.332-8.249,22.039-24.74,29.123c9.788,3.542,17.536,8.363,23.245,14.463c5.709,6.1,8.564,13.086,8.564,20.957
		c0,13.513-6.618,24.4-19.846,32.665c-13.233,8.265-30.088,12.397-50.567,12.397c-16.677,0-31.494-2.819-44.45-8.461
		c-12.96-5.639-22.339-13.116-28.137-22.432L216.319,175.53z"/>
</g>
<g>
	<path fill="#CE191B" d="M253.769,300.204c-3.166-19.695-30.832-31.556-59.455-30.878c-31.056,0.657-59.731,18.361-60.993,49.66
		c-1.152,28.811,26.937,50.578,59.743,73.481c33.845,23.621,52.496,39.929,59.94,46.518c0,0.009-0.013,0.005,0,0.009
		c0.011,0.005,0,0.005,0.009,0.01c0.002-0.005-0.009-0.005-0.009-0.01c0,0-0.013-0.004,0-0.009
		c7.533-6.568,26.352-22.822,60.422-46.336c32.984-22.763,61.241-44.4,60.401-73.18c-0.912-31.258-29.326-49.078-60.304-49.874
		C284.925,268.784,257.147,280.523,253.769,300.204z"/>
</g>
</svg>
