<?xml version="1.0" encoding="utf-8"?>
<!-- Generator: Adobe Illustrator 27.7.0, SVG Export Plug-In . SVG Version: 6.00 Build 0)  -->
<svg version="1.1" id="Layer_4" xmlns="http://www.w3.org/2000/svg" xmlns:xlink="http://www.w3.org/1999/xlink" x="0px" y="0px"
	 viewBox="0 0 507.13 508.652" enable-background="new 0 0 507.13 508.652" xml:space="preserve">
<g>
	<g>
		<path fill="#FFFFFF" d="M505.677,486.498c0.668,11.734-8.401,21.345-20.154,21.358l-463.916,0.509
			c-11.753,0.013-20.786-9.575-20.073-21.307L29.818,21.593C30.531,9.861,40.73,0.263,52.483,0.263h404.131
			c11.753,0,21.916,9.601,22.585,21.335L505.677,486.498z"/>
	</g>
</g>
<g>
	<g>
		<path fill="#CE191B" d="M219.621,171.333c2.286,4.395,6.399,7.998,12.332,10.806c5.945,2.813,12.538,4.219,19.777,4.216
			c9.589-0.004,17.722-2.388,24.386-7.143c6.639-4.738,9.925-10.559,9.865-17.447c-0.06-6.855-3.421-12.634-10.058-17.344
			c-6.621-4.696-14.463-7.036-23.545-7.034c-5.522,0.001-10.824,0.948-15.916,2.836c-5.098,1.894-9.183,4.408-12.252,7.549
			l-37.803,0.011l9.15-77.567l119.395-0.009l0.462,24.648l-85.601,0.013l-2.636,25.45c8.894-5.266,19.247-7.895,31.083-7.897
			c18.545-0.004,34.047,4.64,46.57,13.97c12.595,9.39,19.078,21.353,19.388,35.957c0.312,14.744-6.578,27.208-20.735,37.338
			c-14.255,10.196-31.733,15.325-52.366,15.335c-15.888,0.008-30.053-3.092-42.449-9.288c-12.352-6.169-20.938-14.305-25.764-24.377
			L219.621,171.333z"/>
	</g>
</g>
<g>
	<path fill="#CE191B" d="M253.769,300.204c-3.166-19.695-30.832-31.556-59.455-30.878c-31.056,0.657-59.731,18.361-60.993,49.66
		c-1.152,28.811,26.937,50.578,59.743,73.481c33.845,23.621,52.496,39.929,59.94,46.518c0,0.009-0.013,0.005,0,0.009
		c0.011,0.005,0,0.005,0.009,0.01c0.002-0.005-0.009-0.005-0.009-0.01c0,0-0.013-0.004,0-0.009
		c7.533-6.568,26.352-22.822,60.422-46.336c32.984-22.763,61.241-44.4,60.401-73.18c-0.912-31.258-29.326-49.078-60.304-49.874
		C284.925,268.784,257.147,280.523,253.769,300.204z"/>
</g>
</svg>
