<?xml version="1.0" encoding="utf-8"?>
<!-- Generator: Adobe Illustrator 27.7.0, SVG Export Plug-In . SVG Version: 6.00 Build 0)  -->
<svg version="1.1" id="Layer_4" xmlns="http://www.w3.org/2000/svg" xmlns:xlink="http://www.w3.org/1999/xlink" x="0px" y="0px"
	 viewBox="0 0 507.13 508.652" enable-background="new 0 0 507.13 508.652" xml:space="preserve">
<g>
	<g>
		<path fill="#FFFFFF" d="M505.677,486.498c0.668,11.734-8.401,21.345-20.154,21.358l-463.916,0.509
			c-11.753,0.013-20.786-9.575-20.073-21.307L29.818,21.593C30.531,9.861,40.73,0.263,52.483,0.263h404.131
			c11.753,0,21.916,9.601,22.585,21.335L505.677,486.498z"/>
	</g>
</g>
<g>
	<g>
		<path fill="#CE191B" d="M196.152,132.383l62.133-61.922l44.927-0.003l-45.188,43.935c0.704,0,1.413,0,2.121,0
			c16.786-0.003,31.723,4.515,44.869,13.596c13.223,9.135,20.017,20.715,20.324,34.794c0.322,14.744-6.467,27.208-20.438,37.337
			c-14.064,10.196-31.264,15.325-51.532,15.334c-20.454,0.01-37.645-5.068-51.502-15.188c-13.774-10.052-20.438-22.552-20.07-37.436
			C182.089,150.973,186.886,140.837,196.152,132.383z M220.049,162.817c-0.082,6.628,3.094,12.28,9.541,16.948
			c6.467,4.686,14.41,7.029,23.821,7.025c9.406-0.004,17.402-2.353,23.974-7.043c6.547-4.673,9.785-10.326,9.723-16.953
			c-0.062-6.595-3.38-12.177-9.934-16.761c-6.538-4.568-14.431-6.846-23.693-6.844c-9.266,0.002-17.121,2.286-23.582,6.857
			C223.418,150.635,220.13,156.221,220.049,162.817z"/>
	</g>
</g>
<g>
	<path fill="#CE191B" d="M253.769,300.204c-3.166-19.695-30.832-31.556-59.455-30.878c-31.056,0.657-59.731,18.361-60.993,49.66
		c-1.152,28.811,26.937,50.578,59.743,73.481c33.845,23.621,52.496,39.929,59.94,46.518c0,0.009-0.013,0.005,0,0.009
		c0.011,0.005,0,0.005,0.009,0.01c0.002-0.005-0.009-0.005-0.009-0.01c0,0-0.013-0.004,0-0.009
		c7.533-6.568,26.352-22.822,60.422-46.336c32.984-22.763,61.241-44.4,60.401-73.18c-0.912-31.258-29.326-49.078-60.304-49.874
		C284.925,268.784,257.147,280.523,253.769,300.204z"/>
</g>
</svg>
