<?xml version="1.0" encoding="utf-8"?>
<!-- Generator: Adobe Illustrator 27.7.0, SVG Export Plug-In . SVG Version: 6.00 Build 0)  -->
<svg version="1.1" id="Layer_4" xmlns="http://www.w3.org/2000/svg" xmlns:xlink="http://www.w3.org/1999/xlink" x="0px" y="0px"
	 viewBox="0 0 507.13 508.652" enable-background="new 0 0 507.13 508.652" xml:space="preserve">
<g>
	<g>
		<path fill="#FFFFFF" d="M505.677,486.498c0.668,11.734-8.401,21.345-20.154,21.358l-463.916,0.509
			c-11.753,0.013-20.786-9.575-20.073-21.307L29.818,21.593C30.531,9.861,40.73,0.263,52.483,0.263h404.131
			c11.753,0,21.916,9.601,22.585,21.335L505.677,486.498z"/>
	</g>
</g>
<g>
	<path fill="#CE191B" d="M206.345,81.729c13.695-9.325,30.335-13.968,49.982-13.97c19.468-0.001,36.046,4.671,49.8,14.053
		c13.835,9.444,20.945,21.348,21.26,35.767c0.253,11.56-4.196,21.695-13.378,30.382l-62.851,65.728l-47.453,0.022l47.593-47.21
		c-0.726,0-1.452,0-2.174,0.001c-17.213,0.006-32.366-4.69-45.399-14.047c-12.96-9.301-19.236-20.932-18.892-34.846
		C185.19,103.184,192.381,91.241,206.345,81.729z M222.556,117.602c-0.08,6.487,3.115,12.018,9.61,16.587
		c6.511,4.586,14.534,6.879,24.059,6.877c9.34-0.003,17.192-2.3,23.537-6.889c6.322-4.572,9.451-10.104,9.39-16.589
		c-0.06-6.455-3.267-11.919-9.596-16.407c-6.315-4.472-14.067-6.704-23.266-6.702c-9.382,0.001-17.315,2.236-23.82,6.71
		C225.942,105.679,222.636,111.146,222.556,117.602z"/>
</g>
<g>
	<path fill="#CE191B" d="M253.769,300.204c-3.166-19.695-30.832-31.556-59.455-30.878c-31.056,0.657-59.731,18.361-60.993,49.66
		c-1.152,28.811,26.937,50.578,59.743,73.481c33.845,23.621,52.496,39.929,59.94,46.518c0,0.009-0.013,0.005,0,0.009
		c0.011,0.005,0,0.005,0.009,0.01c0.002-0.005-0.009-0.005-0.009-0.01c0,0-0.013-0.004,0-0.009
		c7.533-6.568,26.352-22.822,60.422-46.336c32.984-22.763,61.241-44.4,60.401-73.18c-0.912-31.258-29.326-49.078-60.304-49.874
		C284.925,268.784,257.147,280.523,253.769,300.204z"/>
</g>
</svg>
