<?xml version="1.0" encoding="utf-8"?>
<!-- Generator: Adobe Illustrator 27.7.0, SVG Export Plug-In . SVG Version: 6.00 Build 0)  -->
<svg version="1.1" id="Layer_4" xmlns="http://www.w3.org/2000/svg" xmlns:xlink="http://www.w3.org/1999/xlink" x="0px" y="0px"
	 viewBox="0 0 507.13 508.652" enable-background="new 0 0 507.13 508.652" xml:space="preserve">
<g>
	<g>
		<path fill="#FFFFFF" d="M505.677,486.498c0.668,11.734-8.401,21.345-20.154,21.358l-463.916,0.509
			c-11.753,0.013-20.786-9.575-20.073-21.307L29.818,21.593C30.531,9.861,40.73,0.263,52.483,0.263h404.131
			c11.753,0,21.916,9.601,22.585,21.335L505.677,486.498z"/>
	</g>
</g>
<g>
	<g>
		<path d="M187.823,213.35l-38.341,0.018l4.123-118.138l-26.357,0.004l1.076-24.661l62.735-0.005L187.823,213.35z"/>
		<path d="M247.699,87.269c13.998-12.53,32.091-18.759,54.369-18.76c22.27-0.002,40.497,6.253,54.765,18.841
			c14.388,12.694,22.07,30.27,22.965,52.894c0.908,22.966-5.5,41.324-19.316,54.901c-14.123,13.836-32.913,20.806-56.281,20.817
			c-23.377,0.011-42.375-6.907-56.902-20.668c-14.404-13.638-21.432-32.032-21.186-55.009
			C226.355,117.651,233.578,100.035,247.699,87.269z M264.346,140.079c0.028,15.714,3.644,27.539,10.879,35.381
			c7.268,7.884,16.797,11.836,28.561,11.831c11.576-0.005,20.9-3.963,27.942-11.852c7.003-7.845,10.281-19.67,9.856-35.381
			c-0.41-15.163-4.291-26.437-11.62-33.906c-7.292-7.433-16.454-11.134-27.513-11.133c-11.414,0.002-20.603,3.707-27.593,11.142
			C267.83,113.634,264.319,124.912,264.346,140.079z"/>
	</g>
</g>
<g>
	<path d="M303.355,305.547c-39.145-25.684-48.182-40.484-48.182-40.484l-0.048,0c0,0-8.914,14.877-47.852,40.877
		c-31.627,21.113-57.272,38.453-57.856,62.972c-0.536,21.697,23.076,39.37,52.703,39.248c20.746-0.099,40.138-6.679,49.413-18.262
		c-2.919,15.729-18.407,47.748-31.723,54.756l72.135-0.265c-13.375-6.868-29.034-38.816-32.088-54.515
		c9.366,11.49,28.81,17.893,49.533,17.794c29.613-0.122,53.026-17.993,52.315-39.67C360.891,343.488,335.16,326.402,303.355,305.547
		z"/>
</g>
</svg>
