<?xml version="1.0" encoding="utf-8"?>
<!-- Generator: Adobe Illustrator 27.7.0, SVG Export Plug-In . SVG Version: 6.00 Build 0)  -->
<svg version="1.1" id="Layer_4" xmlns="http://www.w3.org/2000/svg" xmlns:xlink="http://www.w3.org/1999/xlink" x="0px" y="0px"
	 viewBox="0 0 507.13 508.652" enable-background="new 0 0 507.13 508.652" xml:space="preserve">
<g>
	<g>
		<path fill="#FFFFFF" d="M505.677,486.498c0.668,11.734-8.401,21.345-20.154,21.358l-463.916,0.509
			c-11.753,0.013-20.786-9.575-20.073-21.307L29.818,21.593C30.531,9.861,40.73,0.263,52.483,0.263h404.131
			c11.753,0,21.916,9.601,22.585,21.335L505.677,486.498z"/>
	</g>
</g>
<g>
	<path d="M303.355,305.547c-39.145-25.684-48.182-40.484-48.182-40.484l-0.048,0c0,0-8.914,14.877-47.852,40.877
		c-31.627,21.113-57.272,38.453-57.856,62.972c-0.536,21.697,23.076,39.37,52.703,39.248c20.746-0.099,40.138-6.679,49.413-18.262
		c-2.919,15.729-18.407,47.748-31.723,54.756l72.135-0.265c-13.375-6.868-29.034-38.816-32.088-54.515
		c9.366,11.49,28.81,17.893,49.533,17.794c29.613-0.122,53.026-17.993,52.315-39.67C360.891,343.488,335.16,326.402,303.355,305.547
		z"/>
</g>
<g>
	<path d="M184.793,213.325v-17.261l73.479-50.801c15.166-10.2,22.75-19.614,22.75-28.245c0-6.669-2.791-12.029-8.368-16.084
		c-5.581-4.052-12.551-6.08-20.919-6.08c-7.321,0-13.728,1.603-19.22,4.805c-5.491,3.206-9.458,7.03-11.897,11.474l-33.994-8.63
		c4.008-10.068,12.028-18.438,24.056-25.107c12.029-6.669,25.626-10.003,40.793-10.003c18.827,0,34.558,4.545,47.199,13.632
		c12.637,9.09,18.958,21.086,18.958,35.993c0,14.386-11.505,29.553-34.517,45.505L243.89,187.63h78.447v25.695H184.793z"/>
</g>
</svg>
