<?xml version="1.0" encoding="utf-8"?>
<!-- Generator: Adobe Illustrator 27.7.0, SVG Export Plug-In . SVG Version: 6.00 Build 0)  -->
<svg version="1.1" id="Layer_4" xmlns="http://www.w3.org/2000/svg" xmlns:xlink="http://www.w3.org/1999/xlink" x="0px" y="0px"
	 viewBox="0 0 507.13 508.652" enable-background="new 0 0 507.13 508.652" xml:space="preserve">
<g>
	<g>
		<path fill="#FFFFFF" d="M505.677,486.498c0.668,11.734-8.401,21.345-20.154,21.358l-463.916,0.509
			c-11.753,0.013-20.786-9.575-20.073-21.307L29.818,21.593C30.531,9.861,40.73,0.263,52.483,0.263h404.131
			c11.753,0,21.916,9.601,22.585,21.335L505.677,486.498z"/>
	</g>
</g>
<g>
	<g>
		<path d="M219.621,171.333c2.286,4.395,6.399,7.998,12.332,10.806c5.945,2.813,12.538,4.219,19.777,4.216
			c9.589-0.004,17.722-2.388,24.386-7.143c6.639-4.738,9.925-10.559,9.865-17.447c-0.06-6.855-3.421-12.634-10.058-17.344
			c-6.621-4.696-14.463-7.036-23.545-7.034c-5.522,0.001-10.824,0.948-15.916,2.836c-5.098,1.894-9.183,4.408-12.252,7.549
			l-37.803,0.011l9.15-77.567l119.395-0.009l0.462,24.648l-85.601,0.013l-2.636,25.45c8.894-5.266,19.247-7.895,31.083-7.897
			c18.545-0.004,34.047,4.64,46.57,13.97c12.595,9.39,19.078,21.353,19.388,35.957c0.312,14.744-6.578,27.208-20.735,37.338
			c-14.255,10.196-31.733,15.325-52.366,15.335c-15.888,0.008-30.053-3.092-42.449-9.288c-12.352-6.169-20.938-14.305-25.764-24.377
			L219.621,171.333z"/>
	</g>
</g>
<g>
	<g>
		<path d="M-2110.253,132.383l62.133-61.922l44.927-0.003l-45.188,43.935c0.704,0,1.413,0,2.121,0
			c16.786-0.003,31.723,4.515,44.869,13.596c13.223,9.135,20.017,20.715,20.324,34.794c0.322,14.744-6.467,27.208-20.438,37.337
			c-14.064,10.196-31.264,15.325-51.532,15.334c-20.454,0.01-37.645-5.068-51.502-15.188c-13.774-10.052-20.438-22.552-20.07-37.436
			C-2124.316,150.973-2119.519,140.837-2110.253,132.383z M-2086.356,162.817c-0.082,6.628,3.094,12.28,9.541,16.948
			c6.467,4.686,14.41,7.029,23.821,7.025c9.406-0.004,17.402-2.353,23.974-7.043c6.547-4.673,9.785-10.326,9.723-16.953
			c-0.062-6.595-3.38-12.177-9.934-16.761c-6.538-4.568-14.431-6.846-23.693-6.844c-9.266,0.002-17.121,2.286-23.582,6.857
			C-2082.987,150.635-2086.275,156.221-2086.356,162.817z"/>
	</g>
</g>
<g>
	<g>
		<path d="M-1886.473,213.328l-42.983,0.02l75.158-118.132l-94.315,0.014l0.631-24.657l137.425-0.011l0.332,16.324
			L-1886.473,213.328z"/>
	</g>
</g>
<g>
	<g>
		<path d="M-1244.198,149.706c5.491-6.151,12.896-11.043,22.218-14.687c-13.924-6.993-20.729-16.464-20.467-28.366
			c0.245-11.174,6.447-20.511,18.565-28.039c12.053-7.489,26.583-11.22,43.638-11.221c17.049-0.001,31.565,3.727,43.595,11.213
			c12.086,7.523,18.261,16.855,18.474,28.025c0.225,11.771-6.694,21.241-20.804,28.367c9.481,3.638,17.002,8.558,22.566,14.768
			c5.581,6.239,8.467,13.197,8.637,20.883c0.303,13.748-6.342,25.119-19.988,34.064c-13.729,8.997-31.497,13.52-53.245,13.531
			c-21.57,0.011-39.103-4.497-52.536-13.483c-13.36-8.936-19.838-20.306-19.495-34.06
			C-1252.846,163.012-1249.895,156.015-1244.198,149.706z M-1214.393,168.894c-0.074,5.986,3.112,11.059,9.574,15.205
			c6.296,4.295,14.344,6.443,24.127,6.439c9.783-0.004,17.925-2.126,24.415-6.357c6.472-4.22,9.672-9.326,9.615-15.31
			c-0.055-5.828-3.42-10.744-10.075-14.759c-6.642-4.002-14.602-5.999-23.891-5.996c-9.294,0.003-17.215,2.039-23.779,6.11
			C-1210.991,158.31-1214.322,163.198-1214.393,168.894z M-1205.687,106.838c-0.043,4.341,2.349,8.052,7.19,11.13
			c4.846,3.084,10.819,4.628,17.908,4.626c7.263-0.002,13.372-1.548,18.319-4.634c4.932-3.079,7.383-6.79,7.353-11.131
			c-0.03-4.325-2.52-7.943-7.452-10.858c-4.928-2.906-10.983-4.358-18.172-4.357c-7.018,0.001-12.946,1.455-17.792,4.362
			C-1203.193,98.894-1205.645,102.513-1205.687,106.838z"/>
	</g>
</g>
<g>
	<g>
		<path d="M-456.15,213.35l-38.341,0.018l4.123-118.138l-26.357,0.004l1.076-24.661l62.735-0.005L-456.15,213.35z"/>
		<path d="M-396.274,87.269c13.998-12.53,32.091-18.759,54.369-18.76c22.27-0.002,40.497,6.253,54.765,18.841
			c14.388,12.694,22.07,30.27,22.965,52.894c0.908,22.966-5.5,41.324-19.316,54.901c-14.123,13.836-32.913,20.806-56.281,20.817
			c-23.377,0.011-42.375-6.907-56.902-20.668c-14.404-13.638-21.432-32.032-21.186-55.009
			C-417.618,117.651-410.395,100.035-396.274,87.269z M-379.627,140.079c0.028,15.714,3.644,27.539,10.879,35.381
			c7.268,7.884,16.797,11.836,28.561,11.831c11.576-0.005,20.9-3.963,27.942-11.852c7.003-7.845,10.281-19.67,9.856-35.381
			c-0.41-15.163-4.291-26.437-11.62-33.906c-7.292-7.433-16.454-11.134-27.513-11.133c-11.414,0.002-20.603,3.707-27.593,11.142
			C-376.143,113.634-379.654,124.912-379.627,140.079z"/>
	</g>
</g>
<g>
	<g>
		<path d="M-861.84,177.082c6.432,5.481,14.269,8.224,23.493,8.221c9.224-0.004,16.415-2.42,21.561-7.237
			c5.13-4.802,7.676-11.111,7.649-18.915l-0.303-88.589l39.443-0.003l1.471,88.579c0.282,16.977-6.011,30.572-18.943,40.7
			c-13.019,10.195-30.061,15.323-51.057,15.333c-10.956,0.005-21.164-1.768-30.596-5.311c-9.416-3.535-17.144-8.486-23.176-14.845
			L-861.84,177.082z"/>
	</g>
</g>
<g>
	<g>
		<path d="M-710.505,88.976c19.545-13.922,42.914-20.835,70.241-20.837c27.318-0.002,50.695,6.906,70.263,20.819
			c19.745,14.042,30,31.105,30.627,51.292c0.545,17.557-6.444,33.185-21.064,46.827l21.156,17.615l-24.735,16.395l-20.038-17.8
			c-16.64,8.718-35.496,13.099-56.498,13.109c-28.683,0.014-52.978-7.585-72.735-22.694c-19.573-14.962-28.925-32.795-28.204-53.397
			C-740.787,120.106-730.412,103.03-710.505,88.976z M-700.571,140.294c-0.266,12.301,5.434,22.843,17.15,31.594
			c11.781,8.8,26.107,13.215,42.927,13.209c10.668-0.004,20.151-2.151,28.434-6.437l-19.505-17.13l22.495-14.013l18.432,14.991
			c6.891-6.596,10.253-14.017,10.108-22.246c-0.213-12.068-6.23-22.308-18.005-30.755c-11.711-8.402-25.624-12.584-41.787-12.582
			c-16.169,0.002-30.144,4.19-41.979,12.597C-694.205,117.976-700.31,128.222-700.571,140.294z"/>
	</g>
</g>
<g>
	<g>
		<path d="M-1065.479,70.569l39.199-0.003l-0.643,56.873l62.3-56.878l43.878-0.003l-61.18,58.034l70.075,84.687l-47.613,0.023
			l-47.356-57.7l-20.618,17.279l-0.458,40.453l-41.071,0.019L-1065.479,70.569z"/>
	</g>
</g>
<g>
	<path d="M303.355,305.547c-39.145-25.684-48.182-40.484-48.182-40.484l-0.048,0c0,0-8.914,14.877-47.852,40.877
		c-31.627,21.113-57.272,38.453-57.856,62.972c-0.536,21.697,23.076,39.37,52.703,39.248c20.746-0.099,40.138-6.679,49.413-18.262
		c-2.919,15.729-18.407,47.748-31.723,54.756l72.135-0.265c-13.375-6.868-29.034-38.816-32.088-54.515
		c9.366,11.49,28.81,17.893,49.533,17.794c29.613-0.122,53.026-17.993,52.315-39.67C360.891,343.488,335.16,326.402,303.355,305.547
		z"/>
</g>
</svg>
