<?xml version="1.0" encoding="utf-8"?>
<!-- Generator: Adobe Illustrator 27.7.0, SVG Export Plug-In . SVG Version: 6.00 Build 0)  -->
<svg version="1.1" id="Layer_4" xmlns="http://www.w3.org/2000/svg" xmlns:xlink="http://www.w3.org/1999/xlink" x="0px" y="0px"
	 viewBox="0 0 507.13 508.652" enable-background="new 0 0 507.13 508.652" xml:space="preserve">
<g>
	<g>
		<path fill="#FFFFFF" d="M505.677,486.498c0.668,11.734-8.401,21.345-20.154,21.358l-463.916,0.509
			c-11.753,0.013-20.786-9.575-20.073-21.307L29.818,21.593C30.531,9.861,40.73,0.263,52.483,0.263h404.131
			c11.753,0,21.916,9.601,22.585,21.335L505.677,486.498z"/>
	</g>
</g>
<g>
	<g>
		<path d="M196.152,132.383l62.133-61.922l44.927-0.003l-45.188,43.935c0.704,0,1.413,0,2.121,0
			c16.786-0.003,31.723,4.515,44.869,13.596c13.223,9.135,20.017,20.715,20.324,34.794c0.322,14.744-6.467,27.208-20.438,37.337
			c-14.064,10.196-31.264,15.325-51.532,15.334c-20.454,0.01-37.645-5.068-51.502-15.188c-13.774-10.052-20.438-22.552-20.07-37.436
			C182.089,150.973,186.886,140.837,196.152,132.383z M220.049,162.817c-0.082,6.628,3.094,12.28,9.541,16.948
			c6.467,4.686,14.41,7.029,23.821,7.025c9.406-0.004,17.402-2.353,23.974-7.043c6.547-4.673,9.785-10.326,9.723-16.953
			c-0.062-6.595-3.38-12.177-9.934-16.761c-6.538-4.568-14.431-6.846-23.693-6.844c-9.266,0.002-17.121,2.286-23.582,6.857
			C223.418,150.635,220.13,156.221,220.049,162.817z"/>
	</g>
</g>
<g>
	<path d="M303.355,305.547c-39.145-25.684-48.182-40.484-48.182-40.484l-0.048,0c0,0-8.914,14.877-47.852,40.877
		c-31.627,21.113-57.272,38.453-57.856,62.972c-0.536,21.697,23.076,39.37,52.703,39.248c20.746-0.099,40.138-6.679,49.413-18.262
		c-2.919,15.729-18.407,47.748-31.723,54.756l72.135-0.265c-13.375-6.868-29.034-38.816-32.088-54.515
		c9.366,11.49,28.81,17.893,49.533,17.794c29.613-0.122,53.026-17.993,52.315-39.67C360.891,343.488,335.16,326.402,303.355,305.547
		z"/>
</g>
</svg>
