<?xml version="1.0" encoding="utf-8"?>
<!-- Generator: Adobe Illustrator 27.7.0, SVG Export Plug-In . SVG Version: 6.00 Build 0)  -->
<svg version="1.1" id="Layer_4" xmlns="http://www.w3.org/2000/svg" xmlns:xlink="http://www.w3.org/1999/xlink" x="0px" y="0px"
	 viewBox="0 0 507.13 508.652" enable-background="new 0 0 507.13 508.652" xml:space="preserve">
<g>
	<g>
		<path fill="#FFFFFF" d="M505.677,486.498c0.668,11.734-8.401,21.345-20.154,21.358l-463.916,0.509
			c-11.753,0.013-20.786-9.575-20.073-21.307L29.818,21.593C30.531,9.861,40.73,0.263,52.483,0.263h404.131
			c11.753,0,21.916,9.601,22.585,21.335L505.677,486.498z"/>
	</g>
</g>
<g>
	<g>
		<path d="M303.355,305.547c-39.145-25.684-48.182-40.484-48.182-40.484l-0.048,0c0,0-8.914,14.877-47.852,40.877
			c-31.627,21.113-57.272,38.453-57.856,62.972c-0.536,21.697,23.076,39.37,52.703,39.248c20.746-0.099,40.138-6.679,49.413-18.262
			c-2.919,15.729-18.407,47.748-31.723,54.756l72.135-0.265c-13.375-6.868-29.034-38.816-32.088-54.515
			c9.366,11.49,28.81,17.893,49.533,17.794c29.613-0.122,53.026-17.993,52.315-39.67
			C360.891,343.488,335.16,326.402,303.355,305.547z"/>
	</g>
	<g>
		<path d="M206.345,81.729c13.695-9.325,30.335-13.968,49.982-13.97c19.468-0.001,36.046,4.671,49.8,14.053
			c13.835,9.444,20.945,21.348,21.26,35.767c0.253,11.56-4.196,21.695-13.378,30.382l-62.851,65.728l-47.453,0.022l47.593-47.21
			c-0.726,0-1.452,0-2.174,0.001c-17.213,0.006-32.366-4.69-45.399-14.047c-12.96-9.301-19.236-20.932-18.892-34.846
			C185.19,103.184,192.381,91.241,206.345,81.729z M222.556,117.602c-0.08,6.487,3.115,12.018,9.61,16.587
			c6.511,4.586,14.534,6.879,24.059,6.877c9.34-0.003,17.192-2.3,23.537-6.889c6.322-4.572,9.451-10.104,9.39-16.589
			c-0.06-6.455-3.267-11.919-9.596-16.407c-6.315-4.472-14.067-6.704-23.266-6.702c-9.382,0.001-17.315,2.236-23.82,6.71
			C225.942,105.679,222.636,111.146,222.556,117.602z"/>
	</g>
</g>
</svg>
