<?xml version="1.0" encoding="utf-8"?>
<!-- Generator: Adobe Illustrator 27.7.0, SVG Export Plug-In . SVG Version: 6.00 Build 0)  -->
<svg version="1.1" id="Layer_4" xmlns="http://www.w3.org/2000/svg" xmlns:xlink="http://www.w3.org/1999/xlink" x="0px" y="0px"
	 viewBox="0 0 507.13 508.652" enable-background="new 0 0 507.13 508.652" xml:space="preserve">
<g>
	<g>
		<path fill="#FFFFFF" d="M505.677,486.498c0.668,11.734-8.401,21.345-20.154,21.358l-463.916,0.509
			c-11.753,0.013-20.786-9.575-20.073-21.307L29.818,21.593C30.531,9.861,40.73,0.263,52.483,0.263h404.131
			c11.753,0,21.916,9.601,22.585,21.335L505.677,486.498z"/>
	</g>
</g>
<g>
	<g>
		<path d="M183.468,88.976c19.545-13.922,42.914-20.835,70.241-20.837c27.318-0.002,50.695,6.906,70.263,20.819
			c19.745,14.042,30,31.105,30.627,51.292c0.545,17.557-6.444,33.185-21.064,46.827l21.156,17.615l-24.735,16.395l-20.038-17.8
			c-16.64,8.718-35.496,13.099-56.498,13.109c-28.683,0.014-52.978-7.585-72.735-22.694c-19.573-14.962-28.925-32.795-28.204-53.397
			C153.186,120.106,163.561,103.03,183.468,88.976z M193.402,140.294c-0.266,12.301,5.434,22.843,17.15,31.594
			c11.781,8.8,26.107,13.215,42.927,13.209c10.668-0.004,20.151-2.151,28.434-6.437l-19.505-17.13l22.495-14.013l18.432,14.991
			c6.891-6.596,10.253-14.017,10.108-22.246c-0.212-12.068-6.23-22.308-18.004-30.755c-11.711-8.402-25.624-12.584-41.788-12.582
			c-16.169,0.002-30.144,4.19-41.979,12.597C199.768,117.976,193.663,128.222,193.402,140.294z"/>
	</g>
</g>
<g>
	<path d="M303.355,305.547c-39.145-25.684-48.182-40.484-48.182-40.484l-0.048,0c0,0-8.914,14.877-47.852,40.877
		c-31.627,21.113-57.272,38.453-57.856,62.972c-0.536,21.697,23.076,39.37,52.703,39.248c20.746-0.099,40.138-6.679,49.413-18.262
		c-2.919,15.729-18.407,47.748-31.723,54.756l72.135-0.265c-13.375-6.868-29.034-38.816-32.088-54.515
		c9.366,11.49,28.81,17.893,49.533,17.794c29.613-0.122,53.026-17.993,52.315-39.67C360.891,343.488,335.16,326.402,303.355,305.547
		z"/>
</g>
</svg>
