<svg width="543" height="604" viewBox="0 0 543 604" fill="none" xmlns="http://www.w3.org/2000/svg">
<path fill-rule="evenodd" clip-rule="evenodd" d="M0.0245735 503.209C12.5188 339.168 25.0121 175.128 37.5053 11.0876C37.9278 5.55246 45.3269 0 54.9979 0H487.842C497.513 0 504.912 5.55246 505.335 11.0876C517.828 175.128 530.321 339.168 542.815 503.209C543.331 509.973 535.698 516.792 524.39 516.792H18.4497C7.14237 516.792 -0.490612 509.973 0.0245735 503.209Z" fill="white"/>
<path fill-rule="evenodd" clip-rule="evenodd" d="M18.023 488.557C29.709 333.204 41.3941 177.853 53.0792 22.5004C53.4744 17.2584 60.3948 12 69.4403 12H474.285C483.331 12 490.251 17.2584 490.646 22.5004C502.332 177.853 514.017 333.204 525.703 488.557C526.185 494.963 519.045 501.42 508.469 501.42H35.2562C24.6804 501.42 17.5411 494.963 18.023 488.557Z" fill="#020011"/>
<path fill-rule="evenodd" clip-rule="evenodd" d="M18.023 488.556C24.8778 397.394 31.7335 306.232 38.5883 215.071L38.7867 214.957L40.4987 213.818L42.2348 212.659L43.9343 211.52L45.7725 210.294L47.4556 209.176L49.211 208.003L50.896 206.873L54.3596 204.558L56.1843 203.339L57.8327 202.236L59.6584 201.015L61.3319 199.902L63.0766 198.733L64.753 197.609L66.5585 196.399L68.2531 195.269L69.9671 194.121L71.6482 192.99L73.4633 191.774L75.1262 190.664L76.8613 189.501L78.5271 188.381L80.3229 187.175L82.007 186.051L83.7103 184.908L85.3819 183.781L87.1873 182.57L88.8396 181.465L90.5661 180.306L92.2203 179.19L93.9496 178.023L95.7214 176.838L97.3746 175.731L99.0356 174.609L100.829 173.403L102.473 172.301L104.186 171.149L105.834 170.035L107.551 168.874L109.312 167.694L110.957 166.592L112.608 165.473L114.392 164.273L116.027 163.176L119.393 160.895L121.141 159.722L122.785 158.619L124.459 157.49L126.101 156.376L127.873 155.179L129.499 154.088L131.192 152.943L132.806 151.849L134.583 150.647L136.217 149.549L137.883 148.423L139.514 147.315L141.277 146.123L142.893 145.034L144.577 143.896L146.179 142.805L147.947 141.609L149.515 140.547L151.266 139.363L152.849 138.29L154.587 137.111L156.216 136.012L157.881 134.885L159.473 133.8L161.231 132.607L162.845 131.519L164.494 130.4L166.103 129.302L167.832 128.128L169.452 127.034L171.107 125.911L172.689 124.829L174.438 123.643L176.043 122.558L177.68 121.444L179.28 120.351L180.999 119.181L182.611 118.091L184.254 116.974L185.83 115.896L187.567 114.714L189.149 113.641L190.744 112.55L192.421 111.403L194.05 110.295L195.72 109.162L197.325 108.072C199.018 106.721 201.069 105.806 203.153 105.266L208.117 104.643C209.1 104.643 215.528 104.643 219.659 108.887C254.692 145.025 284.569 175.379 290.237 181.137C307.672 172.605 325.106 164.072 342.542 155.539C345.036 154.312 347.897 153.754 350.661 153.754C351.355 153.754 355.305 153.754 359.121 155.658C360.004 156.099 367.476 159.833 364.733 166.648C359.778 178.854 354.824 191.06 349.869 203.266C388.368 206.444 426.866 209.622 465.366 212.8C472.228 213.36 477.83 217.798 478.747 221.839C479.979 227.273 474.95 230.399 474.268 230.823L471.071 233.169L469.477 234.341L467.93 235.485L466.303 236.688L464.648 237.902L463.155 239L461.501 240.223L459.895 241.402L458.257 242.602L456.735 243.72L455.1 244.927L453.48 246.118L451.822 247.329L450.32 248.432L448.656 249.66L447.041 250.844L445.391 252.048L443.861 253.171L442.216 254.383L440.585 255.579L438.919 256.795L437.407 257.902L435.734 259.135L434.107 260.323L432.448 261.533L430.909 262.661L429.198 263.911L427.652 265.044L424.415 267.41L422.731 268.648L421.108 269.833L419.415 271.064L417.877 272.186L416.212 273.409L414.56 274.614L412.872 275.84L411.343 276.955L409.647 278.198L408.016 279.389L406.313 280.625L404.764 281.753L403.088 282.98L401.428 284.189L398.134 286.575L394.843 288.983L393.13 290.224L391.571 291.357L389.885 292.588L388.159 293.837L386.56 294.995L384.947 296.173L383.242 297.415L381.588 298.615L379.867 299.862L378.298 300.999L376.602 302.235L374.865 303.488L373.257 304.651L371.633 305.834L369.918 307.082L368.256 308.286L366.52 309.538L364.943 310.679L363.237 311.92L361.545 313.146L359.829 314.381L358.237 315.534L356.51 316.786L354.838 317.996L353.094 319.252L351.507 320.398L349.788 321.644L348.789 322.416L359.622 376.126C360.813 382.011 355.317 385.397 354.57 385.856L351.117 388.357L349.395 389.607L345.967 392.108L344.178 393.402L342.566 394.572L340.779 395.875L339.044 397.133L337.274 398.412L335.633 399.603L333.865 400.891L332.115 402.159L330.325 403.45L328.703 404.625L326.905 405.933L325.159 407.195L323.378 408.479L321.725 409.676L319.948 410.968L318.186 412.242L316.386 413.537L314.754 414.718L312.945 416.032L311.189 417.299L309.397 418.587L307.734 419.788L305.886 421.122L304.215 422.329L300.719 424.85L298.899 426.169L297.146 427.432L295.318 428.744L293.655 429.941L291.857 431.243L290.072 432.527L288.249 433.833L286.596 435.022L284.766 436.347L283.003 437.614L281.164 438.932L279.491 440.133L277.679 441.44L275.886 442.729L274.051 444.041L272.33 445.272L270.589 446.527L268.772 447.837L266.922 449.16L265.237 450.367L263.416 451.679L261.551 453.009L259.825 454.243L258.081 455.497L256.239 456.82L254.453 458.101L252.592 459.427L250.898 460.639L249.065 461.956L247.188 463.292L245.451 464.531L241.843 467.12L240.047 468.403L238.173 469.736L236.469 470.953L234.625 472.275L232.797 473.579L230.944 474.896L229.223 476.125L227.358 477.459L225.551 478.747L223.666 480.085L221.952 481.307L220.095 482.633L218.258 483.944L216.392 485.265L214.661 486.499L212.784 487.838L210.967 489.132L209.07 490.475L207.344 491.701L203.671 494.31L201.752 495.674L200.01 496.913L198.122 498.258L196.292 499.556L194.385 500.905L193.722 501.419H35.251C24.6783 501.419 17.5413 494.961 18.023 488.556Z" fill="#EB0038"/>
<path d="M320.235 258.933C327.97 298.453 335.705 337.973 343.442 377.494C315.424 347.135 284.579 313.37 257.787 283.755C235.436 294.451 213.085 305.148 190.734 315.844C198.002 299.5 205.269 283.156 212.537 266.812C167.461 263.008 122.386 259.204 77.3107 255.399C125.85 243.214 174.388 231.028 222.928 218.843C217.591 184.032 212.254 149.222 206.917 114.411C231.496 139.885 260.12 169.302 285.605 195.265C307.046 184.758 328.487 174.251 349.928 163.744C343.319 179.819 336.71 195.895 330.101 211.972C374.501 215.64 418.899 219.31 463.299 222.98C415.611 234.964 367.922 246.948 320.235 258.933Z" fill="white"/>
<path d="M542.9 504H0V590.364C3.55507 597.679 7.4769 601.036 19.1612 604H530.126C537.685 601.431 540.016 598.122 542.9 590.364V504Z" fill="white"/>
<path d="M542.9 508.55H0" stroke="#B2B2B2" stroke-width="0.1"/>
<path d="M542.9 513.096H0" stroke="#B2B2B2" stroke-width="0.1"/>
<path d="M542.9 517.633H0" stroke="#B2B2B2" stroke-width="0.1"/>
<path d="M542.9 522.181H0" stroke="#B2B2B2" stroke-width="0.1"/>
<path d="M542.9 526.73H0" stroke="#B2B2B2" stroke-width="0.1"/>
<path d="M542.9 531.267H0" stroke="#B2B2B2" stroke-width="0.1"/>
<path d="M542.9 535.814H0" stroke="#B2B2B2" stroke-width="0.1"/>
<path d="M542.9 540.361H0" stroke="#B2B2B2" stroke-width="0.1"/>
<path d="M542.9 544.911H0" stroke="#B2B2B2" stroke-width="0.1"/>
<path d="M542.9 549.458H0" stroke="#B2B2B2" stroke-width="0.1"/>
<path d="M542.9 554.009H0" stroke="#B2B2B2" stroke-width="0.1"/>
<path d="M542.9 558.556H0" stroke="#B2B2B2" stroke-width="0.1"/>
<path d="M542.9 563.092H0" stroke="#B2B2B2" stroke-width="0.1"/>
<path d="M542.9 567.638H0" stroke="#B2B2B2" stroke-width="0.1"/>
<path d="M542.9 572.19H0" stroke="#B2B2B2" stroke-width="0.1"/>
<path d="M542.9 576.736H0" stroke="#B2B2B2" stroke-width="0.1"/>
<path d="M542.9 581.272H0" stroke="#B2B2B2" stroke-width="0.1"/>
<path d="M542.9 585.819H0" stroke="#B2B2B2" stroke-width="0.1"/>
<path d="M542.9 590.37H0" stroke="#B2B2B2" stroke-width="0.1"/>
<path d="M536.513 594.903L6.38745 594.903" stroke="#B2B2B2" stroke-width="0.1"/>
<path d="M536.513 599.453L6.38745 599.453" stroke="#B2B2B2" stroke-width="0.1"/>
</svg>
