<svg width="556" height="530" viewBox="0 0 556 530" fill="none" xmlns="http://www.w3.org/2000/svg">
<path fill-rule="evenodd" clip-rule="evenodd" d="M0.025162 515.26C12.8186 347.291 25.6111 179.322 38.4035 11.3532C38.8361 5.68544 46.4124 0 56.315 0H499.525C509.428 0 517.004 5.68544 517.437 11.3532C530.229 179.322 543.021 347.291 555.815 515.26C556.342 522.186 548.527 529.168 536.949 529.168H18.8915C7.31342 529.168 -0.502361 522.186 0.025162 515.26Z" fill="white"/>
<path fill-rule="evenodd" clip-rule="evenodd" d="M24.023 494.557C35.709 339.204 47.3941 183.853 59.0792 28.5004C59.4744 23.2584 66.3948 18 75.4403 18H480.285C489.331 18 496.251 23.2584 496.646 28.5004C508.332 183.853 520.017 339.204 531.703 494.557C532.185 500.963 525.045 507.42 514.469 507.42H41.2562C30.6804 507.42 23.5411 500.963 24.023 494.557Z" fill="#EB0038"/>
<path fill-rule="evenodd" clip-rule="evenodd" d="M24.023 494.556C30.8778 403.394 37.7335 312.232 44.5883 221.071L44.7867 220.957L46.4987 219.818L48.2348 218.659L49.9343 217.52L51.7725 216.294L53.4556 215.176L55.211 214.003L56.896 212.873L60.3596 210.558L62.1843 209.339L63.8327 208.236L65.6584 207.015L67.3319 205.902L69.0766 204.733L70.753 203.609L72.5585 202.399L74.2531 201.269L75.9671 200.121L77.6482 198.99L79.4633 197.774L81.1262 196.664L82.8613 195.501L84.5271 194.381L86.3229 193.175L88.007 192.051L89.7103 190.908L91.3819 189.781L93.1873 188.57L94.8396 187.465L96.5661 186.306L98.2203 185.19L99.9496 184.023L101.721 182.838L103.375 181.731L105.036 180.609L106.829 179.403L108.473 178.301L110.186 177.149L111.834 176.035L113.551 174.874L115.312 173.694L116.957 172.592L118.608 171.473L120.392 170.273L122.027 169.176L125.393 166.895L127.141 165.722L128.785 164.619L130.459 163.49L132.101 162.376L133.873 161.179L135.499 160.088L137.192 158.943L138.806 157.849L140.583 156.647L142.217 155.549L143.883 154.423L145.514 153.315L147.277 152.123L148.893 151.034L150.577 149.896L152.179 148.805L153.947 147.609L155.515 146.547L157.266 145.363L158.849 144.29L160.587 143.111L162.216 142.012L163.881 140.885L165.473 139.8L167.231 138.607L168.845 137.519L170.494 136.4L172.103 135.302L173.832 134.128L175.452 133.034L177.107 131.911L178.689 130.829L180.438 129.643L182.043 128.558L183.68 127.444L185.28 126.351L186.999 125.181L188.611 124.091L190.254 122.974L191.83 121.896L193.567 120.714L195.149 119.641L196.744 118.55L198.421 117.403L200.05 116.295L201.72 115.162L203.325 114.072C205.018 112.721 207.069 111.806 209.153 111.266L214.117 110.643C215.1 110.643 221.528 110.643 225.659 114.887C260.692 151.025 290.569 181.379 296.237 187.137C313.672 178.605 331.106 170.072 348.542 161.539C351.036 160.312 353.897 159.754 356.661 159.754C357.355 159.754 361.305 159.754 365.121 161.658C366.004 162.099 373.476 165.833 370.733 172.648C365.778 184.854 360.824 197.06 355.869 209.266C394.368 212.444 432.866 215.622 471.366 218.8C478.228 219.36 483.83 223.798 484.747 227.839C485.979 233.273 480.95 236.399 480.268 236.823L477.071 239.169L475.477 240.341L473.93 241.485L472.303 242.688L470.648 243.902L469.155 245L467.501 246.223L465.895 247.402L464.257 248.602L462.735 249.72L461.1 250.927L459.48 252.118L457.822 253.329L456.32 254.432L454.656 255.66L453.041 256.844L451.391 258.048L449.861 259.171L448.216 260.383L446.585 261.579L444.919 262.795L443.407 263.902L441.734 265.135L440.107 266.323L438.448 267.533L436.909 268.661L435.198 269.911L433.652 271.044L430.415 273.41L428.731 274.648L427.108 275.833L425.415 277.064L423.877 278.186L422.212 279.409L420.56 280.614L418.872 281.84L417.343 282.955L415.647 284.198L414.016 285.389L412.313 286.625L410.764 287.753L409.088 288.98L407.428 290.189L404.134 292.575L400.843 294.983L399.13 296.224L397.571 297.357L395.885 298.588L394.159 299.837L392.56 300.995L390.947 302.173L389.242 303.415L387.588 304.615L385.867 305.862L384.298 306.999L382.602 308.235L380.865 309.488L379.257 310.651L377.633 311.834L375.918 313.082L374.256 314.286L372.52 315.538L370.943 316.679L369.237 317.92L367.545 319.146L365.829 320.381L364.237 321.534L362.51 322.786L360.838 323.996L359.094 325.252L357.507 326.398L355.788 327.644L354.789 328.416L365.622 382.126C366.813 388.011 361.317 391.397 360.57 391.856L357.117 394.357L355.395 395.607L351.967 398.108L350.178 399.402L348.566 400.572L346.779 401.875L345.044 403.133L343.274 404.412L341.633 405.603L339.865 406.891L338.115 408.159L336.325 409.45L334.703 410.625L332.905 411.933L331.159 413.195L329.378 414.479L327.725 415.676L325.948 416.968L324.186 418.242L322.386 419.537L320.754 420.718L318.945 422.032L317.189 423.299L315.397 424.587L313.734 425.788L311.886 427.122L310.215 428.329L306.719 430.85L304.899 432.169L303.146 433.432L301.318 434.744L299.655 435.941L297.857 437.243L296.072 438.527L294.249 439.833L292.596 441.022L290.766 442.347L289.003 443.614L287.164 444.932L285.491 446.133L283.679 447.44L281.886 448.729L280.051 450.041L278.33 451.272L276.589 452.527L274.772 453.837L272.922 455.16L271.237 456.367L269.416 457.679L267.551 459.009L265.825 460.243L264.081 461.497L262.239 462.82L260.453 464.101L258.592 465.427L256.898 466.639L255.065 467.956L253.188 469.292L251.451 470.531L247.843 473.12L246.047 474.403L244.173 475.736L242.469 476.953L240.625 478.275L238.797 479.579L236.944 480.896L235.223 482.125L233.358 483.459L231.551 484.747L229.666 486.085L227.952 487.307L226.095 488.633L224.258 489.944L222.392 491.265L220.661 492.499L218.784 493.838L216.967 495.132L215.07 496.475L213.344 497.701L209.671 500.31L207.752 501.674L206.01 502.913L204.122 504.258L202.292 505.556L200.385 506.905L199.722 507.419H41.251C30.6783 507.419 23.5413 500.961 24.023 494.556Z" fill="black"/>
<path d="M326.235 264.933C333.97 304.453 341.705 343.973 349.442 383.494C321.424 353.135 290.579 319.37 263.787 289.755C241.436 300.451 219.085 311.148 196.734 321.844C204.002 305.5 211.269 289.156 218.537 272.812C173.461 269.008 128.386 265.204 83.3107 261.399C131.85 249.214 180.388 237.028 228.928 224.843C223.591 190.032 218.254 155.222 212.917 120.411C237.496 145.885 266.12 175.302 291.605 201.265C313.046 190.758 334.487 180.251 355.928 169.744C349.319 185.819 342.71 201.895 336.101 217.972C380.501 221.64 424.899 225.31 469.299 228.98C421.611 240.964 373.922 252.948 326.235 264.933Z" fill="white"/>
</svg>
