<svg width="571" height="544" viewBox="0 0 571 544" fill="none" xmlns="http://www.w3.org/2000/svg">
<path fill-rule="evenodd" clip-rule="evenodd" d="M0.025841 529.165C13.1646 356.663 26.3022 184.162 39.4399 11.6595C39.8841 5.83886 47.6649 0 57.8348 0H513.005C523.175 0 530.956 5.83886 531.4 11.6595C544.538 184.162 557.675 356.663 570.814 529.165C571.356 536.278 563.329 543.448 551.439 543.448H19.4013C7.51078 543.448 -0.515918 536.278 0.025841 529.165Z" fill="white"/>
<path fill-rule="evenodd" clip-rule="evenodd" d="M22.0238 509.648C34.1498 348.398 46.2749 187.149 58.3999 25.899C58.8099 20.458 65.9909 15 75.3769 15H495.463C504.849 15 512.03 20.458 512.44 25.899C524.565 187.149 536.69 348.398 548.816 509.648C549.316 516.297 541.908 523 530.934 523H39.9058C28.9318 523 21.5238 516.297 22.0238 509.648Z" fill="#020011"/>
<path fill-rule="evenodd" clip-rule="evenodd" d="M22.0238 509.648C29.1388 415.026 36.2549 320.403 43.3699 225.781L43.5759 225.663L45.3529 224.481L47.1549 223.278L48.9188 222.095L50.8269 220.823L52.5738 219.662L54.3958 218.445L56.1448 217.272L59.7398 214.869L61.6339 213.604L63.3449 212.459L65.2398 211.192L66.9768 210.036L68.7879 208.823L70.5279 207.656L72.4019 206.4L74.1609 205.228L75.9399 204.036L77.6848 202.862L79.5689 201.6L81.2948 200.448L83.0959 199.241L84.8248 198.078L86.6889 196.826L88.4368 195.66L90.2048 194.473L91.9398 193.303L93.8139 192.046L95.5288 190.899L97.3208 189.697L99.0378 188.538L100.833 187.327L102.672 186.097L104.388 184.948L106.112 183.783L107.974 182.531L109.68 181.388L111.458 180.192L113.169 179.036L114.951 177.831L116.779 176.606L118.486 175.462L120.2 174.3L122.051 173.055L123.748 171.916L127.242 169.549L129.057 168.331L130.763 167.186L132.501 166.014L134.205 164.858L136.044 163.616L137.732 162.483L139.489 161.295L141.164 160.159L143.009 158.912L144.705 157.772L146.434 156.603L148.127 155.453L149.957 154.216L151.634 153.086L153.382 151.904L155.045 150.772L156.88 149.53L158.508 148.428L160.325 147.199L161.968 146.086L163.772 144.862L165.463 143.721L167.191 142.551L168.844 141.425L170.668 140.187L172.344 139.057L174.055 137.896L175.725 136.756L177.52 135.538L179.202 134.402L180.919 133.237L182.562 132.114L184.377 130.882L186.043 129.756L187.742 128.6L189.403 127.465L191.187 126.251L192.86 125.12L194.566 123.96L196.201 122.841L198.004 121.615L199.646 120.501L201.302 119.368L203.043 118.178L204.733 117.028L206.467 115.852L208.133 114.72C209.89 113.318 212.019 112.368 214.182 111.808L219.334 111.161C220.355 111.161 227.027 111.161 231.315 115.566C267.677 153.076 298.689 184.582 304.572 190.559C322.669 181.703 340.765 172.846 358.862 163.989C361.451 162.716 364.421 162.137 367.29 162.137C368.01 162.137 372.11 162.137 376.071 164.113C376.987 164.571 384.743 168.446 381.896 175.52C376.753 188.189 371.611 200.859 366.468 213.528C406.428 216.827 446.388 220.125 486.349 223.424C493.472 224.005 499.286 228.612 500.238 232.806C501.517 238.446 496.297 241.691 495.589 242.131L492.271 244.566L490.616 245.783L489.01 246.97L487.322 248.219L485.604 249.479L484.054 250.619L482.337 251.888L480.67 253.112L478.97 254.357L477.391 255.518L475.693 256.771L474.012 258.007L472.291 259.264L470.732 260.409L469.005 261.683L467.328 262.912L465.616 264.162L464.028 265.328L462.32 266.586L460.627 267.827L458.898 269.089L457.329 270.238L455.592 271.518L453.904 272.751L452.182 274.007L450.584 275.178L448.808 276.475L447.203 277.651L443.844 280.107L442.096 281.392L440.411 282.622L438.654 283.9L437.057 285.065L435.329 286.334L433.614 287.585L431.862 288.857L430.275 290.015L428.515 291.305L426.822 292.541L425.054 293.824L423.447 294.995L421.707 296.268L419.984 297.523L416.565 300L413.149 302.499L411.371 303.787L409.753 304.963L408.003 306.241L406.211 307.537L404.552 308.739L402.877 309.962L401.108 311.251L399.391 312.497L397.604 313.791L395.976 314.971L394.215 316.254L392.413 317.555L390.743 318.762L389.058 319.99L387.278 321.285L385.553 322.535L383.751 323.834L382.114 325.019L380.343 326.307L378.587 327.579L376.806 328.861L375.153 330.058L373.361 331.358L371.625 332.614L369.815 333.917L368.168 335.107L366.384 336.4L365.347 337.201L376.591 392.95C377.827 399.059 372.122 402.573 371.347 403.05L367.763 405.646L365.976 406.943L362.418 409.539L360.561 410.882L358.887 412.097L357.033 413.449L355.232 414.755L353.395 416.082L351.691 417.319L349.856 418.655L348.04 419.972L346.182 421.312L344.498 422.531L342.632 423.889L340.82 425.199L338.971 426.532L337.255 427.774L335.411 429.115L333.582 430.437L331.714 431.782L330.02 433.007L328.142 434.371L326.319 435.686L324.459 437.023L322.733 438.27L320.815 439.654L319.081 440.907L315.452 443.524L313.563 444.893L311.743 446.204L309.846 447.566L308.12 448.808L306.253 450.16L304.401 451.492L302.508 452.848L300.793 454.082L298.893 455.457L297.063 456.773L295.154 458.141L293.418 459.387L291.537 460.744L289.676 462.082L287.771 463.443L285.985 464.721L284.178 466.024L282.292 467.384L280.372 468.757L278.623 470.01L276.733 471.371L274.797 472.752L273.005 474.033L271.195 475.334L269.283 476.708L267.429 478.037L265.498 479.414L263.739 480.672L261.837 482.039L259.889 483.425L258.086 484.711L254.341 487.399L252.477 488.73L250.531 490.114L248.763 491.377L246.849 492.749L244.951 494.103L243.028 495.47L241.242 496.745L239.306 498.13L237.43 499.467L235.474 500.856L233.695 502.124L231.767 503.501L229.86 504.861L227.924 506.232L226.127 507.513L224.179 508.903L222.293 510.246L220.324 511.64L218.532 512.913L214.72 515.621L212.728 517.037L210.92 518.323L208.96 519.719L207.061 521.066L205.081 522.466L204.393 523H39.9058C28.9318 523 21.5238 516.297 22.0238 509.648Z" fill="#EB0038"/>
<path d="M336.708 271.308C344.737 312.328 352.766 353.349 360.796 394.37C331.715 362.858 299.699 327.812 271.89 297.072C248.69 308.174 225.491 319.277 202.291 330.379C209.835 313.415 217.378 296.451 224.922 279.486C178.135 275.538 131.349 271.589 84.5618 267.64C134.944 254.992 185.325 242.344 235.707 229.696C230.168 193.564 224.628 157.432 219.089 121.3C244.601 147.741 274.311 178.274 300.764 205.223C323.019 194.317 345.274 183.411 367.529 172.505C360.669 189.191 353.809 205.877 346.949 222.564C393.034 226.372 439.118 230.181 485.203 233.99C435.705 246.429 386.206 258.868 336.708 271.308Z" fill="white"/>
</svg>
