<svg width="556" height="530" viewBox="0 0 556 530" fill="none" xmlns="http://www.w3.org/2000/svg">
<path fill-rule="evenodd" clip-rule="evenodd" d="M0.025162 515.26C12.8186 347.291 25.6111 179.322 38.4035 11.3532C38.8361 5.68544 46.4124 0 56.315 0H499.525C509.428 0 517.004 5.68544 517.437 11.3532C530.229 179.322 543.021 347.291 555.815 515.26C556.342 522.186 548.527 529.168 536.949 529.168H18.8915C7.31342 529.168 -0.502361 522.186 0.025162 515.26Z" fill="white"/>
<path fill-rule="evenodd" clip-rule="evenodd" d="M25.023 494.557C36.709 339.204 48.3941 183.853 60.0792 28.5004C60.4744 23.2584 67.3948 18 76.4403 18H481.285C490.331 18 497.251 23.2584 497.646 28.5004C509.332 183.853 521.017 339.204 532.703 494.557C533.185 500.963 526.045 507.42 515.469 507.42H42.2562C31.6804 507.42 24.5411 500.963 25.023 494.557Z" fill="#020011"/>
<path fill-rule="evenodd" clip-rule="evenodd" d="M25.023 494.556C31.8778 403.394 38.7335 312.232 45.5883 221.071L45.7867 220.957L47.4987 219.818L49.2348 218.659L50.9343 217.52L52.7725 216.294L54.4556 215.176L56.211 214.003L57.896 212.873L61.3596 210.558L63.1843 209.339L64.8327 208.236L66.6584 207.015L68.3319 205.902L70.0766 204.733L71.753 203.609L73.5585 202.399L75.2531 201.269L76.9671 200.121L78.6482 198.99L80.4633 197.774L82.1262 196.664L83.8613 195.501L85.5271 194.381L87.3229 193.175L89.007 192.051L90.7103 190.908L92.3819 189.781L94.1873 188.57L95.8396 187.465L97.5661 186.306L99.2203 185.19L100.95 184.023L102.721 182.838L104.375 181.731L106.036 180.609L107.829 179.403L109.473 178.301L111.186 177.149L112.834 176.035L114.551 174.874L116.312 173.694L117.957 172.592L119.608 171.473L121.392 170.273L123.027 169.176L126.393 166.895L128.141 165.722L129.785 164.619L131.459 163.49L133.101 162.376L134.873 161.179L136.499 160.088L138.192 158.943L139.806 157.849L141.583 156.647L143.217 155.549L144.883 154.423L146.514 153.315L148.277 152.123L149.893 151.034L151.577 149.896L153.179 148.805L154.947 147.609L156.515 146.547L158.266 145.363L159.849 144.29L161.587 143.111L163.216 142.012L164.881 140.885L166.473 139.8L168.231 138.607L169.845 137.519L171.494 136.4L173.103 135.302L174.832 134.128L176.452 133.034L178.107 131.911L179.689 130.829L181.438 129.643L183.043 128.558L184.68 127.444L186.28 126.351L187.999 125.181L189.611 124.091L191.254 122.974L192.83 121.896L194.567 120.714L196.149 119.641L197.744 118.55L199.421 117.403L201.05 116.295L202.72 115.162L204.325 114.072C206.018 112.721 208.069 111.806 210.153 111.266L215.117 110.643C216.1 110.643 222.528 110.643 226.659 114.887C261.692 151.025 291.569 181.379 297.237 187.137C314.672 178.605 332.106 170.072 349.542 161.539C352.036 160.312 354.897 159.754 357.661 159.754C358.355 159.754 362.305 159.754 366.121 161.658C367.004 162.099 374.476 165.833 371.733 172.648C366.778 184.854 361.824 197.06 356.869 209.266C395.368 212.444 433.866 215.622 472.366 218.8C479.228 219.36 484.83 223.798 485.747 227.839C486.979 233.273 481.95 236.399 481.268 236.823L478.071 239.169L476.477 240.341L474.93 241.485L473.303 242.688L471.648 243.902L470.155 245L468.501 246.223L466.895 247.402L465.257 248.602L463.735 249.72L462.1 250.927L460.48 252.118L458.822 253.329L457.32 254.432L455.656 255.66L454.041 256.844L452.391 258.048L450.861 259.171L449.216 260.383L447.585 261.579L445.919 262.795L444.407 263.902L442.734 265.135L441.107 266.323L439.448 267.533L437.909 268.661L436.198 269.911L434.652 271.044L431.415 273.41L429.731 274.648L428.108 275.833L426.415 277.064L424.877 278.186L423.212 279.409L421.56 280.614L419.872 281.84L418.343 282.955L416.647 284.198L415.016 285.389L413.313 286.625L411.764 287.753L410.088 288.98L408.428 290.189L405.134 292.575L401.843 294.983L400.13 296.224L398.571 297.357L396.885 298.588L395.159 299.837L393.56 300.995L391.947 302.173L390.242 303.415L388.588 304.615L386.867 305.862L385.298 306.999L383.602 308.235L381.865 309.488L380.257 310.651L378.633 311.834L376.918 313.082L375.256 314.286L373.52 315.538L371.943 316.679L370.237 317.92L368.545 319.146L366.829 320.381L365.237 321.534L363.51 322.786L361.838 323.996L360.094 325.252L358.507 326.398L356.788 327.644L355.789 328.416L366.622 382.126C367.813 388.011 362.317 391.397 361.57 391.856L358.117 394.357L356.395 395.607L352.967 398.108L351.178 399.402L349.566 400.572L347.779 401.875L346.044 403.133L344.274 404.412L342.633 405.603L340.865 406.891L339.115 408.159L337.325 409.45L335.703 410.625L333.905 411.933L332.159 413.195L330.378 414.479L328.725 415.676L326.948 416.968L325.186 418.242L323.386 419.537L321.754 420.718L319.945 422.032L318.189 423.299L316.397 424.587L314.734 425.788L312.886 427.122L311.215 428.329L307.719 430.85L305.899 432.169L304.146 433.432L302.318 434.744L300.655 435.941L298.857 437.243L297.072 438.527L295.249 439.833L293.596 441.022L291.766 442.347L290.003 443.614L288.164 444.932L286.491 446.133L284.679 447.44L282.886 448.729L281.051 450.041L279.33 451.272L277.589 452.527L275.772 453.837L273.922 455.16L272.237 456.367L270.416 457.679L268.551 459.009L266.825 460.243L265.081 461.497L263.239 462.82L261.453 464.101L259.592 465.427L257.898 466.639L256.065 467.956L254.188 469.292L252.451 470.531L248.843 473.12L247.047 474.403L245.173 475.736L243.469 476.953L241.625 478.275L239.797 479.579L237.944 480.896L236.223 482.125L234.358 483.459L232.551 484.747L230.666 486.085L228.952 487.307L227.095 488.633L225.258 489.944L223.392 491.265L221.661 492.499L219.784 493.838L217.967 495.132L216.07 496.475L214.344 497.701L210.671 500.31L208.752 501.674L207.01 502.913L205.122 504.258L203.292 505.556L201.385 506.905L200.722 507.419H42.251C31.6783 507.419 24.5413 500.961 25.023 494.556Z" fill="#EB0038"/>
<path d="M327.235 264.933C334.97 304.453 342.705 343.973 350.442 383.494C322.424 353.135 291.579 319.37 264.787 289.755C242.436 300.451 220.085 311.148 197.734 321.844C205.002 305.5 212.269 289.156 219.537 272.812C174.461 269.008 129.386 265.204 84.3107 261.399C132.85 249.214 181.388 237.028 229.928 224.843C224.591 190.032 219.254 155.222 213.917 120.411C238.496 145.885 267.12 175.302 292.605 201.265C314.046 190.758 335.487 180.251 356.928 169.744C350.319 185.819 343.71 201.895 337.101 217.972C381.501 221.64 425.899 225.31 470.299 228.98C422.611 240.964 374.922 252.948 327.235 264.933Z" fill="white"/>
</svg>
