<?xml version="1.0" encoding="utf-8"?>
<!-- Generator: Adobe Illustrator 27.7.0, SVG Export Plug-In . SVG Version: 6.00 Build 0)  -->
<svg version="1.1" id="red" xmlns="http://www.w3.org/2000/svg" xmlns:xlink="http://www.w3.org/1999/xlink" x="0px" y="0px"
	 viewBox="0 0 507.13 508.652" enable-background="new 0 0 507.13 508.652" xml:space="preserve">
<g>
	<g>
		<path fill="#FFFFFF" d="M505.677,486.498c0.668,11.734-8.401,21.345-20.154,21.358l-463.916,0.509
			c-11.753,0.013-20.786-9.575-20.073-21.307L29.818,21.593C30.531,9.861,40.73,0.263,52.483,0.263h404.131
			c11.753,0,21.916,9.601,22.585,21.335L505.677,486.498z"/>
	</g>
</g>
<g>
	<g>
		<path fill="#F1003C" d="M485.567,466.374c0.668,11.734-8.401,21.345-20.154,21.358l-423.696,0.465
			c-11.753,0.013-20.786-9.575-20.073-21.307L47.476,41.761c0.713-11.732,10.912-21.33,22.666-21.33h368.657
			c11.753,0,21.916,9.601,22.585,21.335L485.567,466.374z"/>
	</g>
</g>
<g>
	<defs>
		<polygon id="SVGID_1_" points="486.783,487.709 20.348,488.22 48.773,20.431 460.168,20.431 		"/>
	</defs>
	<clipPath id="SVGID_00000034077025586862378420000008770261047763262910_">
		<use xlink:href="#SVGID_1_"  overflow="visible"/>
	</clipPath>
	<g clip-path="url(#SVGID_00000034077025586862378420000008770261047763262910_)">
		<g>
			<path d="M313.856,296.638l-9.609-60.751l130.18-29.445l-123.051-10.848l23.246-46.183l-61.99,27.586l-75.318-67.26l10.538,90.816
				L71.783,234.337l123.981,9.609l-18.597,45.563l67.57-30.375l76.558,85.547L313.856,296.638z"/>
			<path d="M304.247,235.887l9.609,60.751l120.571-90.196L304.247,235.887z"/>
			<path d="M177.167,289.509l18.597-45.563l-123.981-9.609l136.069-33.785l-10.538-90.816L-55.297,247.355v254.471l168.304-5.269
				L321.295,344.68l-76.558-85.547L177.167,289.509z"/>
			
				<line fill="none" stroke="#000000" stroke-width="6.5" stroke-linecap="round" stroke-linejoin="round" stroke-miterlimit="10" x1="313.856" y1="296.638" x2="434.427" y2="206.442"/>
			
				<polyline fill="none" stroke="#000000" stroke-width="6.5" stroke-linecap="round" stroke-linejoin="round" stroke-miterlimit="10" points="
				321.295,344.68 113.007,496.557 -55.297,501.826 -55.297,247.355 197.314,109.737 			"/>
			
				<polyline fill="none" stroke="#000000" stroke-width="6.5" stroke-linecap="round" stroke-linejoin="round" stroke-miterlimit="10" points="
				313.856,296.638 321.295,344.68 244.737,259.134 177.167,289.509 195.764,243.946 71.783,234.337 207.852,200.553 
				197.314,109.737 272.632,176.996 334.623,149.411 311.376,195.593 434.427,206.442 304.247,235.887 313.856,296.638 			"/>
		</g>
		<g>
			<path fill="#FBF8F8" d="M195.764,243.946l-18.597,45.563l67.57-30.375l73.459,79.968l-13.948-103.214l130.18-29.445
				l-123.051-10.848l23.246-46.183l-61.99,27.586l-75.318-67.26l10.538,90.816L71.783,234.337L195.764,243.946z"/>
		</g>
	</g>
</g>
</svg>
