<svg width="16" height="16" viewBox="0 0 16 16" fill="none" xmlns="http://www.w3.org/2000/svg">
<path fill-rule="evenodd" clip-rule="evenodd" d="M0.000488281 0.887719V2.66772H1.78049V15.1142H3.33399C3.52849 14.3337 4.22299 13.7647 5.05049 13.7647C5.4443 13.7648 5.82681 13.8964 6.13733 14.1386C6.44784 14.3808 6.66857 14.7198 6.76449 15.1017L6.76699 15.1137H9.26049C9.45499 14.3332 10.1495 13.7642 10.977 13.7642C11.3708 13.7643 11.7533 13.8959 12.0638 14.1381C12.3743 14.3803 12.5951 14.7193 12.691 15.1012L12.6935 15.1132H14.2335V2.66672H16V0.886719L0.000488281 0.887719ZM8.88699 10.2212H4.44699V8.88772H8.88699V10.2212ZM11.554 6.66772H4.44749V5.33422H11.554V6.66772Z" fill="#B1BAD3"/>
</svg>
