<svg width="16" height="16" viewBox="0 0 16 16" fill="none" xmlns="http://www.w3.org/2000/svg">
<path fill-rule="evenodd" clip-rule="evenodd" d="M4.42016 6.86968C5.57083 6.86968 6.50683 5.93901 6.50683 4.79568C6.50683 3.65168 5.57083 2.72168 4.42016 2.72168C3.2695 2.72168 2.3335 3.65168 2.3335 4.79568C2.3335 5.93901 3.2695 6.86968 4.42016 6.86968Z" fill="#B1BAD3"/>
<path fill-rule="evenodd" clip-rule="evenodd" d="M11.5803 9.12941C10.4297 9.12941 9.49365 10.0601 9.49365 11.2034C9.49365 12.3474 10.4297 13.2781 11.5803 13.2781C12.731 13.2781 13.667 12.3474 13.667 11.2034C13.667 10.0601 12.731 9.12941 11.5803 9.12941Z" fill="#B1BAD3"/>
<path fill-rule="evenodd" clip-rule="evenodd" d="M7.66337 5.33594H13.0914V4.33594H7.66337V5.33594Z" fill="#B1BAD3"/>
<path fill-rule="evenodd" clip-rule="evenodd" d="M2.90869 11.7446H8.33669V10.7446H2.90869V11.7446Z" fill="#B1BAD3"/>
</svg>
