<svg width="16" height="16" viewBox="0 0 16 16" fill="none" xmlns="http://www.w3.org/2000/svg">
<path fill-rule="evenodd" clip-rule="evenodd" d="M8.00001 8.07295C9.81534 8.07295 11.2927 6.59628 11.2927 4.78095C11.2927 2.96495 9.81534 1.48828 8.00001 1.48828C6.18467 1.48828 4.70801 2.96495 4.70801 4.78095C4.70801 6.59628 6.18467 8.07295 8.00001 8.07295Z" fill="#B1BAD3"/>
<path fill-rule="evenodd" clip-rule="evenodd" d="M13.0129 12.928C12.3355 10.786 10.5155 9.55871 8.01754 9.55871H7.99954C5.49487 9.54471 3.66554 10.7807 2.98687 12.928L2.9082 13.1774L3.13087 13.3134C4.4362 14.1094 6.0642 14.5127 7.9682 14.5127C7.98954 14.5127 8.01087 14.5127 8.03154 14.5127C9.9622 14.5127 11.5449 14.12 12.8689 13.3134L13.0915 13.1774L13.0129 12.928Z" fill="#B1BAD3"/>
</svg>
