<svg width="16" height="16" viewBox="0 0 16 16" fill="none" xmlns="http://www.w3.org/2000/svg">
<path d="M13.9947 8C13.9919 7.66581 13.9628 7.33233 13.9077 7.0025L13.9129 7.04L15.9997 5.54L14.1788 2.46L11.8122 3.4735C11.3126 3.07409 10.7513 2.75478 10.1493 2.5275L10.1073 2.5135L9.82091 0H6.17909L5.89265 2.5135C5.23947 2.7585 4.6753 3.0825 4.17659 3.482L4.18733 3.4735L1.82091 2.46L0 5.54L2.08689 7.04C2.03455 7.35648 2.00719 7.67642 2.00505 7.997V8C2.00812 8.3415 2.03779 8.6735 2.092 8.9975L2.08689 8.96L0 10.46L1.82091 13.54L4.18759 12.5265C4.68714 12.9259 5.24842 13.2452 5.85045 13.4725L5.8924 13.4865L6.17883 16H9.82066L10.1071 13.4865C10.7603 13.2415 11.3244 12.9175 11.8232 12.518L11.8124 12.5265L14.1791 13.54L16 10.46L13.9131 8.96C13.9622 8.6735 13.9919 8.3415 13.9949 8.003L13.9947 8ZM8 10.1665C7.56166 10.1665 7.13316 10.0394 6.76869 9.80138C6.40422 9.56332 6.12015 9.22496 5.95241 8.82908C5.78466 8.43321 5.74077 7.9976 5.82629 7.57734C5.9118 7.15708 6.12289 6.77104 6.43284 6.46805C6.7428 6.16506 7.1377 5.95872 7.56762 5.87513C7.99754 5.79153 8.44316 5.83444 8.84814 5.99841C9.25312 6.16239 9.59925 6.44008 9.84278 6.79636C10.0863 7.15264 10.2163 7.57151 10.2163 8C10.2122 9.195 9.22247 10.163 8 10.1665Z" fill="#B1BAD3"/>
</svg>
