<svg width="16" height="16" viewBox="0 0 16 16" fill="none" xmlns="http://www.w3.org/2000/svg">
<path fill-rule="evenodd" clip-rule="evenodd" d="M10.6937 7.4992C11.035 7.6892 11.421 7.79654 11.8384 7.79654C13.147 7.79654 14.209 6.73387 14.209 5.4252C14.209 4.1232 13.147 3.06054 11.8384 3.06054C11.579 3.06054 11.3324 3.1052 11.0984 3.18054C11.4397 3.7312 11.6357 4.38187 11.6357 5.0712C11.6357 6.0072 11.2877 6.85454 10.6937 7.4992Z" fill="#B1BAD3"/>
<path fill-rule="evenodd" clip-rule="evenodd" d="M4.16235 7.79633C4.57968 7.79633 4.96502 7.689 5.30702 7.499C4.71235 6.85433 4.36435 6.007 4.36435 5.071C4.36435 4.38233 4.56035 3.731 4.90235 3.181C4.66835 3.105 4.42168 3.06033 4.16235 3.06033C2.85368 3.06033 1.79102 4.123 1.79102 5.425C1.79102 6.73433 2.85368 7.79633 4.16235 7.79633Z" fill="#B1BAD3"/>
<path fill-rule="evenodd" clip-rule="evenodd" d="M8.00017 8.07934C9.6575 8.07934 11.0055 6.73134 11.0055 5.074C11.0055 3.41734 9.6575 2.06934 8.00017 2.06934C6.34283 2.06934 4.99483 3.41734 4.99483 5.074C4.99483 6.73134 6.34283 8.07934 8.00017 8.07934Z" fill="#B1BAD3"/>
<path fill-rule="evenodd" clip-rule="evenodd" d="M15.3976 11.0467C14.9109 9.52266 13.6209 8.65066 11.8509 8.65066H11.8382C11.1169 8.64399 10.4722 8.78933 9.92822 9.06733C11.4462 9.55466 12.5716 10.636 13.0896 12.166C13.9116 12.052 14.6262 11.7993 15.2582 11.4133L15.4669 11.2807L15.3976 11.0467Z" fill="#B1BAD3"/>
<path fill-rule="evenodd" clip-rule="evenodd" d="M6.04005 9.05506C5.50871 8.78972 4.88271 8.65039 4.17471 8.65039H4.14938C2.37938 8.65039 1.08938 9.52306 0.608715 11.0464L0.532715 11.2804L0.741382 11.4131C1.34205 11.7804 2.05071 12.0264 2.84071 12.1531C3.36538 10.6171 4.51005 9.52906 6.04005 9.05506Z" fill="#B1BAD3"/>
<path fill-rule="evenodd" clip-rule="evenodd" d="M7.97717 9.40299C7.96651 9.40299 7.95651 9.40299 7.94651 9.40299C5.67051 9.40299 4.01117 10.5217 3.39384 12.4743L3.31917 12.7103L3.53051 12.8397C4.73584 13.5743 6.17584 13.9317 7.93251 13.9317H7.98917C9.74717 13.9317 11.1878 13.5743 12.3932 12.8397L12.6052 12.7103L12.5305 12.4743C11.9125 10.5217 10.2538 9.40299 7.97717 9.40299Z" fill="#B1BAD3"/>
</svg>
