<svg width="24" height="24" viewBox="0 0 24 24" fill="none" xmlns="http://www.w3.org/2000/svg">
<path fill-rule="evenodd" clip-rule="evenodd" d="M18.1208 11.451C18.9296 10.2404 19.3613 8.81718 19.3612 7.36125C19.3618 6.39441 19.1718 5.43693 18.802 4.54358C18.4323 3.65023 17.8901 2.83852 17.2064 2.15485C16.5227 1.47119 15.711 0.928984 14.8177 0.559239C13.9243 0.189493 12.9668 -0.000541087 12 1.15716e-06C10.7283 2.42188e-05 9.47821 0.32952 8.37169 0.956376C7.26517 1.58323 6.33993 2.48606 5.68614 3.57688C5.03234 4.6677 4.6723 5.90929 4.6411 7.18065C4.6099 8.45201 4.90861 9.70977 5.50811 10.8313C6.10761 11.9529 6.98745 12.9001 8.06189 13.5804C9.13632 14.2608 10.3687 14.6512 11.6389 14.7136C12.9091 14.776 14.1738 14.5083 15.3098 13.9365C16.4457 13.3647 17.4142 12.5084 18.1208 11.451ZM15.8239 16.4888C17.0362 15.9862 18.1375 15.2497 19.065 14.3213C20.5088 14.8375 21.7578 15.7872 22.6411 17.0404C23.5245 18.2937 23.9991 19.7892 24 21.3225V24H0V21.3225C0.000898681 19.7892 0.475498 18.2937 1.35887 17.0404C2.24224 15.7872 3.49124 14.8375 4.935 14.3213C6.3318 15.7195 8.11209 16.6719 10.0505 17.0577C11.9888 17.4435 13.9981 17.2455 15.8239 16.4888Z" fill="#B1BAD3"/>
</svg>
