<svg width="24" height="24" viewBox="0 0 24 24" fill="none" xmlns="http://www.w3.org/2000/svg">
<path fill-rule="evenodd" clip-rule="evenodd" d="M3.84963 1.45999C5.75988 0.183574 8.09895 -0.281722 10.3523 0.166466C11.468 0.388387 12.5291 0.827894 13.475 1.45989C14.4208 2.09189 15.233 2.90401 15.865 3.84987C16.497 4.79573 16.9366 5.85682 17.1585 6.97254C17.3804 8.08827 17.3804 9.23679 17.1585 10.3525C16.9366 11.4682 16.4971 12.5293 15.8651 13.4752C15.2331 14.4211 14.421 15.2332 13.4751 15.8652C11.5649 17.1417 9.2258 17.607 6.97248 17.1588C4.71916 16.7106 2.73617 15.3856 1.45975 13.4754C0.18333 11.5651 -0.281966 9.22604 0.166222 6.97272C0.614411 4.7194 1.93937 2.73641 3.84963 1.45999ZM5.76663 12.9965C6.33559 13.3843 6.97576 13.6555 7.65015 13.7945C8.32454 13.9335 9.01978 13.9375 9.69573 13.8063C10.3717 13.6751 11.0149 13.4113 11.5883 13.03C12.1617 12.6488 12.6539 12.1578 13.0364 11.5852C13.419 11.0127 13.6843 10.3701 13.8171 9.69442C13.9498 9.01877 13.9474 8.32352 13.81 7.64881C13.6725 6.97411 13.4027 6.33332 13.0162 5.76347C12.6297 5.19361 12.1342 4.70598 11.5581 4.32874C10.4086 3.57592 9.0083 3.30746 7.66185 3.58177C6.3154 3.85607 5.13173 4.65095 4.36833 5.79348C3.60492 6.93601 3.32355 8.33377 3.58541 9.6827C3.84727 11.0316 4.63119 12.2226 5.76663 12.9965ZM14.4561 17.3739C15.612 16.6039 16.6036 15.6122 17.3736 14.4564L23.9999 21.0826L21.0824 24.0001L14.4561 17.3739Z" fill="#B1BAD3"/>
</svg>
