<svg width="52" height="52" viewBox="0 0 52 52" fill="none" xmlns="http://www.w3.org/2000/svg">
<g opacity="0.6">
<circle cx="26" cy="26" r="25.5" fill="#D56300"/>
<circle cx="26" cy="26" r="25.5" stroke="#C52806"/>
<circle cx="26" cy="26" r="25.5" stroke="#D56300" stroke-opacity="0.3"/>
<path d="M17.178 32.144C16.782 32.144 16.464 32.036 16.224 31.82C15.984 31.604 15.858 31.328 15.846 30.992C15.846 30.656 15.984 30.314 16.26 29.966L18.924 26.726V28.148L16.476 25.16C16.2 24.8 16.062 24.458 16.062 24.134C16.074 23.798 16.2 23.522 16.44 23.306C16.68 23.09 16.998 22.982 17.394 22.982C17.778 22.982 18.09 23.048 18.33 23.18C18.582 23.3 18.822 23.504 19.05 23.792L20.724 25.952H19.608L21.282 23.792C21.51 23.504 21.75 23.3 22.002 23.18C22.254 23.048 22.566 22.982 22.938 22.982C23.346 22.982 23.664 23.09 23.892 23.306C24.132 23.522 24.252 23.798 24.252 24.134C24.264 24.47 24.126 24.812 23.838 25.16L21.39 28.148V26.726L24.072 29.966C24.36 30.302 24.498 30.638 24.486 30.974C24.474 31.31 24.348 31.592 24.108 31.82C23.868 32.036 23.544 32.144 23.136 32.144C22.764 32.144 22.452 32.084 22.2 31.964C21.948 31.832 21.708 31.622 21.48 31.334L19.608 28.94H20.706L18.816 31.334C18.6 31.61 18.366 31.814 18.114 31.946C17.874 32.078 17.562 32.144 17.178 32.144ZM27.8928 32C27.3648 32 26.9808 31.88 26.7408 31.64C26.5128 31.388 26.3988 31.022 26.3988 30.542C26.3988 30.206 26.4708 29.906 26.6148 29.642C26.7708 29.378 26.9688 29.12 27.2088 28.868L30.3588 25.574C30.8268 25.07 31.1568 24.638 31.3488 24.278C31.5528 23.918 31.6548 23.558 31.6548 23.198C31.6548 22.742 31.5048 22.4 31.2048 22.172C30.9048 21.944 30.4728 21.83 29.9088 21.83C29.6208 21.83 29.3148 21.872 28.9908 21.956C28.6668 22.028 28.3188 22.16 27.9468 22.352C27.6228 22.496 27.3288 22.538 27.0648 22.478C26.8128 22.418 26.5968 22.286 26.4168 22.082C26.2488 21.878 26.1408 21.644 26.0928 21.38C26.0568 21.116 26.0988 20.858 26.2188 20.606C26.3388 20.342 26.5548 20.126 26.8668 19.958C27.4188 19.658 27.9888 19.442 28.5768 19.31C29.1768 19.178 29.7768 19.112 30.3768 19.112C31.3608 19.112 32.1828 19.256 32.8428 19.544C33.5148 19.832 34.0248 20.252 34.3728 20.804C34.7208 21.344 34.8948 22.016 34.8948 22.82C34.8948 23.324 34.8168 23.816 34.6608 24.296C34.5168 24.776 34.2768 25.256 33.9408 25.736C33.6168 26.216 33.1788 26.726 32.6268 27.266L29.7108 30.146V29.318H34.1568C34.6008 29.318 34.9368 29.432 35.1648 29.66C35.4048 29.888 35.5248 30.218 35.5248 30.65C35.5248 31.082 35.4048 31.418 35.1648 31.658C34.9368 31.886 34.6008 32 34.1568 32H27.8928Z" fill="white"/>
</g>
</svg>
