<svg width="51" height="51" viewBox="0 0 51 51" fill="none" xmlns="http://www.w3.org/2000/svg">
<path fill-rule="evenodd" clip-rule="evenodd" d="M23.4959 0.164598C22.715 0.244139 22.0233 0.362187 21.9585 0.426788C21.8939 0.491599 22.0553 1.92797 22.3173 3.61916L22.7935 6.6937H25.8623H28.9312L29.4074 3.61916C29.6693 1.92797 29.8347 0.495387 29.7748 0.435626C29.6344 0.295272 26.6137 -0.0228922 25.6519 0.00130677C25.2468 0.0114072 24.2765 0.0848461 23.4959 0.164598ZM9.55428 6.05527C8.26332 7.15074 5.44929 10.1912 5.45792 10.4814C5.46065 10.5754 6.53614 11.3689 9.71589 13.6228L10.7337 14.3442L12.8298 12.2561C13.9825 11.1078 14.8835 10.0582 14.832 9.92395C14.6954 9.56812 11.2568 4.81459 11.1325 4.80954C11.0746 4.80723 10.3644 5.3678 9.55428 6.05527ZM38.7366 7.2467C37.7739 8.58501 36.9442 9.7897 36.8926 9.92395C36.8411 10.0582 37.7421 11.1078 38.8948 12.2561L40.9909 14.3442L42.0087 13.6228C45.1885 11.3689 46.264 10.5754 46.2667 10.4814C46.2812 9.99844 41.0706 4.79039 40.5921 4.80954C40.5343 4.81186 39.6993 5.9086 38.7366 7.2467ZM22.9163 8.59658C21.1399 8.93852 20.3912 9.22639 20.3912 9.56686C20.3912 9.81474 20.5364 9.86987 20.9699 9.78591C21.2881 9.72446 22.2114 9.56412 23.0216 9.42966C25.86 8.95872 26.098 8.90149 26.0879 8.69275C26.0746 8.42066 24.1353 8.36174 22.9163 8.59658ZM30.4917 9.43092C30.4917 9.54771 31.2978 10.0157 32.2832 10.4708C33.2687 10.9262 34.361 11.5024 34.7105 11.7513C35.0657 12.0042 35.4952 12.1471 35.6833 12.0749C36.2512 11.8569 35.464 11.2027 33.3762 10.1575C31.5739 9.25521 30.4917 8.98271 30.4917 9.43092ZM13.9703 13.3192C12.9116 14.3776 12.1846 15.2774 12.1846 15.5286C12.1846 16.1986 12.6562 16.0166 13.342 15.0821C13.6892 14.6089 14.5641 13.7009 15.2861 13.0643C16.5312 11.9668 16.7509 11.5335 16.0621 11.5335C15.8936 11.5335 14.9523 12.3371 13.9703 13.3192ZM38.8325 15.2742C38.7768 15.3643 39.0478 15.9398 39.4346 16.5532C39.8213 17.1666 40.3962 18.2766 40.7121 19.0198C41.0281 19.7633 41.4145 20.3714 41.5706 20.3714C42.0157 20.3714 41.9086 19.7496 41.2083 18.2671C40.0027 15.7151 39.1915 14.6933 38.8325 15.2742ZM9.6879 20.4131C9.32302 21.5557 8.99371 23.8167 9.06588 24.6834C9.17446 25.9864 9.60794 25.8296 9.75461 24.4341C9.8251 23.762 9.9865 22.6913 10.1132 22.0548C10.4288 20.4688 10.4387 19.9011 10.1529 19.8024C10.0191 19.7561 9.80995 20.0309 9.6879 20.4131ZM0.961324 21.7678C0.588659 23.7273 0.674723 28.7116 1.08842 29.1253C1.14734 29.1842 2.57908 29.0182 4.27027 28.7562L7.34481 28.28V25.2061V22.1322L4.97752 21.7758C3.67561 21.5797 2.26512 21.3621 1.84301 21.2922C1.12651 21.1735 1.06843 21.2049 0.961324 21.7678ZM47.0627 21.7017L44.3798 22.1333V25.2066V28.28L47.4543 28.7562C49.1455 29.0182 50.5773 29.1842 50.6362 29.1253C51.0465 28.715 51.1364 23.738 50.7685 21.7918C50.6391 21.1073 50.7433 21.1098 47.0627 21.7017ZM41.9685 26.0003C41.8989 26.6657 41.7392 27.731 41.6137 28.3676C41.1563 30.6898 41.1567 30.6823 41.4989 30.6823C41.8614 30.6823 42.1463 29.9186 42.4748 28.0658C42.8003 26.2313 42.7656 24.7903 42.3959 24.7903C42.1851 24.7903 42.0575 25.1514 41.9685 26.0003ZM9.86992 30.4251C9.86992 31.3264 12.1097 35.3116 12.6162 35.3116C12.9865 35.3116 12.8197 34.7376 12.1042 33.5495C11.7128 32.8997 11.1811 31.8466 10.9225 31.2094C10.4703 30.0952 9.86992 29.648 9.86992 30.4251ZM37.1609 36.6051C35.6326 38.1438 35.1817 38.7149 35.4224 38.8072C35.9773 39.0202 39.54 35.6622 39.54 34.9266C39.54 34.3506 39.072 34.6808 37.1609 36.6051ZM8.02827 37.9946C6.61758 39.0074 5.46192 39.8832 5.46002 39.941C5.44382 40.4221 10.65 45.6301 11.1325 45.6156C11.2265 45.6128 12.0201 44.5374 14.2739 41.3576L14.9953 40.3398L12.9099 38.2465C11.7631 37.0952 10.7726 36.1533 10.7089 36.1533C10.6451 36.1533 9.43897 36.982 8.02827 37.9946ZM38.8174 38.2437L36.7293 40.3398L37.4507 41.3576C39.7046 44.5374 40.4981 45.6128 40.5921 45.6156C41.0751 45.6301 46.2831 40.4195 46.264 39.941C46.2589 39.8167 41.5054 36.3781 41.1495 36.2415C41.0153 36.19 39.9657 37.091 38.8174 38.2437ZM15.8755 38.4544C15.6989 38.7401 16.8982 39.5875 18.7019 40.4509C20.3199 41.2255 20.903 41.3568 21.1258 40.9963C21.1963 40.8823 20.443 40.4143 19.4519 39.9564C18.4608 39.4985 17.376 38.9289 17.0417 38.6907C16.3757 38.2166 16.0619 38.1528 15.8755 38.4544ZM29.8953 40.7958C29.6254 40.9041 28.6048 41.0834 27.6274 41.1945C25.7497 41.4079 25.3592 41.5314 25.5557 41.8494C25.9397 42.471 31.3334 41.5581 31.3334 40.8715C31.3334 40.5325 30.6432 40.4961 29.8953 40.7958ZM22.3173 46.8032C22.0553 48.4944 21.8892 49.9264 21.9486 49.9855C22.0077 50.0446 22.9125 50.1791 23.9592 50.2841C25.7026 50.459 29.4974 50.2641 29.776 49.9855C29.8354 49.9264 29.6693 48.4944 29.4074 46.8032L28.9312 43.7287H25.8623H22.7935L22.3173 46.8032Z" fill="white"/>
<path fill-rule="evenodd" clip-rule="evenodd" d="M19.3887 0.905207C16.6464 1.61392 11.343 4.19859 11.343 4.82629C11.343 4.93276 12.0825 6.0354 12.9862 7.27691C13.89 8.51842 14.7067 9.66272 14.8012 9.8197C15.0097 10.1665 10.9615 14.3289 10.564 14.1764C10.4235 14.1225 9.26527 13.3163 7.98987 12.385C6.71469 11.4534 5.58428 10.6915 5.47781 10.6915C4.83517 10.6915 2.25576 16.022 1.54747 18.8142C1.26402 19.9315 1.03214 20.9188 1.03214 21.0078C1.03214 21.0969 2.45251 21.3879 4.18853 21.6545L7.34492 22.1393V25.2109V28.2825L4.18853 28.7673C2.45251 29.0339 1.03214 29.3249 1.03214 29.4139C1.03214 30.1481 2.22041 33.9617 2.90324 35.4187C3.92171 37.5919 5.19521 39.7303 5.47107 39.7303C5.58113 39.7303 6.71469 38.9683 7.98987 38.0368C9.26527 37.1054 10.4235 36.2993 10.564 36.2454C10.9615 36.0929 15.0097 40.2553 14.8012 40.6021C14.7067 40.7591 13.89 41.9034 12.9862 43.1449C12.0825 44.3864 11.343 45.4922 11.343 45.6022C11.343 45.8781 13.4814 47.1516 15.6546 48.1701C17.1116 48.8529 20.9252 50.0412 21.6594 50.0412C21.7484 50.0412 22.0394 48.6208 22.306 46.8848L22.7908 43.7284H25.8624H28.934L29.4188 46.8848C29.6854 48.6208 29.9765 50.0412 30.0655 50.0412C30.1545 50.0412 31.1418 49.8093 32.2592 49.5258C35.0513 48.8175 40.3818 46.2381 40.3818 45.5955C40.3818 45.489 39.6424 44.3864 38.7386 43.1449C37.8348 41.9034 37.0182 40.7591 36.9237 40.6021C36.7151 40.2553 40.7633 36.0929 41.1608 36.2454C41.3014 36.2993 42.4596 37.1054 43.735 38.0368C45.0101 38.9683 46.1405 39.7303 46.247 39.7303C46.8897 39.7303 49.4691 34.3998 50.1774 31.6076C50.4608 30.4903 50.6927 29.503 50.6927 29.4139C50.6927 29.3249 49.2723 29.0339 47.5363 28.7673L44.3799 28.2825V25.2109V22.1393L47.5363 21.6545C49.2723 21.3879 50.6927 21.0969 50.6927 21.0078C50.6927 20.9188 50.4608 19.9315 50.1774 18.8142C49.4691 16.022 46.8897 10.6915 46.247 10.6915C46.1405 10.6915 45.0101 11.4534 43.735 12.385C42.4596 13.3163 41.3014 14.1225 41.1608 14.1764C40.7633 14.3289 36.7151 10.1665 36.9237 9.8197C37.0182 9.66272 37.8348 8.51842 38.7386 7.27691C39.6424 6.0354 40.3818 4.93276 40.3818 4.82629C40.3818 4.18365 35.0513 1.60424 32.2592 0.895948C31.1418 0.612504 30.1545 0.380615 30.0655 0.380615C29.9765 0.380615 29.6854 1.80099 29.4188 3.53701L28.934 6.6934H25.8624H22.7908L22.306 3.53701C22.0028 1.56384 21.7307 0.384403 21.5796 0.390926C21.4468 0.396608 20.461 0.628076 19.3887 0.905207ZM22.9164 8.59628C21.14 8.93822 20.3913 9.22609 20.3913 9.56656C20.3913 9.81444 20.5365 9.86957 20.97 9.78561C21.2882 9.72416 22.2115 9.56382 23.0217 9.42936C25.8601 8.95842 26.0981 8.90119 26.088 8.69245C26.0747 8.42037 24.1354 8.36145 22.9164 8.59628ZM30.4918 9.43062C30.4918 9.54741 31.2979 10.0154 32.2834 10.4705C33.2688 10.9259 34.3611 11.5021 34.7106 11.751C35.0658 12.0039 35.4953 12.1468 35.6834 12.0746C36.2514 11.8566 35.4642 11.2024 33.3763 10.1572C31.574 9.25491 30.4918 8.98241 30.4918 9.43062ZM13.9704 13.3189C12.9117 14.3773 12.1847 15.2771 12.1847 15.5283C12.1847 16.1983 12.6563 16.0163 13.3421 15.0818C13.6893 14.6086 14.5642 13.7006 15.2862 13.064C16.5313 11.9665 16.751 11.5332 16.0622 11.5332C15.8937 11.5332 14.9525 12.3368 13.9704 13.3189ZM38.8327 15.2739C38.7769 15.364 39.0479 15.9395 39.4347 16.5529C39.8214 17.1663 40.3963 18.2763 40.7122 19.0195C41.0282 19.763 41.4146 20.3711 41.5707 20.3711C42.0158 20.3711 41.9087 19.7493 41.2084 18.2668C40.0028 15.7148 39.1916 14.693 38.8327 15.2739ZM9.68801 20.4128C9.32313 21.5554 8.99382 23.8164 9.06599 24.6831C9.17457 25.9861 9.60805 25.8293 9.75472 24.4338C9.82521 23.7617 9.98661 22.691 10.1133 22.0545C10.4289 20.4685 10.4388 19.9008 10.1531 19.8021C10.0192 19.7558 9.81006 20.0306 9.68801 20.4128ZM41.9686 26C41.899 26.6654 41.7393 27.7307 41.6139 28.3673C41.1564 30.6895 41.1568 30.682 41.499 30.682C41.8615 30.682 42.1464 29.9183 42.4749 28.0655C42.8004 26.231 42.7657 24.79 42.396 24.79C42.1852 24.79 42.0576 25.1511 41.9686 26ZM9.87003 30.4248C9.87003 31.3261 12.1098 35.3113 12.6163 35.3113C12.9867 35.3113 12.8198 34.7373 12.1043 33.5492C11.7129 32.8994 11.1812 31.8463 10.9226 31.2091C10.4704 30.0949 9.87003 29.6477 9.87003 30.4248ZM37.161 36.6048C35.6327 38.1435 35.1818 38.7146 35.4225 38.8069C35.9774 39.0199 39.5401 35.6619 39.5401 34.9263C39.5401 34.3503 39.0721 34.6805 37.161 36.6048ZM15.8756 38.4541C15.699 38.7398 16.8983 39.5872 18.702 40.4506C20.32 41.2252 20.9031 41.3565 21.1259 40.996C21.1964 40.882 20.4431 40.414 19.452 39.9561C18.4609 39.4982 17.3761 38.9286 17.0418 38.6904C16.3758 38.2163 16.062 38.1525 15.8756 38.4541ZM29.8954 40.7955C29.6255 40.9038 28.6049 41.0831 27.6275 41.1942C25.7498 41.4076 25.3593 41.5311 25.5558 41.8491C25.9398 42.4707 31.3335 41.5578 31.3335 40.8712C31.3335 40.5322 30.6433 40.4958 29.8954 40.7955Z" fill="black"/>
<circle cx="25.8621" cy="25.2108" r="17.6758" fill="black"/>
<path d="M14.296 20.2806V29.383H12.1005V22.334H12.0471L10.0115 23.5785V21.6762L12.256 20.2806H14.296ZM20.0728 29.6052C19.2787 29.6052 18.5942 29.417 18.0194 29.0407C17.4446 28.6615 17.0016 28.1178 16.6905 27.4096C16.3794 26.6985 16.2253 25.8437 16.2283 24.8451C16.2313 23.8466 16.3868 22.9992 16.695 22.3029C17.0061 21.6036 17.4476 21.0718 18.0194 20.7073C18.5942 20.3399 19.2787 20.1562 20.0728 20.1562C20.8669 20.1562 21.5513 20.3399 22.1261 20.7073C22.7039 21.0718 23.1484 21.6036 23.4595 22.3029C23.7706 23.0021 23.9247 23.8496 23.9217 24.8451C23.9217 25.8466 23.7662 26.7029 23.455 27.4141C23.1439 28.1252 22.701 28.6689 22.1261 29.0452C21.5543 29.4185 20.8698 29.6052 20.0728 29.6052ZM20.0728 27.8052C20.5469 27.8052 20.9306 27.5637 21.2239 27.0807C21.5172 26.5948 21.6624 25.8496 21.6595 24.8451C21.6595 24.1873 21.5928 23.6451 21.4595 23.2184C21.3261 22.7888 21.1409 22.4688 20.9039 22.2584C20.6669 22.0481 20.3898 21.9429 20.0728 21.9429C19.6017 21.9429 19.2209 22.1814 18.9305 22.6584C18.6402 23.1325 18.4935 23.8614 18.4905 24.8451C18.4876 25.5118 18.5513 26.0644 18.6817 26.5029C18.815 26.9415 19.0017 27.2689 19.2417 27.4852C19.4817 27.6985 19.7587 27.8052 20.0728 27.8052ZM28.9462 29.6052C28.1521 29.6052 27.4677 29.417 26.8929 29.0407C26.318 28.6615 25.8751 28.1178 25.564 27.4096C25.2528 26.6985 25.0988 25.8437 25.1017 24.8451C25.1047 23.8466 25.2602 22.9992 25.5684 22.3029C25.8795 21.6036 26.321 21.0718 26.8929 20.7073C27.4677 20.3399 28.1521 20.1562 28.9462 20.1562C29.7403 20.1562 30.4248 20.3399 30.9996 20.7073C31.5774 21.0718 32.0218 21.6036 32.3329 22.3029C32.644 23.0021 32.7981 23.8496 32.7951 24.8451C32.7951 25.8466 32.6396 26.7029 32.3285 27.4141C32.0174 28.1252 31.5744 28.6689 30.9996 29.0452C30.4277 29.4185 29.7433 29.6052 28.9462 29.6052ZM28.9462 27.8052C29.4203 27.8052 29.804 27.5637 30.0973 27.0807C30.3907 26.5948 30.5359 25.8496 30.5329 24.8451C30.5329 24.1873 30.4662 23.6451 30.3329 23.2184C30.1996 22.7888 30.0144 22.4688 29.7773 22.2584C29.5403 22.0481 29.2633 21.9429 28.9462 21.9429C28.4751 21.9429 28.0944 22.1814 27.804 22.6584C27.5136 23.1325 27.3669 23.8614 27.364 24.8451C27.361 25.5118 27.4247 26.0644 27.5551 26.5029C27.6884 26.9415 27.8751 27.2689 28.1151 27.4852C28.3551 27.6985 28.6321 27.8052 28.9462 27.8052ZM34.0729 29.383V20.2806H36.273V24.1296H36.393L39.4019 20.2806H41.993L38.7663 24.3429L42.0508 29.383H39.4197L37.153 25.8051L36.273 26.9163V29.383H34.0729Z" fill="white"/>
</svg>
