<svg width="51" height="51" viewBox="0 0 51 51" fill="none" xmlns="http://www.w3.org/2000/svg">
<path fill-rule="evenodd" clip-rule="evenodd" d="M23.3513 0.164598C22.5704 0.244139 21.8788 0.362187 21.8139 0.426788C21.7493 0.491599 21.9107 1.92797 22.1727 3.61916L22.6489 6.6937H25.7178H28.7866L29.2628 3.61916C29.5248 1.92797 29.6902 0.495387 29.6302 0.435626C29.4899 0.295272 26.4692 -0.0228922 25.5073 0.00130677C25.1023 0.0114072 24.132 0.0848461 23.3513 0.164598ZM9.40975 6.05527C8.11879 7.15074 5.30476 10.1912 5.31339 10.4814C5.31612 10.5754 6.39161 11.3689 9.57136 13.6228L10.5892 14.3442L12.6852 12.2561C13.838 11.1078 14.739 10.0582 14.6874 9.92395C14.5509 9.56812 11.1123 4.81459 10.9879 4.80954C10.9301 4.80723 10.2199 5.3678 9.40975 6.05527ZM38.5921 7.2467C37.6294 8.58501 36.7997 9.7897 36.7481 9.92395C36.6965 10.0582 37.5976 11.1078 38.7503 12.2561L40.8464 14.3442L41.8642 13.6228C45.0439 11.3689 46.1194 10.5754 46.1222 10.4814C46.1367 9.99844 40.9261 4.79039 40.4476 4.80954C40.3897 4.81186 39.5548 5.9086 38.5921 7.2467ZM22.7718 8.59658C20.9954 8.93852 20.2467 9.22639 20.2467 9.56686C20.2467 9.81474 20.3919 9.86987 20.8254 9.78591C21.1435 9.72446 22.0669 9.56412 22.877 9.42966C25.7155 8.95872 25.9535 8.90149 25.9434 8.69275C25.9301 8.42066 23.9908 8.36174 22.7718 8.59658ZM30.3471 9.43092C30.3471 9.54771 31.1533 10.0157 32.1387 10.4708C33.1241 10.9262 34.2165 11.5024 34.566 11.7513C34.9212 12.0042 35.3507 12.1471 35.5388 12.0749C36.1067 11.8569 35.3195 11.2027 33.2317 10.1575C31.4294 9.25521 30.3471 8.98271 30.3471 9.43092ZM13.8258 13.3192C12.7671 14.3776 12.0401 15.2774 12.0401 15.5286C12.0401 16.1986 12.5116 16.0166 13.1974 15.0821C13.5446 14.6089 14.4196 13.7009 15.1415 13.0643C16.3866 11.9668 16.6063 11.5335 15.9176 11.5335C15.749 11.5335 14.8078 12.3371 13.8258 13.3192ZM38.688 15.2742C38.6323 15.3643 38.9033 15.9398 39.29 16.5532C39.6768 17.1666 40.2517 18.2766 40.5675 19.0198C40.8836 19.7633 41.2699 20.3714 41.4261 20.3714C41.8711 20.3714 41.764 19.7496 41.0637 18.2671C39.8582 15.7151 39.047 14.6933 38.688 15.2742ZM9.54337 20.4131C9.17849 21.5557 8.84918 23.8167 8.92135 24.6834C9.02993 25.9864 9.46341 25.8296 9.61008 24.4341C9.68057 23.762 9.84197 22.6913 9.96864 22.0548C10.2843 20.4688 10.2942 19.9011 10.0084 19.8024C9.87458 19.7561 9.66542 20.0309 9.54337 20.4131ZM0.816792 21.7678C0.444128 23.7273 0.530192 28.7116 0.94389 29.1253C1.00281 29.1842 2.43455 29.0182 4.12574 28.7562L7.20028 28.28V25.2061V22.1322L4.83298 21.7758C3.53108 21.5797 2.12059 21.3621 1.69848 21.2922C0.981976 21.1735 0.923899 21.2049 0.816792 21.7678ZM46.9182 21.7017L44.2353 22.1333V25.2066V28.28L47.3098 28.7562C49.001 29.0182 50.4327 29.1842 50.4917 29.1253C50.902 28.715 50.9918 23.738 50.624 21.7918C50.4946 21.1073 50.5988 21.1098 46.9182 21.7017ZM41.824 26.0003C41.7543 26.6657 41.5946 27.731 41.4692 28.3676C41.0117 30.6898 41.0122 30.6823 41.3543 30.6823C41.7169 30.6823 42.0018 29.9186 42.3303 28.0658C42.6558 26.2313 42.6211 24.7903 42.2514 24.7903C42.0405 24.7903 41.913 25.1514 41.824 26.0003ZM9.72539 30.4251C9.72539 31.3264 11.9652 35.3116 12.4717 35.3116C12.842 35.3116 12.6751 34.7376 11.9597 33.5495C11.5683 32.8997 11.0366 31.8466 10.7779 31.2094C10.3257 30.0952 9.72539 29.648 9.72539 30.4251ZM37.0164 36.6051C35.4881 38.1438 35.0371 38.7149 35.2779 38.8072C35.8327 39.0202 39.3955 35.6622 39.3955 34.9266C39.3955 34.3506 38.9275 34.6808 37.0164 36.6051ZM7.88374 37.9946C6.47304 39.0074 5.31738 39.8832 5.31549 39.941C5.29929 40.4221 10.5054 45.6301 10.9879 45.6156C11.082 45.6128 11.8755 44.5374 14.1294 41.3576L14.8507 40.3398L12.7654 38.2465C11.6186 37.0952 10.6281 36.1533 10.5644 36.1533C10.5006 36.1533 9.29444 36.982 7.88374 37.9946ZM38.6729 38.2437L36.5848 40.3398L37.3061 41.3576C39.56 44.5374 40.3535 45.6128 40.4476 45.6156C40.9305 45.6301 46.1386 40.4195 46.1194 39.941C46.1144 39.8167 41.3608 36.3781 41.005 36.2415C40.8708 36.19 39.8212 37.091 38.6729 38.2437ZM15.731 38.4544C15.5544 38.7401 16.7536 39.5875 18.5574 40.4509C20.1754 41.2255 20.7585 41.3568 20.9813 40.9963C21.0518 40.8823 20.2985 40.4143 19.3074 39.9564C18.3162 39.4985 17.2315 38.9289 16.8971 38.6907C16.2311 38.2166 15.9174 38.1528 15.731 38.4544ZM29.7508 40.7958C29.4808 40.9041 28.4603 41.0834 27.4828 41.1945C25.6052 41.4079 25.2146 41.5314 25.4112 41.8494C25.7952 42.471 31.1888 41.5581 31.1888 40.8715C31.1888 40.5325 30.4987 40.4961 29.7508 40.7958ZM22.1727 46.8032C21.9107 48.4944 21.7447 49.9264 21.8041 49.9855C21.8632 50.0446 22.768 50.1791 23.8147 50.2841C25.5581 50.459 29.3529 50.2641 29.6315 49.9855C29.6908 49.9264 29.5248 48.4944 29.2628 46.8032L28.7866 43.7287H25.7178H22.6489L22.1727 46.8032Z" fill="white"/>
<path fill-rule="evenodd" clip-rule="evenodd" d="M19.2442 0.905176C16.5019 1.61389 11.1985 4.19856 11.1985 4.82626C11.1985 4.93273 11.938 6.03537 12.8418 7.27688C13.7455 8.51839 14.5622 9.66269 14.6567 9.81967C14.8652 10.1665 10.817 14.3289 10.4195 14.1763C10.279 14.1225 9.1208 13.3163 7.8454 12.385C6.57022 11.4534 5.43981 10.6915 5.33334 10.6915C4.6907 10.6915 2.11129 16.022 1.403 18.8141C1.11955 19.9315 0.887665 20.9188 0.887665 21.0078C0.887665 21.0968 2.30804 21.3878 4.04406 21.6545L7.20045 22.1393V25.2109V28.2825L4.04406 28.7673C2.30804 29.0339 0.887665 29.3249 0.887665 29.4139C0.887665 30.1481 2.07594 33.9616 2.75877 35.4186C3.77724 37.5919 5.05073 39.7303 5.3266 39.7303C5.43666 39.7303 6.57022 38.9683 7.8454 38.0368C9.1208 37.1054 10.279 36.2993 10.4195 36.2454C10.817 36.0928 14.8652 40.2553 14.6567 40.6021C14.5622 40.759 13.7455 41.9033 12.8418 43.1448C11.938 44.3864 11.1985 45.4921 11.1985 45.6022C11.1985 45.8781 13.3369 47.1516 15.5102 48.17C16.9672 48.8529 20.7807 50.0411 21.5149 50.0411C21.6039 50.0411 21.8949 48.6208 22.1615 46.8848L22.6464 43.7284H25.7179H28.7895L29.2744 46.8848C29.541 48.6208 29.832 50.0411 29.921 50.0411C30.01 50.0411 30.9973 49.8093 32.1147 49.5258C34.9068 48.8175 40.2373 46.2381 40.2373 45.5955C40.2373 45.489 39.4979 44.3864 38.5941 43.1448C37.6903 41.9033 36.8737 40.759 36.7792 40.6021C36.5707 40.2553 40.6188 36.0928 41.0163 36.2454C41.1569 36.2993 42.3151 37.1054 43.5905 38.0368C44.8657 38.9683 45.9961 39.7303 46.1025 39.7303C46.7452 39.7303 49.3246 34.3997 50.0329 31.6076C50.3163 30.4902 50.5482 29.5029 50.5482 29.4139C50.5482 29.3249 49.1278 29.0339 47.3918 28.7673L44.2354 28.2825V25.2109V22.1393L47.3918 21.6545C49.1278 21.3878 50.5482 21.0968 50.5482 21.0078C50.5482 20.9188 50.3163 19.9315 50.0329 18.8141C49.3246 16.022 46.7452 10.6915 46.1025 10.6915C45.9961 10.6915 44.8657 11.4534 43.5905 12.385C42.3151 13.3163 41.1569 14.1225 41.0163 14.1763C40.6188 14.3289 36.5707 10.1665 36.7792 9.81967C36.8737 9.66269 37.6903 8.51839 38.5941 7.27688C39.4979 6.03537 40.2373 4.93273 40.2373 4.82626C40.2373 4.18362 34.9068 1.60421 32.1147 0.895918C30.9973 0.612474 30.01 0.380585 29.921 0.380585C29.832 0.380585 29.541 1.80096 29.2744 3.53698L28.7895 6.69337H25.7179H22.6464L22.1615 3.53698C21.8583 1.56381 21.5862 0.384372 21.4351 0.390896C21.3024 0.396577 20.3165 0.628045 19.2442 0.905176ZM22.772 8.59625C20.9956 8.93819 20.2469 9.22606 20.2469 9.56653C20.2469 9.81441 20.3921 9.86954 20.8255 9.78558C21.1437 9.72413 22.0671 9.56379 22.8772 9.42933C25.7156 8.95839 25.9536 8.90116 25.9435 8.69242C25.9303 8.42033 23.991 8.36141 22.772 8.59625ZM30.3473 9.43059C30.3473 9.54738 31.1535 10.0154 32.1389 10.4705C33.1243 10.9259 34.2166 11.502 34.5662 11.751C34.9213 12.0039 35.3508 12.1468 35.5389 12.0746C36.1069 11.8566 35.3197 11.2024 33.2318 10.1572C31.4295 9.25488 30.3473 8.98238 30.3473 9.43059ZM13.8259 13.3188C12.7673 14.3773 12.0402 15.2771 12.0402 15.5283C12.0402 16.1983 12.5118 16.0163 13.1976 15.0818C13.5448 14.6085 14.4197 13.7006 15.1417 13.064C16.3868 11.9664 16.6065 11.5332 15.9178 11.5332C15.7492 11.5332 14.808 12.3368 13.8259 13.3188ZM38.6882 15.2739C38.6324 15.364 38.9035 15.9395 39.2902 16.5529C39.677 17.1663 40.2519 18.2763 40.5677 19.0195C40.8838 19.7629 41.2701 20.3711 41.4263 20.3711C41.8713 20.3711 41.7642 19.7493 41.0639 18.2668C39.8584 15.7148 39.0472 14.6929 38.6882 15.2739ZM9.54354 20.4127C9.17866 21.5553 8.84935 23.8164 8.92152 24.6831C9.0301 25.9861 9.46358 25.8293 9.61025 24.4338C9.68074 23.7617 9.84214 22.691 9.96881 22.0545C10.2845 20.4685 10.2943 19.9008 10.0086 19.8021C9.87475 19.7558 9.66559 20.0306 9.54354 20.4127ZM41.8242 26C41.7545 26.6653 41.5948 27.7307 41.4694 28.3673C41.0119 30.6895 41.0123 30.6819 41.3545 30.6819C41.7171 30.6819 42.002 29.9183 42.3305 28.0655C42.656 26.231 42.6213 24.79 42.2515 24.79C42.0407 24.79 41.9132 25.1511 41.8242 26ZM9.72556 30.4248C9.72556 31.3261 11.9653 35.3113 12.4718 35.3113C12.8422 35.3113 12.6753 34.7373 11.9599 33.5492C11.5685 32.8994 11.0367 31.8462 10.7781 31.2091C10.3259 30.0949 9.72556 29.6477 9.72556 30.4248ZM37.0166 36.6048C35.4882 38.1434 35.0373 38.7145 35.278 38.8069C35.8329 39.0199 39.3956 35.6619 39.3956 34.9262C39.3956 34.3503 38.9277 34.6805 37.0166 36.6048ZM15.7311 38.454C15.5546 38.7398 16.7538 39.5872 18.5576 40.4506C20.1755 41.2251 20.7586 41.3564 20.9815 40.996C21.052 40.8819 20.2986 40.4139 19.3075 39.9561C18.3164 39.4982 17.2317 38.9285 16.8973 38.6903C16.2313 38.2162 15.9176 38.1525 15.7311 38.454ZM29.751 40.7954C29.481 40.9038 28.4604 41.0831 27.483 41.1942C25.6054 41.4076 25.2148 41.5311 25.4114 41.849C25.7954 42.4706 31.189 41.5578 31.189 40.8712C31.189 40.5322 30.4988 40.4958 29.751 40.7954Z" fill="#1D0FA3"/>
<circle cx="25.718" cy="25.2107" r="17.6758" fill="#1D0FA3"/>
<path d="M12.4513 30.6876V28.9295L16.1402 25.6998C16.4168 25.4496 16.6522 25.2208 16.8464 25.0134C17.0406 24.8027 17.1888 24.592 17.2908 24.3813C17.3929 24.1673 17.4439 23.9352 17.4439 23.685C17.4439 23.4052 17.383 23.1665 17.2612 22.969C17.1394 22.7681 16.9715 22.6134 16.7575 22.5047C16.5435 22.3961 16.2982 22.3418 16.0217 22.3418C15.7419 22.3418 15.4966 22.3994 15.2859 22.5146C15.0752 22.6266 14.9106 22.7895 14.7921 23.0035C14.6768 23.2175 14.6192 23.4776 14.6192 23.7838H12.3031C12.3031 23.0957 12.4579 22.5015 12.7673 22.001C13.0768 21.5006 13.5114 21.1154 14.0711 20.8455C14.634 20.5722 15.2875 20.4356 16.0316 20.4356C16.7987 20.4356 17.4653 20.564 18.0316 20.8208C18.5979 21.0776 19.0357 21.4364 19.3452 21.8973C19.658 22.355 19.8143 22.8866 19.8143 23.4924C19.8143 23.8776 19.737 24.2595 19.5822 24.6381C19.4275 25.0167 19.1493 25.4348 18.7477 25.8924C18.3493 26.3501 17.783 26.8982 17.0489 27.5369L15.839 28.653V28.7172H19.9378V30.6876H12.4513ZM25.1909 30.8258C24.4535 30.8258 23.7983 30.6925 23.2255 30.4258C22.6526 30.1592 22.2 29.7921 21.8674 29.3246C21.5382 28.8571 21.367 28.3205 21.3539 27.7147H23.7243C23.744 28.0867 23.8955 28.3863 24.1786 28.6135C24.4617 28.8373 24.7992 28.9493 25.1909 28.9493C25.4971 28.9493 25.7687 28.8818 26.0058 28.7468C26.2428 28.6118 26.4288 28.4225 26.5638 28.1789C26.6988 27.932 26.7646 27.6488 26.7613 27.3295C26.7646 27.0036 26.6971 26.7188 26.5589 26.4752C26.4239 26.2315 26.2362 26.0422 25.9959 25.9073C25.7588 25.769 25.4856 25.6998 25.1761 25.6998C24.8831 25.6966 24.6049 25.7608 24.3415 25.8924C24.0815 26.0241 23.8839 26.2036 23.7489 26.4307L21.5909 26.0258L22.0304 20.5739H28.5194V22.5443H24.0403L23.8082 24.9295H23.8675C24.0354 24.6496 24.3053 24.4192 24.6774 24.2381C25.0527 24.0537 25.479 23.9616 25.9564 23.9616C26.5622 23.9616 27.1021 24.1031 27.5762 24.3863C28.0535 24.6661 28.4288 25.0546 28.7021 25.5517C28.9786 26.0488 29.1169 26.6184 29.1169 27.2604C29.1169 27.955 28.9523 28.5707 28.6231 29.1073C28.2972 29.6439 27.8395 30.0653 27.2502 30.3715C26.6642 30.6744 25.9778 30.8258 25.1909 30.8258ZM30.4787 30.6876V20.5739H32.9231V24.8505H33.0565L36.3997 20.5739H39.2788L35.6935 25.0875L39.343 30.6876H36.4195L33.9009 26.7122L32.9231 27.9468V30.6876H30.4787Z" fill="white"/>
</svg>
