<svg width="59" height="59" viewBox="0 0 59 59" fill="none" xmlns="http://www.w3.org/2000/svg">
<g filter="url(#filter0_f_60_312)">
<circle cx="29.5" cy="29.5" r="27.5" fill="#F1A430"/>
</g>
<path fill-rule="evenodd" clip-rule="evenodd" d="M26.7712 4.1646C25.9904 4.24414 25.2987 4.36219 25.2339 4.42679C25.1693 4.4916 25.3307 5.92797 25.5926 7.61916L26.0688 10.6937H29.1377H32.2065L32.6827 7.61916C32.9447 5.92797 33.1101 4.49539 33.0501 4.43563C32.9098 4.29527 29.8891 3.97711 28.9273 4.00131C28.5222 4.01141 27.5519 4.08485 26.7712 4.1646ZM12.8297 10.0553C11.5387 11.1507 8.72468 14.1912 8.73331 14.4814C8.73604 14.5754 9.81153 15.3689 12.9913 17.6228L14.0091 18.3442L16.1052 16.2561C17.2579 15.1078 18.1589 14.0582 18.1074 13.9239C17.9708 13.5681 14.5322 8.81459 14.4079 8.80954C14.35 8.80723 13.6398 9.3678 12.8297 10.0553ZM42.012 11.2467C41.0493 12.585 40.2196 13.7897 40.168 13.9239C40.1165 14.0582 41.0175 15.1078 42.1702 16.2561L44.2663 18.3442L45.2841 17.6228C48.4639 15.3689 49.5393 14.5754 49.5421 14.4814C49.5566 13.9984 44.346 8.79039 43.8675 8.80954C43.8097 8.81186 42.9747 9.9086 42.012 11.2467ZM26.1917 12.5966C24.4153 12.9385 23.6666 13.2264 23.6666 13.5669C23.6666 13.8147 23.8118 13.8699 24.2453 13.7859C24.5635 13.7245 25.4868 13.5641 26.2969 13.4297C29.1354 12.9587 29.3734 12.9015 29.3633 12.6927C29.35 12.4207 27.4107 12.3617 26.1917 12.5966ZM33.7671 13.4309C33.7671 13.5477 34.5732 14.0157 35.5586 14.4708C36.5441 14.9262 37.6364 15.5024 37.9859 15.7513C38.3411 16.0042 38.7706 16.1471 38.9587 16.0749C39.5266 15.8569 38.7394 15.2027 36.6516 14.1575C34.8493 13.2552 33.7671 12.9827 33.7671 13.4309ZM17.2457 17.3192C16.187 18.3776 15.46 19.2774 15.46 19.5286C15.46 20.1986 15.9316 20.0166 16.6173 19.0821C16.9645 18.6089 17.8395 17.7009 18.5615 17.0643C19.8066 15.9668 20.0262 15.5335 19.3375 15.5335C19.169 15.5335 18.2277 16.3371 17.2457 17.3192ZM42.1079 19.2742C42.0522 19.3643 42.3232 19.9398 42.71 20.5532C43.0967 21.1666 43.6716 22.2766 43.9875 23.0198C44.3035 23.7633 44.6899 24.3714 44.846 24.3714C45.291 24.3714 45.1839 23.7496 44.4836 22.2671C43.2781 19.7151 42.4669 18.6933 42.1079 19.2742ZM12.9633 24.4131C12.5984 25.5557 12.2691 27.8167 12.3413 28.6834C12.4499 29.9864 12.8833 29.8296 13.03 28.4341C13.1005 27.762 13.2619 26.6913 13.3886 26.0548C13.7042 24.4688 13.7141 23.9011 13.4283 23.8024C13.2945 23.7561 13.0853 24.0309 12.9633 24.4131ZM4.23671 25.7678C3.86405 27.7273 3.95011 32.7116 4.36381 33.1253C4.42273 33.1842 5.85447 33.0182 7.54566 32.7562L10.6202 32.28V29.2061V26.1322L8.25291 25.7758C6.951 25.5797 5.54051 25.3621 5.1184 25.2922C4.4019 25.1735 4.34382 25.2049 4.23671 25.7678ZM50.3381 25.7017L47.6552 26.1333V29.2066V32.28L50.7297 32.7562C52.4209 33.0182 53.8527 33.1842 53.9116 33.1253C54.3219 32.715 54.4118 27.738 54.0439 25.7918C53.9145 25.1073 54.0187 25.1098 50.3381 25.7017ZM45.2439 30.0003C45.1743 30.6657 45.0145 31.731 44.8891 32.3676C44.4317 34.6898 44.4321 34.6823 44.7742 34.6823C45.1368 34.6823 45.4217 33.9186 45.7502 32.0658C46.0757 30.2313 46.041 28.7903 45.6713 28.7903C45.4604 28.7903 45.3329 29.1514 45.2439 30.0003ZM13.1453 34.4251C13.1453 35.3264 15.3851 39.3116 15.8916 39.3116C16.2619 39.3116 16.0951 38.7376 15.3796 37.5495C14.9882 36.8997 14.4565 35.8466 14.1979 35.2094C13.7457 34.0952 13.1453 33.648 13.1453 34.4251ZM40.4363 40.6051C38.908 42.1438 38.457 42.7149 38.6978 42.8072C39.2527 43.0202 42.8154 39.6622 42.8154 38.9266C42.8154 38.3506 42.3474 38.6808 40.4363 40.6051ZM11.3037 41.9946C9.89297 43.0074 8.73731 43.8832 8.73541 43.941C8.71921 44.4221 13.9254 49.6301 14.4079 49.6156C14.5019 49.6128 15.2954 48.5374 17.5493 45.3576L18.2707 44.3398L16.1853 42.2465C15.0385 41.0952 14.048 40.1533 13.9843 40.1533C13.9205 40.1533 12.7144 40.982 11.3037 41.9946ZM42.0928 42.2437L40.0047 44.3398L40.7261 45.3576C42.9799 48.5374 43.7735 49.6128 43.8675 49.6156C44.3504 49.6301 49.5585 44.4195 49.5393 43.941C49.5343 43.8167 44.7808 40.3781 44.4249 40.2415C44.2907 40.19 43.2411 41.091 42.0928 42.2437ZM19.1509 42.4544C18.9743 42.7401 20.1735 43.5875 21.9773 44.4509C23.5953 45.2255 24.1784 45.3568 24.4012 44.9963C24.4717 44.8823 23.7184 44.4143 22.7273 43.9564C21.7362 43.4985 20.6514 42.9289 20.3171 42.6907C19.6511 42.2166 19.3373 42.1528 19.1509 42.4544ZM33.1707 44.7958C32.9007 44.9041 31.8802 45.0834 30.9027 45.1945C29.0251 45.4079 28.6346 45.5314 28.8311 45.8494C29.2151 46.471 34.6088 45.5581 34.6088 44.8715C34.6088 44.5325 33.9186 44.4961 33.1707 44.7958ZM25.5926 50.8032C25.3307 52.4944 25.1646 53.9264 25.224 53.9855C25.2831 54.0446 26.1879 54.1791 27.2346 54.2841C28.978 54.459 32.7728 54.2641 33.0514 53.9855C33.1107 53.9264 32.9447 52.4944 32.6827 50.8032L32.2065 47.7287H29.1377H26.0688L25.5926 50.8032Z" fill="white"/>
<path fill-rule="evenodd" clip-rule="evenodd" d="M22.6638 4.90521C19.9215 5.61392 14.6181 8.19859 14.6181 8.82629C14.6181 8.93276 15.3576 10.0354 16.2613 11.2769C17.1651 12.5184 17.9818 13.6627 18.0763 13.8197C18.2848 14.1665 14.2366 18.3289 13.8391 18.1764C13.6986 18.1225 12.5404 17.3163 11.265 16.385C9.98981 15.4534 8.8594 14.6915 8.75292 14.6915C8.11028 14.6915 5.53088 20.022 4.82258 22.8142C4.53914 23.9315 4.30725 24.9188 4.30725 25.0078C4.30725 25.0969 5.72763 25.3879 7.46364 25.6545L10.62 26.1393V29.2109V32.2825L7.46364 32.7673C5.72763 33.0339 4.30725 33.3249 4.30725 33.4139C4.30725 34.1481 5.49553 37.9617 6.17836 39.4187C7.19682 41.5919 8.47032 43.7303 8.74619 43.7303C8.85624 43.7303 9.98981 42.9683 11.265 42.0368C12.5404 41.1054 13.6986 40.2993 13.8391 40.2454C14.2366 40.0929 18.2848 44.2553 18.0763 44.6021C17.9818 44.7591 17.1651 45.9034 16.2613 47.1449C15.3576 48.3864 14.6181 49.4922 14.6181 49.6022C14.6181 49.8781 16.7565 51.1516 18.9298 52.1701C20.3868 52.8529 24.2003 54.0412 24.9345 54.0412C25.0235 54.0412 25.3145 52.6208 25.5811 50.8848L26.0659 47.7284H29.1375H32.2091L32.6939 50.8848C32.9606 52.6208 33.2516 54.0412 33.3406 54.0412C33.4296 54.0412 34.4169 53.8093 35.5343 53.5258C38.3264 52.8175 43.6569 50.2381 43.6569 49.5955C43.6569 49.489 42.9175 48.3864 42.0137 47.1449C41.1099 45.9034 40.2933 44.7591 40.1988 44.6021C39.9903 44.2553 44.0384 40.0929 44.4359 40.2454C44.5765 40.2993 45.7347 41.1054 47.0101 42.0368C48.2853 42.9683 49.4157 43.7303 49.5221 43.7303C50.1648 43.7303 52.7442 38.3998 53.4525 35.6076C53.7359 34.4903 53.9678 33.503 53.9678 33.4139C53.9678 33.3249 52.5474 33.0339 50.8114 32.7673L47.655 32.2825V29.2109V26.1393L50.8114 25.6545C52.5474 25.3879 53.9678 25.0969 53.9678 25.0078C53.9678 24.9188 53.7359 23.9315 53.4525 22.8142C52.7442 20.022 50.1648 14.6915 49.5221 14.6915C49.4157 14.6915 48.2853 15.4534 47.0101 16.385C45.7347 17.3163 44.5765 18.1225 44.4359 18.1764C44.0384 18.3289 39.9903 14.1665 40.1988 13.8197C40.2933 13.6627 41.1099 12.5184 42.0137 11.2769C42.9175 10.0354 43.6569 8.93276 43.6569 8.82629C43.6569 8.18365 38.3264 5.60424 35.5343 4.89595C34.4169 4.6125 33.4296 4.38062 33.3406 4.38062C33.2516 4.38062 32.9606 5.80099 32.6939 7.53701L32.2091 10.6934H29.1375H26.0659L25.5811 7.53701C25.2779 5.56384 25.0058 4.3844 24.8547 4.39093C24.7219 4.39661 23.7361 4.62808 22.6638 4.90521ZM26.1916 12.5963C24.4151 12.9382 23.6665 13.2261 23.6665 13.5666C23.6665 13.8144 23.8116 13.8696 24.2451 13.7856C24.5633 13.7242 25.4866 13.5638 26.2968 13.4294C29.1352 12.9584 29.3732 12.9012 29.3631 12.6924C29.3499 12.4204 27.4106 12.3614 26.1916 12.5963ZM33.7669 13.4306C33.7669 13.5474 34.573 14.0154 35.5585 14.4705C36.5439 14.9259 37.6362 15.5021 37.9857 15.751C38.3409 16.0039 38.7704 16.1468 38.9585 16.0746C39.5265 15.8566 38.7393 15.2024 36.6514 14.1572C34.8491 13.2549 33.7669 12.9824 33.7669 13.4306ZM17.2455 17.3189C16.1869 18.3773 15.4598 19.2771 15.4598 19.5283C15.4598 20.1983 15.9314 20.0163 16.6172 19.0818C16.9644 18.6086 17.8393 17.7006 18.5613 17.064C19.8064 15.9665 20.0261 15.5332 19.3374 15.5332C19.1688 15.5332 18.2276 16.3368 17.2455 17.3189ZM42.1078 19.2739C42.052 19.364 42.323 19.9395 42.7098 20.5529C43.0966 21.1663 43.6715 22.2763 43.9873 23.0195C44.3034 23.763 44.6897 24.3711 44.8458 24.3711C45.2909 24.3711 45.1838 23.7493 44.4835 22.2668C43.278 19.7148 42.4668 18.693 42.1078 19.2739ZM12.9631 24.4128C12.5982 25.5554 12.2689 27.8164 12.3411 28.6831C12.4497 29.9861 12.8832 29.8293 13.0298 28.4338C13.1003 27.7617 13.2617 26.691 13.3884 26.0545C13.704 24.4685 13.7139 23.9008 13.4282 23.8021C13.2943 23.7558 13.0852 24.0306 12.9631 24.4128ZM45.2438 30C45.1741 30.6654 45.0144 31.7307 44.889 32.3673C44.4315 34.6895 44.4319 34.682 44.7741 34.682C45.1366 34.682 45.4216 33.9183 45.75 32.0655C46.0756 30.231 46.0408 28.79 45.6711 28.79C45.4603 28.79 45.3328 29.1511 45.2438 30ZM13.1451 34.4248C13.1451 35.3261 15.3849 39.3113 15.8914 39.3113C16.2618 39.3113 16.0949 38.7373 15.3794 37.5492C14.9881 36.8994 14.4563 35.8463 14.1977 35.2091C13.7455 34.0949 13.1451 33.6477 13.1451 34.4248ZM40.4361 40.6048C38.9078 42.1435 38.4569 42.7146 38.6976 42.8069C39.2525 43.0199 42.8152 39.6619 42.8152 38.9263C42.8152 38.3503 42.3472 38.6805 40.4361 40.6048ZM19.1507 42.4541C18.9742 42.7398 20.1734 43.5872 21.9771 44.4506C23.5951 45.2252 24.1782 45.3565 24.401 44.996C24.4715 44.882 23.7182 44.414 22.7271 43.9561C21.736 43.4982 20.6513 42.9286 20.3169 42.6904C19.6509 42.2163 19.3371 42.1525 19.1507 42.4541ZM33.1706 44.7955C32.9006 44.9038 31.88 45.0831 30.9026 45.1942C29.025 45.4076 28.6344 45.5311 28.8309 45.8491C29.215 46.4707 34.6086 45.5578 34.6086 44.8712C34.6086 44.5322 33.9184 44.4958 33.1706 44.7955Z" fill="#06A51B"/>
<circle cx="29.1379" cy="29.2108" r="17.6758" fill="#06A51B"/>
<path d="M23.0995 35.1153C22.2145 35.1153 21.4283 34.9553 20.7409 34.6353C20.0535 34.3153 19.5103 33.8748 19.1113 33.3138C18.7162 32.7528 18.5108 32.1088 18.495 31.3819H21.3394C21.3631 31.8283 21.5449 32.1878 21.8846 32.4604C22.2244 32.7291 22.6293 32.8634 23.0995 32.8634C23.4669 32.8634 23.7928 32.7824 24.0773 32.6204C24.3617 32.4584 24.5849 32.2313 24.7469 31.9389C24.9089 31.6426 24.9879 31.3029 24.9839 30.9197C24.9879 30.5285 24.9069 30.1868 24.741 29.8945C24.579 29.6021 24.3538 29.375 24.0654 29.213C23.781 29.047 23.453 28.9641 23.0817 28.9641C22.7301 28.9601 22.3962 29.0372 22.0802 29.1952C21.7681 29.3532 21.531 29.5685 21.3691 29.8411L18.7794 29.3552L19.3068 22.8129H27.0936V25.1774H21.7187L21.4402 28.0396H21.5113C21.7128 27.7038 22.0367 27.4273 22.4832 27.21C22.9335 26.9888 23.4451 26.8781 24.018 26.8781C24.7449 26.8781 25.3928 27.048 25.9617 27.3878C26.5346 27.7236 26.9849 28.1898 27.3128 28.7863C27.6447 29.3829 27.8106 30.0663 27.8106 30.8367C27.8106 31.6703 27.6131 32.4091 27.218 33.053C26.8269 33.697 26.2778 34.2027 25.5706 34.5701C24.8674 34.9335 24.0437 35.1153 23.0995 35.1153ZM34.4403 35.2456C33.3816 35.2456 32.469 34.9948 31.7025 34.493C30.9361 33.9874 30.3455 33.2624 29.9307 32.3182C29.5158 31.37 29.3104 30.2303 29.3143 28.8989C29.3183 27.5675 29.5257 26.4376 29.9366 25.5092C30.3514 24.5769 30.94 23.8677 31.7025 23.3818C32.469 22.8919 33.3816 22.647 34.4403 22.647C35.4991 22.647 36.4117 22.8919 37.1781 23.3818C37.9485 23.8677 38.5411 24.5769 38.9559 25.5092C39.3708 26.4416 39.5762 27.5715 39.5722 28.8989C39.5722 30.2342 39.3648 31.376 38.95 32.3241C38.5352 33.2723 37.9446 33.9972 37.1781 34.499C36.4157 34.9967 35.5031 35.2456 34.4403 35.2456ZM34.4403 32.8456C35.0724 32.8456 35.5841 32.5236 35.9752 31.8797C36.3663 31.2318 36.5599 30.2382 36.5559 28.8989C36.5559 28.0219 36.467 27.2989 36.2892 26.73C36.1115 26.1571 35.8646 25.7305 35.5485 25.45C35.2324 25.1695 34.8631 25.0292 34.4403 25.0292C33.8122 25.0292 33.3045 25.3473 32.9174 25.9833C32.5302 26.6154 32.3346 27.5873 32.3307 28.8989C32.3267 29.7878 32.4117 30.5246 32.5855 31.1093C32.7633 31.694 33.0122 32.1305 33.3322 32.4189C33.6522 32.7034 34.0216 32.8456 34.4403 32.8456Z" fill="white"/>
<defs>
<filter id="filter0_f_60_312" x="0.5" y="0.5" width="58" height="58" filterUnits="userSpaceOnUse" color-interpolation-filters="sRGB">
<feFlood flood-opacity="0" result="BackgroundImageFix"/>
<feBlend mode="normal" in="SourceGraphic" in2="BackgroundImageFix" result="shape"/>
<feGaussianBlur stdDeviation="0.75" result="effect1_foregroundBlur_60_312"/>
</filter>
</defs>
</svg>
