<svg width="15" height="18" viewBox="0 0 15 18" fill="none" xmlns="http://www.w3.org/2000/svg">
<path d="M7.49993 10.8819C4.14185 10.8819 1.31093 10.0003 0 8.69888V10.8336C0.41444 12.2289 3.32009 13.6048 7.49993 13.6048C11.6797 13.6048 14.5853 12.229 15 10.8337V8.69888C13.689 10.0003 10.8581 10.8819 7.49993 10.8819Z" fill="white"/>
<path d="M7.49993 7.31132C4.14185 7.31132 1.31093 6.42979 0 5.12833V7.38494C0.41444 8.78035 3.32009 10.1562 7.49993 10.1562C11.6797 10.1562 14.5853 8.78043 15 7.38508V5.12833C13.689 6.42979 10.8581 7.31132 7.49993 7.31132Z" fill="white"/>
<path d="M7.5 0C3.35785 0 0 1.55547 0 3.47432V3.81452C0.41444 5.20993 3.32009 6.58582 7.49993 6.58582C11.6797 6.58582 14.5853 5.21001 15 3.81466V3.47432C15 1.55547 11.6421 0 7.5 0Z" fill="white"/>
<path d="M7.49993 14.3303C4.14185 14.3303 1.31093 13.4489 0 12.1474V13.9396C0 15.8583 3.35785 17.4139 7.5 17.4139C11.6421 17.4139 15 15.8584 15 13.9396V12.1474C13.689 13.4489 10.8581 14.3303 7.49993 14.3303Z" fill="white"/>
</svg>
