<svg width="25" height="25" viewBox="0 0 25 25" fill="none" xmlns="http://www.w3.org/2000/svg">
<path fill-rule="evenodd" clip-rule="evenodd" d="M18.75 12.5C17.8875 12.5 17.1875 11.8 17.1875 10.9375C17.1875 10.075 17.8875 9.375 18.75 9.375C19.6125 9.375 20.3125 10.075 20.3125 10.9375C20.3125 11.8 19.6125 12.5 18.75 12.5ZM12.5 12.5C11.6375 12.5 10.9375 11.8 10.9375 10.9375C10.9375 10.075 11.6375 9.375 12.5 9.375C13.3625 9.375 14.0625 10.075 14.0625 10.9375C14.0625 11.8 13.3625 12.5 12.5 12.5ZM6.25 12.5C5.3875 12.5 4.6875 11.8 4.6875 10.9375C4.6875 10.075 5.3875 9.375 6.25 9.375C7.1125 9.375 7.8125 10.075 7.8125 10.9375C7.8125 11.8 7.1125 12.5 6.25 12.5ZM12.5 0C5.59687 0 0 4.89766 0 10.9375C0 14.3898 1.83203 17.4641 4.6875 19.468V25L10.1633 21.6774C10.9211 21.8024 11.7008 21.875 12.5 21.875C19.4031 21.875 25 16.9781 25 10.9375C25 4.89766 19.4031 0 12.5 0Z" fill="white"/>
</svg>
