<svg width="51" height="51" viewBox="0 0 51 51" fill="none" xmlns="http://www.w3.org/2000/svg">
<path fill-rule="evenodd" clip-rule="evenodd" d="M22.9158 0.164598C22.1349 0.244139 21.4432 0.362187 21.3784 0.426788C21.3138 0.491599 21.4752 1.92797 21.7372 3.61916L22.2134 6.6937H25.2822H28.3511L28.8273 3.61916C29.0893 1.92797 29.2546 0.495387 29.1947 0.435626C29.0543 0.295272 26.0337 -0.0228922 25.0718 0.00130677C24.6667 0.0114072 23.6965 0.0848461 22.9158 0.164598ZM8.9742 6.05527C7.68324 7.15074 4.86921 10.1912 4.87784 10.4814C4.88057 10.5754 5.95606 11.3689 9.13581 13.6228L10.1536 14.3442L12.2497 12.2561C13.4024 11.1078 14.3035 10.0582 14.2519 9.92395C14.1153 9.56812 10.6768 4.81459 10.5524 4.80954C10.4945 4.80723 9.78434 5.3678 8.9742 6.05527ZM38.1565 7.2467C37.1938 8.58501 36.3641 9.7897 36.3125 9.92395C36.261 10.0582 37.162 11.1078 38.3148 12.2561L40.4108 14.3442L41.4286 13.6228C44.6084 11.3689 45.6839 10.5754 45.6866 10.4814C45.7011 9.99844 40.4906 4.79039 40.0121 4.80954C39.9542 4.81186 39.1192 5.9086 38.1565 7.2467ZM22.3363 8.59658C20.5598 8.93852 19.8111 9.22639 19.8111 9.56686C19.8111 9.81474 19.9563 9.86987 20.3898 9.78591C20.708 9.72446 21.6313 9.56412 22.4415 9.42966C25.2799 8.95872 25.5179 8.90149 25.5078 8.69275C25.4945 8.42066 23.5553 8.36174 22.3363 8.59658ZM29.9116 9.43092C29.9116 9.54771 30.7177 10.0157 31.7032 10.4708C32.6886 10.9262 33.7809 11.5024 34.1304 11.7513C34.4856 12.0042 34.9151 12.1471 35.1032 12.0749C35.6712 11.8569 34.884 11.2027 32.7961 10.1575C30.9938 9.25521 29.9116 8.98271 29.9116 9.43092ZM13.3902 13.3192C12.3316 14.3776 11.6045 15.2774 11.6045 15.5286C11.6045 16.1986 12.0761 16.0166 12.7619 15.0821C13.1091 14.6089 13.984 13.7009 14.706 13.0643C15.9511 11.9668 16.1708 11.5335 15.4821 11.5335C15.3135 11.5335 14.3723 12.3371 13.3902 13.3192ZM38.2525 15.2742C38.1967 15.3643 38.4677 15.9398 38.8545 16.5532C39.2413 17.1666 39.8161 18.2766 40.132 19.0198C40.4481 19.7633 40.8344 20.3714 40.9905 20.3714C41.4356 20.3714 41.3285 19.7496 40.6282 18.2671C39.4226 15.7151 38.6115 14.6933 38.2525 15.2742ZM9.10783 20.4131C8.74295 21.5557 8.41363 23.8167 8.48581 24.6834C8.59439 25.9864 9.02786 25.8296 9.17453 24.4341C9.24502 23.762 9.40642 22.6913 9.5331 22.0548C9.84873 20.4688 9.85863 19.9011 9.57287 19.8024C9.43904 19.7561 9.22987 20.0309 9.10783 20.4131ZM0.381245 21.7678C0.0085808 23.7273 0.0946451 28.7116 0.508343 29.1253C0.567262 29.1842 1.999 29.0182 3.6902 28.7562L6.76473 28.28V25.2061V22.1322L4.39744 21.7758C3.09553 21.5797 1.68504 21.3621 1.26293 21.2922C0.546429 21.1735 0.488352 21.2049 0.381245 21.7678ZM46.4827 21.7017L43.7997 22.1333V25.2066V28.28L46.8743 28.7562C48.5654 29.0182 49.9972 29.1842 50.0561 29.1253C50.4664 28.715 50.5563 23.738 50.1885 21.7918C50.0591 21.1073 50.1632 21.1098 46.4827 21.7017ZM41.3884 26.0003C41.3188 26.6657 41.1591 27.731 41.0337 28.3676C40.5762 30.6898 40.5766 30.6823 40.9188 30.6823C41.2813 30.6823 41.5663 29.9186 41.8947 28.0658C42.2203 26.2313 42.1855 24.7903 41.8158 24.7903C41.605 24.7903 41.4775 25.1514 41.3884 26.0003ZM9.28984 30.4251C9.28984 31.3264 11.5296 35.3116 12.0361 35.3116C12.4065 35.3116 12.2396 34.7376 11.5241 33.5495C11.1328 32.8997 10.601 31.8466 10.3424 31.2094C9.89019 30.0952 9.28984 29.648 9.28984 30.4251ZM36.5808 36.6051C35.0525 38.1438 34.6016 38.7149 34.8423 38.8072C35.3972 39.0202 38.9599 35.6622 38.9599 34.9266C38.9599 34.3506 38.4919 34.6808 36.5808 36.6051ZM7.44819 37.9946C6.0375 39.0074 4.88184 39.8832 4.87994 39.941C4.86374 40.4221 10.0699 45.6301 10.5524 45.6156C10.6465 45.6128 11.44 44.5374 13.6939 41.3576L14.4152 40.3398L12.3299 38.2465C11.183 37.0952 10.1926 36.1533 10.1288 36.1533C10.0651 36.1533 8.85889 36.982 7.44819 37.9946ZM38.2373 38.2437L36.1493 40.3398L36.8706 41.3576C39.1245 44.5374 39.918 45.6128 40.0121 45.6156C40.495 45.6301 45.703 40.4195 45.6839 39.941C45.6788 39.8167 40.9253 36.3781 40.5695 36.2415C40.4352 36.19 39.3856 37.091 38.2373 38.2437ZM15.2954 38.4544C15.1189 38.7401 16.3181 39.5875 18.1218 40.4509C19.7398 41.2255 20.3229 41.3568 20.5457 40.9963C20.6162 40.8823 19.8629 40.4143 18.8718 39.9564C17.8807 39.4985 16.796 38.9289 16.4616 38.6907C15.7956 38.2166 15.4818 38.1528 15.2954 38.4544ZM29.3153 40.7958C29.0453 40.9041 28.0247 41.0834 27.0473 41.1945C25.1696 41.4079 24.7791 41.5314 24.9756 41.8494C25.3597 42.471 30.7533 41.5581 30.7533 40.8715C30.7533 40.5325 30.0631 40.4961 29.3153 40.7958ZM21.7372 46.8032C21.4752 48.4944 21.3092 49.9264 21.3685 49.9855C21.4276 50.0446 22.3325 50.1791 23.3791 50.2841C25.1225 50.459 28.9173 50.2641 29.1959 49.9855C29.2553 49.9264 29.0893 48.4944 28.8273 46.8032L28.3511 43.7287H25.2822H22.2134L21.7372 46.8032Z" fill="white"/>
<path fill-rule="evenodd" clip-rule="evenodd" d="M18.8083 0.905176C16.066 1.61389 10.7627 4.19856 10.7627 4.82626C10.7627 4.93273 11.5021 6.03537 12.4059 7.27688C13.3097 8.51839 14.1263 9.66269 14.2208 9.81967C14.4293 10.1665 10.3812 14.3289 9.98366 14.1763C9.8431 14.1225 8.68491 13.3163 7.40952 12.385C6.13434 11.4534 5.00393 10.6915 4.89745 10.6915C4.25481 10.6915 1.67541 16.022 0.967115 18.8141C0.683671 19.9315 0.451782 20.9188 0.451782 21.0078C0.451782 21.0968 1.87216 21.3878 3.60817 21.6545L6.76456 22.1393V25.2109V28.2825L3.60817 28.7673C1.87216 29.0339 0.451782 29.3249 0.451782 29.4139C0.451782 30.1481 1.64006 33.9616 2.32289 35.4186C3.34135 37.5919 4.61485 39.7303 4.89072 39.7303C5.00077 39.7303 6.13434 38.9683 7.40952 38.0368C8.68491 37.1054 9.8431 36.2993 9.98366 36.2454C10.3812 36.0928 14.4293 40.2553 14.2208 40.6021C14.1263 40.759 13.3097 41.9033 12.4059 43.1448C11.5021 44.3864 10.7627 45.4921 10.7627 45.6022C10.7627 45.8781 12.901 47.1516 15.0743 48.17C16.5313 48.8529 20.3448 50.0411 21.079 50.0411C21.168 50.0411 21.459 48.6208 21.7256 46.8848L22.2105 43.7284H25.2821H28.3537L28.8385 46.8848C29.1051 48.6208 29.3961 50.0411 29.4851 50.0411C29.5741 50.0411 30.5614 49.8093 31.6788 49.5258C34.4709 48.8175 39.8015 46.2381 39.8015 45.5955C39.8015 45.489 39.062 44.3864 38.1582 43.1448C37.2545 41.9033 36.4378 40.759 36.3433 40.6021C36.1348 40.2553 40.183 36.0928 40.5805 36.2454C40.721 36.2993 41.8792 37.1054 43.1546 38.0368C44.4298 38.9683 45.5602 39.7303 45.6667 39.7303C46.3093 39.7303 48.8887 34.3997 49.597 31.6076C49.8805 30.4902 50.1123 29.5029 50.1123 29.4139C50.1123 29.3249 48.692 29.0339 46.9559 28.7673L43.7996 28.2825V25.2109V22.1393L46.9559 21.6545C48.692 21.3878 50.1123 21.0968 50.1123 21.0078C50.1123 20.9188 49.8805 19.9315 49.597 18.8141C48.8887 16.022 46.3093 10.6915 45.6667 10.6915C45.5602 10.6915 44.4298 11.4534 43.1546 12.385C41.8792 13.3163 40.721 14.1225 40.5805 14.1763C40.183 14.3289 36.1348 10.1665 36.3433 9.81967C36.4378 9.66269 37.2545 8.51839 38.1582 7.27688C39.062 6.03537 39.8015 4.93273 39.8015 4.82626C39.8015 4.18362 34.4709 1.60421 31.6788 0.895918C30.5614 0.612474 29.5741 0.380585 29.4851 0.380585C29.3961 0.380585 29.1051 1.80096 28.8385 3.53698L28.3537 6.69337H25.2821H22.2105L21.7256 3.53698C21.4224 1.56381 21.1503 0.384372 20.9993 0.390896C20.8665 0.396577 19.8806 0.628045 18.8083 0.905176ZM22.3361 8.59625C20.5597 8.93819 19.811 9.22606 19.811 9.56653C19.811 9.81441 19.9562 9.86954 20.3897 9.78558C20.7078 9.72413 21.6312 9.56379 22.4413 9.42933C25.2797 8.95839 25.5177 8.90116 25.5076 8.69242C25.4944 8.42033 23.5551 8.36141 22.3361 8.59625ZM29.9114 9.43059C29.9114 9.54738 30.7176 10.0154 31.703 10.4705C32.6884 10.9259 33.7808 11.502 34.1303 11.751C34.4855 12.0039 34.9149 12.1468 35.1031 12.0746C35.671 11.8566 34.8838 11.2024 32.796 10.1572C30.9937 9.25488 29.9114 8.98238 29.9114 9.43059ZM13.39 13.3188C12.3314 14.3773 11.6044 15.2771 11.6044 15.5283C11.6044 16.1983 12.0759 16.0163 12.7617 15.0818C13.1089 14.6085 13.9839 13.7006 14.7058 13.064C15.9509 11.9664 16.1706 11.5332 15.4819 11.5332C15.3133 11.5332 14.3721 12.3368 13.39 13.3188ZM38.2523 15.2739C38.1965 15.364 38.4676 15.9395 38.8543 16.5529C39.2411 17.1663 39.816 18.2763 40.1318 19.0195C40.4479 19.7629 40.8342 20.3711 40.9904 20.3711C41.4354 20.3711 41.3283 19.7493 40.628 18.2668C39.4225 15.7148 38.6113 14.6929 38.2523 15.2739ZM9.10766 20.4127C8.74278 21.5553 8.41346 23.8164 8.48564 24.6831C8.59422 25.9861 9.0277 25.8293 9.17437 24.4338C9.24486 23.7617 9.40625 22.691 9.53293 22.0545C9.84857 20.4685 9.85846 19.9008 9.5727 19.8021C9.43887 19.7558 9.22971 20.0306 9.10766 20.4127ZM41.3883 26C41.3186 26.6653 41.1589 27.7307 41.0335 28.3673C40.576 30.6895 40.5765 30.6819 40.9186 30.6819C41.2812 30.6819 41.5661 29.9183 41.8946 28.0655C42.2201 26.231 42.1854 24.79 41.8157 24.79C41.6048 24.79 41.4773 25.1511 41.3883 26ZM9.28968 30.4248C9.28968 31.3261 11.5295 35.3113 12.0359 35.3113C12.4063 35.3113 12.2394 34.7373 11.524 33.5492C11.1326 32.8994 10.6008 31.8462 10.3422 31.2091C9.89002 30.0949 9.28968 29.6477 9.28968 30.4248ZM36.5807 36.6048C35.0524 38.1434 34.6014 38.7145 34.8421 38.8069C35.397 39.0199 38.9598 35.6619 38.9598 34.9262C38.9598 34.3503 38.4918 34.6805 36.5807 36.6048ZM15.2952 38.454C15.1187 38.7398 16.3179 39.5872 18.1217 40.4506C19.7396 41.2251 20.3227 41.3564 20.5456 40.996C20.6161 40.8819 19.8627 40.4139 18.8716 39.9561C17.8805 39.4982 16.7958 38.9285 16.4614 38.6903C15.7954 38.2162 15.4817 38.1525 15.2952 38.454ZM29.3151 40.7954C29.0451 40.9038 28.0245 41.0831 27.0471 41.1942C25.1695 41.4076 24.7789 41.5311 24.9755 41.849C25.3595 42.4706 30.7531 41.5578 30.7531 40.8712C30.7531 40.5322 30.0629 40.4958 29.3151 40.7954Z" fill="#FA6310"/>
<circle cx="25.282" cy="25.2107" r="17.6758" fill="#FA6310"/>
<path d="M12.0149 30.6876V28.9295L15.7038 25.6998C15.9804 25.4496 16.2158 25.2208 16.41 25.0134C16.6043 24.8027 16.7524 24.592 16.8545 24.3813C16.9565 24.1673 17.0076 23.9352 17.0076 23.685C17.0076 23.4052 16.9467 23.1665 16.8248 22.969C16.703 22.7681 16.5351 22.6134 16.3211 22.5047C16.1071 22.3961 15.8619 22.3418 15.5853 22.3418C15.3055 22.3418 15.0602 22.3994 14.8495 22.5146C14.6388 22.6266 14.4742 22.7895 14.3557 23.0035C14.2405 23.2175 14.1828 23.4776 14.1828 23.7838H11.8668C11.8668 23.0957 12.0215 22.5015 12.331 22.001C12.6404 21.5006 13.075 21.1154 13.6347 20.8455C14.1977 20.5722 14.8512 20.4356 15.5952 20.4356C16.3623 20.4356 17.029 20.564 17.5952 20.8208C18.1615 21.0776 18.5994 21.4364 18.9088 21.8973C19.2216 22.355 19.378 22.8866 19.378 23.4924C19.378 23.8776 19.3006 24.2595 19.1459 24.6381C18.9911 25.0167 18.7129 25.4348 18.3113 25.8924C17.9129 26.3501 17.3467 26.8982 16.6125 27.5369L15.4026 28.653V28.7172H19.5014V30.6876H12.0149ZM24.7546 30.8258C24.0171 30.8258 23.362 30.6925 22.7891 30.4258C22.2163 30.1592 21.7636 29.7921 21.4311 29.3246C21.1019 28.8571 20.9307 28.3205 20.9175 27.7147H23.2879C23.3076 28.0867 23.4591 28.3863 23.7422 28.6135C24.0253 28.8373 24.3628 28.9493 24.7546 28.9493C25.0607 28.9493 25.3324 28.8818 25.5694 28.7468C25.8064 28.6118 25.9924 28.4225 26.1274 28.1789C26.2624 27.932 26.3283 27.6488 26.325 27.3295C26.3283 27.0036 26.2608 26.7188 26.1225 26.4752C25.9875 26.2315 25.7999 26.0422 25.5595 25.9073C25.3225 25.769 25.0492 25.6998 24.7398 25.6998C24.4467 25.6966 24.1686 25.7608 23.9052 25.8924C23.6451 26.0241 23.4476 26.2036 23.3126 26.4307L21.1545 26.0258L21.594 20.5739H28.083V22.5443H23.6039L23.3718 24.9295H23.4311C23.599 24.6496 23.869 24.4192 24.241 24.2381C24.6163 24.0537 25.0426 23.9616 25.52 23.9616C26.1258 23.9616 26.6657 24.1031 27.1398 24.3863C27.6172 24.6661 27.9925 25.0546 28.2657 25.5517C28.5423 26.0488 28.6805 26.6184 28.6805 27.2604C28.6805 27.955 28.5159 28.5707 28.1867 29.1073C27.8608 29.6439 27.4032 30.0653 26.8139 30.3715C26.2278 30.6744 25.5414 30.8258 24.7546 30.8258ZM34.2053 30.9345C33.323 30.9345 32.5625 30.7254 31.9238 30.3073C31.2851 29.8859 30.7929 29.2818 30.4472 28.4949C30.1015 27.7048 29.9304 26.755 29.9336 25.6455C29.9369 24.536 30.1098 23.5945 30.4522 22.8208C30.7979 22.0438 31.2884 21.4529 31.9238 21.0479C32.5625 20.6397 33.323 20.4356 34.2053 20.4356C35.0876 20.4356 35.8481 20.6397 36.4868 21.0479C37.1288 21.4529 37.6226 22.0438 37.9683 22.8208C38.314 23.5978 38.4852 24.5393 38.4819 25.6455C38.4819 26.7583 38.3091 27.7097 37.9634 28.4999C37.6177 29.29 37.1255 29.8941 36.4868 30.3122C35.8514 30.7271 35.0909 30.9345 34.2053 30.9345ZM34.2053 28.9345C34.7321 28.9345 35.1584 28.6661 35.4843 28.1295C35.8103 27.5896 35.9716 26.7616 35.9683 25.6455C35.9683 24.9147 35.8942 24.3122 35.7461 23.8381C35.5979 23.3607 35.3921 23.0052 35.1288 22.7714C34.8654 22.5377 34.5576 22.4208 34.2053 22.4208C33.6818 22.4208 33.2588 22.6858 32.9361 23.2159C32.6135 23.7426 32.4505 24.5525 32.4473 25.6455C32.444 26.3863 32.5147 27.0003 32.6596 27.4875C32.8078 27.9748 33.0152 28.3386 33.2818 28.5789C33.5485 28.8159 33.8563 28.9345 34.2053 28.9345Z" fill="white"/>
</svg>
