<svg width="51" height="51" viewBox="0 0 51 51" fill="none" xmlns="http://www.w3.org/2000/svg">
<path fill-rule="evenodd" clip-rule="evenodd" d="M23.0613 0.164598C22.2804 0.244139 21.5887 0.362187 21.5239 0.426788C21.4593 0.491599 21.6207 1.92797 21.8827 3.61916L22.3589 6.6937H25.4277H28.4966L28.9728 3.61916C29.2348 1.92797 29.4002 0.495387 29.3402 0.435626C29.1998 0.295272 26.1792 -0.0228922 25.2173 0.00130677C24.8122 0.0114072 23.842 0.0848461 23.0613 0.164598ZM9.11971 6.05527C7.82875 7.15074 5.01472 10.1912 5.02335 10.4814C5.02608 10.5754 6.10157 11.3689 9.28132 13.6228L10.2992 14.3442L12.3952 12.2561C13.5479 11.1078 14.449 10.0582 14.3974 9.92395C14.2608 9.56812 10.8223 4.81459 10.6979 4.80954C10.64 4.80723 9.92985 5.3678 9.11971 6.05527ZM38.302 7.2467C37.3393 8.58501 36.5096 9.7897 36.4581 9.92395C36.4065 10.0582 37.3075 11.1078 38.4603 12.2561L40.5563 14.3442L41.5741 13.6228C44.7539 11.3689 45.8294 10.5754 45.8321 10.4814C45.8466 9.99844 40.6361 4.79039 40.1576 4.80954C40.0997 4.81186 39.2647 5.9086 38.302 7.2467ZM22.4818 8.59658C20.7054 8.93852 19.9567 9.22639 19.9567 9.56686C19.9567 9.81474 20.1019 9.86987 20.5353 9.78591C20.8535 9.72446 21.7768 9.56412 22.587 9.42966C25.4254 8.95872 25.6634 8.90149 25.6533 8.69275C25.6401 8.42066 23.7008 8.36174 22.4818 8.59658ZM30.0571 9.43092C30.0571 9.54771 30.8633 10.0157 31.8487 10.4708C32.8341 10.9262 33.9264 11.5024 34.2759 11.7513C34.6311 12.0042 35.0606 12.1471 35.2487 12.0749C35.8167 11.8569 35.0295 11.2027 32.9416 10.1575C31.1393 9.25521 30.0571 8.98271 30.0571 9.43092ZM13.5357 13.3192C12.4771 14.3776 11.75 15.2774 11.75 15.5286C11.75 16.1986 12.2216 16.0166 12.9074 15.0821C13.2546 14.6089 14.1295 13.7009 14.8515 13.0643C16.0966 11.9668 16.3163 11.5335 15.6276 11.5335C15.459 11.5335 14.5178 12.3371 13.5357 13.3192ZM38.398 15.2742C38.3422 15.3643 38.6132 15.9398 39 16.5532C39.3868 17.1666 39.9617 18.2766 40.2775 19.0198C40.5936 19.7633 40.9799 20.3714 41.136 20.3714C41.5811 20.3714 41.474 19.7496 40.7737 18.2671C39.5682 15.7151 38.757 14.6933 38.398 15.2742ZM9.25333 20.4131C8.88845 21.5557 8.55914 23.8167 8.63131 24.6834C8.73989 25.9864 9.17337 25.8296 9.32004 24.4341C9.39053 23.762 9.55193 22.6913 9.6786 22.0548C9.99424 20.4688 10.0041 19.9011 9.71837 19.8024C9.58454 19.7561 9.37538 20.0309 9.25333 20.4131ZM0.526753 21.7678C0.154089 23.7273 0.240153 28.7116 0.653851 29.1253C0.71277 29.1842 2.14451 29.0182 3.8357 28.7562L6.91024 28.28V25.2061V22.1322L4.54294 21.7758C3.24104 21.5797 1.83055 21.3621 1.40844 21.2922C0.691937 21.1735 0.63386 21.2049 0.526753 21.7678ZM46.6282 21.7017L43.9452 22.1333V25.2066V28.28L47.0198 28.7562C48.711 29.0182 50.1427 29.1842 50.2016 29.1253C50.6119 28.715 50.7018 23.738 50.334 21.7918C50.2046 21.1073 50.3087 21.1098 46.6282 21.7017ZM41.534 26.0003C41.4643 26.6657 41.3046 27.731 41.1792 28.3676C40.7217 30.6898 40.7221 30.6823 41.0643 30.6823C41.4268 30.6823 41.7118 29.9186 42.0402 28.0658C42.3658 26.2313 42.331 24.7903 41.9613 24.7903C41.7505 24.7903 41.623 25.1514 41.534 26.0003ZM9.43535 30.4251C9.43535 31.3264 11.6751 35.3116 12.1816 35.3116C12.552 35.3116 12.3851 34.7376 11.6697 33.5495C11.2783 32.8997 10.7465 31.8466 10.4879 31.2094C10.0357 30.0952 9.43535 29.648 9.43535 30.4251ZM36.7263 36.6051C35.198 38.1438 34.7471 38.7149 34.9878 38.8072C35.5427 39.0202 39.1054 35.6622 39.1054 34.9266C39.1054 34.3506 38.6374 34.6808 36.7263 36.6051ZM7.5937 37.9946C6.18301 39.0074 5.02735 39.8832 5.02545 39.941C5.00925 40.4221 10.2154 45.6301 10.6979 45.6156C10.792 45.6128 11.5855 44.5374 13.8394 41.3576L14.5607 40.3398L12.4754 38.2465C11.3286 37.0952 10.3381 36.1533 10.2743 36.1533C10.2106 36.1533 9.0044 36.982 7.5937 37.9946ZM38.3828 38.2437L36.2948 40.3398L37.0161 41.3576C39.27 44.5374 40.0635 45.6128 40.1576 45.6156C40.6405 45.6301 45.8485 40.4195 45.8294 39.941C45.8243 39.8167 41.0708 36.3781 40.715 36.2415C40.5807 36.19 39.5311 37.091 38.3828 38.2437ZM15.4409 38.4544C15.2644 38.7401 16.4636 39.5875 18.2674 40.4509C19.8853 41.2255 20.4684 41.3568 20.6913 40.9963C20.7617 40.8823 20.0084 40.4143 19.0173 39.9564C18.0262 39.4985 16.9415 38.9289 16.6071 38.6907C15.9411 38.2166 15.6273 38.1528 15.4409 38.4544ZM29.4608 40.7958C29.1908 40.9041 28.1702 41.0834 27.1928 41.1945C25.3152 41.4079 24.9246 41.5314 25.1211 41.8494C25.5052 42.471 30.8988 41.5581 30.8988 40.8715C30.8988 40.5325 30.2086 40.4961 29.4608 40.7958ZM21.8827 46.8032C21.6207 48.4944 21.4547 49.9264 21.514 49.9855C21.5731 50.0446 22.478 50.1791 23.5246 50.2841C25.268 50.459 29.0628 50.2641 29.3414 49.9855C29.4008 49.9264 29.2348 48.4944 28.9728 46.8032L28.4966 43.7287H25.4277H22.3589L21.8827 46.8032Z" fill="white"/>
<path fill-rule="evenodd" clip-rule="evenodd" d="M18.994 0.872278C16.2517 1.58099 10.9483 4.16566 10.9483 4.79336C10.9483 4.89983 11.6878 6.00247 12.5915 7.24398C13.4953 8.4855 14.312 9.62979 14.4065 9.78677C14.615 10.1336 10.5668 14.296 10.1693 14.1434C10.0288 14.0896 8.87058 13.2834 7.59519 12.3521C6.32001 11.4205 5.1896 10.6586 5.08312 10.6586C4.44048 10.6586 1.86108 15.9891 1.15278 18.7812C0.86934 19.8986 0.637451 20.8859 0.637451 20.9749C0.637451 21.0639 2.05783 21.3549 3.79384 21.6216L6.95023 22.1064V25.178V28.2496L3.79384 28.7344C2.05783 29.001 0.637451 29.292 0.637451 29.381C0.637451 30.1152 1.82573 33.9287 2.50856 35.3857C3.52702 37.559 4.80052 39.6974 5.07639 39.6974C5.18644 39.6974 6.32001 38.9354 7.59519 38.0039C8.87058 37.0725 10.0288 36.2664 10.1693 36.2125C10.5668 36.0599 14.615 40.2224 14.4065 40.5692C14.312 40.7261 13.4953 41.8704 12.5915 43.1119C11.6878 44.3535 10.9483 45.4593 10.9483 45.5693C10.9483 45.8452 13.0867 47.1187 15.26 48.1371C16.717 48.82 20.5305 50.0082 21.2647 50.0082C21.3537 50.0082 21.6447 48.5879 21.9113 46.8519L22.3961 43.6955H25.4677H28.5393L29.0241 46.8519C29.2908 48.5879 29.5818 50.0082 29.6708 50.0082C29.7598 50.0082 30.7471 49.7764 31.8645 49.4929C34.6566 48.7846 39.9871 46.2052 39.9871 45.5626C39.9871 45.4561 39.2477 44.3535 38.3439 43.1119C37.4401 41.8704 36.6235 40.7261 36.529 40.5692C36.3205 40.2224 40.3686 36.0599 40.7661 36.2125C40.9067 36.2664 42.0649 37.0725 43.3403 38.0039C44.6155 38.9354 45.7459 39.6974 45.8523 39.6974C46.495 39.6974 49.0744 34.3669 49.7827 31.5747C50.0661 30.4573 50.298 29.47 50.298 29.381C50.298 29.292 48.8776 29.001 47.1416 28.7344L43.9852 28.2496V25.178V22.1064L47.1416 21.6216C48.8776 21.3549 50.298 21.0639 50.298 20.9749C50.298 20.8859 50.0661 19.8986 49.7827 18.7812C49.0744 15.9891 46.495 10.6586 45.8523 10.6586C45.7459 10.6586 44.6155 11.4205 43.3403 12.3521C42.0649 13.2834 40.9067 14.0896 40.7661 14.1434C40.3686 14.296 36.3205 10.1336 36.529 9.78677C36.6235 9.62979 37.4401 8.4855 38.3439 7.24398C39.2477 6.00247 39.9871 4.89983 39.9871 4.79336C39.9871 4.15072 34.6566 1.57131 31.8645 0.86302C30.7471 0.579576 29.7598 0.347687 29.6708 0.347687C29.5818 0.347687 29.2908 1.76806 29.0241 3.50408L28.5393 6.66047H25.4677H22.3961L21.9113 3.50408C21.6081 1.53091 21.336 0.351474 21.1849 0.357998C21.0521 0.363679 20.0663 0.595147 18.994 0.872278ZM22.5218 8.56335C20.7453 8.9053 19.9967 9.19316 19.9967 9.53363C19.9967 9.78151 20.1418 9.83664 20.5753 9.75268C20.8935 9.69124 21.8168 9.53089 22.627 9.39643C25.4654 8.9255 25.7034 8.86826 25.6933 8.65952C25.6801 8.38744 23.7408 8.32852 22.5218 8.56335ZM30.0971 9.39769C30.0971 9.51448 30.9032 9.98247 31.8887 10.4376C32.8741 10.893 33.9664 11.4691 34.3159 11.7181C34.6711 11.971 35.1006 12.1139 35.2887 12.0417C35.8567 11.8237 35.0695 11.1695 32.9816 10.1243C31.1793 9.22199 30.0971 8.94948 30.0971 9.39769ZM13.5757 13.2859C12.5171 14.3444 11.79 15.2442 11.79 15.4954C11.79 16.1654 12.2616 15.9834 12.9474 15.0489C13.2946 14.5756 14.1695 13.6677 14.8915 13.0311C16.1366 11.9335 16.3563 11.5003 15.6676 11.5003C15.499 11.5003 14.5578 12.3039 13.5757 13.2859ZM38.438 15.241C38.3822 15.3311 38.6532 15.9066 39.04 16.52C39.4268 17.1334 40.0017 18.2434 40.3175 18.9866C40.6336 19.73 41.0199 20.3382 41.176 20.3382C41.6211 20.3382 41.514 19.7164 40.8137 18.2339C39.6082 15.6819 38.797 14.66 38.438 15.241ZM9.29333 20.3798C8.92845 21.5224 8.59913 23.7835 8.67131 24.6502C8.77989 25.9532 9.21337 25.7964 9.36003 24.4009C9.43053 23.7288 9.59192 22.6581 9.7186 22.0216C10.0342 20.4356 10.0441 19.8679 9.75837 19.7692C9.62454 19.7229 9.41538 19.9977 9.29333 20.3798ZM41.574 25.9671C41.5043 26.6324 41.3446 27.6978 41.2192 28.3344C40.7617 30.6566 40.7621 30.649 41.1043 30.649C41.4668 30.649 41.7518 29.8854 42.0802 28.0326C42.4058 26.1981 42.371 24.7571 42.0013 24.7571C41.7905 24.7571 41.663 25.1182 41.574 25.9671ZM9.47535 30.3919C9.47535 31.2932 11.7151 35.2784 12.2216 35.2784C12.592 35.2784 12.4251 34.7044 11.7097 33.5163C11.3183 32.8665 10.7865 31.8133 10.5279 31.1762C10.0757 30.062 9.47535 29.6148 9.47535 30.3919ZM36.7663 36.5719C35.238 38.1105 34.7871 38.6816 35.0278 38.774C35.5827 38.987 39.1454 35.629 39.1454 34.8933C39.1454 34.3174 38.6774 34.6476 36.7663 36.5719ZM15.4809 38.4211C15.3044 38.7069 16.5036 39.5543 18.3074 40.4177C19.9253 41.1922 20.5084 41.3235 20.7312 40.9631C20.8017 40.849 20.0484 40.381 19.0573 39.9232C18.0662 39.4653 16.9815 38.8956 16.6471 38.6574C15.9811 38.1833 15.6673 38.1196 15.4809 38.4211ZM29.5008 40.7625C29.2308 40.8709 28.2102 41.0502 27.2328 41.1613C25.3552 41.3747 24.9646 41.4982 25.1611 41.8161C25.5452 42.4377 30.9388 41.5249 30.9388 40.8383C30.9388 40.4993 30.2486 40.4629 29.5008 40.7625Z" fill="#F13E80"/>
<circle cx="25.2664" cy="25.3243" r="17.6758" fill="#F13E80"/>
<path d="M20.3554 19.8636V32H17.4279V22.6014H17.3568L14.6427 24.2606V21.7243L17.6353 19.8636H20.3554ZM23.0621 32V19.8636H25.9954V24.9955H26.1554L30.1673 19.8636H33.6222L29.3199 25.2799L33.6992 32H30.191L27.1688 27.2296L25.9954 28.7111V32H23.0621Z" fill="white"/>
</svg>
