<svg width="51" height="51" viewBox="0 0 51 51" fill="none" xmlns="http://www.w3.org/2000/svg">
<path fill-rule="evenodd" clip-rule="evenodd" d="M23.2058 0.164598C22.4249 0.244139 21.7333 0.362187 21.6684 0.426788C21.6038 0.491599 21.7652 1.92797 22.0272 3.61916L22.5034 6.6937H25.5723H28.6411L29.1173 3.61916C29.3793 1.92797 29.5447 0.495387 29.4847 0.435626C29.3444 0.295272 26.3237 -0.0228922 25.3618 0.00130677C24.9568 0.0114072 23.9865 0.0848461 23.2058 0.164598ZM9.26424 6.05527C7.97328 7.15074 5.15925 10.1912 5.16788 10.4814C5.17061 10.5754 6.2461 11.3689 9.42585 13.6228L10.4437 14.3442L12.5397 12.2561C13.6925 11.1078 14.5935 10.0582 14.5419 9.92395C14.4054 9.56812 10.9668 4.81459 10.8424 4.80954C10.7846 4.80723 10.0744 5.3678 9.26424 6.05527ZM38.4466 7.2467C37.4839 8.58501 36.6541 9.7897 36.6026 9.92395C36.551 10.0582 37.4521 11.1078 38.6048 12.2561L40.7008 14.3442L41.7187 13.6228C44.8984 11.3689 45.9739 10.5754 45.9767 10.4814C45.9912 9.99844 40.7806 4.79039 40.3021 4.80954C40.2442 4.81186 39.4093 5.9086 38.4466 7.2467ZM22.6263 8.59658C20.8499 8.93852 20.1012 9.22639 20.1012 9.56686C20.1012 9.81474 20.2464 9.86987 20.6799 9.78591C20.998 9.72446 21.9214 9.56412 22.7315 9.42966C25.57 8.95872 25.8079 8.90149 25.7978 8.69275C25.7846 8.42066 23.8453 8.36174 22.6263 8.59658ZM30.2016 9.43092C30.2016 9.54771 31.0078 10.0157 31.9932 10.4708C32.9786 10.9262 34.0709 11.5024 34.4205 11.7513C34.7757 12.0042 35.2051 12.1471 35.3933 12.0749C35.9612 11.8569 35.174 11.2027 33.0862 10.1575C31.2839 9.25521 30.2016 8.98271 30.2016 9.43092ZM13.6802 13.3192C12.6216 14.3776 11.8946 15.2774 11.8946 15.5286C11.8946 16.1986 12.3661 16.0166 13.0519 15.0821C13.3991 14.6089 14.2741 13.7009 14.996 13.0643C16.2411 11.9668 16.4608 11.5335 15.7721 11.5335C15.6035 11.5335 14.6623 12.3371 13.6802 13.3192ZM38.5425 15.2742C38.4867 15.3643 38.7578 15.9398 39.1445 16.5532C39.5313 17.1666 40.1062 18.2766 40.422 19.0198C40.7381 19.7633 41.1244 20.3714 41.2806 20.3714C41.7256 20.3714 41.6185 19.7496 40.9182 18.2671C39.7127 15.7151 38.9015 14.6933 38.5425 15.2742ZM9.39786 20.4131C9.03299 21.5557 8.70367 23.8167 8.77584 24.6834C8.88442 25.9864 9.3179 25.8296 9.46457 24.4341C9.53506 23.762 9.69646 22.6913 9.82313 22.0548C10.1388 20.4688 10.1487 19.9011 9.86291 19.8024C9.72907 19.7561 9.51991 20.0309 9.39786 20.4131ZM0.671284 21.7678C0.29862 23.7273 0.384684 28.7116 0.798382 29.1253C0.857301 29.1842 2.28904 29.0182 3.98023 28.7562L7.05477 28.28V25.2061V22.1322L4.68748 21.7758C3.38557 21.5797 1.97508 21.3621 1.55297 21.2922C0.836468 21.1735 0.778391 21.2049 0.671284 21.7678ZM46.7727 21.7017L44.0898 22.1333V25.2066V28.28L47.1643 28.7562C48.8555 29.0182 50.2872 29.1842 50.3461 29.1253C50.7565 28.715 50.8463 23.738 50.4785 21.7918C50.3491 21.1073 50.4533 21.1098 46.7727 21.7017ZM41.6785 26.0003C41.6088 26.6657 41.4491 27.731 41.3237 28.3676C40.8662 30.6898 40.8667 30.6823 41.2088 30.6823C41.5714 30.6823 41.8563 29.9186 42.1848 28.0658C42.5103 26.2313 42.4756 24.7903 42.1059 24.7903C41.895 24.7903 41.7675 25.1514 41.6785 26.0003ZM9.57988 30.4251C9.57988 31.3264 11.8197 35.3116 12.3262 35.3116C12.6965 35.3116 12.5296 34.7376 11.8142 33.5495C11.4228 32.8997 10.891 31.8466 10.6324 31.2094C10.1802 30.0952 9.57988 29.648 9.57988 30.4251ZM36.8709 36.6051C35.3426 38.1438 34.8916 38.7149 35.1323 38.8072C35.6872 39.0202 39.25 35.6622 39.25 34.9266C39.25 34.3506 38.782 34.6808 36.8709 36.6051ZM7.73823 37.9946C6.32754 39.0074 5.17188 39.8832 5.16998 39.941C5.15378 40.4221 10.3599 45.6301 10.8424 45.6156C10.9365 45.6128 11.73 44.5374 13.9839 41.3576L14.7052 40.3398L12.6199 38.2465C11.4731 37.0952 10.4826 36.1533 10.4189 36.1533C10.3551 36.1533 9.14893 36.982 7.73823 37.9946ZM38.5274 38.2437L36.4393 40.3398L37.1606 41.3576C39.4145 44.5374 40.208 45.6128 40.3021 45.6156C40.785 45.6301 45.9931 40.4195 45.9739 39.941C45.9689 39.8167 41.2153 36.3781 40.8595 36.2415C40.7253 36.19 39.6756 37.091 38.5274 38.2437ZM15.5854 38.4544C15.4089 38.7401 16.6081 39.5875 18.4119 40.4509C20.0299 41.2255 20.6129 41.3568 20.8358 40.9963C20.9063 40.8823 20.153 40.4143 19.1618 39.9564C18.1707 39.4985 17.086 38.9289 16.7516 38.6907C16.0856 38.2166 15.7719 38.1528 15.5854 38.4544ZM29.6053 40.7958C29.3353 40.9041 28.3147 41.0834 27.3373 41.1945C25.4597 41.4079 25.0691 41.5314 25.2657 41.8494C25.6497 42.471 31.0433 41.5581 31.0433 40.8715C31.0433 40.5325 30.3531 40.4961 29.6053 40.7958ZM22.0272 46.8032C21.7652 48.4944 21.5992 49.9264 21.6586 49.9855C21.7177 50.0446 22.6225 50.1791 23.6692 50.2841C25.4125 50.459 29.2074 50.2641 29.486 49.9855C29.5453 49.9264 29.3793 48.4944 29.1173 46.8032L28.6411 43.7287H25.5723H22.5034L22.0272 46.8032Z" fill="white"/>
<path fill-rule="evenodd" clip-rule="evenodd" d="M19.1389 0.872278C16.3966 1.58099 11.0933 4.16566 11.0933 4.79336C11.0933 4.89983 11.8327 6.00247 12.7365 7.24398C13.6403 8.4855 14.4569 9.62979 14.5514 9.78677C14.7599 10.1336 10.7118 14.296 10.3143 14.1434C10.1737 14.0896 9.01551 13.2834 7.74012 12.3521C6.46494 11.4205 5.33453 10.6586 5.22805 10.6586C4.58541 10.6586 2.00601 15.9891 1.29771 18.7812C1.01427 19.8986 0.782379 20.8859 0.782379 20.9749C0.782379 21.0639 2.20276 21.3549 3.93877 21.6216L7.09516 22.1064V25.178V28.2496L3.93877 28.7344C2.20276 29.001 0.782379 29.292 0.782379 29.381C0.782379 30.1152 1.97065 33.9287 2.65349 35.3857C3.67195 37.559 4.94545 39.6974 5.22132 39.6974C5.33137 39.6974 6.46494 38.9354 7.74012 38.0039C9.01551 37.0725 10.1737 36.2664 10.3143 36.2125C10.7118 36.0599 14.7599 40.2224 14.5514 40.5692C14.4569 40.7261 13.6403 41.8704 12.7365 43.1119C11.8327 44.3535 11.0933 45.4593 11.0933 45.5693C11.0933 45.8452 13.2316 47.1187 15.4049 48.1371C16.8619 48.82 20.6754 50.0082 21.4096 50.0082C21.4986 50.0082 21.7896 48.5879 22.0562 46.8519L22.5411 43.6955H25.6127H28.6842L29.1691 46.8519C29.4357 48.5879 29.7267 50.0082 29.8157 50.0082C29.9047 50.0082 30.892 49.7764 32.0094 49.4929C34.8015 48.7846 40.1321 46.2052 40.1321 45.5626C40.1321 45.4561 39.3926 44.3535 38.4888 43.1119C37.5851 41.8704 36.7684 40.7261 36.6739 40.5692C36.4654 40.2224 40.5136 36.0599 40.9111 36.2125C41.0516 36.2664 42.2098 37.0725 43.4852 38.0039C44.7604 38.9354 45.8908 39.6974 45.9973 39.6974C46.6399 39.6974 49.2193 34.3669 49.9276 31.5747C50.211 30.4573 50.4429 29.47 50.4429 29.381C50.4429 29.292 49.0226 29.001 47.2865 28.7344L44.1302 28.2496V25.178V22.1064L47.2865 21.6216C49.0226 21.3549 50.4429 21.0639 50.4429 20.9749C50.4429 20.8859 50.211 19.8986 49.9276 18.7812C49.2193 15.9891 46.6399 10.6586 45.9973 10.6586C45.8908 10.6586 44.7604 11.4205 43.4852 12.3521C42.2098 13.2834 41.0516 14.0896 40.9111 14.1434C40.5136 14.296 36.4654 10.1336 36.6739 9.78677C36.7684 9.62979 37.5851 8.4855 38.4888 7.24398C39.3926 6.00247 40.1321 4.89983 40.1321 4.79336C40.1321 4.15072 34.8015 1.57131 32.0094 0.86302C30.892 0.579576 29.9047 0.347687 29.8157 0.347687C29.7267 0.347687 29.4357 1.76806 29.1691 3.50408L28.6842 6.66047H25.6127H22.5411L22.0562 3.50408C21.753 1.53091 21.4809 0.351474 21.3299 0.357998C21.1971 0.363679 20.2112 0.595147 19.1389 0.872278ZM22.6667 8.56335C20.8903 8.9053 20.1416 9.19316 20.1416 9.53363C20.1416 9.78151 20.2868 9.83664 20.7203 9.75268C21.0384 9.69124 21.9618 9.53089 22.7719 9.39643C25.6103 8.9255 25.8483 8.86826 25.8382 8.65952C25.825 8.38744 23.8857 8.32852 22.6667 8.56335ZM30.242 9.39769C30.242 9.51448 31.0482 9.98247 32.0336 10.4376C33.019 10.893 34.1113 11.4691 34.4609 11.7181C34.8161 11.971 35.2455 12.1139 35.4337 12.0417C36.0016 11.8237 35.2144 11.1695 33.1266 10.1243C31.3243 9.22199 30.242 8.94948 30.242 9.39769ZM13.7206 13.2859C12.662 14.3444 11.935 15.2442 11.935 15.4954C11.935 16.1654 12.4065 15.9834 13.0923 15.0489C13.4395 14.5756 14.3145 13.6677 15.0364 13.0311C16.2815 11.9335 16.5012 11.5003 15.8125 11.5003C15.6439 11.5003 14.7027 12.3039 13.7206 13.2859ZM38.5829 15.241C38.5271 15.3311 38.7982 15.9066 39.1849 16.52C39.5717 17.1334 40.1466 18.2434 40.4624 18.9866C40.7785 19.73 41.1648 20.3382 41.321 20.3382C41.766 20.3382 41.6589 19.7164 40.9586 18.2339C39.7531 15.6819 38.9419 14.66 38.5829 15.241ZM9.43826 20.3798C9.07338 21.5224 8.74406 23.7835 8.81624 24.6502C8.92482 25.9532 9.3583 25.7964 9.50496 24.4009C9.57545 23.7288 9.73685 22.6581 9.86353 22.0216C10.1792 20.4356 10.1891 19.8679 9.9033 19.7692C9.76947 19.7229 9.5603 19.9977 9.43826 20.3798ZM41.7189 25.9671C41.6492 26.6324 41.4895 27.6978 41.3641 28.3344C40.9066 30.6566 40.9071 30.649 41.2492 30.649C41.6118 30.649 41.8967 29.8854 42.2252 28.0326C42.5507 26.1981 42.516 24.7571 42.1463 24.7571C41.9354 24.7571 41.8079 25.1182 41.7189 25.9671ZM9.62028 30.3919C9.62028 31.2932 11.8601 35.2784 12.3665 35.2784C12.7369 35.2784 12.57 34.7044 11.8546 33.5163C11.4632 32.8665 10.9314 31.8133 10.6728 31.1762C10.2206 30.062 9.62028 29.6148 9.62028 30.3919ZM36.9113 36.5719C35.383 38.1105 34.932 38.6816 35.1727 38.774C35.7276 38.987 39.2904 35.629 39.2904 34.8933C39.2904 34.3174 38.8224 34.6476 36.9113 36.5719ZM15.6258 38.4211C15.4493 38.7069 16.6485 39.5543 18.4523 40.4177C20.0702 41.1922 20.6533 41.3235 20.8762 40.9631C20.9467 40.849 20.1933 40.381 19.2022 39.9232C18.2111 39.4653 17.1264 38.8956 16.792 38.6574C16.126 38.1833 15.8123 38.1196 15.6258 38.4211ZM29.6457 40.7625C29.3757 40.8709 28.3551 41.0502 27.3777 41.1613C25.5001 41.3747 25.1095 41.4982 25.3061 41.8161C25.6901 42.4377 31.0837 41.5249 31.0837 40.8383C31.0837 40.4993 30.3935 40.4629 29.6457 40.7625Z" fill="#B61112"/>
<circle cx="25.4113" cy="25.3243" r="17.6758" fill="#B61112"/>
<path d="M19.534 32.1659C18.649 32.1659 17.8628 32.0059 17.1754 31.6859C16.488 31.3659 15.9448 30.9254 15.5458 30.3644C15.1507 29.8034 14.9453 29.1595 14.9295 28.4326H17.7739C17.7977 28.879 17.9794 29.2385 18.3191 29.5111C18.6589 29.7797 19.0638 29.914 19.534 29.914C19.9014 29.914 20.2273 29.8331 20.5118 29.6711C20.7962 29.5091 21.0194 29.2819 21.1814 28.9896C21.3434 28.6933 21.4224 28.3535 21.4184 27.9703C21.4224 27.5792 21.3414 27.2375 21.1755 26.9451C21.0135 26.6528 20.7883 26.4256 20.4999 26.2636C20.2155 26.0977 19.8876 26.0147 19.5162 26.0147C19.1646 26.0108 18.8308 26.0878 18.5147 26.2459C18.2026 26.4039 17.9656 26.6192 17.8036 26.8918L15.2139 26.4059L15.7413 19.8636H23.5281V22.228H18.1532L17.8747 25.0903H17.9458C18.1473 24.7545 18.4712 24.4779 18.9177 24.2606C19.368 24.0394 19.8797 23.9288 20.4525 23.9288C21.1794 23.9288 21.8273 24.0987 22.3962 24.4384C22.9691 24.7742 23.4194 25.2404 23.7474 25.837C24.0792 26.4335 24.2451 27.117 24.2451 27.8874C24.2451 28.7209 24.0476 29.4597 23.6525 30.1037C23.2614 30.7476 22.7123 31.2533 22.0051 31.6207C21.3019 31.9842 20.4782 32.1659 19.534 32.1659ZM25.8792 32V19.8636H28.8126V24.9955H28.9726L32.9845 19.8636H36.4394L32.1371 25.2799L36.5164 32H33.0082L29.9859 27.2296L28.8126 28.7111V32H25.8792Z" fill="white"/>
</svg>
