<svg width="12" height="12" viewBox="0 0 12 12" fill="none" xmlns="http://www.w3.org/2000/svg">
<path d="M3.28875 12V11.25H5.625V8.4345C4.9835 8.3835 4.3935 8.12175 3.855 7.64925C3.3155 7.17675 2.98625 6.62425 2.86725 5.99175C2.07425 5.89825 1.398 5.573 0.838501 5.016C0.279001 4.459 -0.00049933 3.787 6.69643e-07 3V1.5H2.7405V0H9.2595V1.5H12V3C12 3.7865 11.7205 4.4585 11.1615 5.016C10.6025 5.5735 9.92625 5.8985 9.13275 5.991C9.01375 6.624 8.68475 7.17675 8.14575 7.64925C7.60675 8.12175 7.0165 8.3835 6.375 8.4345V11.25H8.712V12H3.28875ZM2.7405 5.187V2.25H0.750001V3C0.750001 3.571 0.940501 4.06175 1.3215 4.47225C1.7025 4.88275 2.1755 5.121 2.7405 5.187ZM9.2595 5.187C9.825 5.1205 10.2983 4.882 10.6793 4.4715C11.0603 4.061 11.2505 3.5705 11.25 3V2.25H9.2595V5.187Z" fill="#F8F8F8"/>
</svg>
