<svg xmlns="http://www.w3.org/2000/svg" width="128" height="128" fill="none" viewBox="0 0 128 128"><path fill="#525252" d="M64.02 111.03C38.28 111.03 17 89.75 17 64.02 17 38.23 38.23 17 63.97 17c25.78 0 47.06 21.23 47.06 47.02 0 25.73-21.28 47.01-47.01 47.01Zm0-6.1a40.88 40.88 0 0 0 40.96-40.91 40.93 40.93 0 0 0-41.01-40.97 40.84 40.84 0 0 0-40.88 40.97 40.84 40.84 0 0 0 40.93 40.92ZM47.66 83.38a2.94 2.94 0 0 1-2.96-2.95c0-.8.28-1.5.9-2.06l14.24-14.3L45.6 49.81c-.6-.6-.89-1.31-.89-2.1a2.86 2.86 0 0 1 2.96-2.87c.84 0 1.5.28 2.1.9l14.2 14.2 14.35-14.2a2.7 2.7 0 0 1 2.06-.99 2.93 2.93 0 0 1 2.07 5.02l-14.3 14.3L82.4 78.3c.61.61.94 1.27.94 2.11a2.94 2.94 0 0 1-5.11 2.02l-14.25-14.2-14.16 14.2c-.6.6-1.31.94-2.15.94Z"/></svg>