<svg _ngcontent-ng-c2253718900="" fill="currentColor" viewBox="0 0 96 96" class="svg-icon"><title _ngcontent-ng-c2253718900=""></title><path _ngcontent-ng-c2253718900="" fill="currentColor" clip-rule="evenodd" d="M82.013 45.482c-3.172-11.05-9.322-20.4-17.525-27.42L64.41 18h13.6V6H18.005v12h17.521c-.35 11.428-3.087 22.136-7.725 31.752l.204-.47c-2.08-.802-4.483-1.27-6.997-1.282h-.006C9.402 47.999 0 57.402 0 69.001 0 80.6 9.403 90.003 21.002 90.003c11.6 0 21.002-9.403 21.002-21.002a20.707 20.707 0 0 0-4.395-12.727l.035.045c5.542-10.36 9.061-22.562 9.712-35.52l.01-.205c10.572 5.617 18.595 14.86 22.502 26.034l.099.33c-5.914 3.021-9.892 9.07-9.892 16.045 0 9.92 8.04 17.963 17.962 17.963S96 72.926 96 63.003c0-8.526-5.94-15.664-13.91-17.503l-.12-.024.043.006Z" fill-rule="evenodd"></path></svg>