<svg width="18" height="17" viewBox="0 0 18 17" fill="none" xmlns="http://www.w3.org/2000/svg">
<rect x="0.759277" width="17" height="17" rx="8.5" fill="#1A2C38"/>
<path fill-rule="evenodd" clip-rule="evenodd" d="M8.40278 2.50944C5.6493 2.50944 3.41716 4.74158 3.41716 7.49507C3.41716 10.2486 5.6493 12.4807 8.40278 12.4807C11.1563 12.4807 13.3884 10.2486 13.3884 7.49507C13.3884 4.74158 11.1563 2.50944 8.40278 2.50944ZM2.00049 7.49507C2.00049 3.95918 4.86689 1.09277 8.40278 1.09277C11.9387 1.09277 14.8051 3.95918 14.8051 7.49507C14.8051 11.031 11.9387 13.8974 8.40278 13.8974C4.86689 13.8974 2.00049 11.031 2.00049 7.49507Z" fill="#41697E"/>
<path opacity="0.4" fill-rule="evenodd" clip-rule="evenodd" d="M12.2895 10.6865L16.5179 14.904L15.5175 15.907L11.2891 11.6896L12.2895 10.6865Z" fill="#41697E"/>
</svg>
