<?xml version="1.0" encoding="utf-8"?>
<!-- Generator: Adobe Illustrator 16.0.0, SVG Export Plug-In . SVG Version: 6.00 Build 0)  -->
<!DOCTYPE svg PUBLIC "-//W3C//DTD SVG 1.1//EN" "http://www.w3.org/Graphics/SVG/1.1/DTD/svg11.dtd">
<svg version="1.1" id="Layer_1" xmlns="http://www.w3.org/2000/svg" xmlns:xlink="http://www.w3.org/1999/xlink" x="0px" y="0px"
	 width="1000px" height="200px" viewBox="0 0 1000 200" enable-background="new 0 0 1000 200" xml:space="preserve">
<g>
	<g>
		<defs>
			<path id="SVGID_1_" d="M92.563,28.625v112.934c-2.6,0.38-5.56,0.701-8.904,0.979c-3.335,0.285-6.497,0.424-9.457,0.424
				c-9.645,0-16.233-2.969-19.75-8.908c-3.522-5.93-5.291-15.583-5.291-28.929v-76.5H7.715v81.508
				c0,10.014,1.019,19.201,3.062,27.544c2.032,8.342,5.472,15.525,10.288,21.545c4.824,6.037,11.359,10.712,19.615,14.057
				c8.255,3.349,18.592,5.007,31.018,5.007c12.239,0,23.921-0.883,35.055-2.639c11.124-1.758,20.211-3.66,27.265-5.713V28.625
				H92.563z"/>
		</defs>
		<linearGradient id="SVGID_2_" gradientUnits="userSpaceOnUse" x1="7.7153" y1="103.4551" x2="134.0176" y2="103.4551">
			<stop  offset="0" style="stop-color:#EA008A"/>
			<stop  offset="0.0013" style="stop-color:#EA008A"/>
			<stop  offset="1" style="stop-color:#672D8F"/>
		</linearGradient>
		<use xlink:href="#SVGID_1_"  overflow="visible" fill="url(#SVGID_2_)"/>
		<clipPath id="SVGID_3_">
			<use xlink:href="#SVGID_1_"  overflow="visible"/>
		</clipPath>
		<linearGradient id="SVGID_4_" gradientUnits="userSpaceOnUse" x1="7.7153" y1="103.4551" x2="134.0176" y2="103.4551">
			<stop  offset="0" style="stop-color:#EA008A"/>
			<stop  offset="0.0013" style="stop-color:#EA008A"/>
			<stop  offset="1" style="stop-color:#672D8F"/>
		</linearGradient>
		<rect x="7.715" y="28.625" clip-path="url(#SVGID_3_)" fill="url(#SVGID_4_)" width="126.302" height="149.66"/>
	</g>
	<g>
		<defs>
			<path id="SVGID_5_" d="M172.133,27.587c-11.133,1.773-20.221,3.661-27.27,5.708v141.314h41.455V61.671
				c2.595-0.365,5.555-0.697,8.899-0.976c3.335-0.278,6.487-0.423,9.457-0.423c9.639,0,16.223,2.787,19.75,8.347
				c3.527,5.57,5.286,15.031,5.286,28.385v77.605h41.45V91.997c0-10.023-1.019-19.1-3.056-27.265
				c-2.047-8.16-5.469-15.204-10.298-21.153c-4.82-5.925-11.354-10.514-19.61-13.762c-8.255-3.244-18.596-4.864-31.018-4.864
				C194.939,24.954,183.252,25.829,172.133,27.587"/>
		</defs>
		<linearGradient id="SVGID_6_" gradientUnits="userSpaceOnUse" x1="144.8628" y1="99.7813" x2="271.1602" y2="99.7813">
			<stop  offset="0" style="stop-color:#EA008A"/>
			<stop  offset="0.0013" style="stop-color:#EA008A"/>
			<stop  offset="1" style="stop-color:#672D8F"/>
		</linearGradient>
		<use xlink:href="#SVGID_5_"  overflow="visible" fill="url(#SVGID_6_)"/>
		<clipPath id="SVGID_7_">
			<use xlink:href="#SVGID_5_"  overflow="visible"/>
		</clipPath>
		<linearGradient id="SVGID_8_" gradientUnits="userSpaceOnUse" x1="144.8628" y1="99.7813" x2="271.1602" y2="99.7813">
			<stop  offset="0" style="stop-color:#EA008A"/>
			<stop  offset="0.0013" style="stop-color:#EA008A"/>
			<stop  offset="1" style="stop-color:#672D8F"/>
		</linearGradient>
		<rect x="144.863" y="24.954" clip-path="url(#SVGID_7_)" fill="url(#SVGID_8_)" width="126.297" height="149.656"/>
	</g>
	<g>
		<defs>
			<rect id="SVGID_9_" x="288.022" y="26.607" width="41.445" height="146.335"/>
		</defs>
		<linearGradient id="SVGID_10_" gradientUnits="userSpaceOnUse" x1="288.0225" y1="99.7744" x2="329.4673" y2="99.7744">
			<stop  offset="0" style="stop-color:#EA008A"/>
			<stop  offset="0.0013" style="stop-color:#EA008A"/>
			<stop  offset="1" style="stop-color:#672D8F"/>
		</linearGradient>
		<use xlink:href="#SVGID_9_"  overflow="visible" fill="url(#SVGID_10_)"/>
		<clipPath id="SVGID_11_">
			<use xlink:href="#SVGID_9_"  overflow="visible"/>
		</clipPath>
		<linearGradient id="SVGID_12_" gradientUnits="userSpaceOnUse" x1="288.0225" y1="99.7744" x2="329.4673" y2="99.7744">
			<stop  offset="0" style="stop-color:#EA008A"/>
			<stop  offset="0.0013" style="stop-color:#EA008A"/>
			<stop  offset="1" style="stop-color:#672D8F"/>
		</linearGradient>
		<rect x="288.022" y="26.607" clip-path="url(#SVGID_11_)" fill="url(#SVGID_12_)" width="41.445" height="146.335"/>
	</g>
	<g>
		<defs>
			<path id="SVGID_13_" d="M450.82,26.607c-1.855,7.237-4.037,15.079-6.555,23.507c-2.518,8.447-5.112,16.982-7.827,25.603
				c-2.696,8.621-5.435,17.02-8.222,25.169c-2.796,8.169-5.401,15.588-7.813,22.258c-2.619-6.67-5.267-14.089-7.977-22.258
				c-2.701-8.15-5.401-16.549-8.102-25.169c-2.7-8.621-5.305-17.156-7.823-25.603c-2.518-8.428-4.709-16.271-6.563-23.507h-43.959
				c8.746,29.313,18.01,56.395,27.784,81.243c9.774,24.849,19.404,46.559,28.9,65.093h34.391
				c9.486-18.534,19.121-40.244,28.885-65.093c9.755-24.848,19.009-51.93,27.751-81.243H450.82z"/>
		</defs>
		<linearGradient id="SVGID_14_" gradientUnits="userSpaceOnUse" x1="345.9785" y1="99.7744" x2="493.6885" y2="99.7744">
			<stop  offset="0" style="stop-color:#EA008A"/>
			<stop  offset="0.0013" style="stop-color:#EA008A"/>
			<stop  offset="1" style="stop-color:#672D8F"/>
		</linearGradient>
		<use xlink:href="#SVGID_13_"  overflow="visible" fill="url(#SVGID_14_)"/>
		<clipPath id="SVGID_15_">
			<use xlink:href="#SVGID_13_"  overflow="visible"/>
		</clipPath>
		<linearGradient id="SVGID_16_" gradientUnits="userSpaceOnUse" x1="345.9785" y1="99.7744" x2="493.6885" y2="99.7744">
			<stop  offset="0" style="stop-color:#EA008A"/>
			<stop  offset="0.0013" style="stop-color:#EA008A"/>
			<stop  offset="1" style="stop-color:#672D8F"/>
		</linearGradient>
		<rect x="345.979" y="26.607" clip-path="url(#SVGID_15_)" fill="url(#SVGID_16_)" width="147.71" height="146.335"/>
	</g>
	<g>
		<defs>
			<path id="SVGID_17_" d="M534.855,74.602c1.191-3.431,2.912-6.439,5.141-9.043c2.23-2.591,5.008-4.686,8.353-6.262
				c3.315-1.57,7.313-2.359,11.954-2.359c4.82,0,8.862,0.836,12.101,2.508c3.249,1.672,5.93,3.801,8.063,6.401
				c2.134,2.59,3.7,5.555,4.738,8.89c1.008,3.345,1.624,6.775,1.807,10.303h-54.801C532.765,81.512,533.639,78.033,534.855,74.602
				 M533.74,27.726c-8.444,3.34-15.905,8.256-22.411,14.748c-6.479,6.497-11.721,14.604-15.705,24.354
				c-4.002,9.721-5.977,21.086-5.977,34.06c0,10.774,1.524,20.778,4.584,30.053c3.066,9.269,7.784,17.289,14.195,24.064
				c6.381,6.767,14.464,12.104,24.19,15.992c9.745,3.887,21.187,5.844,34.356,5.844c5.2,0,10.39-0.28,15.589-0.836
				c5.186-0.558,10.063-1.25,14.599-2.076c4.551-0.836,8.669-1.826,12.389-2.932c3.7-1.114,6.67-2.215,8.895-3.335l-5.56-33.655
				c-4.632,2.037-10.63,3.748-17.953,5.141c-7.323,1.384-14.776,2.096-22.393,2.096c-11.859,0-21.316-2.508-28.36-7.525
				c-7.064-5.008-11.033-11.778-11.967-20.307h94.031c0.173-2.222,0.365-4.771,0.552-7.65c0.179-2.874,0.284-5.516,0.284-7.929
				c0-24.661-6.045-43.344-18.087-56.054c-12.063-12.701-28.472-19.063-49.244-19.063C550.847,22.714,542.169,24.382,533.74,27.726"
				/>
		</defs>
		<linearGradient id="SVGID_18_" gradientUnits="userSpaceOnUse" x1="489.647" y1="99.7773" x2="627.0781" y2="99.7773">
			<stop  offset="0" style="stop-color:#EA008A"/>
			<stop  offset="0.0013" style="stop-color:#EA008A"/>
			<stop  offset="1" style="stop-color:#672D8F"/>
		</linearGradient>
		<use xlink:href="#SVGID_17_"  overflow="visible" fill="url(#SVGID_18_)"/>
		<clipPath id="SVGID_19_">
			<use xlink:href="#SVGID_17_"  overflow="visible"/>
		</clipPath>
		<linearGradient id="SVGID_20_" gradientUnits="userSpaceOnUse" x1="489.647" y1="99.7773" x2="627.0781" y2="99.7773">
			<stop  offset="0" style="stop-color:#EA008A"/>
			<stop  offset="0.0013" style="stop-color:#EA008A"/>
			<stop  offset="1" style="stop-color:#672D8F"/>
		</linearGradient>
		<rect x="489.647" y="22.714" clip-path="url(#SVGID_19_)" fill="url(#SVGID_20_)" width="137.431" height="154.125"/>
	</g>
	<g>
		<defs>
			<path id="SVGID_21_" d="M667.606,28.567c-10.116,2.311-18.866,4.772-26.271,7.372v138.536h41.436V62.641
				c1.854-0.562,4.589-1.062,8.207-1.522c3.614-0.471,6.737-0.702,9.333-0.702c5.736,0,11.118,0.509,16.126,1.528
				c5.021,1.023,9.351,1.994,13.079,2.921l6.949-34.213c-2.229-0.928-4.92-1.72-8.054-2.355c-3.171-0.663-6.318-1.216-9.471-1.691
				c-3.158-0.452-6.301-0.817-9.463-1.105c-3.141-0.274-5.833-0.418-8.058-0.418C688.989,25.083,677.735,26.251,667.606,28.567"/>
		</defs>
		<linearGradient id="SVGID_22_" gradientUnits="userSpaceOnUse" x1="641.3359" y1="99.7793" x2="736.4658" y2="99.7793">
			<stop  offset="0" style="stop-color:#EA008A"/>
			<stop  offset="0.0013" style="stop-color:#EA008A"/>
			<stop  offset="1" style="stop-color:#672D8F"/>
		</linearGradient>
		<use xlink:href="#SVGID_21_"  overflow="visible" fill="url(#SVGID_22_)"/>
		<clipPath id="SVGID_23_">
			<use xlink:href="#SVGID_21_"  overflow="visible"/>
		</clipPath>
		<linearGradient id="SVGID_24_" gradientUnits="userSpaceOnUse" x1="641.3359" y1="99.7793" x2="736.4658" y2="99.7793">
			<stop  offset="0" style="stop-color:#EA008A"/>
			<stop  offset="0.0013" style="stop-color:#EA008A"/>
			<stop  offset="1" style="stop-color:#672D8F"/>
		</linearGradient>
		<rect x="641.336" y="25.083" clip-path="url(#SVGID_23_)" fill="url(#SVGID_24_)" width="95.13" height="149.391"/>
	</g>
	<g>
		<defs>
			<path id="SVGID_25_" d="M758.652,34.68c-10.192,7.981-15.306,18.827-15.306,32.55c0,7.054,1.02,13.08,3.071,18.088
				c2.042,4.997,4.915,9.317,8.619,12.935c3.711,3.608,8.212,6.718,13.499,9.318c5.286,2.6,11.157,5.099,17.655,7.51
				c8.347,3.153,14.56,5.988,18.654,8.491c4.063,2.495,6.121,5.406,6.121,8.751c0,4.271-1.586,7.15-4.733,8.63
				c-3.166,1.489-8.529,2.221-16.142,2.221c-7.24,0-14.56-0.788-21.988-2.364c-7.414-1.572-14.637-3.754-21.686-6.525l-6.958,33.656
				c3.344,1.479,9.326,3.328,17.947,5.554c8.625,2.221,19.423,3.346,32.417,3.346c19.841,0,35.184-3.7,46.016-11.096
				c10.859-7.41,16.293-18.334,16.293-32.762c0-6.1-0.696-11.476-2.095-16.104c-1.379-4.623-3.801-8.822-7.226-12.628
				c-3.432-3.782-8.107-7.333-14.048-10.601c-5.948-3.262-13.443-6.583-22.531-9.946c-4.455-1.682-8.125-3.23-10.989-4.632
				c-2.883-1.394-5.152-2.701-6.814-3.902c-1.682-1.211-2.787-2.46-3.344-3.768c-0.563-1.288-0.841-2.783-0.841-4.45
				c0-7.227,6.491-10.845,19.485-10.845c7.044,0,13.388,0.649,19.043,1.946c5.651,1.298,10.894,2.788,15.729,4.45l7.218-32.272
				c-4.815-1.855-11.293-3.565-19.473-5.146c-8.148-1.571-16.678-2.369-25.578-2.369C782.852,22.714,768.854,26.713,758.652,34.68"
				/>
		</defs>
		<linearGradient id="SVGID_26_" gradientUnits="userSpaceOnUse" x1="739.46" y1="99.7773" x2="852.1328" y2="99.7773">
			<stop  offset="0" style="stop-color:#EA008A"/>
			<stop  offset="0.0013" style="stop-color:#EA008A"/>
			<stop  offset="1" style="stop-color:#672D8F"/>
		</linearGradient>
		<use xlink:href="#SVGID_25_"  overflow="visible" fill="url(#SVGID_26_)"/>
		<clipPath id="SVGID_27_">
			<use xlink:href="#SVGID_25_"  overflow="visible"/>
		</clipPath>
		<linearGradient id="SVGID_28_" gradientUnits="userSpaceOnUse" x1="739.46" y1="99.7773" x2="852.1328" y2="99.7773">
			<stop  offset="0" style="stop-color:#EA008A"/>
			<stop  offset="0.0013" style="stop-color:#EA008A"/>
			<stop  offset="1" style="stop-color:#672D8F"/>
		</linearGradient>
		<rect x="739.46" y="22.714" clip-path="url(#SVGID_27_)" fill="url(#SVGID_28_)" width="112.673" height="154.125"/>
	</g>
	<g>
		<defs>
			<path id="SVGID_29_" d="M900.066,74.602c1.201-3.431,2.921-6.439,5.138-9.043c2.219-2.591,5.012-4.686,8.351-6.262
				c3.331-1.57,7.328-2.359,11.966-2.359c4.819,0,8.86,0.836,12.104,2.508c3.237,1.672,5.924,3.801,8.054,6.401
				c2.143,2.59,3.719,5.555,4.732,8.89c1.022,3.345,1.62,6.775,1.821,10.303h-54.809C897.972,81.512,898.86,78.033,900.066,74.602
				 M898.942,27.726c-8.434,3.34-15.906,8.256-22.383,14.748c-6.497,6.497-11.735,14.604-15.723,24.354
				c-3.994,9.721-5.988,21.086-5.988,34.06c0,10.774,1.537,20.778,4.593,30.053c3.077,9.269,7.785,17.289,14.191,24.064
				c6.395,6.767,14.469,12.104,24.199,15.992c9.744,3.887,21.191,5.844,34.354,5.844c5.204,0,10.395-0.28,15.593-0.836
				c5.189-0.558,10.058-1.25,14.604-2.076c4.535-0.836,8.659-1.826,12.368-2.932c3.71-1.114,6.69-2.215,8.918-3.335l-5.573-33.655
				c-4.638,2.037-10.62,3.748-17.942,5.141c-7.315,1.384-14.801,2.096-22.398,2.096c-11.864,0-21.316-2.508-28.365-7.525
				c-7.045-5.008-11.042-11.778-11.965-20.307h94.02c0.183-2.222,0.385-4.771,0.571-7.65c0.174-2.874,0.271-5.516,0.271-7.929
				c0-24.661-6.041-43.344-18.073-56.054c-12.081-12.701-28.495-19.063-49.244-19.063C916.059,22.714,907.389,24.382,898.942,27.726
				"/>
		</defs>
		<linearGradient id="SVGID_30_" gradientUnits="userSpaceOnUse" x1="854.8486" y1="99.7773" x2="992.2852" y2="99.7773">
			<stop  offset="0" style="stop-color:#EA008A"/>
			<stop  offset="0.0013" style="stop-color:#EA008A"/>
			<stop  offset="1" style="stop-color:#672D8F"/>
		</linearGradient>
		<use xlink:href="#SVGID_29_"  overflow="visible" fill="url(#SVGID_30_)"/>
		<clipPath id="SVGID_31_">
			<use xlink:href="#SVGID_29_"  overflow="visible"/>
		</clipPath>
		<linearGradient id="SVGID_32_" gradientUnits="userSpaceOnUse" x1="854.8486" y1="99.7773" x2="992.2852" y2="99.7773">
			<stop  offset="0" style="stop-color:#EA008A"/>
			<stop  offset="0.0013" style="stop-color:#EA008A"/>
			<stop  offset="1" style="stop-color:#672D8F"/>
		</linearGradient>
		<rect x="854.849" y="22.714" clip-path="url(#SVGID_31_)" fill="url(#SVGID_32_)" width="137.437" height="154.125"/>
	</g>
</g>
</svg>
